<svg xmlns="http://www.w3.org/2000/svg" width="900" height="640" viewBox="0 0 900 640">
<title>Guillotine score=0.25 saved=9 n=12</title>
<rect width="100%" height="100%" fill="#ffffff"/>
<rect x="101.703" y="491.582" width="69.659" height="85.791" fill="#38bdf8" fill-opacity="0.34" stroke="#075985" stroke-width="1.4"/>
<text x="101.703" y="491.582" font-size="13" font-family="monospace" fill="#111827">0</text>
<rect x="101.703" y="320" width="69.659" height="42.895" fill="#38bdf8" fill-opacity="0.34" stroke="#075985" stroke-width="1.4"/>
<text x="101.703" y="320" font-size="13" font-family="monospace" fill="#111827">1</text>
<rect x="101.703" y="62.627" width="139.319" height="171.582" fill="#38bdf8" fill-opacity="0.34" stroke="#075985" stroke-width="1.4"/>
<text x="101.703" y="62.627" font-size="13" font-family="monospace" fill="#111827">2</text>
<rect x="101.703" y="362.895" width="208.978" height="128.686" fill="#38bdf8" fill-opacity="0.34" stroke="#075985" stroke-width="1.4"/>
<text x="101.703" y="362.895" font-size="13" font-family="monospace" fill="#111827">3</text>
<rect x="101.703" y="277.105" width="348.297" height="42.895" fill="#38bdf8" fill-opacity="0.34" stroke="#075985" stroke-width="1.4"/>
<text x="101.703" y="277.105" font-size="13" font-family="monospace" fill="#111827">4</text>
<rect x="171.362" y="320" width="278.638" height="42.895" fill="#38bdf8" fill-opacity="0.34" stroke="#075985" stroke-width="1.4"/>
<text x="171.362" y="320" font-size="13" font-family="monospace" fill="#111827">5</text>
<rect x="241.022" y="534.477" width="487.616" height="42.895" fill="#38bdf8" fill-opacity="0.34" stroke="#075985" stroke-width="1.4"/>
<text x="241.022" y="534.477" font-size="13" font-family="monospace" fill="#111827">6</text>
<rect x="241.022" y="105.523" width="557.276" height="42.895" fill="#38bdf8" fill-opacity="0.34" stroke="#075985" stroke-width="1.4"/>
<text x="241.022" y="105.523" font-size="13" font-family="monospace" fill="#111827">7</text>
<rect x="310.681" y="405.791" width="69.659" height="128.686" fill="#38bdf8" fill-opacity="0.34" stroke="#075985" stroke-width="1.4"/>
<text x="310.681" y="405.791" font-size="13" font-family="monospace" fill="#111827">8</text>
<rect x="380.341" y="448.686" width="348.297" height="42.895" fill="#38bdf8" fill-opacity="0.34" stroke="#075985" stroke-width="1.4"/>
<text x="380.341" y="448.686" font-size="13" font-family="monospace" fill="#111827">9</text>
<rect x="519.659" y="191.314" width="69.659" height="257.373" fill="#38bdf8" fill-opacity="0.34" stroke="#075985" stroke-width="1.4"/>
<text x="519.659" y="191.314" font-size="13" font-family="monospace" fill="#111827">10</text>
<rect x="589.319" y="191.314" width="69.659" height="257.373" fill="#38bdf8" fill-opacity="0.34" stroke="#075985" stroke-width="1.4"/>
<text x="589.319" y="191.314" font-size="13" font-family="monospace" fill="#111827">11</text>
<line x1="241.022" y1="640" x2="241.022" y2="0" stroke="#7c3aed" stroke-width="1.5" stroke-dasharray="8 5"/>
<line x1="0" y1="491.582" x2="241.022" y2="491.582" stroke="#7c3aed" stroke-width="1.5" stroke-dasharray="8 5"/>
<line x1="0" y1="320" x2="241.022" y2="320" stroke="#7c3aed" stroke-width="1.5" stroke-dasharray="8 5"/>
<line x1="241.022" y1="534.477" x2="900" y2="534.477" stroke="#7c3aed" stroke-width="1.5" stroke-dasharray="8 5"/>
<line x1="241.022" y1="191.314" x2="900" y2="191.314" stroke="#7c3aed" stroke-width="1.5" stroke-dasharray="8 5"/>
<line x1="380.341" y1="534.477" x2="380.341" y2="191.314" stroke="#7c3aed" stroke-width="1.5" stroke-dasharray="8 5"/>
<line x1="380.341" y1="448.686" x2="900" y2="448.686" stroke="#7c3aed" stroke-width="1.5" stroke-dasharray="8 5"/>
<line x1="589.319" y1="448.686" x2="589.319" y2="191.314" stroke="#7c3aed" stroke-width="1.5" stroke-dasharray="8 5"/>
</svg>
