<svg xmlns="http://www.w3.org/2000/svg" width="900" height="640" viewBox="0 0 900 640">
<title>Guillotine score=0.25 saved=6 n=8</title>
<rect width="100%" height="100%" fill="#ffffff"/>
<rect x="95.979" y="353.898" width="78.671" height="203.39" fill="#38bdf8" fill-opacity="0.34" stroke="#075985" stroke-width="1.4"/>
<text x="95.979" y="353.898" font-size="13" font-family="monospace" fill="#111827">0</text>
<rect x="95.979" y="150.508" width="236.014" height="203.39" fill="#38bdf8" fill-opacity="0.34" stroke="#075985" stroke-width="1.4"/>
<text x="95.979" y="150.508" font-size="13" font-family="monospace" fill="#111827">1</text>
<rect x="253.322" y="489.492" width="236.014" height="67.797" fill="#38bdf8" fill-opacity="0.34" stroke="#075985" stroke-width="1.4"/>
<text x="253.322" y="489.492" font-size="13" font-family="monospace" fill="#111827">2</text>
<rect x="253.322" y="421.695" width="393.357" height="67.797" fill="#38bdf8" fill-opacity="0.34" stroke="#075985" stroke-width="1.4"/>
<text x="253.322" y="421.695" font-size="13" font-family="monospace" fill="#111827">3</text>
<rect x="331.993" y="82.712" width="78.671" height="338.983" fill="#38bdf8" fill-opacity="0.34" stroke="#075985" stroke-width="1.4"/>
<text x="331.993" y="82.712" font-size="13" font-family="monospace" fill="#111827">4</text>
<rect x="410.664" y="286.102" width="236.014" height="135.593" fill="#38bdf8" fill-opacity="0.34" stroke="#075985" stroke-width="1.4"/>
<text x="410.664" y="286.102" font-size="13" font-family="monospace" fill="#111827">5</text>
<rect x="568.007" y="150.508" width="236.014" height="67.797" fill="#38bdf8" fill-opacity="0.34" stroke="#075985" stroke-width="1.4"/>
<text x="568.007" y="150.508" font-size="13" font-family="monospace" fill="#111827">6</text>
<rect x="725.35" y="286.102" width="78.671" height="203.39" fill="#38bdf8" fill-opacity="0.34" stroke="#075985" stroke-width="1.4"/>
<text x="725.35" y="286.102" font-size="13" font-family="monospace" fill="#111827">7</text>
<line x1="174.65" y1="640" x2="174.65" y2="0" stroke="#7c3aed" stroke-width="1.5" stroke-dasharray="8 5"/>
<line x1="646.678" y1="640" x2="646.678" y2="0" stroke="#7c3aed" stroke-width="1.5" stroke-dasharray="8 5"/>
<line x1="174.65" y1="489.492" x2="646.678" y2="489.492" stroke="#7c3aed" stroke-width="1.5" stroke-dasharray="8 5"/>
<line x1="174.65" y1="421.695" x2="646.678" y2="421.695" stroke="#7c3aed" stroke-width="1.5" stroke-dasharray="8 5"/>
<line x1="410.664" y1="421.695" x2="410.664" y2="0" stroke="#7c3aed" stroke-width="1.5" stroke-dasharray="8 5"/>
</svg>
