<svg xmlns="http://www.w3.org/2000/svg" width="900" height="640" viewBox="0 0 900 640">
<title>Guillotine score=0.2 saved=8 n=10</title>
<rect width="100%" height="100%" fill="#ffffff"/>
<rect x="116.314" y="403.916" width="190.678" height="167.832" fill="#38bdf8" fill-opacity="0.34" stroke="#075985" stroke-width="1.4"/>
<text x="116.314" y="403.916" font-size="13" font-family="monospace" fill="#111827">0</text>
<rect x="116.314" y="292.028" width="95.339" height="55.944" fill="#38bdf8" fill-opacity="0.34" stroke="#075985" stroke-width="1.4"/>
<text x="116.314" y="292.028" font-size="13" font-family="monospace" fill="#111827">1</text>
<rect x="116.314" y="180.14" width="381.356" height="111.888" fill="#38bdf8" fill-opacity="0.34" stroke="#075985" stroke-width="1.4"/>
<text x="116.314" y="180.14" font-size="13" font-family="monospace" fill="#111827">2</text>
<rect x="211.653" y="292.028" width="286.017" height="55.944" fill="#38bdf8" fill-opacity="0.34" stroke="#075985" stroke-width="1.4"/>
<text x="211.653" y="292.028" font-size="13" font-family="monospace" fill="#111827">3</text>
<rect x="306.992" y="403.916" width="95.339" height="167.832" fill="#38bdf8" fill-opacity="0.34" stroke="#075985" stroke-width="1.4"/>
<text x="306.992" y="403.916" font-size="13" font-family="monospace" fill="#111827">4</text>
<rect x="306.992" y="68.252" width="286.017" height="55.944" fill="#38bdf8" fill-opacity="0.34" stroke="#075985" stroke-width="1.4"/>
<text x="306.992" y="68.252" font-size="13" font-family="monospace" fill="#111827">5</text>
<rect x="402.331" y="515.804" width="286.017" height="55.944" fill="#38bdf8" fill-opacity="0.34" stroke="#075985" stroke-width="1.4"/>
<text x="402.331" y="515.804" font-size="13" font-family="monospace" fill="#111827">6</text>
<rect x="497.669" y="236.084" width="190.678" height="223.776" fill="#38bdf8" fill-opacity="0.34" stroke="#075985" stroke-width="1.4"/>
<text x="497.669" y="236.084" font-size="13" font-family="monospace" fill="#111827">7</text>
<rect x="593.008" y="68.252" width="190.678" height="167.832" fill="#38bdf8" fill-opacity="0.34" stroke="#075985" stroke-width="1.4"/>
<text x="593.008" y="68.252" font-size="13" font-family="monospace" fill="#111827">8</text>
<rect x="688.347" y="236.084" width="95.339" height="335.664" fill="#38bdf8" fill-opacity="0.34" stroke="#075985" stroke-width="1.4"/>
<text x="688.347" y="236.084" font-size="13" font-family="monospace" fill="#111827">9</text>
<line x1="306.992" y1="640" x2="306.992" y2="0" stroke="#7c3aed" stroke-width="1.5" stroke-dasharray="8 5"/>
<line x1="0" y1="403.916" x2="306.992" y2="403.916" stroke="#7c3aed" stroke-width="1.5" stroke-dasharray="8 5"/>
<line x1="306.992" y1="236.084" x2="900" y2="236.084" stroke="#7c3aed" stroke-width="1.5" stroke-dasharray="8 5"/>
<line x1="402.331" y1="640" x2="402.331" y2="236.084" stroke="#7c3aed" stroke-width="1.5" stroke-dasharray="8 5"/>
<line x1="688.347" y1="640" x2="688.347" y2="236.084" stroke="#7c3aed" stroke-width="1.5" stroke-dasharray="8 5"/>
<line x1="402.331" y1="515.804" x2="688.347" y2="515.804" stroke="#7c3aed" stroke-width="1.5" stroke-dasharray="8 5"/>
<line x1="593.008" y1="236.084" x2="593.008" y2="0" stroke="#7c3aed" stroke-width="1.5" stroke-dasharray="8 5"/>
</svg>
