<svg xmlns="http://www.w3.org/2000/svg" width="900" height="640" viewBox="0 0 900 640">
<title>Guillotine score=0.16666666666666666 saved=20 n=24</title>
<rect width="100%" height="100%" fill="#ffffff"/>
<rect x="76.084" y="491.306" width="32.514" height="68.522" fill="#38bdf8" fill-opacity="0.34" stroke="#075985" stroke-width="1.4"/>
<text x="76.084" y="491.306" font-size="13" font-family="monospace" fill="#111827">0</text>
<rect x="76.084" y="388.522" width="65.029" height="68.522" fill="#38bdf8" fill-opacity="0.34" stroke="#075985" stroke-width="1.4"/>
<text x="76.084" y="388.522" font-size="13" font-family="monospace" fill="#111827">1</text>
<rect x="108.598" y="525.567" width="65.029" height="34.261" fill="#38bdf8" fill-opacity="0.34" stroke="#075985" stroke-width="1.4"/>
<text x="108.598" y="525.567" font-size="13" font-family="monospace" fill="#111827">2</text>
<rect x="141.113" y="388.522" width="32.514" height="102.784" fill="#38bdf8" fill-opacity="0.34" stroke="#075985" stroke-width="1.4"/>
<text x="141.113" y="388.522" font-size="13" font-family="monospace" fill="#111827">3</text>
<rect x="173.627" y="457.045" width="65.029" height="102.784" fill="#38bdf8" fill-opacity="0.34" stroke="#075985" stroke-width="1.4"/>
<text x="173.627" y="457.045" font-size="13" font-family="monospace" fill="#111827">4</text>
<rect x="206.142" y="422.784" width="65.029" height="34.261" fill="#38bdf8" fill-opacity="0.34" stroke="#075985" stroke-width="1.4"/>
<text x="206.142" y="422.784" font-size="13" font-family="monospace" fill="#111827">5</text>
<rect x="206.142" y="320" width="32.514" height="68.522" fill="#38bdf8" fill-opacity="0.34" stroke="#075985" stroke-width="1.4"/>
<text x="206.142" y="320" font-size="13" font-family="monospace" fill="#111827">6</text>
<rect x="238.656" y="525.567" width="32.514" height="34.261" fill="#38bdf8" fill-opacity="0.34" stroke="#075985" stroke-width="1.4"/>
<text x="238.656" y="525.567" font-size="13" font-family="monospace" fill="#111827">7</text>
<rect x="238.656" y="491.306" width="65.029" height="34.261" fill="#38bdf8" fill-opacity="0.34" stroke="#075985" stroke-width="1.4"/>
<text x="238.656" y="491.306" font-size="13" font-family="monospace" fill="#111827">8</text>
<rect x="271.171" y="525.567" width="32.514" height="34.261" fill="#38bdf8" fill-opacity="0.34" stroke="#075985" stroke-width="1.4"/>
<text x="271.171" y="525.567" font-size="13" font-family="monospace" fill="#111827">9</text>
<rect x="303.685" y="388.522" width="32.514" height="102.784" fill="#38bdf8" fill-opacity="0.34" stroke="#075985" stroke-width="1.4"/>
<text x="303.685" y="388.522" font-size="13" font-family="monospace" fill="#111827">10</text>
<rect x="303.685" y="251.478" width="97.543" height="68.522" fill="#38bdf8" fill-opacity="0.34" stroke="#075985" stroke-width="1.4"/>
<text x="303.685" y="251.478" font-size="13" font-family="monospace" fill="#111827">11</text>
<rect x="336.199" y="457.045" width="97.543" height="34.261" fill="#38bdf8" fill-opacity="0.34" stroke="#075985" stroke-width="1.4"/>
<text x="336.199" y="457.045" font-size="13" font-family="monospace" fill="#111827">12</text>
<rect x="368.714" y="148.694" width="97.543" height="34.261" fill="#38bdf8" fill-opacity="0.34" stroke="#075985" stroke-width="1.4"/>
<text x="368.714" y="148.694" font-size="13" font-family="monospace" fill="#111827">13</text>
<rect x="401.228" y="217.216" width="32.514" height="239.829" fill="#38bdf8" fill-opacity="0.34" stroke="#075985" stroke-width="1.4"/>
<text x="401.228" y="217.216" font-size="13" font-family="monospace" fill="#111827">14</text>
<rect x="433.743" y="285.739" width="97.543" height="102.784" fill="#38bdf8" fill-opacity="0.34" stroke="#075985" stroke-width="1.4"/>
<text x="433.743" y="285.739" font-size="13" font-family="monospace" fill="#111827">15</text>
<rect x="498.772" y="148.694" width="32.514" height="137.045" fill="#38bdf8" fill-opacity="0.34" stroke="#075985" stroke-width="1.4"/>
<text x="498.772" y="148.694" font-size="13" font-family="monospace" fill="#111827">16</text>
<rect x="563.801" y="148.694" width="32.514" height="205.567" fill="#38bdf8" fill-opacity="0.34" stroke="#075985" stroke-width="1.4"/>
<text x="563.801" y="148.694" font-size="13" font-family="monospace" fill="#111827">17</text>
<rect x="563.801" y="80.171" width="130.058" height="34.261" fill="#38bdf8" fill-opacity="0.34" stroke="#075985" stroke-width="1.4"/>
<text x="563.801" y="80.171" font-size="13" font-family="monospace" fill="#111827">18</text>
<rect x="628.829" y="182.955" width="162.572" height="102.784" fill="#38bdf8" fill-opacity="0.34" stroke="#075985" stroke-width="1.4"/>
<text x="628.829" y="182.955" font-size="13" font-family="monospace" fill="#111827">19</text>
<rect x="661.344" y="285.739" width="65.029" height="205.567" fill="#38bdf8" fill-opacity="0.34" stroke="#075985" stroke-width="1.4"/>
<text x="661.344" y="285.739" font-size="13" font-family="monospace" fill="#111827">20</text>
<rect x="693.858" y="80.171" width="65.029" height="102.784" fill="#38bdf8" fill-opacity="0.34" stroke="#075985" stroke-width="1.4"/>
<text x="693.858" y="80.171" font-size="13" font-family="monospace" fill="#111827">21</text>
<rect x="758.887" y="422.784" width="65.029" height="68.522" fill="#38bdf8" fill-opacity="0.34" stroke="#075985" stroke-width="1.4"/>
<text x="758.887" y="422.784" font-size="13" font-family="monospace" fill="#111827">22</text>
<rect x="791.402" y="182.955" width="32.514" height="239.829" fill="#38bdf8" fill-opacity="0.34" stroke="#075985" stroke-width="1.4"/>
<text x="791.402" y="182.955" font-size="13" font-family="monospace" fill="#111827">23</text>
<line x1="173.627" y1="640" x2="173.627" y2="0" stroke="#7c3aed" stroke-width="1.5" stroke-dasharray="8 5"/>
<line x1="0" y1="491.306" x2="173.627" y2="491.306" stroke="#7c3aed" stroke-width="1.5" stroke-dasharray="8 5"/>
<line x1="108.598" y1="640" x2="108.598" y2="491.306" stroke="#7c3aed" stroke-width="1.5" stroke-dasharray="8 5"/>
<line x1="141.113" y1="491.306" x2="141.113" y2="0" stroke="#7c3aed" stroke-width="1.5" stroke-dasharray="8 5"/>
<line x1="303.685" y1="640" x2="303.685" y2="0" stroke="#7c3aed" stroke-width="1.5" stroke-dasharray="8 5"/>
<line x1="173.627" y1="457.045" x2="303.685" y2="457.045" stroke="#7c3aed" stroke-width="1.5" stroke-dasharray="8 5"/>
<line x1="238.656" y1="640" x2="238.656" y2="457.045" stroke="#7c3aed" stroke-width="1.5" stroke-dasharray="8 5"/>
<line x1="238.656" y1="525.567" x2="303.685" y2="525.567" stroke="#7c3aed" stroke-width="1.5" stroke-dasharray="8 5"/>
<line x1="271.171" y1="640" x2="271.171" y2="525.567" stroke="#7c3aed" stroke-width="1.5" stroke-dasharray="8 5"/>
<line x1="173.627" y1="422.784" x2="303.685" y2="422.784" stroke="#7c3aed" stroke-width="1.5" stroke-dasharray="8 5"/>
<line x1="336.199" y1="640" x2="336.199" y2="0" stroke="#7c3aed" stroke-width="1.5" stroke-dasharray="8 5"/>
<line x1="433.743" y1="640" x2="433.743" y2="0" stroke="#7c3aed" stroke-width="1.5" stroke-dasharray="8 5"/>
<line x1="336.199" y1="457.045" x2="433.743" y2="457.045" stroke="#7c3aed" stroke-width="1.5" stroke-dasharray="8 5"/>
<line x1="531.286" y1="640" x2="531.286" y2="0" stroke="#7c3aed" stroke-width="1.5" stroke-dasharray="8 5"/>
<line x1="433.743" y1="285.739" x2="531.286" y2="285.739" stroke="#7c3aed" stroke-width="1.5" stroke-dasharray="8 5"/>
<line x1="596.315" y1="640" x2="596.315" y2="0" stroke="#7c3aed" stroke-width="1.5" stroke-dasharray="8 5"/>
<line x1="645.087" y1="640" x2="645.087" y2="0" stroke="#7c3aed" stroke-width="1.5" stroke-dasharray="8 5"/>
<line x1="758.887" y1="640" x2="758.887" y2="0" stroke="#7c3aed" stroke-width="1.5" stroke-dasharray="8 5"/>
<line x1="645.087" y1="285.739" x2="758.887" y2="285.739" stroke="#7c3aed" stroke-width="1.5" stroke-dasharray="8 5"/>
<line x1="758.887" y1="422.784" x2="900" y2="422.784" stroke="#7c3aed" stroke-width="1.5" stroke-dasharray="8 5"/>
</svg>
