<svg xmlns="http://www.w3.org/2000/svg" width="900" height="640" viewBox="0 0 900 640">
<title>Guillotine score=0.17647058823529413 saved=14 n=17</title>
<rect width="100%" height="100%" fill="#ffffff"/>
<rect x="81.902" y="443.393" width="46.012" height="123.393" fill="#38bdf8" fill-opacity="0.34" stroke="#075985" stroke-width="1.4"/>
<text x="81.902" y="443.393" font-size="13" font-family="monospace" fill="#111827">0</text>
<rect x="81.902" y="361.131" width="92.025" height="82.262" fill="#38bdf8" fill-opacity="0.34" stroke="#075985" stroke-width="1.4"/>
<text x="81.902" y="361.131" font-size="13" font-family="monospace" fill="#111827">1</text>
<rect x="127.914" y="525.656" width="92.025" height="41.131" fill="#38bdf8" fill-opacity="0.34" stroke="#075985" stroke-width="1.4"/>
<text x="127.914" y="525.656" font-size="13" font-family="monospace" fill="#111827">2</text>
<rect x="173.926" y="320" width="46.012" height="164.524" fill="#38bdf8" fill-opacity="0.34" stroke="#075985" stroke-width="1.4"/>
<text x="173.926" y="320" font-size="13" font-family="monospace" fill="#111827">3</text>
<rect x="173.926" y="73.213" width="460.123" height="41.131" fill="#38bdf8" fill-opacity="0.34" stroke="#075985" stroke-width="1.4"/>
<text x="173.926" y="73.213" font-size="13" font-family="monospace" fill="#111827">4</text>
<rect x="265.951" y="484.524" width="138.037" height="82.262" fill="#38bdf8" fill-opacity="0.34" stroke="#075985" stroke-width="1.4"/>
<text x="265.951" y="484.524" font-size="13" font-family="monospace" fill="#111827">5</text>
<rect x="265.951" y="237.738" width="46.012" height="164.524" fill="#38bdf8" fill-opacity="0.34" stroke="#075985" stroke-width="1.4"/>
<text x="265.951" y="237.738" font-size="13" font-family="monospace" fill="#111827">6</text>
<rect x="311.963" y="361.131" width="46.012" height="41.131" fill="#38bdf8" fill-opacity="0.34" stroke="#075985" stroke-width="1.4"/>
<text x="311.963" y="361.131" font-size="13" font-family="monospace" fill="#111827">7</text>
<rect x="403.988" y="155.476" width="46.012" height="123.393" fill="#38bdf8" fill-opacity="0.34" stroke="#075985" stroke-width="1.4"/>
<text x="403.988" y="155.476" font-size="13" font-family="monospace" fill="#111827">8</text>
<rect x="450" y="525.656" width="184.049" height="41.131" fill="#38bdf8" fill-opacity="0.34" stroke="#075985" stroke-width="1.4"/>
<text x="450" y="525.656" font-size="13" font-family="monospace" fill="#111827">9</text>
<rect x="450" y="237.738" width="46.012" height="123.393" fill="#38bdf8" fill-opacity="0.34" stroke="#075985" stroke-width="1.4"/>
<text x="450" y="237.738" font-size="13" font-family="monospace" fill="#111827">10</text>
<rect x="450" y="196.607" width="92.025" height="41.131" fill="#38bdf8" fill-opacity="0.34" stroke="#075985" stroke-width="1.4"/>
<text x="450" y="196.607" font-size="13" font-family="monospace" fill="#111827">11</text>
<rect x="496.012" y="320" width="230.061" height="41.131" fill="#38bdf8" fill-opacity="0.34" stroke="#075985" stroke-width="1.4"/>
<text x="496.012" y="320" font-size="13" font-family="monospace" fill="#111827">12</text>
<rect x="542.025" y="361.131" width="92.025" height="123.393" fill="#38bdf8" fill-opacity="0.34" stroke="#075985" stroke-width="1.4"/>
<text x="542.025" y="361.131" font-size="13" font-family="monospace" fill="#111827">13</text>
<rect x="588.037" y="196.607" width="92.025" height="123.393" fill="#38bdf8" fill-opacity="0.34" stroke="#075985" stroke-width="1.4"/>
<text x="588.037" y="196.607" font-size="13" font-family="monospace" fill="#111827">14</text>
<rect x="634.049" y="443.393" width="184.049" height="41.131" fill="#38bdf8" fill-opacity="0.34" stroke="#075985" stroke-width="1.4"/>
<text x="634.049" y="443.393" font-size="13" font-family="monospace" fill="#111827">15</text>
<rect x="772.086" y="278.869" width="46.012" height="123.393" fill="#38bdf8" fill-opacity="0.34" stroke="#075985" stroke-width="1.4"/>
<text x="772.086" y="278.869" font-size="13" font-family="monospace" fill="#111827">16</text>
<line x1="127.914" y1="640" x2="127.914" y2="0" stroke="#7c3aed" stroke-width="1.5" stroke-dasharray="8 5"/>
<line x1="634.049" y1="640" x2="634.049" y2="0" stroke="#7c3aed" stroke-width="1.5" stroke-dasharray="8 5"/>
<line x1="127.914" y1="484.524" x2="634.049" y2="484.524" stroke="#7c3aed" stroke-width="1.5" stroke-dasharray="8 5"/>
<line x1="219.939" y1="640" x2="219.939" y2="484.524" stroke="#7c3aed" stroke-width="1.5" stroke-dasharray="8 5"/>
<line x1="403.988" y1="640" x2="403.988" y2="484.524" stroke="#7c3aed" stroke-width="1.5" stroke-dasharray="8 5"/>
<line x1="127.914" y1="155.476" x2="634.049" y2="155.476" stroke="#7c3aed" stroke-width="1.5" stroke-dasharray="8 5"/>
<line x1="219.939" y1="484.524" x2="219.939" y2="155.476" stroke="#7c3aed" stroke-width="1.5" stroke-dasharray="8 5"/>
<line x1="311.963" y1="484.524" x2="311.963" y2="155.476" stroke="#7c3aed" stroke-width="1.5" stroke-dasharray="8 5"/>
<line x1="357.975" y1="484.524" x2="357.975" y2="155.476" stroke="#7c3aed" stroke-width="1.5" stroke-dasharray="8 5"/>
<line x1="450" y1="484.524" x2="450" y2="155.476" stroke="#7c3aed" stroke-width="1.5" stroke-dasharray="8 5"/>
<line x1="542.025" y1="484.524" x2="542.025" y2="155.476" stroke="#7c3aed" stroke-width="1.5" stroke-dasharray="8 5"/>
<line x1="450" y1="237.738" x2="542.025" y2="237.738" stroke="#7c3aed" stroke-width="1.5" stroke-dasharray="8 5"/>
<line x1="634.049" y1="443.393" x2="900" y2="443.393" stroke="#7c3aed" stroke-width="1.5" stroke-dasharray="8 5"/>
</svg>
