<svg xmlns="http://www.w3.org/2000/svg" width="900" height="640" viewBox="0 0 900 640">
<title>Guillotine score=0.2 saved=8 n=10</title>
<rect width="100%" height="100%" fill="#ffffff"/>
<rect x="94.397" y="405.791" width="64.655" height="128.686" fill="#38bdf8" fill-opacity="0.34" stroke="#075985" stroke-width="1.4"/>
<text x="94.397" y="405.791" font-size="13" font-family="monospace" fill="#111827">0</text>
<rect x="94.397" y="320" width="258.621" height="42.895" fill="#38bdf8" fill-opacity="0.34" stroke="#075985" stroke-width="1.4"/>
<text x="94.397" y="320" font-size="13" font-family="monospace" fill="#111827">1</text>
<rect x="94.397" y="191.314" width="258.621" height="42.895" fill="#38bdf8" fill-opacity="0.34" stroke="#075985" stroke-width="1.4"/>
<text x="94.397" y="191.314" font-size="13" font-family="monospace" fill="#111827">2</text>
<rect x="159.052" y="491.582" width="581.897" height="85.791" fill="#38bdf8" fill-opacity="0.34" stroke="#075985" stroke-width="1.4"/>
<text x="159.052" y="491.582" font-size="13" font-family="monospace" fill="#111827">3</text>
<rect x="159.052" y="362.895" width="64.655" height="128.686" fill="#38bdf8" fill-opacity="0.34" stroke="#075985" stroke-width="1.4"/>
<text x="159.052" y="362.895" font-size="13" font-family="monospace" fill="#111827">4</text>
<rect x="288.362" y="448.686" width="452.586" height="42.895" fill="#38bdf8" fill-opacity="0.34" stroke="#075985" stroke-width="1.4"/>
<text x="288.362" y="448.686" font-size="13" font-family="monospace" fill="#111827">5</text>
<rect x="417.672" y="277.105" width="64.655" height="128.686" fill="#38bdf8" fill-opacity="0.34" stroke="#075985" stroke-width="1.4"/>
<text x="417.672" y="277.105" font-size="13" font-family="monospace" fill="#111827">6</text>
<rect x="546.983" y="105.523" width="64.655" height="343.164" fill="#38bdf8" fill-opacity="0.34" stroke="#075985" stroke-width="1.4"/>
<text x="546.983" y="105.523" font-size="13" font-family="monospace" fill="#111827">7</text>
<rect x="676.293" y="148.418" width="129.31" height="257.373" fill="#38bdf8" fill-opacity="0.34" stroke="#075985" stroke-width="1.4"/>
<text x="676.293" y="148.418" font-size="13" font-family="monospace" fill="#111827">8</text>
<rect x="676.293" y="62.627" width="64.655" height="85.791" fill="#38bdf8" fill-opacity="0.34" stroke="#075985" stroke-width="1.4"/>
<text x="676.293" y="62.627" font-size="13" font-family="monospace" fill="#111827">9</text>
<line x1="159.052" y1="640" x2="159.052" y2="0" stroke="#7c3aed" stroke-width="1.5" stroke-dasharray="8 5"/>
<line x1="159.052" y1="491.582" x2="900" y2="491.582" stroke="#7c3aed" stroke-width="1.5" stroke-dasharray="8 5"/>
<line x1="223.707" y1="491.582" x2="223.707" y2="0" stroke="#7c3aed" stroke-width="1.5" stroke-dasharray="8 5"/>
<line x1="223.707" y1="448.686" x2="900" y2="448.686" stroke="#7c3aed" stroke-width="1.5" stroke-dasharray="8 5"/>
<line x1="482.328" y1="448.686" x2="482.328" y2="0" stroke="#7c3aed" stroke-width="1.5" stroke-dasharray="8 5"/>
<line x1="611.638" y1="448.686" x2="611.638" y2="0" stroke="#7c3aed" stroke-width="1.5" stroke-dasharray="8 5"/>
<line x1="611.638" y1="148.418" x2="900" y2="148.418" stroke="#7c3aed" stroke-width="1.5" stroke-dasharray="8 5"/>
</svg>
