<svg xmlns="http://www.w3.org/2000/svg" width="900" height="640" viewBox="0 0 900 640">
<title>Unit-square score=1.5000000000000004 tau=5 tau_lp=3.3333333333333326</title>
<rect width="100%" height="100%" fill="#ffffff"/>
<rect x="92.479" y="466.252" width="95.339" height="58.501" fill="#fbbf24" fill-opacity="0.32" stroke="#92400e" stroke-width="1.4"/>
<text x="92.479" y="466.252" font-size="13" font-family="monospace" fill="#111827">0</text>
<rect x="92.479" y="202.998" width="95.339" height="58.501" fill="#fbbf24" fill-opacity="0.32" stroke="#92400e" stroke-width="1.4"/>
<text x="92.479" y="202.998" font-size="13" font-family="monospace" fill="#111827">1</text>
<rect x="140.148" y="437.002" width="95.339" height="58.501" fill="#fbbf24" fill-opacity="0.32" stroke="#92400e" stroke-width="1.4"/>
<text x="140.148" y="437.002" font-size="13" font-family="monospace" fill="#111827">2</text>
<rect x="140.148" y="290.75" width="95.339" height="58.501" fill="#fbbf24" fill-opacity="0.32" stroke="#92400e" stroke-width="1.4"/>
<text x="140.148" y="290.75" font-size="13" font-family="monospace" fill="#111827">3</text>
<rect x="187.818" y="524.753" width="95.339" height="58.501" fill="#fbbf24" fill-opacity="0.32" stroke="#92400e" stroke-width="1.4"/>
<text x="187.818" y="524.753" font-size="13" font-family="monospace" fill="#111827">4</text>
<rect x="187.818" y="232.249" width="95.339" height="58.501" fill="#fbbf24" fill-opacity="0.32" stroke="#92400e" stroke-width="1.4"/>
<text x="187.818" y="232.249" font-size="13" font-family="monospace" fill="#111827">5</text>
<rect x="235.487" y="466.252" width="95.339" height="58.501" fill="#fbbf24" fill-opacity="0.32" stroke="#92400e" stroke-width="1.4"/>
<text x="235.487" y="466.252" font-size="13" font-family="monospace" fill="#111827">6</text>
<rect x="235.487" y="232.249" width="95.339" height="58.501" fill="#fbbf24" fill-opacity="0.32" stroke="#92400e" stroke-width="1.4"/>
<text x="235.487" y="232.249" font-size="13" font-family="monospace" fill="#111827">7</text>
<rect x="378.496" y="232.249" width="95.339" height="58.501" fill="#fbbf24" fill-opacity="0.32" stroke="#92400e" stroke-width="1.4"/>
<text x="378.496" y="232.249" font-size="13" font-family="monospace" fill="#111827">8</text>
<rect x="426.165" y="261.499" width="95.339" height="58.501" fill="#fbbf24" fill-opacity="0.32" stroke="#92400e" stroke-width="1.4"/>
<text x="426.165" y="261.499" font-size="13" font-family="monospace" fill="#111827">9</text>
<rect x="426.165" y="173.748" width="95.339" height="58.501" fill="#fbbf24" fill-opacity="0.32" stroke="#92400e" stroke-width="1.4"/>
<text x="426.165" y="173.748" font-size="13" font-family="monospace" fill="#111827">10</text>
<rect x="473.835" y="261.499" width="95.339" height="58.501" fill="#fbbf24" fill-opacity="0.32" stroke="#92400e" stroke-width="1.4"/>
<text x="473.835" y="261.499" font-size="13" font-family="monospace" fill="#111827">11</text>
<rect x="473.835" y="232.249" width="95.339" height="58.501" fill="#fbbf24" fill-opacity="0.32" stroke="#92400e" stroke-width="1.4"/>
<text x="473.835" y="232.249" font-size="13" font-family="monospace" fill="#111827">12</text>
<rect x="521.504" y="466.252" width="95.339" height="58.501" fill="#fbbf24" fill-opacity="0.32" stroke="#92400e" stroke-width="1.4"/>
<text x="521.504" y="466.252" font-size="13" font-family="monospace" fill="#111827">13</text>
<rect x="521.504" y="290.75" width="95.339" height="58.501" fill="#fbbf24" fill-opacity="0.32" stroke="#92400e" stroke-width="1.4"/>
<text x="521.504" y="290.75" font-size="13" font-family="monospace" fill="#111827">14</text>
<rect x="521.504" y="56.746" width="95.339" height="58.501" fill="#fbbf24" fill-opacity="0.32" stroke="#92400e" stroke-width="1.4"/>
<text x="521.504" y="56.746" font-size="13" font-family="monospace" fill="#111827">15</text>
<rect x="569.174" y="261.499" width="95.339" height="58.501" fill="#fbbf24" fill-opacity="0.32" stroke="#92400e" stroke-width="1.4"/>
<text x="569.174" y="261.499" font-size="13" font-family="monospace" fill="#111827">16</text>
<rect x="569.174" y="173.748" width="95.339" height="58.501" fill="#fbbf24" fill-opacity="0.32" stroke="#92400e" stroke-width="1.4"/>
<text x="569.174" y="173.748" font-size="13" font-family="monospace" fill="#111827">17</text>
<rect x="616.843" y="466.252" width="95.339" height="58.501" fill="#fbbf24" fill-opacity="0.32" stroke="#92400e" stroke-width="1.4"/>
<text x="616.843" y="466.252" font-size="13" font-family="monospace" fill="#111827">18</text>
<rect x="712.182" y="232.249" width="95.339" height="58.501" fill="#fbbf24" fill-opacity="0.32" stroke="#92400e" stroke-width="1.4"/>
<text x="712.182" y="232.249" font-size="13" font-family="monospace" fill="#111827">19</text>
<line x1="140.148" y1="640" x2="140.148" y2="0" stroke="#dc2626" stroke-width="2.4"/>
<line x1="521.504" y1="640" x2="521.504" y2="0" stroke="#dc2626" stroke-width="2.4"/>
<line x1="0" y1="524.753" x2="900" y2="524.753" stroke="#dc2626" stroke-width="2.4"/>
<line x1="0" y1="290.75" x2="900" y2="290.75" stroke="#dc2626" stroke-width="2.4"/>
<line x1="0" y1="232.249" x2="900" y2="232.249" stroke="#dc2626" stroke-width="2.4"/>
</svg>
