<svg xmlns="http://www.w3.org/2000/svg" width="920" height="460" viewBox="0 0 920 460">
<title>ECDF of best verified scores</title>
<rect width="100%" height="100%" fill="#ffffff"/>
<line x1="70" y1="390" x2="850" y2="390" stroke="#111827"/>
<line x1="70" y1="70" x2="70" y2="390" stroke="#111827"/>
<text x="460.0" y="34" text-anchor="middle" font-size="18" font-family="monospace">ECDF of best verified scores</text>
<polyline points="70.00,375.45 92.94,360.91 92.94,346.36 102.77,331.82 115.88,317.27 124.22,302.73 124.22,288.18 128.99,273.64 146.47,259.09 149.25,244.55 151.18,230.00 161.76,215.45 161.76,200.91 161.76,186.36 161.76,171.82 161.76,157.27 161.76,142.73 161.76,128.18 161.76,113.64 161.76,99.09 161.76,84.55 161.76,70.00" fill="none" stroke="#dc2626" stroke-width="2.5"/>
<circle cx="690" cy="92" r="5" fill="#dc2626"/><text x="702" y="96" font-size="12" font-family="monospace">guillotine n=22</text>
<polyline points="643.53,378.15 666.47,366.30 712.35,354.44 712.35,342.59 712.35,330.74 712.35,318.89 712.35,307.04 712.35,295.19 712.35,283.33 712.35,271.48 712.35,259.63 758.24,247.78 758.24,235.93 758.24,224.07 758.24,212.22 758.24,200.37 758.24,188.52 758.24,176.67 758.24,164.81 758.24,152.96 758.24,141.11 781.18,129.26 781.18,117.41 781.18,105.56 781.18,93.70 781.18,81.85 850.00,70.00" fill="none" stroke="#2563eb" stroke-width="2.5"/>
<circle cx="690" cy="114" r="5" fill="#2563eb"/><text x="702" y="118" font-size="12" font-family="monospace">misr n=27</text>
<polyline points="679.58,378.15 701.76,366.30 701.76,354.44 712.35,342.59 712.35,330.74 712.35,318.89 712.35,307.04 712.35,295.19 737.84,283.33 742.28,271.48 742.28,259.63 742.28,247.78 742.28,235.93 748.58,224.07 748.58,212.22 748.58,200.37 758.24,188.52 758.24,176.67 810.67,164.81 810.67,152.96 850.00,141.11 850.00,129.26 850.00,117.41 850.00,105.56 850.00,93.70 850.00,81.85 850.00,70.00" fill="none" stroke="#059669" stroke-width="2.5"/>
<circle cx="690" cy="136" r="5" fill="#059669"/><text x="702" y="140" font-size="12" font-family="monospace">unit_square n=27</text>
</svg>
