<svg xmlns="http://www.w3.org/2000/svg" width="900" height="640" viewBox="0 0 900 640">
<title>Unit-square score=1.4268292682926833 tau=9 tau_lp=6.307692307692306</title>
<rect width="100%" height="100%" fill="#ffffff"/>
<rect x="80.792" y="88.34" width="43.436" height="30.888" fill="#fbbf24" fill-opacity="0.32" stroke="#92400e" stroke-width="1.4"/>
<text x="80.792" y="88.34" font-size="13" font-family="monospace" fill="#111827">0</text>
<rect x="124.228" y="489.884" width="43.436" height="30.888" fill="#fbbf24" fill-opacity="0.32" stroke="#92400e" stroke-width="1.4"/>
<text x="124.228" y="489.884" font-size="13" font-family="monospace" fill="#111827">1</text>
<rect x="124.228" y="428.108" width="43.436" height="30.888" fill="#fbbf24" fill-opacity="0.32" stroke="#92400e" stroke-width="1.4"/>
<text x="124.228" y="428.108" font-size="13" font-family="monospace" fill="#111827">2</text>
<rect x="167.664" y="88.34" width="43.436" height="30.888" fill="#fbbf24" fill-opacity="0.32" stroke="#92400e" stroke-width="1.4"/>
<text x="167.664" y="88.34" font-size="13" font-family="monospace" fill="#111827">3</text>
<rect x="211.1" y="551.66" width="43.436" height="30.888" fill="#fbbf24" fill-opacity="0.32" stroke="#92400e" stroke-width="1.4"/>
<text x="211.1" y="551.66" font-size="13" font-family="monospace" fill="#111827">4</text>
<rect x="254.537" y="88.34" width="43.436" height="30.888" fill="#fbbf24" fill-opacity="0.32" stroke="#92400e" stroke-width="1.4"/>
<text x="254.537" y="88.34" font-size="13" font-family="monospace" fill="#111827">5</text>
<rect x="341.409" y="458.996" width="43.436" height="30.888" fill="#fbbf24" fill-opacity="0.32" stroke="#92400e" stroke-width="1.4"/>
<text x="341.409" y="458.996" font-size="13" font-family="monospace" fill="#111827">6</text>
<rect x="384.846" y="366.332" width="43.436" height="30.888" fill="#fbbf24" fill-opacity="0.32" stroke="#92400e" stroke-width="1.4"/>
<text x="384.846" y="366.332" font-size="13" font-family="monospace" fill="#111827">7</text>
<rect x="384.846" y="304.556" width="43.436" height="30.888" fill="#fbbf24" fill-opacity="0.32" stroke="#92400e" stroke-width="1.4"/>
<text x="384.846" y="304.556" font-size="13" font-family="monospace" fill="#111827">8</text>
<rect x="384.846" y="242.78" width="43.436" height="30.888" fill="#fbbf24" fill-opacity="0.32" stroke="#92400e" stroke-width="1.4"/>
<text x="384.846" y="242.78" font-size="13" font-family="monospace" fill="#111827">9</text>
<rect x="428.282" y="458.996" width="43.436" height="30.888" fill="#fbbf24" fill-opacity="0.32" stroke="#92400e" stroke-width="1.4"/>
<text x="428.282" y="458.996" font-size="13" font-family="monospace" fill="#111827">10</text>
<rect x="515.154" y="273.668" width="43.436" height="30.888" fill="#fbbf24" fill-opacity="0.32" stroke="#92400e" stroke-width="1.4"/>
<text x="515.154" y="273.668" font-size="13" font-family="monospace" fill="#111827">11</text>
<rect x="558.591" y="397.22" width="43.436" height="30.888" fill="#fbbf24" fill-opacity="0.32" stroke="#92400e" stroke-width="1.4"/>
<text x="558.591" y="397.22" font-size="13" font-family="monospace" fill="#111827">12</text>
<rect x="558.591" y="304.556" width="43.436" height="30.888" fill="#fbbf24" fill-opacity="0.32" stroke="#92400e" stroke-width="1.4"/>
<text x="558.591" y="304.556" font-size="13" font-family="monospace" fill="#111827">13</text>
<rect x="558.591" y="181.004" width="43.436" height="30.888" fill="#fbbf24" fill-opacity="0.32" stroke="#92400e" stroke-width="1.4"/>
<text x="558.591" y="181.004" font-size="13" font-family="monospace" fill="#111827">14</text>
<rect x="602.027" y="273.668" width="43.436" height="30.888" fill="#fbbf24" fill-opacity="0.32" stroke="#92400e" stroke-width="1.4"/>
<text x="602.027" y="273.668" font-size="13" font-family="monospace" fill="#111827">15</text>
<rect x="688.9" y="335.444" width="43.436" height="30.888" fill="#fbbf24" fill-opacity="0.32" stroke="#92400e" stroke-width="1.4"/>
<text x="688.9" y="335.444" font-size="13" font-family="monospace" fill="#111827">16</text>
<rect x="732.336" y="119.228" width="43.436" height="30.888" fill="#fbbf24" fill-opacity="0.32" stroke="#92400e" stroke-width="1.4"/>
<text x="732.336" y="119.228" font-size="13" font-family="monospace" fill="#111827">17</text>
<rect x="732.336" y="57.452" width="43.436" height="30.888" fill="#fbbf24" fill-opacity="0.32" stroke="#92400e" stroke-width="1.4"/>
<text x="732.336" y="57.452" font-size="13" font-family="monospace" fill="#111827">18</text>
<rect x="775.772" y="335.444" width="43.436" height="30.888" fill="#fbbf24" fill-opacity="0.32" stroke="#92400e" stroke-width="1.4"/>
<text x="775.772" y="335.444" font-size="13" font-family="monospace" fill="#111827">19</text>
<line x1="124.228" y1="640" x2="124.228" y2="0" stroke="#dc2626" stroke-width="2.4"/>
<line x1="211.1" y1="640" x2="211.1" y2="0" stroke="#dc2626" stroke-width="2.4"/>
<line x1="384.846" y1="640" x2="384.846" y2="0" stroke="#dc2626" stroke-width="2.4"/>
<line x1="428.282" y1="640" x2="428.282" y2="0" stroke="#dc2626" stroke-width="2.4"/>
<line x1="558.591" y1="640" x2="558.591" y2="0" stroke="#dc2626" stroke-width="2.4"/>
<line x1="602.027" y1="640" x2="602.027" y2="0" stroke="#dc2626" stroke-width="2.4"/>
<line x1="732.336" y1="640" x2="732.336" y2="0" stroke="#dc2626" stroke-width="2.4"/>
<line x1="775.772" y1="640" x2="775.772" y2="0" stroke="#dc2626" stroke-width="2.4"/>
<line x1="0" y1="119.228" x2="900" y2="119.228" stroke="#dc2626" stroke-width="2.4"/>
</svg>
