<svg xmlns="http://www.w3.org/2000/svg" width="900" height="640" viewBox="0 0 900 640">
<title>Unit-square score=1.2000000000000002 tau=4 tau_lp=3.333333333333333</title>
<rect width="100%" height="100%" fill="#ffffff"/>
<rect x="105.172" y="347.972" width="86.207" height="55.944" fill="#fbbf24" fill-opacity="0.32" stroke="#92400e" stroke-width="1.4"/>
<text x="105.172" y="347.972" font-size="13" font-family="monospace" fill="#111827">0</text>
<rect x="191.379" y="236.084" width="86.207" height="55.944" fill="#fbbf24" fill-opacity="0.32" stroke="#92400e" stroke-width="1.4"/>
<text x="191.379" y="236.084" font-size="13" font-family="monospace" fill="#111827">1</text>
<rect x="191.379" y="124.196" width="86.207" height="55.944" fill="#fbbf24" fill-opacity="0.32" stroke="#92400e" stroke-width="1.4"/>
<text x="191.379" y="124.196" font-size="13" font-family="monospace" fill="#111827">2</text>
<rect x="191.379" y="68.252" width="86.207" height="55.944" fill="#fbbf24" fill-opacity="0.32" stroke="#92400e" stroke-width="1.4"/>
<text x="191.379" y="68.252" font-size="13" font-family="monospace" fill="#111827">3</text>
<rect x="363.793" y="68.252" width="86.207" height="55.944" fill="#fbbf24" fill-opacity="0.32" stroke="#92400e" stroke-width="1.4"/>
<text x="363.793" y="68.252" font-size="13" font-family="monospace" fill="#111827">4</text>
<rect x="450" y="515.804" width="86.207" height="55.944" fill="#fbbf24" fill-opacity="0.32" stroke="#92400e" stroke-width="1.4"/>
<text x="450" y="515.804" font-size="13" font-family="monospace" fill="#111827">5</text>
<rect x="536.207" y="68.252" width="86.207" height="55.944" fill="#fbbf24" fill-opacity="0.32" stroke="#92400e" stroke-width="1.4"/>
<text x="536.207" y="68.252" font-size="13" font-family="monospace" fill="#111827">6</text>
<rect x="622.414" y="236.084" width="86.207" height="55.944" fill="#fbbf24" fill-opacity="0.32" stroke="#92400e" stroke-width="1.4"/>
<text x="622.414" y="236.084" font-size="13" font-family="monospace" fill="#111827">7</text>
<rect x="708.621" y="292.028" width="86.207" height="55.944" fill="#fbbf24" fill-opacity="0.32" stroke="#92400e" stroke-width="1.4"/>
<text x="708.621" y="292.028" font-size="13" font-family="monospace" fill="#111827">8</text>
<line x1="191.379" y1="640" x2="191.379" y2="0" stroke="#dc2626" stroke-width="2.4"/>
<line x1="450" y1="640" x2="450" y2="0" stroke="#dc2626" stroke-width="2.4"/>
<line x1="622.414" y1="640" x2="622.414" y2="0" stroke="#dc2626" stroke-width="2.4"/>
<line x1="708.621" y1="640" x2="708.621" y2="0" stroke="#dc2626" stroke-width="2.4"/>
</svg>
