<svg xmlns="http://www.w3.org/2000/svg" width="900" height="640" viewBox="0 0 900 640">
<title>Unit-square score=1.1764705882352942 tau=4 tau_lp=3.4</title>
<rect width="100%" height="100%" fill="#ffffff"/>
<rect x="450" y="216.552" width="87.549" height="68.966" fill="#fbbf24" fill-opacity="0.32" stroke="#92400e" stroke-width="1.4"/>
<text x="450" y="216.552" font-size="13" font-family="monospace" fill="#111827">0</text>
<rect x="712.646" y="423.448" width="87.549" height="68.966" fill="#fbbf24" fill-opacity="0.32" stroke="#92400e" stroke-width="1.4"/>
<text x="712.646" y="423.448" font-size="13" font-family="monospace" fill="#111827">1</text>
<rect x="99.805" y="354.483" width="87.549" height="68.966" fill="#fbbf24" fill-opacity="0.32" stroke="#92400e" stroke-width="1.4"/>
<text x="99.805" y="354.483" font-size="13" font-family="monospace" fill="#111827">2</text>
<rect x="99.805" y="216.552" width="87.549" height="68.966" fill="#fbbf24" fill-opacity="0.32" stroke="#92400e" stroke-width="1.4"/>
<text x="99.805" y="216.552" font-size="13" font-family="monospace" fill="#111827">3</text>
<rect x="362.451" y="492.414" width="87.549" height="68.966" fill="#fbbf24" fill-opacity="0.32" stroke="#92400e" stroke-width="1.4"/>
<text x="362.451" y="492.414" font-size="13" font-family="monospace" fill="#111827">4</text>
<rect x="625.097" y="78.621" width="87.549" height="68.966" fill="#fbbf24" fill-opacity="0.32" stroke="#92400e" stroke-width="1.4"/>
<text x="625.097" y="78.621" font-size="13" font-family="monospace" fill="#111827">5</text>
<rect x="537.549" y="216.552" width="87.549" height="68.966" fill="#fbbf24" fill-opacity="0.32" stroke="#92400e" stroke-width="1.4"/>
<text x="537.549" y="216.552" font-size="13" font-family="monospace" fill="#111827">6</text>
<rect x="712.646" y="285.517" width="87.549" height="68.966" fill="#fbbf24" fill-opacity="0.32" stroke="#92400e" stroke-width="1.4"/>
<text x="712.646" y="285.517" font-size="13" font-family="monospace" fill="#111827">7</text>
<rect x="187.354" y="285.517" width="87.549" height="68.966" fill="#fbbf24" fill-opacity="0.32" stroke="#92400e" stroke-width="1.4"/>
<text x="187.354" y="285.517" font-size="13" font-family="monospace" fill="#111827">8</text>
<line x1="99.805" y1="640" x2="99.805" y2="0" stroke="#dc2626" stroke-width="2.4"/>
<line x1="362.451" y1="640" x2="362.451" y2="0" stroke="#dc2626" stroke-width="2.4"/>
<line x1="712.646" y1="640" x2="712.646" y2="0" stroke="#dc2626" stroke-width="2.4"/>
<line x1="0" y1="285.517" x2="900" y2="285.517" stroke="#dc2626" stroke-width="2.4"/>
</svg>
