<svg xmlns="http://www.w3.org/2000/svg" width="900" height="640" viewBox="0 0 900 640">
<title>Guillotine score=0.09090909090909091 saved=20 n=22</title>
<rect width="100%" height="100%" fill="#ffffff"/>
<rect x="83.152" y="527.792" width="48.913" height="41.558" fill="#38bdf8" fill-opacity="0.34" stroke="#075985" stroke-width="1.4"/>
<text x="83.152" y="527.792" font-size="13" font-family="monospace" fill="#111827">0</text>
<rect x="83.152" y="486.234" width="48.913" height="41.558" fill="#38bdf8" fill-opacity="0.34" stroke="#075985" stroke-width="1.4"/>
<text x="83.152" y="486.234" font-size="13" font-family="monospace" fill="#111827">1</text>
<rect x="83.152" y="403.117" width="48.913" height="41.558" fill="#38bdf8" fill-opacity="0.34" stroke="#075985" stroke-width="1.4"/>
<text x="83.152" y="403.117" font-size="13" font-family="monospace" fill="#111827">2</text>
<rect x="83.152" y="361.558" width="48.913" height="41.558" fill="#38bdf8" fill-opacity="0.34" stroke="#075985" stroke-width="1.4"/>
<text x="83.152" y="361.558" font-size="13" font-family="monospace" fill="#111827">3</text>
<rect x="132.065" y="527.792" width="48.913" height="41.558" fill="#38bdf8" fill-opacity="0.34" stroke="#075985" stroke-width="1.4"/>
<text x="132.065" y="527.792" font-size="13" font-family="monospace" fill="#111827">4</text>
<rect x="132.065" y="486.234" width="48.913" height="41.558" fill="#38bdf8" fill-opacity="0.34" stroke="#075985" stroke-width="1.4"/>
<text x="132.065" y="486.234" font-size="13" font-family="monospace" fill="#111827">5</text>
<rect x="132.065" y="320" width="293.478" height="41.558" fill="#38bdf8" fill-opacity="0.34" stroke="#075985" stroke-width="1.4"/>
<text x="132.065" y="320" font-size="13" font-family="monospace" fill="#111827">6</text>
<rect x="180.978" y="527.792" width="48.913" height="41.558" fill="#38bdf8" fill-opacity="0.34" stroke="#075985" stroke-width="1.4"/>
<text x="180.978" y="527.792" font-size="13" font-family="monospace" fill="#111827">7</text>
<rect x="180.978" y="444.675" width="146.739" height="41.558" fill="#38bdf8" fill-opacity="0.34" stroke="#075985" stroke-width="1.4"/>
<text x="180.978" y="444.675" font-size="13" font-family="monospace" fill="#111827">8</text>
<rect x="180.978" y="236.883" width="293.478" height="41.558" fill="#38bdf8" fill-opacity="0.34" stroke="#075985" stroke-width="1.4"/>
<text x="180.978" y="236.883" font-size="13" font-family="monospace" fill="#111827">9</text>
<rect x="229.891" y="527.792" width="48.913" height="41.558" fill="#38bdf8" fill-opacity="0.34" stroke="#075985" stroke-width="1.4"/>
<text x="229.891" y="527.792" font-size="13" font-family="monospace" fill="#111827">10</text>
<rect x="278.804" y="527.792" width="48.913" height="41.558" fill="#38bdf8" fill-opacity="0.34" stroke="#075985" stroke-width="1.4"/>
<text x="278.804" y="527.792" font-size="13" font-family="monospace" fill="#111827">11</text>
<rect x="327.717" y="403.117" width="48.913" height="166.234" fill="#38bdf8" fill-opacity="0.34" stroke="#075985" stroke-width="1.4"/>
<text x="327.717" y="403.117" font-size="13" font-family="monospace" fill="#111827">12</text>
<rect x="376.63" y="527.792" width="48.913" height="41.558" fill="#38bdf8" fill-opacity="0.34" stroke="#075985" stroke-width="1.4"/>
<text x="376.63" y="527.792" font-size="13" font-family="monospace" fill="#111827">13</text>
<rect x="425.543" y="70.649" width="146.739" height="41.558" fill="#38bdf8" fill-opacity="0.34" stroke="#075985" stroke-width="1.4"/>
<text x="425.543" y="70.649" font-size="13" font-family="monospace" fill="#111827">14</text>
<rect x="474.457" y="403.117" width="48.913" height="83.117" fill="#38bdf8" fill-opacity="0.34" stroke="#075985" stroke-width="1.4"/>
<text x="474.457" y="403.117" font-size="13" font-family="monospace" fill="#111827">15</text>
<rect x="474.457" y="278.442" width="146.739" height="83.117" fill="#38bdf8" fill-opacity="0.34" stroke="#075985" stroke-width="1.4"/>
<text x="474.457" y="278.442" font-size="13" font-family="monospace" fill="#111827">16</text>
<rect x="523.37" y="444.675" width="146.739" height="41.558" fill="#38bdf8" fill-opacity="0.34" stroke="#075985" stroke-width="1.4"/>
<text x="523.37" y="444.675" font-size="13" font-family="monospace" fill="#111827">17</text>
<rect x="572.283" y="153.766" width="146.739" height="41.558" fill="#38bdf8" fill-opacity="0.34" stroke="#075985" stroke-width="1.4"/>
<text x="572.283" y="153.766" font-size="13" font-family="monospace" fill="#111827">18</text>
<rect x="621.196" y="236.883" width="48.913" height="207.792" fill="#38bdf8" fill-opacity="0.34" stroke="#075985" stroke-width="1.4"/>
<text x="621.196" y="236.883" font-size="13" font-family="monospace" fill="#111827">19</text>
<rect x="670.109" y="320" width="146.739" height="83.117" fill="#38bdf8" fill-opacity="0.34" stroke="#075985" stroke-width="1.4"/>
<text x="670.109" y="320" font-size="13" font-family="monospace" fill="#111827">20</text>
<rect x="767.935" y="153.766" width="48.913" height="166.234" fill="#38bdf8" fill-opacity="0.34" stroke="#075985" stroke-width="1.4"/>
<text x="767.935" y="153.766" font-size="13" font-family="monospace" fill="#111827">21</text>
<line x1="132.065" y1="640" x2="132.065" y2="0" stroke="#7c3aed" stroke-width="1.5" stroke-dasharray="8 5"/>
<line x1="0" y1="527.792" x2="132.065" y2="527.792" stroke="#7c3aed" stroke-width="1.5" stroke-dasharray="8 5"/>
<line x1="0" y1="486.234" x2="132.065" y2="486.234" stroke="#7c3aed" stroke-width="1.5" stroke-dasharray="8 5"/>
<line x1="0" y1="403.117" x2="132.065" y2="403.117" stroke="#7c3aed" stroke-width="1.5" stroke-dasharray="8 5"/>
<line x1="621.196" y1="640" x2="621.196" y2="0" stroke="#7c3aed" stroke-width="1.5" stroke-dasharray="8 5"/>
<line x1="132.065" y1="403.117" x2="621.196" y2="403.117" stroke="#7c3aed" stroke-width="1.5" stroke-dasharray="8 5"/>
<line x1="180.978" y1="640" x2="180.978" y2="403.117" stroke="#7c3aed" stroke-width="1.5" stroke-dasharray="8 5"/>
<line x1="132.065" y1="527.792" x2="180.978" y2="527.792" stroke="#7c3aed" stroke-width="1.5" stroke-dasharray="8 5"/>
<line x1="327.717" y1="640" x2="327.717" y2="403.117" stroke="#7c3aed" stroke-width="1.5" stroke-dasharray="8 5"/>
<line x1="180.978" y1="527.792" x2="327.717" y2="527.792" stroke="#7c3aed" stroke-width="1.5" stroke-dasharray="8 5"/>
<line x1="229.891" y1="640" x2="229.891" y2="527.792" stroke="#7c3aed" stroke-width="1.5" stroke-dasharray="8 5"/>
<line x1="278.804" y1="640" x2="278.804" y2="527.792" stroke="#7c3aed" stroke-width="1.5" stroke-dasharray="8 5"/>
<line x1="376.63" y1="640" x2="376.63" y2="403.117" stroke="#7c3aed" stroke-width="1.5" stroke-dasharray="8 5"/>
<line x1="425.543" y1="640" x2="425.543" y2="403.117" stroke="#7c3aed" stroke-width="1.5" stroke-dasharray="8 5"/>
<line x1="132.065" y1="278.442" x2="621.196" y2="278.442" stroke="#7c3aed" stroke-width="1.5" stroke-dasharray="8 5"/>
<line x1="425.543" y1="403.117" x2="425.543" y2="278.442" stroke="#7c3aed" stroke-width="1.5" stroke-dasharray="8 5"/>
<line x1="132.065" y1="236.883" x2="621.196" y2="236.883" stroke="#7c3aed" stroke-width="1.5" stroke-dasharray="8 5"/>
<line x1="670.109" y1="640" x2="670.109" y2="0" stroke="#7c3aed" stroke-width="1.5" stroke-dasharray="8 5"/>
<line x1="670.109" y1="320" x2="900" y2="320" stroke="#7c3aed" stroke-width="1.5" stroke-dasharray="8 5"/>
</svg>
