<svg xmlns="http://www.w3.org/2000/svg" width="900" height="640" viewBox="0 0 900 640">
<title>Guillotine score=0.13333333333333333 saved=13 n=15</title>
<rect width="100%" height="100%" fill="#ffffff"/>
<rect x="88.07" y="400.537" width="60.322" height="161.074" fill="#38bdf8" fill-opacity="0.34" stroke="#075985" stroke-width="1.4"/>
<text x="88.07" y="400.537" font-size="13" font-family="monospace" fill="#111827">0</text>
<rect x="88.07" y="346.846" width="120.643" height="53.691" fill="#38bdf8" fill-opacity="0.34" stroke="#075985" stroke-width="1.4"/>
<text x="88.07" y="346.846" font-size="13" font-family="monospace" fill="#111827">1</text>
<rect x="88.07" y="239.463" width="361.93" height="53.691" fill="#38bdf8" fill-opacity="0.34" stroke="#075985" stroke-width="1.4"/>
<text x="88.07" y="239.463" font-size="13" font-family="monospace" fill="#111827">2</text>
<rect x="148.391" y="507.919" width="60.322" height="53.691" fill="#38bdf8" fill-opacity="0.34" stroke="#075985" stroke-width="1.4"/>
<text x="148.391" y="507.919" font-size="13" font-family="monospace" fill="#111827">3</text>
<rect x="148.391" y="454.228" width="120.643" height="53.691" fill="#38bdf8" fill-opacity="0.34" stroke="#075985" stroke-width="1.4"/>
<text x="148.391" y="454.228" font-size="13" font-family="monospace" fill="#111827">4</text>
<rect x="208.713" y="346.846" width="60.322" height="107.383" fill="#38bdf8" fill-opacity="0.34" stroke="#075985" stroke-width="1.4"/>
<text x="208.713" y="346.846" font-size="13" font-family="monospace" fill="#111827">5</text>
<rect x="329.357" y="454.228" width="60.322" height="107.383" fill="#38bdf8" fill-opacity="0.34" stroke="#075985" stroke-width="1.4"/>
<text x="329.357" y="454.228" font-size="13" font-family="monospace" fill="#111827">6</text>
<rect x="389.678" y="507.919" width="60.322" height="53.691" fill="#38bdf8" fill-opacity="0.34" stroke="#075985" stroke-width="1.4"/>
<text x="389.678" y="507.919" font-size="13" font-family="monospace" fill="#111827">7</text>
<rect x="389.678" y="346.846" width="180.965" height="53.691" fill="#38bdf8" fill-opacity="0.34" stroke="#075985" stroke-width="1.4"/>
<text x="389.678" y="346.846" font-size="13" font-family="monospace" fill="#111827">8</text>
<rect x="510.322" y="507.919" width="60.322" height="53.691" fill="#38bdf8" fill-opacity="0.34" stroke="#075985" stroke-width="1.4"/>
<text x="510.322" y="507.919" font-size="13" font-family="monospace" fill="#111827">9</text>
<rect x="510.322" y="454.228" width="180.965" height="53.691" fill="#38bdf8" fill-opacity="0.34" stroke="#075985" stroke-width="1.4"/>
<text x="510.322" y="454.228" font-size="13" font-family="monospace" fill="#111827">10</text>
<rect x="570.643" y="132.081" width="60.322" height="268.456" fill="#38bdf8" fill-opacity="0.34" stroke="#075985" stroke-width="1.4"/>
<text x="570.643" y="132.081" font-size="13" font-family="monospace" fill="#111827">11</text>
<rect x="570.643" y="78.389" width="180.965" height="53.691" fill="#38bdf8" fill-opacity="0.34" stroke="#075985" stroke-width="1.4"/>
<text x="570.643" y="78.389" font-size="13" font-family="monospace" fill="#111827">12</text>
<rect x="630.965" y="239.463" width="180.965" height="107.383" fill="#38bdf8" fill-opacity="0.34" stroke="#075985" stroke-width="1.4"/>
<text x="630.965" y="239.463" font-size="13" font-family="monospace" fill="#111827">13</text>
<rect x="751.609" y="78.389" width="60.322" height="107.383" fill="#38bdf8" fill-opacity="0.34" stroke="#075985" stroke-width="1.4"/>
<text x="751.609" y="78.389" font-size="13" font-family="monospace" fill="#111827">14</text>
<line x1="751.609" y1="640" x2="751.609" y2="0" stroke="#7c3aed" stroke-width="1.5" stroke-dasharray="8 5"/>
<line x1="0" y1="454.228" x2="751.609" y2="454.228" stroke="#7c3aed" stroke-width="1.5" stroke-dasharray="8 5"/>
<line x1="269.035" y1="640" x2="269.035" y2="454.228" stroke="#7c3aed" stroke-width="1.5" stroke-dasharray="8 5"/>
<line x1="0" y1="507.919" x2="269.035" y2="507.919" stroke="#7c3aed" stroke-width="1.5" stroke-dasharray="8 5"/>
<line x1="389.678" y1="640" x2="389.678" y2="454.228" stroke="#7c3aed" stroke-width="1.5" stroke-dasharray="8 5"/>
<line x1="450" y1="640" x2="450" y2="454.228" stroke="#7c3aed" stroke-width="1.5" stroke-dasharray="8 5"/>
<line x1="450" y1="507.919" x2="751.609" y2="507.919" stroke="#7c3aed" stroke-width="1.5" stroke-dasharray="8 5"/>
<line x1="570.643" y1="454.228" x2="570.643" y2="0" stroke="#7c3aed" stroke-width="1.5" stroke-dasharray="8 5"/>
<line x1="0" y1="346.846" x2="570.643" y2="346.846" stroke="#7c3aed" stroke-width="1.5" stroke-dasharray="8 5"/>
<line x1="208.713" y1="454.228" x2="208.713" y2="346.846" stroke="#7c3aed" stroke-width="1.5" stroke-dasharray="8 5"/>
<line x1="269.035" y1="454.228" x2="269.035" y2="346.846" stroke="#7c3aed" stroke-width="1.5" stroke-dasharray="8 5"/>
<line x1="570.643" y1="132.081" x2="751.609" y2="132.081" stroke="#7c3aed" stroke-width="1.5" stroke-dasharray="8 5"/>
</svg>
