<svg xmlns="http://www.w3.org/2000/svg" width="900" height="640" viewBox="0 0 900 640">
<title>Guillotine score=0.1 saved=18 n=20</title>
<rect width="100%" height="100%" fill="#ffffff"/>
<rect x="81.902" y="450.879" width="46.012" height="130.879" fill="#38bdf8" fill-opacity="0.34" stroke="#075985" stroke-width="1.4"/>
<text x="81.902" y="450.879" font-size="13" font-family="monospace" fill="#111827">0</text>
<rect x="81.902" y="418.16" width="46.012" height="32.72" fill="#38bdf8" fill-opacity="0.34" stroke="#075985" stroke-width="1.4"/>
<text x="81.902" y="418.16" font-size="13" font-family="monospace" fill="#111827">1</text>
<rect x="81.902" y="320" width="276.074" height="32.72" fill="#38bdf8" fill-opacity="0.34" stroke="#075985" stroke-width="1.4"/>
<text x="81.902" y="320" font-size="13" font-family="monospace" fill="#111827">2</text>
<rect x="127.914" y="385.44" width="276.074" height="32.72" fill="#38bdf8" fill-opacity="0.34" stroke="#075985" stroke-width="1.4"/>
<text x="127.914" y="385.44" font-size="13" font-family="monospace" fill="#111827">3</text>
<rect x="173.926" y="483.599" width="46.012" height="98.16" fill="#38bdf8" fill-opacity="0.34" stroke="#075985" stroke-width="1.4"/>
<text x="173.926" y="483.599" font-size="13" font-family="monospace" fill="#111827">4</text>
<rect x="265.951" y="549.039" width="46.012" height="32.72" fill="#38bdf8" fill-opacity="0.34" stroke="#075985" stroke-width="1.4"/>
<text x="265.951" y="549.039" font-size="13" font-family="monospace" fill="#111827">5</text>
<rect x="265.951" y="450.879" width="46.012" height="65.44" fill="#38bdf8" fill-opacity="0.34" stroke="#075985" stroke-width="1.4"/>
<text x="265.951" y="450.879" font-size="13" font-family="monospace" fill="#111827">6</text>
<rect x="311.963" y="516.319" width="138.037" height="32.72" fill="#38bdf8" fill-opacity="0.34" stroke="#075985" stroke-width="1.4"/>
<text x="311.963" y="516.319" font-size="13" font-family="monospace" fill="#111827">7</text>
<rect x="357.975" y="418.16" width="46.012" height="98.16" fill="#38bdf8" fill-opacity="0.34" stroke="#075985" stroke-width="1.4"/>
<text x="357.975" y="418.16" font-size="13" font-family="monospace" fill="#111827">8</text>
<rect x="357.975" y="189.121" width="138.037" height="32.72" fill="#38bdf8" fill-opacity="0.34" stroke="#075985" stroke-width="1.4"/>
<text x="357.975" y="189.121" font-size="13" font-family="monospace" fill="#111827">9</text>
<rect x="357.975" y="58.241" width="138.037" height="98.16" fill="#38bdf8" fill-opacity="0.34" stroke="#075985" stroke-width="1.4"/>
<text x="357.975" y="58.241" font-size="13" font-family="monospace" fill="#111827">10</text>
<rect x="450" y="450.879" width="46.012" height="65.44" fill="#38bdf8" fill-opacity="0.34" stroke="#075985" stroke-width="1.4"/>
<text x="450" y="450.879" font-size="13" font-family="monospace" fill="#111827">11</text>
<rect x="450" y="352.72" width="138.037" height="65.44" fill="#38bdf8" fill-opacity="0.34" stroke="#075985" stroke-width="1.4"/>
<text x="450" y="352.72" font-size="13" font-family="monospace" fill="#111827">12</text>
<rect x="496.012" y="483.599" width="138.037" height="32.72" fill="#38bdf8" fill-opacity="0.34" stroke="#075985" stroke-width="1.4"/>
<text x="496.012" y="483.599" font-size="13" font-family="monospace" fill="#111827">13</text>
<rect x="542.025" y="254.56" width="138.037" height="32.72" fill="#38bdf8" fill-opacity="0.34" stroke="#075985" stroke-width="1.4"/>
<text x="542.025" y="254.56" font-size="13" font-family="monospace" fill="#111827">14</text>
<rect x="542.025" y="90.961" width="276.074" height="32.72" fill="#38bdf8" fill-opacity="0.34" stroke="#075985" stroke-width="1.4"/>
<text x="542.025" y="90.961" font-size="13" font-family="monospace" fill="#111827">15</text>
<rect x="588.037" y="320" width="46.012" height="163.599" fill="#38bdf8" fill-opacity="0.34" stroke="#075985" stroke-width="1.4"/>
<text x="588.037" y="320" font-size="13" font-family="monospace" fill="#111827">16</text>
<rect x="634.049" y="385.44" width="138.037" height="65.44" fill="#38bdf8" fill-opacity="0.34" stroke="#075985" stroke-width="1.4"/>
<text x="634.049" y="385.44" font-size="13" font-family="monospace" fill="#111827">17</text>
<rect x="680.061" y="156.401" width="138.037" height="32.72" fill="#38bdf8" fill-opacity="0.34" stroke="#075985" stroke-width="1.4"/>
<text x="680.061" y="156.401" font-size="13" font-family="monospace" fill="#111827">18</text>
<rect x="726.074" y="254.56" width="46.012" height="130.879" fill="#38bdf8" fill-opacity="0.34" stroke="#075985" stroke-width="1.4"/>
<text x="726.074" y="254.56" font-size="13" font-family="monospace" fill="#111827">19</text>
<line x1="496.012" y1="640" x2="496.012" y2="0" stroke="#7c3aed" stroke-width="1.5" stroke-dasharray="8 5"/>
<line x1="0" y1="418.16" x2="496.012" y2="418.16" stroke="#7c3aed" stroke-width="1.5" stroke-dasharray="8 5"/>
<line x1="127.914" y1="640" x2="127.914" y2="418.16" stroke="#7c3aed" stroke-width="1.5" stroke-dasharray="8 5"/>
<line x1="0" y1="450.879" x2="127.914" y2="450.879" stroke="#7c3aed" stroke-width="1.5" stroke-dasharray="8 5"/>
<line x1="219.939" y1="640" x2="219.939" y2="418.16" stroke="#7c3aed" stroke-width="1.5" stroke-dasharray="8 5"/>
<line x1="311.963" y1="640" x2="311.963" y2="418.16" stroke="#7c3aed" stroke-width="1.5" stroke-dasharray="8 5"/>
<line x1="219.939" y1="549.039" x2="311.963" y2="549.039" stroke="#7c3aed" stroke-width="1.5" stroke-dasharray="8 5"/>
<line x1="450" y1="640" x2="450" y2="418.16" stroke="#7c3aed" stroke-width="1.5" stroke-dasharray="8 5"/>
<line x1="311.963" y1="516.319" x2="450" y2="516.319" stroke="#7c3aed" stroke-width="1.5" stroke-dasharray="8 5"/>
<line x1="0" y1="385.44" x2="496.012" y2="385.44" stroke="#7c3aed" stroke-width="1.5" stroke-dasharray="8 5"/>
<line x1="357.975" y1="385.44" x2="357.975" y2="0" stroke="#7c3aed" stroke-width="1.5" stroke-dasharray="8 5"/>
<line x1="357.975" y1="189.121" x2="496.012" y2="189.121" stroke="#7c3aed" stroke-width="1.5" stroke-dasharray="8 5"/>
<line x1="496.012" y1="483.599" x2="900" y2="483.599" stroke="#7c3aed" stroke-width="1.5" stroke-dasharray="8 5"/>
<line x1="496.012" y1="467.239" x2="900" y2="467.239" stroke="#7c3aed" stroke-width="1.5" stroke-dasharray="8 5"/>
<line x1="496.012" y1="385.44" x2="900" y2="385.44" stroke="#7c3aed" stroke-width="1.5" stroke-dasharray="8 5"/>
<line x1="496.012" y1="254.56" x2="900" y2="254.56" stroke="#7c3aed" stroke-width="1.5" stroke-dasharray="8 5"/>
<line x1="680.061" y1="385.44" x2="680.061" y2="254.56" stroke="#7c3aed" stroke-width="1.5" stroke-dasharray="8 5"/>
<line x1="496.012" y1="156.401" x2="900" y2="156.401" stroke="#7c3aed" stroke-width="1.5" stroke-dasharray="8 5"/>
</svg>
