<svg xmlns="http://www.w3.org/2000/svg" width="900" height="640" viewBox="0 0 900 640">
<title>Guillotine score=0.18181818181818182 saved=9 n=11</title>
<rect width="100%" height="100%" fill="#ffffff"/>
<rect x="99.805" y="320" width="87.549" height="231.884" fill="#38bdf8" fill-opacity="0.34" stroke="#075985" stroke-width="1.4"/>
<text x="99.805" y="320" font-size="13" font-family="monospace" fill="#111827">0</text>
<rect x="99.805" y="242.705" width="175.097" height="77.295" fill="#38bdf8" fill-opacity="0.34" stroke="#075985" stroke-width="1.4"/>
<text x="99.805" y="242.705" font-size="13" font-family="monospace" fill="#111827">1</text>
<rect x="187.354" y="397.295" width="175.097" height="77.295" fill="#38bdf8" fill-opacity="0.34" stroke="#075985" stroke-width="1.4"/>
<text x="187.354" y="397.295" font-size="13" font-family="monospace" fill="#111827">2</text>
<rect x="187.354" y="88.116" width="437.743" height="77.295" fill="#38bdf8" fill-opacity="0.34" stroke="#075985" stroke-width="1.4"/>
<text x="187.354" y="88.116" font-size="13" font-family="monospace" fill="#111827">3</text>
<rect x="274.903" y="474.589" width="87.549" height="77.295" fill="#38bdf8" fill-opacity="0.34" stroke="#075985" stroke-width="1.4"/>
<text x="274.903" y="474.589" font-size="13" font-family="monospace" fill="#111827">4</text>
<rect x="274.903" y="242.705" width="87.549" height="154.589" fill="#38bdf8" fill-opacity="0.34" stroke="#075985" stroke-width="1.4"/>
<text x="274.903" y="242.705" font-size="13" font-family="monospace" fill="#111827">5</text>
<rect x="362.451" y="474.589" width="87.549" height="77.295" fill="#38bdf8" fill-opacity="0.34" stroke="#075985" stroke-width="1.4"/>
<text x="362.451" y="474.589" font-size="13" font-family="monospace" fill="#111827">6</text>
<rect x="450" y="165.411" width="87.549" height="386.473" fill="#38bdf8" fill-opacity="0.34" stroke="#075985" stroke-width="1.4"/>
<text x="450" y="165.411" font-size="13" font-family="monospace" fill="#111827">7</text>
<rect x="537.549" y="397.295" width="262.646" height="77.295" fill="#38bdf8" fill-opacity="0.34" stroke="#075985" stroke-width="1.4"/>
<text x="537.549" y="397.295" font-size="13" font-family="monospace" fill="#111827">8</text>
<rect x="625.097" y="474.589" width="87.549" height="77.295" fill="#38bdf8" fill-opacity="0.34" stroke="#075985" stroke-width="1.4"/>
<text x="625.097" y="474.589" font-size="13" font-family="monospace" fill="#111827">9</text>
<rect x="625.097" y="88.116" width="87.549" height="231.884" fill="#38bdf8" fill-opacity="0.34" stroke="#075985" stroke-width="1.4"/>
<text x="625.097" y="88.116" font-size="13" font-family="monospace" fill="#111827">10</text>
<line x1="187.354" y1="640" x2="187.354" y2="0" stroke="#7c3aed" stroke-width="1.5" stroke-dasharray="8 5"/>
<line x1="362.451" y1="640" x2="362.451" y2="0" stroke="#7c3aed" stroke-width="1.5" stroke-dasharray="8 5"/>
<line x1="187.354" y1="474.589" x2="362.451" y2="474.589" stroke="#7c3aed" stroke-width="1.5" stroke-dasharray="8 5"/>
<line x1="187.354" y1="397.295" x2="362.451" y2="397.295" stroke="#7c3aed" stroke-width="1.5" stroke-dasharray="8 5"/>
<line x1="450" y1="640" x2="450" y2="0" stroke="#7c3aed" stroke-width="1.5" stroke-dasharray="8 5"/>
<line x1="537.549" y1="640" x2="537.549" y2="0" stroke="#7c3aed" stroke-width="1.5" stroke-dasharray="8 5"/>
<line x1="537.549" y1="474.589" x2="900" y2="474.589" stroke="#7c3aed" stroke-width="1.5" stroke-dasharray="8 5"/>
<line x1="537.549" y1="397.295" x2="900" y2="397.295" stroke="#7c3aed" stroke-width="1.5" stroke-dasharray="8 5"/>
</svg>
