<svg xmlns="http://www.w3.org/2000/svg" width="900" height="640" viewBox="0 0 900 640">
<title>MISR score=1.2222222222222223 alpha_lp=3.666666666666667 alpha=3</title>
<rect width="100%" height="100%" fill="#ffffff"/>
<rect x="75" y="458.667" width="690" height="42.667" fill="#60a5fa" fill-opacity="0.24" stroke="#1d4ed8" stroke-width="1.4"/>
<text x="75" y="458.667" font-size="13" font-family="monospace" fill="#111827">0</text>
<rect x="105" y="117.333" width="690" height="469.333" fill="#60a5fa" fill-opacity="0.24" stroke="#1d4ed8" stroke-width="1.4"/>
<text x="105" y="117.333" font-size="13" font-family="monospace" fill="#111827">1</text>
<rect x="135" y="74.667" width="120" height="277.333" fill="#60a5fa" fill-opacity="0.24" stroke="#1d4ed8" stroke-width="1.4"/>
<text x="135" y="74.667" font-size="13" font-family="monospace" fill="#111827">2</text>
<rect x="165" y="266.667" width="180" height="277.333" fill="#22c55e" fill-opacity="0.36" stroke="#166534" stroke-width="2.0"/>
<text x="165" y="266.667" font-size="13" font-family="monospace" fill="#111827">3</text>
<rect x="195" y="181.333" width="420" height="42.667" fill="#60a5fa" fill-opacity="0.24" stroke="#1d4ed8" stroke-width="1.4"/>
<text x="195" y="181.333" font-size="13" font-family="monospace" fill="#111827">4</text>
<rect x="225" y="96" width="450" height="341.333" fill="#60a5fa" fill-opacity="0.24" stroke="#1d4ed8" stroke-width="1.4"/>
<text x="225" y="96" font-size="13" font-family="monospace" fill="#111827">5</text>
<rect x="285" y="373.333" width="300" height="106.667" fill="#60a5fa" fill-opacity="0.24" stroke="#1d4ed8" stroke-width="1.4"/>
<text x="285" y="373.333" font-size="13" font-family="monospace" fill="#111827">6</text>
<rect x="315" y="138.667" width="390" height="277.333" fill="#60a5fa" fill-opacity="0.24" stroke="#1d4ed8" stroke-width="1.4"/>
<text x="315" y="138.667" font-size="13" font-family="monospace" fill="#111827">7</text>
<rect x="375" y="160" width="180" height="128" fill="#60a5fa" fill-opacity="0.24" stroke="#1d4ed8" stroke-width="1.4"/>
<text x="375" y="160" font-size="13" font-family="monospace" fill="#111827">8</text>
<rect x="405" y="202.667" width="30" height="362.667" fill="#22c55e" fill-opacity="0.36" stroke="#166534" stroke-width="2.0"/>
<text x="405" y="202.667" font-size="13" font-family="monospace" fill="#111827">9</text>
<rect x="465" y="309.333" width="180" height="213.333" fill="#60a5fa" fill-opacity="0.24" stroke="#1d4ed8" stroke-width="1.4"/>
<text x="465" y="309.333" font-size="13" font-family="monospace" fill="#111827">10</text>
<rect x="495" y="245.333" width="330" height="85.333" fill="#60a5fa" fill-opacity="0.24" stroke="#1d4ed8" stroke-width="1.4"/>
<text x="495" y="245.333" font-size="13" font-family="monospace" fill="#111827">11</text>
<rect x="525" y="53.333" width="210" height="341.333" fill="#22c55e" fill-opacity="0.36" stroke="#166534" stroke-width="2.0"/>
<text x="525" y="53.333" font-size="13" font-family="monospace" fill="#111827">12</text>
</svg>
