<svg xmlns="http://www.w3.org/2000/svg" width="900" height="640" viewBox="0 0 900 640">
<title>MISR score=1.2500000000000002 alpha_lp=5.000000000000001 alpha=4</title>
<rect width="100%" height="100%" fill="#ffffff"/>
<rect x="69.361" y="145.564" width="642.857" height="108.271" fill="#60a5fa" fill-opacity="0.24" stroke="#1d4ed8" stroke-width="1.4"/>
<text x="69.361" y="145.564" font-size="13" font-family="monospace" fill="#111827">0</text>
<rect x="86.278" y="61.353" width="152.256" height="481.203" fill="#60a5fa" fill-opacity="0.24" stroke="#1d4ed8" stroke-width="1.4"/>
<text x="86.278" y="61.353" font-size="13" font-family="monospace" fill="#111827">1</text>
<rect x="103.195" y="410.226" width="575.188" height="48.12" fill="#60a5fa" fill-opacity="0.24" stroke="#1d4ed8" stroke-width="1.4"/>
<text x="103.195" y="410.226" font-size="13" font-family="monospace" fill="#111827">2</text>
<rect x="120.113" y="277.895" width="524.436" height="24.06" fill="#22c55e" fill-opacity="0.36" stroke="#166534" stroke-width="2.0"/>
<text x="120.113" y="277.895" font-size="13" font-family="monospace" fill="#111827">3</text>
<rect x="137.03" y="205.714" width="287.594" height="168.421" fill="#60a5fa" fill-opacity="0.24" stroke="#1d4ed8" stroke-width="1.4"/>
<text x="137.03" y="205.714" font-size="13" font-family="monospace" fill="#111827">4</text>
<rect x="153.947" y="181.654" width="321.429" height="36.09" fill="#60a5fa" fill-opacity="0.24" stroke="#1d4ed8" stroke-width="1.4"/>
<text x="153.947" y="181.654" font-size="13" font-family="monospace" fill="#111827">5</text>
<rect x="170.865" y="169.624" width="236.842" height="396.992" fill="#60a5fa" fill-opacity="0.24" stroke="#1d4ed8" stroke-width="1.4"/>
<text x="170.865" y="169.624" font-size="13" font-family="monospace" fill="#111827">6</text>
<rect x="187.782" y="121.504" width="558.271" height="433.083" fill="#60a5fa" fill-opacity="0.24" stroke="#1d4ed8" stroke-width="1.4"/>
<text x="187.782" y="121.504" font-size="13" font-family="monospace" fill="#111827">7</text>
<rect x="204.699" y="338.045" width="338.346" height="96.241" fill="#60a5fa" fill-opacity="0.24" stroke="#1d4ed8" stroke-width="1.4"/>
<text x="204.699" y="338.045" font-size="13" font-family="monospace" fill="#111827">8</text>
<rect x="221.617" y="193.684" width="372.18" height="276.692" fill="#60a5fa" fill-opacity="0.24" stroke="#1d4ed8" stroke-width="1.4"/>
<text x="221.617" y="193.684" font-size="13" font-family="monospace" fill="#111827">9</text>
<rect x="255.451" y="133.534" width="321.429" height="264.662" fill="#60a5fa" fill-opacity="0.24" stroke="#1d4ed8" stroke-width="1.4"/>
<text x="255.451" y="133.534" font-size="13" font-family="monospace" fill="#111827">10</text>
<rect x="272.368" y="49.323" width="490.602" height="433.083" fill="#60a5fa" fill-opacity="0.24" stroke="#1d4ed8" stroke-width="1.4"/>
<text x="272.368" y="49.323" font-size="13" font-family="monospace" fill="#111827">11</text>
<rect x="289.286" y="350.075" width="203.008" height="96.241" fill="#60a5fa" fill-opacity="0.24" stroke="#1d4ed8" stroke-width="1.4"/>
<text x="289.286" y="350.075" font-size="13" font-family="monospace" fill="#111827">12</text>
<rect x="306.203" y="241.805" width="67.669" height="180.451" fill="#60a5fa" fill-opacity="0.24" stroke="#1d4ed8" stroke-width="1.4"/>
<text x="306.203" y="241.805" font-size="13" font-family="monospace" fill="#111827">13</text>
<rect x="323.12" y="73.383" width="67.669" height="288.722" fill="#60a5fa" fill-opacity="0.24" stroke="#1d4ed8" stroke-width="1.4"/>
<text x="323.12" y="73.383" font-size="13" font-family="monospace" fill="#111827">14</text>
<rect x="340.038" y="97.444" width="287.594" height="216.541" fill="#60a5fa" fill-opacity="0.24" stroke="#1d4ed8" stroke-width="1.4"/>
<text x="340.038" y="97.444" font-size="13" font-family="monospace" fill="#111827">15</text>
<rect x="356.955" y="109.474" width="473.684" height="156.391" fill="#22c55e" fill-opacity="0.36" stroke="#166534" stroke-width="2.0"/>
<text x="356.955" y="109.474" font-size="13" font-family="monospace" fill="#111827">16</text>
<rect x="441.541" y="157.594" width="287.594" height="228.571" fill="#60a5fa" fill-opacity="0.24" stroke="#1d4ed8" stroke-width="1.4"/>
<text x="441.541" y="157.594" font-size="13" font-family="monospace" fill="#111827">17</text>
<rect x="458.459" y="326.015" width="355.263" height="180.451" fill="#22c55e" fill-opacity="0.36" stroke="#166534" stroke-width="2.0"/>
<text x="458.459" y="326.015" font-size="13" font-family="monospace" fill="#111827">18</text>
<rect x="509.211" y="229.774" width="16.917" height="264.662" fill="#60a5fa" fill-opacity="0.24" stroke="#1d4ed8" stroke-width="1.4"/>
<text x="509.211" y="229.774" font-size="13" font-family="monospace" fill="#111827">19</text>
<rect x="559.962" y="289.925" width="236.842" height="288.722" fill="#60a5fa" fill-opacity="0.24" stroke="#1d4ed8" stroke-width="1.4"/>
<text x="559.962" y="289.925" font-size="13" font-family="monospace" fill="#111827">20</text>
<rect x="610.714" y="85.414" width="169.173" height="505.263" fill="#60a5fa" fill-opacity="0.24" stroke="#1d4ed8" stroke-width="1.4"/>
<text x="610.714" y="85.414" font-size="13" font-family="monospace" fill="#111827">21</text>
<rect x="661.466" y="518.496" width="33.835" height="12.03" fill="#22c55e" fill-opacity="0.36" stroke="#166534" stroke-width="2.0"/>
<text x="661.466" y="518.496" font-size="13" font-family="monospace" fill="#111827">22</text>
</svg>
