<svg xmlns="http://www.w3.org/2000/svg" width="900" height="640" viewBox="0 0 900 640">
<title>Guillotine score=0.26666666666666666 saved=11 n=15</title>
<rect width="100%" height="100%" fill="#ffffff"/>
<rect x="84.571" y="522.247" width="313.225" height="44.944" fill="#38bdf8" fill-opacity="0.34" stroke="#075985" stroke-width="1.4"/>
<text x="84.571" y="522.247" font-size="13" font-family="monospace" fill="#111827">0</text>
<rect x="84.571" y="477.303" width="208.817" height="44.944" fill="#38bdf8" fill-opacity="0.34" stroke="#075985" stroke-width="1.4"/>
<text x="84.571" y="477.303" font-size="13" font-family="monospace" fill="#111827">1</text>
<rect x="84.571" y="72.809" width="52.204" height="404.494" fill="#38bdf8" fill-opacity="0.34" stroke="#075985" stroke-width="1.4"/>
<text x="84.571" y="72.809" font-size="13" font-family="monospace" fill="#111827">2</text>
<rect x="136.775" y="297.528" width="52.204" height="134.831" fill="#38bdf8" fill-opacity="0.34" stroke="#075985" stroke-width="1.4"/>
<text x="136.775" y="297.528" font-size="13" font-family="monospace" fill="#111827">3</text>
<rect x="136.775" y="72.809" width="208.817" height="179.775" fill="#38bdf8" fill-opacity="0.34" stroke="#075985" stroke-width="1.4"/>
<text x="136.775" y="72.809" font-size="13" font-family="monospace" fill="#111827">4</text>
<rect x="241.183" y="342.472" width="261.021" height="44.944" fill="#38bdf8" fill-opacity="0.34" stroke="#075985" stroke-width="1.4"/>
<text x="241.183" y="342.472" font-size="13" font-family="monospace" fill="#111827">5</text>
<rect x="293.387" y="387.416" width="104.408" height="134.831" fill="#38bdf8" fill-opacity="0.34" stroke="#075985" stroke-width="1.4"/>
<text x="293.387" y="387.416" font-size="13" font-family="monospace" fill="#111827">6</text>
<rect x="345.592" y="162.697" width="156.613" height="179.775" fill="#38bdf8" fill-opacity="0.34" stroke="#075985" stroke-width="1.4"/>
<text x="345.592" y="162.697" font-size="13" font-family="monospace" fill="#111827">7</text>
<rect x="397.796" y="432.36" width="52.204" height="134.831" fill="#38bdf8" fill-opacity="0.34" stroke="#075985" stroke-width="1.4"/>
<text x="397.796" y="432.36" font-size="13" font-family="monospace" fill="#111827">8</text>
<rect x="397.796" y="72.809" width="417.633" height="44.944" fill="#38bdf8" fill-opacity="0.34" stroke="#075985" stroke-width="1.4"/>
<text x="397.796" y="72.809" font-size="13" font-family="monospace" fill="#111827">9</text>
<rect x="450" y="477.303" width="208.817" height="44.944" fill="#38bdf8" fill-opacity="0.34" stroke="#075985" stroke-width="1.4"/>
<text x="450" y="477.303" font-size="13" font-family="monospace" fill="#111827">10</text>
<rect x="502.204" y="207.64" width="52.204" height="269.663" fill="#38bdf8" fill-opacity="0.34" stroke="#075985" stroke-width="1.4"/>
<text x="502.204" y="207.64" font-size="13" font-family="monospace" fill="#111827">11</text>
<rect x="606.613" y="117.753" width="104.408" height="179.775" fill="#38bdf8" fill-opacity="0.34" stroke="#075985" stroke-width="1.4"/>
<text x="606.613" y="117.753" font-size="13" font-family="monospace" fill="#111827">12</text>
<rect x="658.817" y="387.416" width="156.613" height="179.775" fill="#38bdf8" fill-opacity="0.34" stroke="#075985" stroke-width="1.4"/>
<text x="658.817" y="387.416" font-size="13" font-family="monospace" fill="#111827">13</text>
<rect x="763.225" y="252.584" width="52.204" height="134.831" fill="#38bdf8" fill-opacity="0.34" stroke="#075985" stroke-width="1.4"/>
<text x="763.225" y="252.584" font-size="13" font-family="monospace" fill="#111827">14</text>
<line x1="136.775" y1="640" x2="136.775" y2="0" stroke="#7c3aed" stroke-width="1.5" stroke-dasharray="8 5"/>
<line x1="188.979" y1="640" x2="188.979" y2="0" stroke="#7c3aed" stroke-width="1.5" stroke-dasharray="8 5"/>
<line x1="188.979" y1="387.416" x2="900" y2="387.416" stroke="#7c3aed" stroke-width="1.5" stroke-dasharray="8 5"/>
<line x1="397.796" y1="640" x2="397.796" y2="387.416" stroke="#7c3aed" stroke-width="1.5" stroke-dasharray="8 5"/>
<line x1="450" y1="640" x2="450" y2="387.416" stroke="#7c3aed" stroke-width="1.5" stroke-dasharray="8 5"/>
<line x1="658.817" y1="640" x2="658.817" y2="387.416" stroke="#7c3aed" stroke-width="1.5" stroke-dasharray="8 5"/>
<line x1="188.979" y1="117.753" x2="900" y2="117.753" stroke="#7c3aed" stroke-width="1.5" stroke-dasharray="8 5"/>
<line x1="502.204" y1="387.416" x2="502.204" y2="117.753" stroke="#7c3aed" stroke-width="1.5" stroke-dasharray="8 5"/>
<line x1="188.979" y1="342.472" x2="502.204" y2="342.472" stroke="#7c3aed" stroke-width="1.5" stroke-dasharray="8 5"/>
<line x1="711.021" y1="387.416" x2="711.021" y2="117.753" stroke="#7c3aed" stroke-width="1.5" stroke-dasharray="8 5"/>
</svg>
