<svg xmlns="http://www.w3.org/2000/svg" width="900" height="640" viewBox="0 0 900 640">
<title>Guillotine score=0.1111111111111111 saved=16 n=18</title>
<rect width="100%" height="100%" fill="#ffffff"/>
<rect x="81.902" y="429.89" width="92.025" height="43.956" fill="#38bdf8" fill-opacity="0.34" stroke="#075985" stroke-width="1.4"/>
<text x="81.902" y="429.89" font-size="13" font-family="monospace" fill="#111827">0</text>
<rect x="81.902" y="385.934" width="138.037" height="43.956" fill="#38bdf8" fill-opacity="0.34" stroke="#075985" stroke-width="1.4"/>
<text x="81.902" y="385.934" font-size="13" font-family="monospace" fill="#111827">1</text>
<rect x="81.902" y="254.066" width="138.037" height="43.956" fill="#38bdf8" fill-opacity="0.34" stroke="#075985" stroke-width="1.4"/>
<text x="81.902" y="254.066" font-size="13" font-family="monospace" fill="#111827">2</text>
<rect x="127.914" y="517.802" width="138.037" height="43.956" fill="#38bdf8" fill-opacity="0.34" stroke="#075985" stroke-width="1.4"/>
<text x="127.914" y="517.802" font-size="13" font-family="monospace" fill="#111827">3</text>
<rect x="127.914" y="473.846" width="46.012" height="43.956" fill="#38bdf8" fill-opacity="0.34" stroke="#075985" stroke-width="1.4"/>
<text x="127.914" y="473.846" font-size="13" font-family="monospace" fill="#111827">4</text>
<rect x="219.939" y="341.978" width="46.012" height="175.824" fill="#38bdf8" fill-opacity="0.34" stroke="#075985" stroke-width="1.4"/>
<text x="219.939" y="341.978" font-size="13" font-family="monospace" fill="#111827">5</text>
<rect x="265.951" y="122.198" width="230.061" height="43.956" fill="#38bdf8" fill-opacity="0.34" stroke="#075985" stroke-width="1.4"/>
<text x="265.951" y="122.198" font-size="13" font-family="monospace" fill="#111827">6</text>
<rect x="311.963" y="341.978" width="46.012" height="87.912" fill="#38bdf8" fill-opacity="0.34" stroke="#075985" stroke-width="1.4"/>
<text x="311.963" y="341.978" font-size="13" font-family="monospace" fill="#111827">7</text>
<rect x="357.975" y="385.934" width="46.012" height="87.912" fill="#38bdf8" fill-opacity="0.34" stroke="#075985" stroke-width="1.4"/>
<text x="357.975" y="385.934" font-size="13" font-family="monospace" fill="#111827">8</text>
<rect x="403.988" y="517.802" width="46.012" height="43.956" fill="#38bdf8" fill-opacity="0.34" stroke="#075985" stroke-width="1.4"/>
<text x="403.988" y="517.802" font-size="13" font-family="monospace" fill="#111827">9</text>
<rect x="450" y="210.11" width="46.012" height="131.868" fill="#38bdf8" fill-opacity="0.34" stroke="#075985" stroke-width="1.4"/>
<text x="450" y="210.11" font-size="13" font-family="monospace" fill="#111827">10</text>
<rect x="496.012" y="298.022" width="46.012" height="263.736" fill="#38bdf8" fill-opacity="0.34" stroke="#075985" stroke-width="1.4"/>
<text x="496.012" y="298.022" font-size="13" font-family="monospace" fill="#111827">11</text>
<rect x="496.012" y="166.154" width="138.037" height="131.868" fill="#38bdf8" fill-opacity="0.34" stroke="#075985" stroke-width="1.4"/>
<text x="496.012" y="166.154" font-size="13" font-family="monospace" fill="#111827">12</text>
<rect x="588.037" y="473.846" width="138.037" height="87.912" fill="#38bdf8" fill-opacity="0.34" stroke="#075985" stroke-width="1.4"/>
<text x="588.037" y="473.846" font-size="13" font-family="monospace" fill="#111827">13</text>
<rect x="634.049" y="122.198" width="46.012" height="263.736" fill="#38bdf8" fill-opacity="0.34" stroke="#075985" stroke-width="1.4"/>
<text x="634.049" y="122.198" font-size="13" font-family="monospace" fill="#111827">14</text>
<rect x="634.049" y="78.242" width="138.037" height="43.956" fill="#38bdf8" fill-opacity="0.34" stroke="#075985" stroke-width="1.4"/>
<text x="634.049" y="78.242" font-size="13" font-family="monospace" fill="#111827">15</text>
<rect x="680.061" y="254.066" width="138.037" height="87.912" fill="#38bdf8" fill-opacity="0.34" stroke="#075985" stroke-width="1.4"/>
<text x="680.061" y="254.066" font-size="13" font-family="monospace" fill="#111827">16</text>
<rect x="772.086" y="78.242" width="46.012" height="87.912" fill="#38bdf8" fill-opacity="0.34" stroke="#075985" stroke-width="1.4"/>
<text x="772.086" y="78.242" font-size="13" font-family="monospace" fill="#111827">17</text>
<line x1="265.951" y1="640" x2="265.951" y2="0" stroke="#7c3aed" stroke-width="1.5" stroke-dasharray="8 5"/>
<line x1="0" y1="517.802" x2="265.951" y2="517.802" stroke="#7c3aed" stroke-width="1.5" stroke-dasharray="8 5"/>
<line x1="219.939" y1="517.802" x2="219.939" y2="0" stroke="#7c3aed" stroke-width="1.5" stroke-dasharray="8 5"/>
<line x1="0" y1="473.846" x2="219.939" y2="473.846" stroke="#7c3aed" stroke-width="1.5" stroke-dasharray="8 5"/>
<line x1="0" y1="429.89" x2="219.939" y2="429.89" stroke="#7c3aed" stroke-width="1.5" stroke-dasharray="8 5"/>
<line x1="0" y1="385.934" x2="219.939" y2="385.934" stroke="#7c3aed" stroke-width="1.5" stroke-dasharray="8 5"/>
<line x1="496.012" y1="640" x2="496.012" y2="0" stroke="#7c3aed" stroke-width="1.5" stroke-dasharray="8 5"/>
<line x1="265.951" y1="517.802" x2="496.012" y2="517.802" stroke="#7c3aed" stroke-width="1.5" stroke-dasharray="8 5"/>
<line x1="265.951" y1="341.978" x2="496.012" y2="341.978" stroke="#7c3aed" stroke-width="1.5" stroke-dasharray="8 5"/>
<line x1="357.975" y1="517.802" x2="357.975" y2="341.978" stroke="#7c3aed" stroke-width="1.5" stroke-dasharray="8 5"/>
<line x1="265.951" y1="210.11" x2="496.012" y2="210.11" stroke="#7c3aed" stroke-width="1.5" stroke-dasharray="8 5"/>
<line x1="542.025" y1="640" x2="542.025" y2="0" stroke="#7c3aed" stroke-width="1.5" stroke-dasharray="8 5"/>
<line x1="772.086" y1="640" x2="772.086" y2="0" stroke="#7c3aed" stroke-width="1.5" stroke-dasharray="8 5"/>
<line x1="542.025" y1="473.846" x2="772.086" y2="473.846" stroke="#7c3aed" stroke-width="1.5" stroke-dasharray="8 5"/>
<line x1="542.025" y1="122.198" x2="772.086" y2="122.198" stroke="#7c3aed" stroke-width="1.5" stroke-dasharray="8 5"/>
</svg>
