<svg xmlns="http://www.w3.org/2000/svg" width="900" height="640" viewBox="0 0 900 640">
<title>Unit-square score=1.5 tau=5 tau_lp=3.3333333333333335</title>
<rect width="100%" height="100%" fill="#ffffff"/>
<rect x="83.152" y="511.304" width="97.826" height="69.565" fill="#fbbf24" fill-opacity="0.32" stroke="#92400e" stroke-width="1.4"/>
<text x="83.152" y="511.304" font-size="13" font-family="monospace" fill="#111827">0</text>
<rect x="83.152" y="476.522" width="97.826" height="69.565" fill="#fbbf24" fill-opacity="0.32" stroke="#92400e" stroke-width="1.4"/>
<text x="83.152" y="476.522" font-size="13" font-family="monospace" fill="#111827">1</text>
<rect x="83.152" y="441.739" width="97.826" height="69.565" fill="#fbbf24" fill-opacity="0.32" stroke="#92400e" stroke-width="1.4"/>
<text x="83.152" y="441.739" font-size="13" font-family="monospace" fill="#111827">2</text>
<rect x="83.152" y="406.957" width="97.826" height="69.565" fill="#fbbf24" fill-opacity="0.32" stroke="#92400e" stroke-width="1.4"/>
<text x="83.152" y="406.957" font-size="13" font-family="monospace" fill="#111827">3</text>
<rect x="83.152" y="372.174" width="97.826" height="69.565" fill="#fbbf24" fill-opacity="0.32" stroke="#92400e" stroke-width="1.4"/>
<text x="83.152" y="372.174" font-size="13" font-family="monospace" fill="#111827">4</text>
<rect x="132.065" y="511.304" width="97.826" height="69.565" fill="#fbbf24" fill-opacity="0.32" stroke="#92400e" stroke-width="1.4"/>
<text x="132.065" y="511.304" font-size="13" font-family="monospace" fill="#111827">5</text>
<rect x="132.065" y="476.522" width="97.826" height="69.565" fill="#fbbf24" fill-opacity="0.32" stroke="#92400e" stroke-width="1.4"/>
<text x="132.065" y="476.522" font-size="13" font-family="monospace" fill="#111827">6</text>
<rect x="180.978" y="511.304" width="97.826" height="69.565" fill="#fbbf24" fill-opacity="0.32" stroke="#92400e" stroke-width="1.4"/>
<text x="180.978" y="511.304" font-size="13" font-family="monospace" fill="#111827">7</text>
<rect x="180.978" y="267.826" width="97.826" height="69.565" fill="#fbbf24" fill-opacity="0.32" stroke="#92400e" stroke-width="1.4"/>
<text x="180.978" y="267.826" font-size="13" font-family="monospace" fill="#111827">8</text>
<rect x="229.891" y="511.304" width="97.826" height="69.565" fill="#fbbf24" fill-opacity="0.32" stroke="#92400e" stroke-width="1.4"/>
<text x="229.891" y="511.304" font-size="13" font-family="monospace" fill="#111827">9</text>
<rect x="278.804" y="476.522" width="97.826" height="69.565" fill="#fbbf24" fill-opacity="0.32" stroke="#92400e" stroke-width="1.4"/>
<text x="278.804" y="476.522" font-size="13" font-family="monospace" fill="#111827">10</text>
<rect x="278.804" y="372.174" width="97.826" height="69.565" fill="#fbbf24" fill-opacity="0.32" stroke="#92400e" stroke-width="1.4"/>
<text x="278.804" y="372.174" font-size="13" font-family="monospace" fill="#111827">11</text>
<rect x="425.543" y="441.739" width="97.826" height="69.565" fill="#fbbf24" fill-opacity="0.32" stroke="#92400e" stroke-width="1.4"/>
<text x="425.543" y="441.739" font-size="13" font-family="monospace" fill="#111827">12</text>
<rect x="523.37" y="128.696" width="97.826" height="69.565" fill="#fbbf24" fill-opacity="0.32" stroke="#92400e" stroke-width="1.4"/>
<text x="523.37" y="128.696" font-size="13" font-family="monospace" fill="#111827">13</text>
<rect x="572.283" y="372.174" width="97.826" height="69.565" fill="#fbbf24" fill-opacity="0.32" stroke="#92400e" stroke-width="1.4"/>
<text x="572.283" y="372.174" font-size="13" font-family="monospace" fill="#111827">14</text>
<rect x="572.283" y="163.478" width="97.826" height="69.565" fill="#fbbf24" fill-opacity="0.32" stroke="#92400e" stroke-width="1.4"/>
<text x="572.283" y="163.478" font-size="13" font-family="monospace" fill="#111827">15</text>
<rect x="572.283" y="59.13" width="97.826" height="69.565" fill="#fbbf24" fill-opacity="0.32" stroke="#92400e" stroke-width="1.4"/>
<text x="572.283" y="59.13" font-size="13" font-family="monospace" fill="#111827">16</text>
<rect x="621.196" y="372.174" width="97.826" height="69.565" fill="#fbbf24" fill-opacity="0.32" stroke="#92400e" stroke-width="1.4"/>
<text x="621.196" y="372.174" font-size="13" font-family="monospace" fill="#111827">17</text>
<rect x="670.109" y="128.696" width="97.826" height="69.565" fill="#fbbf24" fill-opacity="0.32" stroke="#92400e" stroke-width="1.4"/>
<text x="670.109" y="128.696" font-size="13" font-family="monospace" fill="#111827">18</text>
<rect x="719.022" y="441.739" width="97.826" height="69.565" fill="#fbbf24" fill-opacity="0.32" stroke="#92400e" stroke-width="1.4"/>
<text x="719.022" y="441.739" font-size="13" font-family="monospace" fill="#111827">19</text>
<line x1="180.978" y1="640" x2="180.978" y2="0" stroke="#dc2626" stroke-width="2.4"/>
<line x1="278.804" y1="640" x2="278.804" y2="0" stroke="#dc2626" stroke-width="2.4"/>
<line x1="621.196" y1="640" x2="621.196" y2="0" stroke="#dc2626" stroke-width="2.4"/>
<line x1="670.109" y1="640" x2="670.109" y2="0" stroke="#dc2626" stroke-width="2.4"/>
<line x1="0" y1="511.304" x2="900" y2="511.304" stroke="#dc2626" stroke-width="2.4"/>
</svg>
