<svg xmlns="http://www.w3.org/2000/svg" width="900" height="640" viewBox="0 0 900 640">
<title>MISR score=1.3333333333333333 alpha_lp=4.0 alpha=3</title>
<rect width="100%" height="100%" fill="#ffffff"/>
<rect x="73.268" y="347.714" width="675.52" height="18.476" fill="#60a5fa" fill-opacity="0.24" stroke="#1d4ed8" stroke-width="1.4"/>
<text x="73.268" y="347.714" font-size="13" font-family="monospace" fill="#111827">0</text>
<rect x="99.249" y="199.908" width="701.501" height="55.427" fill="#60a5fa" fill-opacity="0.24" stroke="#1d4ed8" stroke-width="1.4"/>
<text x="99.249" y="199.908" font-size="13" font-family="monospace" fill="#111827">1</text>
<rect x="125.231" y="181.432" width="207.852" height="240.185" fill="#60a5fa" fill-opacity="0.24" stroke="#1d4ed8" stroke-width="1.4"/>
<text x="125.231" y="181.432" font-size="13" font-family="monospace" fill="#111827">2</text>
<rect x="151.212" y="107.529" width="337.76" height="203.233" fill="#60a5fa" fill-opacity="0.24" stroke="#1d4ed8" stroke-width="1.4"/>
<text x="151.212" y="107.529" font-size="13" font-family="monospace" fill="#111827">3</text>
<rect x="177.194" y="403.141" width="337.76" height="92.379" fill="#22c55e" fill-opacity="0.36" stroke="#166534" stroke-width="2.0"/>
<text x="177.194" y="403.141" font-size="13" font-family="monospace" fill="#111827">4</text>
<rect x="203.176" y="329.238" width="623.557" height="129.33" fill="#60a5fa" fill-opacity="0.24" stroke="#1d4ed8" stroke-width="1.4"/>
<text x="203.176" y="329.238" font-size="13" font-family="monospace" fill="#111827">5</text>
<rect x="229.157" y="162.956" width="493.649" height="369.515" fill="#60a5fa" fill-opacity="0.24" stroke="#1d4ed8" stroke-width="1.4"/>
<text x="229.157" y="162.956" font-size="13" font-family="monospace" fill="#111827">6</text>
<rect x="255.139" y="89.053" width="415.704" height="424.942" fill="#60a5fa" fill-opacity="0.24" stroke="#1d4ed8" stroke-width="1.4"/>
<text x="255.139" y="89.053" font-size="13" font-family="monospace" fill="#111827">7</text>
<rect x="281.12" y="70.577" width="311.778" height="147.806" fill="#60a5fa" fill-opacity="0.24" stroke="#1d4ed8" stroke-width="1.4"/>
<text x="281.12" y="70.577" font-size="13" font-family="monospace" fill="#111827">8</text>
<rect x="307.102" y="144.48" width="467.667" height="424.942" fill="#60a5fa" fill-opacity="0.24" stroke="#1d4ed8" stroke-width="1.4"/>
<text x="307.102" y="144.48" font-size="13" font-family="monospace" fill="#111827">9</text>
<rect x="359.065" y="126.005" width="207.852" height="147.806" fill="#60a5fa" fill-opacity="0.24" stroke="#1d4ed8" stroke-width="1.4"/>
<text x="359.065" y="126.005" font-size="13" font-family="monospace" fill="#111827">10</text>
<rect x="385.046" y="236.859" width="155.889" height="203.233" fill="#60a5fa" fill-opacity="0.24" stroke="#1d4ed8" stroke-width="1.4"/>
<text x="385.046" y="236.859" font-size="13" font-family="monospace" fill="#111827">11</text>
<rect x="411.028" y="52.102" width="51.963" height="332.564" fill="#22c55e" fill-opacity="0.36" stroke="#166534" stroke-width="2.0"/>
<text x="411.028" y="52.102" font-size="13" font-family="monospace" fill="#111827">12</text>
<rect x="437.009" y="477.044" width="207.852" height="110.855" fill="#60a5fa" fill-opacity="0.24" stroke="#1d4ed8" stroke-width="1.4"/>
<text x="437.009" y="477.044" font-size="13" font-family="monospace" fill="#111827">13</text>
<rect x="618.88" y="292.286" width="77.945" height="258.661" fill="#22c55e" fill-opacity="0.36" stroke="#166534" stroke-width="2.0"/>
<text x="618.88" y="292.286" font-size="13" font-family="monospace" fill="#111827">14</text>
</svg>
