<svg xmlns="http://www.w3.org/2000/svg" width="900" height="640" viewBox="0 0 900 640">
<title>Guillotine score=0.25 saved=9 n=12</title>
<rect width="100%" height="100%" fill="#ffffff"/>
<rect x="90.262" y="401.633" width="65.407" height="108.844" fill="#38bdf8" fill-opacity="0.34" stroke="#075985" stroke-width="1.4"/>
<text x="90.262" y="401.633" font-size="13" font-family="monospace" fill="#111827">0</text>
<rect x="90.262" y="238.367" width="457.849" height="54.422" fill="#38bdf8" fill-opacity="0.34" stroke="#075985" stroke-width="1.4"/>
<text x="90.262" y="238.367" font-size="13" font-family="monospace" fill="#111827">1</text>
<rect x="155.669" y="347.211" width="130.814" height="163.265" fill="#38bdf8" fill-opacity="0.34" stroke="#075985" stroke-width="1.4"/>
<text x="155.669" y="347.211" font-size="13" font-family="monospace" fill="#111827">2</text>
<rect x="221.076" y="510.476" width="196.221" height="54.422" fill="#38bdf8" fill-opacity="0.34" stroke="#075985" stroke-width="1.4"/>
<text x="221.076" y="510.476" font-size="13" font-family="monospace" fill="#111827">3</text>
<rect x="286.483" y="292.789" width="261.628" height="54.422" fill="#38bdf8" fill-opacity="0.34" stroke="#075985" stroke-width="1.4"/>
<text x="286.483" y="292.789" font-size="13" font-family="monospace" fill="#111827">4</text>
<rect x="351.89" y="401.633" width="392.442" height="54.422" fill="#38bdf8" fill-opacity="0.34" stroke="#075985" stroke-width="1.4"/>
<text x="351.89" y="401.633" font-size="13" font-family="monospace" fill="#111827">5</text>
<rect x="417.297" y="75.102" width="65.407" height="163.265" fill="#38bdf8" fill-opacity="0.34" stroke="#075985" stroke-width="1.4"/>
<text x="417.297" y="75.102" font-size="13" font-family="monospace" fill="#111827">6</text>
<rect x="482.703" y="129.524" width="261.628" height="54.422" fill="#38bdf8" fill-opacity="0.34" stroke="#075985" stroke-width="1.4"/>
<text x="482.703" y="129.524" font-size="13" font-family="monospace" fill="#111827">7</text>
<rect x="482.703" y="456.054" width="327.035" height="108.844" fill="#38bdf8" fill-opacity="0.34" stroke="#075985" stroke-width="1.4"/>
<text x="482.703" y="456.054" font-size="13" font-family="monospace" fill="#111827">8</text>
<rect x="613.517" y="183.946" width="65.407" height="217.687" fill="#38bdf8" fill-opacity="0.34" stroke="#075985" stroke-width="1.4"/>
<text x="613.517" y="183.946" font-size="13" font-family="monospace" fill="#111827">9</text>
<rect x="678.924" y="183.946" width="65.407" height="217.687" fill="#38bdf8" fill-opacity="0.34" stroke="#075985" stroke-width="1.4"/>
<text x="678.924" y="183.946" font-size="13" font-family="monospace" fill="#111827">10</text>
<rect x="744.331" y="129.524" width="65.407" height="326.531" fill="#38bdf8" fill-opacity="0.34" stroke="#075985" stroke-width="1.4"/>
<text x="744.331" y="129.524" font-size="13" font-family="monospace" fill="#111827">11</text>
<line x1="155.669" y1="640" x2="155.669" y2="0" stroke="#7c3aed" stroke-width="1.5" stroke-dasharray="8 5"/>
<line x1="188.372" y1="640" x2="188.372" y2="0" stroke="#7c3aed" stroke-width="1.5" stroke-dasharray="8 5"/>
<line x1="188.372" y1="456.054" x2="900" y2="456.054" stroke="#7c3aed" stroke-width="1.5" stroke-dasharray="8 5"/>
<line x1="417.297" y1="640" x2="417.297" y2="456.054" stroke="#7c3aed" stroke-width="1.5" stroke-dasharray="8 5"/>
<line x1="319.186" y1="456.054" x2="319.186" y2="0" stroke="#7c3aed" stroke-width="1.5" stroke-dasharray="8 5"/>
<line x1="744.331" y1="456.054" x2="744.331" y2="0" stroke="#7c3aed" stroke-width="1.5" stroke-dasharray="8 5"/>
<line x1="319.186" y1="401.633" x2="744.331" y2="401.633" stroke="#7c3aed" stroke-width="1.5" stroke-dasharray="8 5"/>
<line x1="482.703" y1="401.633" x2="482.703" y2="0" stroke="#7c3aed" stroke-width="1.5" stroke-dasharray="8 5"/>
<line x1="482.703" y1="183.946" x2="744.331" y2="183.946" stroke="#7c3aed" stroke-width="1.5" stroke-dasharray="8 5"/>
<line x1="678.924" y1="401.633" x2="678.924" y2="183.946" stroke="#7c3aed" stroke-width="1.5" stroke-dasharray="8 5"/>
</svg>
