<svg xmlns="http://www.w3.org/2000/svg" width="900" height="640" viewBox="0 0 900 640">
<title>Unit-square score=1.5000000000000004 tau=6 tau_lp=3.999999999999999</title>
<rect width="100%" height="100%" fill="#ffffff"/>
<rect x="80.792" y="489.884" width="86.873" height="61.776" fill="#fbbf24" fill-opacity="0.32" stroke="#92400e" stroke-width="1.4"/>
<text x="80.792" y="489.884" font-size="13" font-family="monospace" fill="#111827">0</text>
<rect x="211.1" y="273.668" width="86.873" height="61.776" fill="#fbbf24" fill-opacity="0.32" stroke="#92400e" stroke-width="1.4"/>
<text x="211.1" y="273.668" font-size="13" font-family="monospace" fill="#111827">1</text>
<rect x="211.1" y="119.228" width="86.873" height="61.776" fill="#fbbf24" fill-opacity="0.32" stroke="#92400e" stroke-width="1.4"/>
<text x="211.1" y="119.228" font-size="13" font-family="monospace" fill="#111827">2</text>
<rect x="254.537" y="520.772" width="86.873" height="61.776" fill="#fbbf24" fill-opacity="0.32" stroke="#92400e" stroke-width="1.4"/>
<text x="254.537" y="520.772" font-size="13" font-family="monospace" fill="#111827">3</text>
<rect x="254.537" y="57.452" width="86.873" height="61.776" fill="#fbbf24" fill-opacity="0.32" stroke="#92400e" stroke-width="1.4"/>
<text x="254.537" y="57.452" font-size="13" font-family="monospace" fill="#111827">4</text>
<rect x="297.973" y="150.116" width="86.873" height="61.776" fill="#fbbf24" fill-opacity="0.32" stroke="#92400e" stroke-width="1.4"/>
<text x="297.973" y="150.116" font-size="13" font-family="monospace" fill="#111827">5</text>
<rect x="341.409" y="273.668" width="86.873" height="61.776" fill="#fbbf24" fill-opacity="0.32" stroke="#92400e" stroke-width="1.4"/>
<text x="341.409" y="273.668" font-size="13" font-family="monospace" fill="#111827">6</text>
<rect x="384.846" y="458.996" width="86.873" height="61.776" fill="#fbbf24" fill-opacity="0.32" stroke="#92400e" stroke-width="1.4"/>
<text x="384.846" y="458.996" font-size="13" font-family="monospace" fill="#111827">7</text>
<rect x="471.718" y="119.228" width="86.873" height="61.776" fill="#fbbf24" fill-opacity="0.32" stroke="#92400e" stroke-width="1.4"/>
<text x="471.718" y="119.228" font-size="13" font-family="monospace" fill="#111827">8</text>
<rect x="471.718" y="88.34" width="86.873" height="61.776" fill="#fbbf24" fill-opacity="0.32" stroke="#92400e" stroke-width="1.4"/>
<text x="471.718" y="88.34" font-size="13" font-family="monospace" fill="#111827">9</text>
<rect x="515.154" y="520.772" width="86.873" height="61.776" fill="#fbbf24" fill-opacity="0.32" stroke="#92400e" stroke-width="1.4"/>
<text x="515.154" y="520.772" font-size="13" font-family="monospace" fill="#111827">10</text>
<rect x="515.154" y="428.108" width="86.873" height="61.776" fill="#fbbf24" fill-opacity="0.32" stroke="#92400e" stroke-width="1.4"/>
<text x="515.154" y="428.108" font-size="13" font-family="monospace" fill="#111827">11</text>
<rect x="558.591" y="335.444" width="86.873" height="61.776" fill="#fbbf24" fill-opacity="0.32" stroke="#92400e" stroke-width="1.4"/>
<text x="558.591" y="335.444" font-size="13" font-family="monospace" fill="#111827">12</text>
<rect x="558.591" y="242.78" width="86.873" height="61.776" fill="#fbbf24" fill-opacity="0.32" stroke="#92400e" stroke-width="1.4"/>
<text x="558.591" y="242.78" font-size="13" font-family="monospace" fill="#111827">13</text>
<rect x="602.027" y="119.228" width="86.873" height="61.776" fill="#fbbf24" fill-opacity="0.32" stroke="#92400e" stroke-width="1.4"/>
<text x="602.027" y="119.228" font-size="13" font-family="monospace" fill="#111827">14</text>
<rect x="645.463" y="520.772" width="86.873" height="61.776" fill="#fbbf24" fill-opacity="0.32" stroke="#92400e" stroke-width="1.4"/>
<text x="645.463" y="520.772" font-size="13" font-family="monospace" fill="#111827">15</text>
<rect x="645.463" y="428.108" width="86.873" height="61.776" fill="#fbbf24" fill-opacity="0.32" stroke="#92400e" stroke-width="1.4"/>
<text x="645.463" y="428.108" font-size="13" font-family="monospace" fill="#111827">16</text>
<rect x="645.463" y="304.556" width="86.873" height="61.776" fill="#fbbf24" fill-opacity="0.32" stroke="#92400e" stroke-width="1.4"/>
<text x="645.463" y="304.556" font-size="13" font-family="monospace" fill="#111827">17</text>
<rect x="688.9" y="458.996" width="86.873" height="61.776" fill="#fbbf24" fill-opacity="0.32" stroke="#92400e" stroke-width="1.4"/>
<text x="688.9" y="458.996" font-size="13" font-family="monospace" fill="#111827">18</text>
<rect x="732.336" y="119.228" width="86.873" height="61.776" fill="#fbbf24" fill-opacity="0.32" stroke="#92400e" stroke-width="1.4"/>
<text x="732.336" y="119.228" font-size="13" font-family="monospace" fill="#111827">19</text>
<line x1="80.792" y1="640" x2="80.792" y2="0" stroke="#dc2626" stroke-width="2.4"/>
<line x1="297.973" y1="640" x2="297.973" y2="0" stroke="#dc2626" stroke-width="2.4"/>
<line x1="384.846" y1="640" x2="384.846" y2="0" stroke="#dc2626" stroke-width="2.4"/>
<line x1="558.591" y1="640" x2="558.591" y2="0" stroke="#dc2626" stroke-width="2.4"/>
<line x1="688.9" y1="640" x2="688.9" y2="0" stroke="#dc2626" stroke-width="2.4"/>
<line x1="732.336" y1="640" x2="732.336" y2="0" stroke="#dc2626" stroke-width="2.4"/>
</svg>
