<svg xmlns="http://www.w3.org/2000/svg" width="900" height="640" viewBox="0 0 900 640">
<title>MISR score=1.5 alpha_lp=6.0 alpha=4</title>
<rect width="100%" height="100%" fill="#ffffff"/>
<rect x="92.857" y="269.206" width="714.286" height="50.794" fill="#60a5fa" fill-opacity="0.24" stroke="#1d4ed8" stroke-width="1.4"/>
<text x="92.857" y="269.206" font-size="13" font-family="monospace" fill="#111827">0</text>
<rect x="92.857" y="523.175" width="428.571" height="50.794" fill="#60a5fa" fill-opacity="0.24" stroke="#1d4ed8" stroke-width="1.4"/>
<text x="92.857" y="523.175" font-size="13" font-family="monospace" fill="#111827">1</text>
<rect x="735.714" y="218.413" width="71.429" height="355.556" fill="#60a5fa" fill-opacity="0.24" stroke="#1d4ed8" stroke-width="1.4"/>
<text x="735.714" y="218.413" font-size="13" font-family="monospace" fill="#111827">2</text>
<rect x="521.429" y="523.175" width="214.286" height="50.794" fill="#60a5fa" fill-opacity="0.24" stroke="#1d4ed8" stroke-width="1.4"/>
<text x="521.429" y="523.175" font-size="13" font-family="monospace" fill="#111827">3</text>
<rect x="235.714" y="66.032" width="285.714" height="50.794" fill="#60a5fa" fill-opacity="0.24" stroke="#1d4ed8" stroke-width="1.4"/>
<text x="235.714" y="66.032" font-size="13" font-family="monospace" fill="#111827">4</text>
<rect x="592.857" y="116.825" width="71.429" height="253.968" fill="#60a5fa" fill-opacity="0.24" stroke="#1d4ed8" stroke-width="1.4"/>
<text x="592.857" y="116.825" font-size="13" font-family="monospace" fill="#111827">5</text>
<rect x="592.857" y="370.794" width="71.429" height="203.175" fill="#22c55e" fill-opacity="0.36" stroke="#166534" stroke-width="2.0"/>
<text x="592.857" y="370.794" font-size="13" font-family="monospace" fill="#111827">6</text>
<rect x="307.143" y="116.825" width="71.429" height="253.968" fill="#60a5fa" fill-opacity="0.24" stroke="#1d4ed8" stroke-width="1.4"/>
<text x="307.143" y="116.825" font-size="13" font-family="monospace" fill="#111827">7</text>
<rect x="92.857" y="66.032" width="142.857" height="507.937" fill="#22c55e" fill-opacity="0.36" stroke="#166534" stroke-width="2.0"/>
<text x="92.857" y="66.032" font-size="13" font-family="monospace" fill="#111827">8</text>
<rect x="235.714" y="421.587" width="500" height="50.794" fill="#60a5fa" fill-opacity="0.24" stroke="#1d4ed8" stroke-width="1.4"/>
<text x="235.714" y="421.587" font-size="13" font-family="monospace" fill="#111827">9</text>
<rect x="307.143" y="370.794" width="71.429" height="203.175" fill="#22c55e" fill-opacity="0.36" stroke="#166534" stroke-width="2.0"/>
<text x="307.143" y="370.794" font-size="13" font-family="monospace" fill="#111827">10</text>
<rect x="521.429" y="66.032" width="214.286" height="152.381" fill="#22c55e" fill-opacity="0.36" stroke="#166534" stroke-width="2.0"/>
<text x="521.429" y="66.032" font-size="13" font-family="monospace" fill="#111827">11</text>
</svg>
