<svg xmlns="http://www.w3.org/2000/svg" width="900" height="640" viewBox="0 0 900 640">
<title>Unit-square score=1.2857142857142858 tau=6 tau_lp=4.666666666666666</title>
<rect width="100%" height="100%" fill="#ffffff"/>
<rect x="79.799" y="495.503" width="82.267" height="58.501" fill="#fbbf24" fill-opacity="0.32" stroke="#92400e" stroke-width="1.4"/>
<text x="79.799" y="495.503" font-size="13" font-family="monospace" fill="#111827">0</text>
<rect x="79.799" y="290.75" width="82.267" height="58.501" fill="#fbbf24" fill-opacity="0.32" stroke="#92400e" stroke-width="1.4"/>
<text x="79.799" y="290.75" font-size="13" font-family="monospace" fill="#111827">1</text>
<rect x="162.066" y="115.247" width="82.267" height="58.501" fill="#fbbf24" fill-opacity="0.32" stroke="#92400e" stroke-width="1.4"/>
<text x="162.066" y="115.247" font-size="13" font-family="monospace" fill="#111827">2</text>
<rect x="203.199" y="437.002" width="82.267" height="58.501" fill="#fbbf24" fill-opacity="0.32" stroke="#92400e" stroke-width="1.4"/>
<text x="203.199" y="437.002" font-size="13" font-family="monospace" fill="#111827">3</text>
<rect x="244.333" y="290.75" width="82.267" height="58.501" fill="#fbbf24" fill-opacity="0.32" stroke="#92400e" stroke-width="1.4"/>
<text x="244.333" y="290.75" font-size="13" font-family="monospace" fill="#111827">4</text>
<rect x="244.333" y="261.499" width="82.267" height="58.501" fill="#fbbf24" fill-opacity="0.32" stroke="#92400e" stroke-width="1.4"/>
<text x="244.333" y="261.499" font-size="13" font-family="monospace" fill="#111827">5</text>
<rect x="285.466" y="349.25" width="82.267" height="58.501" fill="#fbbf24" fill-opacity="0.32" stroke="#92400e" stroke-width="1.4"/>
<text x="285.466" y="349.25" font-size="13" font-family="monospace" fill="#111827">6</text>
<rect x="367.733" y="524.753" width="82.267" height="58.501" fill="#fbbf24" fill-opacity="0.32" stroke="#92400e" stroke-width="1.4"/>
<text x="367.733" y="524.753" font-size="13" font-family="monospace" fill="#111827">7</text>
<rect x="367.733" y="437.002" width="82.267" height="58.501" fill="#fbbf24" fill-opacity="0.32" stroke="#92400e" stroke-width="1.4"/>
<text x="367.733" y="437.002" font-size="13" font-family="monospace" fill="#111827">8</text>
<rect x="408.867" y="495.503" width="82.267" height="58.501" fill="#fbbf24" fill-opacity="0.32" stroke="#92400e" stroke-width="1.4"/>
<text x="408.867" y="495.503" font-size="13" font-family="monospace" fill="#111827">9</text>
<rect x="408.867" y="349.25" width="82.267" height="58.501" fill="#fbbf24" fill-opacity="0.32" stroke="#92400e" stroke-width="1.4"/>
<text x="408.867" y="349.25" font-size="13" font-family="monospace" fill="#111827">10</text>
<rect x="408.867" y="115.247" width="82.267" height="58.501" fill="#fbbf24" fill-opacity="0.32" stroke="#92400e" stroke-width="1.4"/>
<text x="408.867" y="115.247" font-size="13" font-family="monospace" fill="#111827">11</text>
<rect x="491.133" y="85.996" width="82.267" height="58.501" fill="#fbbf24" fill-opacity="0.32" stroke="#92400e" stroke-width="1.4"/>
<text x="491.133" y="85.996" font-size="13" font-family="monospace" fill="#111827">12</text>
<rect x="532.267" y="407.751" width="82.267" height="58.501" fill="#fbbf24" fill-opacity="0.32" stroke="#92400e" stroke-width="1.4"/>
<text x="532.267" y="407.751" font-size="13" font-family="monospace" fill="#111827">13</text>
<rect x="532.267" y="320" width="82.267" height="58.501" fill="#fbbf24" fill-opacity="0.32" stroke="#92400e" stroke-width="1.4"/>
<text x="532.267" y="320" font-size="13" font-family="monospace" fill="#111827">14</text>
<rect x="532.267" y="144.497" width="82.267" height="58.501" fill="#fbbf24" fill-opacity="0.32" stroke="#92400e" stroke-width="1.4"/>
<text x="532.267" y="144.497" font-size="13" font-family="monospace" fill="#111827">15</text>
<rect x="573.4" y="144.497" width="82.267" height="58.501" fill="#fbbf24" fill-opacity="0.32" stroke="#92400e" stroke-width="1.4"/>
<text x="573.4" y="144.497" font-size="13" font-family="monospace" fill="#111827">16</text>
<rect x="614.534" y="56.746" width="82.267" height="58.501" fill="#fbbf24" fill-opacity="0.32" stroke="#92400e" stroke-width="1.4"/>
<text x="614.534" y="56.746" font-size="13" font-family="monospace" fill="#111827">17</text>
<rect x="696.801" y="290.75" width="82.267" height="58.501" fill="#fbbf24" fill-opacity="0.32" stroke="#92400e" stroke-width="1.4"/>
<text x="696.801" y="290.75" font-size="13" font-family="monospace" fill="#111827">18</text>
<rect x="737.934" y="466.252" width="82.267" height="58.501" fill="#fbbf24" fill-opacity="0.32" stroke="#92400e" stroke-width="1.4"/>
<text x="737.934" y="466.252" font-size="13" font-family="monospace" fill="#111827">19</text>
<line x1="244.333" y1="640" x2="244.333" y2="0" stroke="#dc2626" stroke-width="2.4"/>
<line x1="367.733" y1="640" x2="367.733" y2="0" stroke="#dc2626" stroke-width="2.4"/>
<line x1="614.534" y1="640" x2="614.534" y2="0" stroke="#dc2626" stroke-width="2.4"/>
<line x1="0" y1="495.503" x2="900" y2="495.503" stroke="#dc2626" stroke-width="2.4"/>
<line x1="0" y1="349.25" x2="900" y2="349.25" stroke="#dc2626" stroke-width="2.4"/>
<line x1="0" y1="144.497" x2="900" y2="144.497" stroke="#dc2626" stroke-width="2.4"/>
</svg>
