<svg xmlns="http://www.w3.org/2000/svg" width="900" height="640" viewBox="0 0 900 640">
<title>Guillotine score=0.13333333333333333 saved=13 n=15</title>
<rect width="100%" height="100%" fill="#ffffff"/>
<rect x="110.377" y="472.381" width="84.906" height="101.587" fill="#38bdf8" fill-opacity="0.34" stroke="#075985" stroke-width="1.4"/>
<text x="110.377" y="472.381" font-size="13" font-family="monospace" fill="#111827">0</text>
<rect x="110.377" y="320" width="169.811" height="101.587" fill="#38bdf8" fill-opacity="0.34" stroke="#075985" stroke-width="1.4"/>
<text x="110.377" y="320" font-size="13" font-family="monospace" fill="#111827">1</text>
<rect x="110.377" y="218.413" width="84.906" height="101.587" fill="#38bdf8" fill-opacity="0.34" stroke="#075985" stroke-width="1.4"/>
<text x="110.377" y="218.413" font-size="13" font-family="monospace" fill="#111827">2</text>
<rect x="195.283" y="421.587" width="169.811" height="152.381" fill="#38bdf8" fill-opacity="0.34" stroke="#075985" stroke-width="1.4"/>
<text x="195.283" y="421.587" font-size="13" font-family="monospace" fill="#111827">3</text>
<rect x="195.283" y="269.206" width="254.717" height="50.794" fill="#38bdf8" fill-opacity="0.34" stroke="#075985" stroke-width="1.4"/>
<text x="195.283" y="269.206" font-size="13" font-family="monospace" fill="#111827">4</text>
<rect x="195.283" y="116.825" width="84.906" height="152.381" fill="#38bdf8" fill-opacity="0.34" stroke="#075985" stroke-width="1.4"/>
<text x="195.283" y="116.825" font-size="13" font-family="monospace" fill="#111827">5</text>
<rect x="280.189" y="370.794" width="84.906" height="50.794" fill="#38bdf8" fill-opacity="0.34" stroke="#075985" stroke-width="1.4"/>
<text x="280.189" y="370.794" font-size="13" font-family="monospace" fill="#111827">6</text>
<rect x="280.189" y="66.032" width="509.434" height="101.587" fill="#38bdf8" fill-opacity="0.34" stroke="#075985" stroke-width="1.4"/>
<text x="280.189" y="66.032" font-size="13" font-family="monospace" fill="#111827">7</text>
<rect x="365.094" y="472.381" width="84.906" height="101.587" fill="#38bdf8" fill-opacity="0.34" stroke="#075985" stroke-width="1.4"/>
<text x="365.094" y="472.381" font-size="13" font-family="monospace" fill="#111827">8</text>
<rect x="365.094" y="370.794" width="169.811" height="50.794" fill="#38bdf8" fill-opacity="0.34" stroke="#075985" stroke-width="1.4"/>
<text x="365.094" y="370.794" font-size="13" font-family="monospace" fill="#111827">9</text>
<rect x="365.094" y="218.413" width="254.717" height="50.794" fill="#38bdf8" fill-opacity="0.34" stroke="#075985" stroke-width="1.4"/>
<text x="365.094" y="218.413" font-size="13" font-family="monospace" fill="#111827">10</text>
<rect x="450" y="523.175" width="84.906" height="50.794" fill="#38bdf8" fill-opacity="0.34" stroke="#075985" stroke-width="1.4"/>
<text x="450" y="523.175" font-size="13" font-family="monospace" fill="#111827">11</text>
<rect x="534.906" y="269.206" width="84.906" height="304.762" fill="#38bdf8" fill-opacity="0.34" stroke="#075985" stroke-width="1.4"/>
<text x="534.906" y="269.206" font-size="13" font-family="monospace" fill="#111827">12</text>
<rect x="619.811" y="218.413" width="84.906" height="253.968" fill="#38bdf8" fill-opacity="0.34" stroke="#075985" stroke-width="1.4"/>
<text x="619.811" y="218.413" font-size="13" font-family="monospace" fill="#111827">13</text>
<rect x="704.717" y="370.794" width="84.906" height="152.381" fill="#38bdf8" fill-opacity="0.34" stroke="#075985" stroke-width="1.4"/>
<text x="704.717" y="370.794" font-size="13" font-family="monospace" fill="#111827">14</text>
<line x1="195.283" y1="640" x2="195.283" y2="0" stroke="#7c3aed" stroke-width="1.5" stroke-dasharray="8 5"/>
<line x1="0" y1="472.381" x2="195.283" y2="472.381" stroke="#7c3aed" stroke-width="1.5" stroke-dasharray="8 5"/>
<line x1="619.811" y1="640" x2="619.811" y2="0" stroke="#7c3aed" stroke-width="1.5" stroke-dasharray="8 5"/>
<line x1="195.283" y1="269.206" x2="619.811" y2="269.206" stroke="#7c3aed" stroke-width="1.5" stroke-dasharray="8 5"/>
<line x1="534.906" y1="640" x2="534.906" y2="269.206" stroke="#7c3aed" stroke-width="1.5" stroke-dasharray="8 5"/>
<line x1="195.283" y1="421.587" x2="534.906" y2="421.587" stroke="#7c3aed" stroke-width="1.5" stroke-dasharray="8 5"/>
<line x1="365.094" y1="640" x2="365.094" y2="421.587" stroke="#7c3aed" stroke-width="1.5" stroke-dasharray="8 5"/>
<line x1="450" y1="640" x2="450" y2="421.587" stroke="#7c3aed" stroke-width="1.5" stroke-dasharray="8 5"/>
<line x1="195.283" y1="370.794" x2="534.906" y2="370.794" stroke="#7c3aed" stroke-width="1.5" stroke-dasharray="8 5"/>
<line x1="365.094" y1="421.587" x2="365.094" y2="370.794" stroke="#7c3aed" stroke-width="1.5" stroke-dasharray="8 5"/>
<line x1="280.189" y1="269.206" x2="280.189" y2="0" stroke="#7c3aed" stroke-width="1.5" stroke-dasharray="8 5"/>
<line x1="704.717" y1="640" x2="704.717" y2="0" stroke="#7c3aed" stroke-width="1.5" stroke-dasharray="8 5"/>
</svg>
