<svg xmlns="http://www.w3.org/2000/svg" width="900" height="640" viewBox="0 0 900 640">
<title>Guillotine score=0.16666666666666666 saved=10 n=12</title>
<rect width="100%" height="100%" fill="#ffffff"/>
<rect x="121.875" y="472.381" width="93.75" height="101.587" fill="#38bdf8" fill-opacity="0.34" stroke="#075985" stroke-width="1.4"/>
<text x="121.875" y="472.381" font-size="13" font-family="monospace" fill="#111827">0</text>
<rect x="121.875" y="320" width="187.5" height="101.587" fill="#38bdf8" fill-opacity="0.34" stroke="#075985" stroke-width="1.4"/>
<text x="121.875" y="320" font-size="13" font-family="monospace" fill="#111827">1</text>
<rect x="121.875" y="66.032" width="93.75" height="101.587" fill="#38bdf8" fill-opacity="0.34" stroke="#075985" stroke-width="1.4"/>
<text x="121.875" y="66.032" font-size="13" font-family="monospace" fill="#111827">2</text>
<rect x="215.625" y="421.587" width="187.5" height="152.381" fill="#38bdf8" fill-opacity="0.34" stroke="#075985" stroke-width="1.4"/>
<text x="215.625" y="421.587" font-size="13" font-family="monospace" fill="#111827">3</text>
<rect x="215.625" y="269.206" width="281.25" height="50.794" fill="#38bdf8" fill-opacity="0.34" stroke="#075985" stroke-width="1.4"/>
<text x="215.625" y="269.206" font-size="13" font-family="monospace" fill="#111827">4</text>
<rect x="215.625" y="116.825" width="93.75" height="152.381" fill="#38bdf8" fill-opacity="0.34" stroke="#075985" stroke-width="1.4"/>
<text x="215.625" y="116.825" font-size="13" font-family="monospace" fill="#111827">5</text>
<rect x="215.625" y="66.032" width="562.5" height="50.794" fill="#38bdf8" fill-opacity="0.34" stroke="#075985" stroke-width="1.4"/>
<text x="215.625" y="66.032" font-size="13" font-family="monospace" fill="#111827">6</text>
<rect x="309.375" y="370.794" width="93.75" height="50.794" fill="#38bdf8" fill-opacity="0.34" stroke="#075985" stroke-width="1.4"/>
<text x="309.375" y="370.794" font-size="13" font-family="monospace" fill="#111827">7</text>
<rect x="403.125" y="218.413" width="187.5" height="50.794" fill="#38bdf8" fill-opacity="0.34" stroke="#075985" stroke-width="1.4"/>
<text x="403.125" y="218.413" font-size="13" font-family="monospace" fill="#111827">8</text>
<rect x="496.875" y="523.175" width="281.25" height="50.794" fill="#38bdf8" fill-opacity="0.34" stroke="#075985" stroke-width="1.4"/>
<text x="496.875" y="523.175" font-size="13" font-family="monospace" fill="#111827">9</text>
<rect x="590.625" y="218.413" width="93.75" height="253.968" fill="#38bdf8" fill-opacity="0.34" stroke="#075985" stroke-width="1.4"/>
<text x="590.625" y="218.413" font-size="13" font-family="monospace" fill="#111827">10</text>
<rect x="684.375" y="218.413" width="93.75" height="304.762" fill="#38bdf8" fill-opacity="0.34" stroke="#075985" stroke-width="1.4"/>
<text x="684.375" y="218.413" font-size="13" font-family="monospace" fill="#111827">11</text>
<line x1="215.625" y1="640" x2="215.625" y2="0" stroke="#7c3aed" stroke-width="1.5" stroke-dasharray="8 5"/>
<line x1="0" y1="472.381" x2="215.625" y2="472.381" stroke="#7c3aed" stroke-width="1.5" stroke-dasharray="8 5"/>
<line x1="215.625" y1="523.175" x2="900" y2="523.175" stroke="#7c3aed" stroke-width="1.5" stroke-dasharray="8 5"/>
<line x1="215.625" y1="116.825" x2="900" y2="116.825" stroke="#7c3aed" stroke-width="1.5" stroke-dasharray="8 5"/>
<line x1="590.625" y1="523.175" x2="590.625" y2="116.825" stroke="#7c3aed" stroke-width="1.5" stroke-dasharray="8 5"/>
<line x1="215.625" y1="370.794" x2="590.625" y2="370.794" stroke="#7c3aed" stroke-width="1.5" stroke-dasharray="8 5"/>
<line x1="215.625" y1="269.206" x2="590.625" y2="269.206" stroke="#7c3aed" stroke-width="1.5" stroke-dasharray="8 5"/>
<line x1="309.375" y1="269.206" x2="309.375" y2="116.825" stroke="#7c3aed" stroke-width="1.5" stroke-dasharray="8 5"/>
<line x1="684.375" y1="523.175" x2="684.375" y2="116.825" stroke="#7c3aed" stroke-width="1.5" stroke-dasharray="8 5"/>
</svg>
