<svg xmlns="http://www.w3.org/2000/svg" width="900" height="640" viewBox="0 0 900 640">
<title>Guillotine score=0.2222222222222222 saved=7 n=9</title>
<rect width="100%" height="100%" fill="#ffffff"/>
<rect x="92.857" y="347.586" width="71.429" height="220.69" fill="#38bdf8" fill-opacity="0.34" stroke="#075985" stroke-width="1.4"/>
<text x="92.857" y="347.586" font-size="13" font-family="monospace" fill="#111827">0</text>
<rect x="92.857" y="292.414" width="214.286" height="55.172" fill="#38bdf8" fill-opacity="0.34" stroke="#075985" stroke-width="1.4"/>
<text x="92.857" y="292.414" font-size="13" font-family="monospace" fill="#111827">1</text>
<rect x="235.714" y="513.103" width="214.286" height="55.172" fill="#38bdf8" fill-opacity="0.34" stroke="#075985" stroke-width="1.4"/>
<text x="235.714" y="513.103" font-size="13" font-family="monospace" fill="#111827">2</text>
<rect x="235.714" y="347.586" width="71.429" height="165.517" fill="#38bdf8" fill-opacity="0.34" stroke="#075985" stroke-width="1.4"/>
<text x="235.714" y="347.586" font-size="13" font-family="monospace" fill="#111827">3</text>
<rect x="235.714" y="71.724" width="428.571" height="55.172" fill="#38bdf8" fill-opacity="0.34" stroke="#075985" stroke-width="1.4"/>
<text x="235.714" y="71.724" font-size="13" font-family="monospace" fill="#111827">4</text>
<rect x="378.571" y="457.931" width="357.143" height="55.172" fill="#38bdf8" fill-opacity="0.34" stroke="#075985" stroke-width="1.4"/>
<text x="378.571" y="457.931" font-size="13" font-family="monospace" fill="#111827">5</text>
<rect x="378.571" y="292.414" width="214.286" height="110.345" fill="#38bdf8" fill-opacity="0.34" stroke="#075985" stroke-width="1.4"/>
<text x="378.571" y="292.414" font-size="13" font-family="monospace" fill="#111827">6</text>
<rect x="521.429" y="182.069" width="71.429" height="55.172" fill="#38bdf8" fill-opacity="0.34" stroke="#075985" stroke-width="1.4"/>
<text x="521.429" y="182.069" font-size="13" font-family="monospace" fill="#111827">7</text>
<rect x="664.286" y="71.724" width="142.857" height="386.207" fill="#38bdf8" fill-opacity="0.34" stroke="#075985" stroke-width="1.4"/>
<text x="664.286" y="71.724" font-size="13" font-family="monospace" fill="#111827">8</text>
<line x1="164.286" y1="640" x2="164.286" y2="0" stroke="#7c3aed" stroke-width="1.5" stroke-dasharray="8 5"/>
<line x1="664.286" y1="640" x2="664.286" y2="0" stroke="#7c3aed" stroke-width="1.5" stroke-dasharray="8 5"/>
<line x1="164.286" y1="513.103" x2="664.286" y2="513.103" stroke="#7c3aed" stroke-width="1.5" stroke-dasharray="8 5"/>
<line x1="164.286" y1="292.414" x2="664.286" y2="292.414" stroke="#7c3aed" stroke-width="1.5" stroke-dasharray="8 5"/>
<line x1="307.143" y1="513.103" x2="307.143" y2="292.414" stroke="#7c3aed" stroke-width="1.5" stroke-dasharray="8 5"/>
<line x1="164.286" y1="182.069" x2="664.286" y2="182.069" stroke="#7c3aed" stroke-width="1.5" stroke-dasharray="8 5"/>
</svg>
