<svg xmlns="http://www.w3.org/2000/svg" width="900" height="640" viewBox="0 0 900 640">
<title>Guillotine score=0.23076923076923078 saved=10 n=13</title>
<rect width="100%" height="100%" fill="#ffffff"/>
<rect x="86.194" y="342.727" width="111.94" height="227.273" fill="#38bdf8" fill-opacity="0.34" stroke="#075985" stroke-width="1.4"/>
<text x="86.194" y="342.727" font-size="13" font-family="monospace" fill="#111827">0</text>
<rect x="86.194" y="251.818" width="223.881" height="45.455" fill="#38bdf8" fill-opacity="0.34" stroke="#075985" stroke-width="1.4"/>
<text x="86.194" y="251.818" font-size="13" font-family="monospace" fill="#111827">1</text>
<rect x="142.164" y="297.273" width="279.851" height="45.455" fill="#38bdf8" fill-opacity="0.34" stroke="#075985" stroke-width="1.4"/>
<text x="142.164" y="297.273" font-size="13" font-family="monospace" fill="#111827">2</text>
<rect x="198.134" y="342.727" width="55.97" height="227.273" fill="#38bdf8" fill-opacity="0.34" stroke="#075985" stroke-width="1.4"/>
<text x="198.134" y="342.727" font-size="13" font-family="monospace" fill="#111827">3</text>
<rect x="198.134" y="115.455" width="223.881" height="90.909" fill="#38bdf8" fill-opacity="0.34" stroke="#075985" stroke-width="1.4"/>
<text x="198.134" y="115.455" font-size="13" font-family="monospace" fill="#111827">4</text>
<rect x="254.104" y="479.091" width="391.791" height="45.455" fill="#38bdf8" fill-opacity="0.34" stroke="#075985" stroke-width="1.4"/>
<text x="254.104" y="479.091" font-size="13" font-family="monospace" fill="#111827">5</text>
<rect x="254.104" y="342.727" width="111.94" height="90.909" fill="#38bdf8" fill-opacity="0.34" stroke="#075985" stroke-width="1.4"/>
<text x="254.104" y="342.727" font-size="13" font-family="monospace" fill="#111827">6</text>
<rect x="310.075" y="524.545" width="335.821" height="45.455" fill="#38bdf8" fill-opacity="0.34" stroke="#075985" stroke-width="1.4"/>
<text x="310.075" y="524.545" font-size="13" font-family="monospace" fill="#111827">7</text>
<rect x="366.045" y="388.182" width="223.881" height="90.909" fill="#38bdf8" fill-opacity="0.34" stroke="#075985" stroke-width="1.4"/>
<text x="366.045" y="388.182" font-size="13" font-family="monospace" fill="#111827">8</text>
<rect x="477.985" y="115.455" width="55.97" height="272.727" fill="#38bdf8" fill-opacity="0.34" stroke="#075985" stroke-width="1.4"/>
<text x="477.985" y="115.455" font-size="13" font-family="monospace" fill="#111827">9</text>
<rect x="589.925" y="160.909" width="111.94" height="272.727" fill="#38bdf8" fill-opacity="0.34" stroke="#075985" stroke-width="1.4"/>
<text x="589.925" y="160.909" font-size="13" font-family="monospace" fill="#111827">10</text>
<rect x="589.925" y="70" width="223.881" height="90.909" fill="#38bdf8" fill-opacity="0.34" stroke="#075985" stroke-width="1.4"/>
<text x="589.925" y="70" font-size="13" font-family="monospace" fill="#111827">11</text>
<rect x="757.836" y="160.909" width="55.97" height="409.091" fill="#38bdf8" fill-opacity="0.34" stroke="#075985" stroke-width="1.4"/>
<text x="757.836" y="160.909" font-size="13" font-family="monospace" fill="#111827">12</text>
<line x1="422.015" y1="640" x2="422.015" y2="0" stroke="#7c3aed" stroke-width="1.5" stroke-dasharray="8 5"/>
<line x1="0" y1="342.727" x2="422.015" y2="342.727" stroke="#7c3aed" stroke-width="1.5" stroke-dasharray="8 5"/>
<line x1="198.134" y1="640" x2="198.134" y2="342.727" stroke="#7c3aed" stroke-width="1.5" stroke-dasharray="8 5"/>
<line x1="254.104" y1="640" x2="254.104" y2="342.727" stroke="#7c3aed" stroke-width="1.5" stroke-dasharray="8 5"/>
<line x1="0" y1="297.273" x2="422.015" y2="297.273" stroke="#7c3aed" stroke-width="1.5" stroke-dasharray="8 5"/>
<line x1="0" y1="251.818" x2="422.015" y2="251.818" stroke="#7c3aed" stroke-width="1.5" stroke-dasharray="8 5"/>
<line x1="533.955" y1="640" x2="533.955" y2="0" stroke="#7c3aed" stroke-width="1.5" stroke-dasharray="8 5"/>
<line x1="533.955" y1="160.909" x2="900" y2="160.909" stroke="#7c3aed" stroke-width="1.5" stroke-dasharray="8 5"/>
<line x1="701.866" y1="640" x2="701.866" y2="160.909" stroke="#7c3aed" stroke-width="1.5" stroke-dasharray="8 5"/>
</svg>
