<svg xmlns="http://www.w3.org/2000/svg" width="900" height="640" viewBox="0 0 900 640">
<title>Unit-square score=1.2307692307692308 tau=4 tau_lp=3.25</title>
<rect width="100%" height="100%" fill="#ffffff"/>
<rect x="99.805" y="423.448" width="87.549" height="68.966" fill="#fbbf24" fill-opacity="0.32" stroke="#92400e" stroke-width="1.4"/>
<text x="99.805" y="423.448" font-size="13" font-family="monospace" fill="#111827">0</text>
<rect x="187.354" y="147.586" width="87.549" height="68.966" fill="#fbbf24" fill-opacity="0.32" stroke="#92400e" stroke-width="1.4"/>
<text x="187.354" y="147.586" font-size="13" font-family="monospace" fill="#111827">1</text>
<rect x="187.354" y="78.621" width="87.549" height="68.966" fill="#fbbf24" fill-opacity="0.32" stroke="#92400e" stroke-width="1.4"/>
<text x="187.354" y="78.621" font-size="13" font-family="monospace" fill="#111827">2</text>
<rect x="274.903" y="216.552" width="87.549" height="68.966" fill="#fbbf24" fill-opacity="0.32" stroke="#92400e" stroke-width="1.4"/>
<text x="274.903" y="216.552" font-size="13" font-family="monospace" fill="#111827">3</text>
<rect x="450" y="492.414" width="87.549" height="68.966" fill="#fbbf24" fill-opacity="0.32" stroke="#92400e" stroke-width="1.4"/>
<text x="450" y="492.414" font-size="13" font-family="monospace" fill="#111827">4</text>
<rect x="450" y="147.586" width="87.549" height="68.966" fill="#fbbf24" fill-opacity="0.32" stroke="#92400e" stroke-width="1.4"/>
<text x="450" y="147.586" font-size="13" font-family="monospace" fill="#111827">5</text>
<rect x="537.549" y="423.448" width="87.549" height="68.966" fill="#fbbf24" fill-opacity="0.32" stroke="#92400e" stroke-width="1.4"/>
<text x="537.549" y="423.448" font-size="13" font-family="monospace" fill="#111827">6</text>
<rect x="625.097" y="354.483" width="87.549" height="68.966" fill="#fbbf24" fill-opacity="0.32" stroke="#92400e" stroke-width="1.4"/>
<text x="625.097" y="354.483" font-size="13" font-family="monospace" fill="#111827">7</text>
<rect x="712.646" y="492.414" width="87.549" height="68.966" fill="#fbbf24" fill-opacity="0.32" stroke="#92400e" stroke-width="1.4"/>
<text x="712.646" y="492.414" font-size="13" font-family="monospace" fill="#111827">8</text>
<rect x="712.646" y="354.483" width="87.549" height="68.966" fill="#fbbf24" fill-opacity="0.32" stroke="#92400e" stroke-width="1.4"/>
<text x="712.646" y="354.483" font-size="13" font-family="monospace" fill="#111827">9</text>
<line x1="274.903" y1="640" x2="274.903" y2="0" stroke="#dc2626" stroke-width="2.4"/>
<line x1="450" y1="640" x2="450" y2="0" stroke="#dc2626" stroke-width="2.4"/>
<line x1="712.646" y1="640" x2="712.646" y2="0" stroke="#dc2626" stroke-width="2.4"/>
<line x1="0" y1="492.414" x2="900" y2="492.414" stroke="#dc2626" stroke-width="2.4"/>
</svg>
