<svg xmlns="http://www.w3.org/2000/svg" width="900" height="640" viewBox="0 0 900 640">
<title>Guillotine score=0.22727272727272727 saved=17 n=22</title>
<rect width="100%" height="100%" fill="#ffffff"/>
<rect x="87.746" y="534.511" width="80.501" height="50.473" fill="#38bdf8" fill-opacity="0.34" stroke="#075985" stroke-width="1.4"/>
<text x="87.746" y="534.511" font-size="13" font-family="monospace" fill="#111827">0</text>
<rect x="87.746" y="433.565" width="40.25" height="100.946" fill="#38bdf8" fill-opacity="0.34" stroke="#075985" stroke-width="1.4"/>
<text x="87.746" y="433.565" font-size="13" font-family="monospace" fill="#111827">1</text>
<rect x="87.746" y="155.962" width="120.751" height="277.603" fill="#38bdf8" fill-opacity="0.34" stroke="#075985" stroke-width="1.4"/>
<text x="87.746" y="155.962" font-size="13" font-family="monospace" fill="#111827">2</text>
<rect x="127.996" y="484.038" width="40.25" height="25.237" fill="#38bdf8" fill-opacity="0.34" stroke="#075985" stroke-width="1.4"/>
<text x="127.996" y="484.038" font-size="13" font-family="monospace" fill="#111827">3</text>
<rect x="127.996" y="458.801" width="201.252" height="25.237" fill="#38bdf8" fill-opacity="0.34" stroke="#075985" stroke-width="1.4"/>
<text x="127.996" y="458.801" font-size="13" font-family="monospace" fill="#111827">4</text>
<rect x="127.996" y="130.726" width="241.503" height="25.237" fill="#38bdf8" fill-opacity="0.34" stroke="#075985" stroke-width="1.4"/>
<text x="127.996" y="130.726" font-size="13" font-family="monospace" fill="#111827">5</text>
<rect x="168.247" y="484.038" width="161.002" height="100.946" fill="#38bdf8" fill-opacity="0.34" stroke="#075985" stroke-width="1.4"/>
<text x="168.247" y="484.038" font-size="13" font-family="monospace" fill="#111827">6</text>
<rect x="208.497" y="357.855" width="40.25" height="100.946" fill="#38bdf8" fill-opacity="0.34" stroke="#075985" stroke-width="1.4"/>
<text x="208.497" y="357.855" font-size="13" font-family="monospace" fill="#111827">7</text>
<rect x="208.497" y="155.962" width="201.252" height="151.42" fill="#38bdf8" fill-opacity="0.34" stroke="#075985" stroke-width="1.4"/>
<text x="208.497" y="155.962" font-size="13" font-family="monospace" fill="#111827">8</text>
<rect x="248.748" y="332.618" width="40.25" height="126.183" fill="#38bdf8" fill-opacity="0.34" stroke="#075985" stroke-width="1.4"/>
<text x="248.748" y="332.618" font-size="13" font-family="monospace" fill="#111827">9</text>
<rect x="288.998" y="307.382" width="201.252" height="50.473" fill="#38bdf8" fill-opacity="0.34" stroke="#075985" stroke-width="1.4"/>
<text x="288.998" y="307.382" font-size="13" font-family="monospace" fill="#111827">10</text>
<rect x="329.249" y="383.091" width="40.25" height="176.656" fill="#38bdf8" fill-opacity="0.34" stroke="#075985" stroke-width="1.4"/>
<text x="329.249" y="383.091" font-size="13" font-family="monospace" fill="#111827">11</text>
<rect x="329.249" y="357.855" width="161.002" height="25.237" fill="#38bdf8" fill-opacity="0.34" stroke="#075985" stroke-width="1.4"/>
<text x="329.249" y="357.855" font-size="13" font-family="monospace" fill="#111827">12</text>
<rect x="369.499" y="433.565" width="442.755" height="75.71" fill="#38bdf8" fill-opacity="0.34" stroke="#075985" stroke-width="1.4"/>
<text x="369.499" y="433.565" font-size="13" font-family="monospace" fill="#111827">13</text>
<rect x="450" y="206.435" width="201.252" height="25.237" fill="#38bdf8" fill-opacity="0.34" stroke="#075985" stroke-width="1.4"/>
<text x="450" y="206.435" font-size="13" font-family="monospace" fill="#111827">14</text>
<rect x="450" y="80.252" width="80.501" height="100.946" fill="#38bdf8" fill-opacity="0.34" stroke="#075985" stroke-width="1.4"/>
<text x="450" y="80.252" font-size="13" font-family="monospace" fill="#111827">15</text>
<rect x="490.25" y="256.909" width="40.25" height="151.42" fill="#38bdf8" fill-opacity="0.34" stroke="#075985" stroke-width="1.4"/>
<text x="490.25" y="256.909" font-size="13" font-family="monospace" fill="#111827">16</text>
<rect x="530.501" y="231.672" width="40.25" height="176.656" fill="#38bdf8" fill-opacity="0.34" stroke="#075985" stroke-width="1.4"/>
<text x="530.501" y="231.672" font-size="13" font-family="monospace" fill="#111827">17</text>
<rect x="570.751" y="55.016" width="161.002" height="50.473" fill="#38bdf8" fill-opacity="0.34" stroke="#075985" stroke-width="1.4"/>
<text x="570.751" y="55.016" font-size="13" font-family="monospace" fill="#111827">18</text>
<rect x="611.002" y="256.909" width="120.751" height="25.237" fill="#38bdf8" fill-opacity="0.34" stroke="#075985" stroke-width="1.4"/>
<text x="611.002" y="256.909" font-size="13" font-family="monospace" fill="#111827">19</text>
<rect x="691.503" y="130.726" width="40.25" height="126.183" fill="#38bdf8" fill-opacity="0.34" stroke="#075985" stroke-width="1.4"/>
<text x="691.503" y="130.726" font-size="13" font-family="monospace" fill="#111827">20</text>
<rect x="772.004" y="80.252" width="40.25" height="100.946" fill="#38bdf8" fill-opacity="0.34" stroke="#075985" stroke-width="1.4"/>
<text x="772.004" y="80.252" font-size="13" font-family="monospace" fill="#111827">21</text>
<line x1="369.499" y1="640" x2="369.499" y2="0" stroke="#7c3aed" stroke-width="1.5" stroke-dasharray="8 5"/>
<line x1="0" y1="155.962" x2="369.499" y2="155.962" stroke="#7c3aed" stroke-width="1.5" stroke-dasharray="8 5"/>
<line x1="329.249" y1="640" x2="329.249" y2="155.962" stroke="#7c3aed" stroke-width="1.5" stroke-dasharray="8 5"/>
<line x1="0" y1="484.038" x2="329.249" y2="484.038" stroke="#7c3aed" stroke-width="1.5" stroke-dasharray="8 5"/>
<line x1="168.247" y1="640" x2="168.247" y2="484.038" stroke="#7c3aed" stroke-width="1.5" stroke-dasharray="8 5"/>
<line x1="0" y1="534.511" x2="168.247" y2="534.511" stroke="#7c3aed" stroke-width="1.5" stroke-dasharray="8 5"/>
<line x1="0" y1="458.801" x2="329.249" y2="458.801" stroke="#7c3aed" stroke-width="1.5" stroke-dasharray="8 5"/>
<line x1="208.497" y1="458.801" x2="208.497" y2="155.962" stroke="#7c3aed" stroke-width="1.5" stroke-dasharray="8 5"/>
<line x1="248.748" y1="458.801" x2="248.748" y2="155.962" stroke="#7c3aed" stroke-width="1.5" stroke-dasharray="8 5"/>
<line x1="369.499" y1="433.565" x2="900" y2="433.565" stroke="#7c3aed" stroke-width="1.5" stroke-dasharray="8 5"/>
<line x1="530.501" y1="433.565" x2="530.501" y2="0" stroke="#7c3aed" stroke-width="1.5" stroke-dasharray="8 5"/>
<line x1="369.499" y1="256.909" x2="530.501" y2="256.909" stroke="#7c3aed" stroke-width="1.5" stroke-dasharray="8 5"/>
<line x1="570.751" y1="433.565" x2="570.751" y2="0" stroke="#7c3aed" stroke-width="1.5" stroke-dasharray="8 5"/>
<line x1="731.753" y1="433.565" x2="731.753" y2="0" stroke="#7c3aed" stroke-width="1.5" stroke-dasharray="8 5"/>
<line x1="570.751" y1="256.909" x2="731.753" y2="256.909" stroke="#7c3aed" stroke-width="1.5" stroke-dasharray="8 5"/>
<line x1="570.751" y1="130.726" x2="731.753" y2="130.726" stroke="#7c3aed" stroke-width="1.5" stroke-dasharray="8 5"/>
</svg>
