<svg xmlns="http://www.w3.org/2000/svg" width="900" height="640" viewBox="0 0 900 640">
<title>Guillotine score=0.2727272727272727 saved=16 n=22</title>
<rect width="100%" height="100%" fill="#ffffff"/>
<rect x="86.407" y="528.333" width="85.551" height="27.778" fill="#38bdf8" fill-opacity="0.34" stroke="#075985" stroke-width="1.4"/>
<text x="86.407" y="528.333" font-size="13" font-family="monospace" fill="#111827">0</text>
<rect x="86.407" y="445" width="42.776" height="83.333" fill="#38bdf8" fill-opacity="0.34" stroke="#075985" stroke-width="1.4"/>
<text x="86.407" y="445" font-size="13" font-family="monospace" fill="#111827">1</text>
<rect x="86.407" y="111.667" width="128.327" height="333.333" fill="#38bdf8" fill-opacity="0.34" stroke="#075985" stroke-width="1.4"/>
<text x="86.407" y="111.667" font-size="13" font-family="monospace" fill="#111827">2</text>
<rect x="129.183" y="472.778" width="213.878" height="27.778" fill="#38bdf8" fill-opacity="0.34" stroke="#075985" stroke-width="1.4"/>
<text x="129.183" y="472.778" font-size="13" font-family="monospace" fill="#111827">3</text>
<rect x="129.183" y="83.889" width="427.757" height="27.778" fill="#38bdf8" fill-opacity="0.34" stroke="#075985" stroke-width="1.4"/>
<text x="129.183" y="83.889" font-size="13" font-family="monospace" fill="#111827">4</text>
<rect x="171.958" y="500.556" width="171.103" height="83.333" fill="#38bdf8" fill-opacity="0.34" stroke="#075985" stroke-width="1.4"/>
<text x="171.958" y="500.556" font-size="13" font-family="monospace" fill="#111827">5</text>
<rect x="214.734" y="111.667" width="42.776" height="361.111" fill="#38bdf8" fill-opacity="0.34" stroke="#075985" stroke-width="1.4"/>
<text x="214.734" y="111.667" font-size="13" font-family="monospace" fill="#111827">6</text>
<rect x="257.51" y="361.667" width="42.776" height="111.111" fill="#38bdf8" fill-opacity="0.34" stroke="#075985" stroke-width="1.4"/>
<text x="257.51" y="361.667" font-size="13" font-family="monospace" fill="#111827">7</text>
<rect x="257.51" y="278.333" width="171.103" height="83.333" fill="#38bdf8" fill-opacity="0.34" stroke="#075985" stroke-width="1.4"/>
<text x="257.51" y="278.333" font-size="13" font-family="monospace" fill="#111827">8</text>
<rect x="257.51" y="111.667" width="213.878" height="138.889" fill="#38bdf8" fill-opacity="0.34" stroke="#075985" stroke-width="1.4"/>
<text x="257.51" y="111.667" font-size="13" font-family="monospace" fill="#111827">9</text>
<rect x="300.285" y="361.667" width="128.327" height="27.778" fill="#38bdf8" fill-opacity="0.34" stroke="#075985" stroke-width="1.4"/>
<text x="300.285" y="361.667" font-size="13" font-family="monospace" fill="#111827">10</text>
<rect x="300.285" y="250.556" width="213.878" height="27.778" fill="#38bdf8" fill-opacity="0.34" stroke="#075985" stroke-width="1.4"/>
<text x="300.285" y="250.556" font-size="13" font-family="monospace" fill="#111827">11</text>
<rect x="343.061" y="389.444" width="42.776" height="194.444" fill="#38bdf8" fill-opacity="0.34" stroke="#075985" stroke-width="1.4"/>
<text x="343.061" y="389.444" font-size="13" font-family="monospace" fill="#111827">12</text>
<rect x="385.837" y="417.222" width="171.103" height="138.889" fill="#38bdf8" fill-opacity="0.34" stroke="#075985" stroke-width="1.4"/>
<text x="385.837" y="417.222" font-size="13" font-family="monospace" fill="#111827">13</text>
<rect x="428.612" y="556.111" width="384.981" height="27.778" fill="#38bdf8" fill-opacity="0.34" stroke="#075985" stroke-width="1.4"/>
<text x="428.612" y="556.111" font-size="13" font-family="monospace" fill="#111827">14</text>
<rect x="428.612" y="333.889" width="171.103" height="83.333" fill="#38bdf8" fill-opacity="0.34" stroke="#075985" stroke-width="1.4"/>
<text x="428.612" y="333.889" font-size="13" font-family="monospace" fill="#111827">15</text>
<rect x="471.388" y="167.222" width="213.878" height="27.778" fill="#38bdf8" fill-opacity="0.34" stroke="#075985" stroke-width="1.4"/>
<text x="471.388" y="167.222" font-size="13" font-family="monospace" fill="#111827">16</text>
<rect x="514.163" y="222.778" width="85.551" height="83.333" fill="#38bdf8" fill-opacity="0.34" stroke="#075985" stroke-width="1.4"/>
<text x="514.163" y="222.778" font-size="13" font-family="monospace" fill="#111827">17</text>
<rect x="556.939" y="56.111" width="85.551" height="111.111" fill="#38bdf8" fill-opacity="0.34" stroke="#075985" stroke-width="1.4"/>
<text x="556.939" y="56.111" font-size="13" font-family="monospace" fill="#111827">18</text>
<rect x="642.49" y="83.889" width="128.327" height="55.556" fill="#38bdf8" fill-opacity="0.34" stroke="#075985" stroke-width="1.4"/>
<text x="642.49" y="83.889" font-size="13" font-family="monospace" fill="#111827">19</text>
<rect x="728.042" y="139.444" width="85.551" height="361.111" fill="#38bdf8" fill-opacity="0.34" stroke="#075985" stroke-width="1.4"/>
<text x="728.042" y="139.444" font-size="13" font-family="monospace" fill="#111827">20</text>
<rect x="770.817" y="528.333" width="42.776" height="27.778" fill="#38bdf8" fill-opacity="0.34" stroke="#075985" stroke-width="1.4"/>
<text x="770.817" y="528.333" font-size="13" font-family="monospace" fill="#111827">21</text>
<line x1="214.734" y1="640" x2="214.734" y2="0" stroke="#7c3aed" stroke-width="1.5" stroke-dasharray="8 5"/>
<line x1="0" y1="528.333" x2="214.734" y2="528.333" stroke="#7c3aed" stroke-width="1.5" stroke-dasharray="8 5"/>
<line x1="0" y1="445" x2="214.734" y2="445" stroke="#7c3aed" stroke-width="1.5" stroke-dasharray="8 5"/>
<line x1="257.51" y1="640" x2="257.51" y2="0" stroke="#7c3aed" stroke-width="1.5" stroke-dasharray="8 5"/>
<line x1="642.49" y1="640" x2="642.49" y2="0" stroke="#7c3aed" stroke-width="1.5" stroke-dasharray="8 5"/>
<line x1="257.51" y1="361.667" x2="642.49" y2="361.667" stroke="#7c3aed" stroke-width="1.5" stroke-dasharray="8 5"/>
<line x1="300.285" y1="640" x2="300.285" y2="361.667" stroke="#7c3aed" stroke-width="1.5" stroke-dasharray="8 5"/>
<line x1="300.285" y1="389.444" x2="642.49" y2="389.444" stroke="#7c3aed" stroke-width="1.5" stroke-dasharray="8 5"/>
<line x1="385.837" y1="640" x2="385.837" y2="389.444" stroke="#7c3aed" stroke-width="1.5" stroke-dasharray="8 5"/>
<line x1="514.163" y1="361.667" x2="514.163" y2="0" stroke="#7c3aed" stroke-width="1.5" stroke-dasharray="8 5"/>
<line x1="257.51" y1="278.333" x2="514.163" y2="278.333" stroke="#7c3aed" stroke-width="1.5" stroke-dasharray="8 5"/>
<line x1="257.51" y1="250.556" x2="514.163" y2="250.556" stroke="#7c3aed" stroke-width="1.5" stroke-dasharray="8 5"/>
<line x1="514.163" y1="222.778" x2="642.49" y2="222.778" stroke="#7c3aed" stroke-width="1.5" stroke-dasharray="8 5"/>
<line x1="642.49" y1="528.333" x2="900" y2="528.333" stroke="#7c3aed" stroke-width="1.5" stroke-dasharray="8 5"/>
<line x1="642.49" y1="139.444" x2="900" y2="139.444" stroke="#7c3aed" stroke-width="1.5" stroke-dasharray="8 5"/>
</svg>
