<svg xmlns="http://www.w3.org/2000/svg" width="900" height="640" viewBox="0 0 900 640">
<title>Epsilon-net n=11 t=4 k=3 score=0.0</title>
<rect width="100%" height="100%" fill="#ffffff"/>
<circle cx="564.796" cy="110.698" r="5" fill="#111827"/>
<text x="564.796" y="110.698" font-size="13" font-family="monospace" fill="#111827"> 0</text>
<circle cx="258.673" cy="436.279" r="5" fill="#111827"/>
<text x="258.673" y="436.279" font-size="13" font-family="monospace" fill="#111827"> 1</text>
<circle cx="105.612" cy="64.186" r="5" fill="#111827"/>
<text x="105.612" y="64.186" font-size="13" font-family="monospace" fill="#111827"> 2</text>
<circle cx="794.388" cy="203.721" r="5" fill="#111827"/>
<text x="794.388" y="203.721" font-size="13" font-family="monospace" fill="#111827"> 3</text>
<circle cx="258.673" cy="575.814" r="5" fill="#111827"/>
<text x="258.673" y="575.814" font-size="13" font-family="monospace" fill="#111827"> 4</text>
<circle cx="794.388" cy="389.767" r="5" fill="#111827"/>
<text x="794.388" y="389.767" font-size="13" font-family="monospace" fill="#111827"> 5</text>
<circle cx="258.673" cy="203.721" r="5" fill="#111827"/>
<text x="258.673" y="203.721" font-size="13" font-family="monospace" fill="#111827"> 6</text>
<circle cx="717.857" cy="64.186" r="5" fill="#111827"/>
<text x="717.857" y="64.186" font-size="13" font-family="monospace" fill="#111827"> 7</text>
<circle cx="564.796" cy="529.302" r="5" fill="#111827"/>
<text x="564.796" y="529.302" font-size="13" font-family="monospace" fill="#111827"> 8</text>
<circle cx="564.796" cy="203.721" r="5" fill="#111827"/>
<text x="564.796" y="203.721" font-size="13" font-family="monospace" fill="#111827"> 9</text>
<circle cx="182.143" cy="575.814" r="5" fill="#111827"/>
<text x="182.143" y="575.814" font-size="13" font-family="monospace" fill="#111827"> 10</text>
<line x1="0" y1="467.721" x2="900" y2="358.326" stroke="#dc2626" stroke-width="2.0" stroke-dasharray="6 4"/>
</svg>
