<svg xmlns="http://www.w3.org/2000/svg" width="900" height="640" viewBox="0 0 900 640">
<title>Epsilon-net n=11 t=4 k=3 score=1.4545454545454546</title>
<rect width="100%" height="100%" fill="#ffffff"/>
<circle cx="809.738" cy="575.814" r="5" fill="#111827"/>
<text x="809.738" y="575.814" font-size="13" font-family="monospace" fill="#111827"> 0</text>
<circle cx="613.517" cy="296.744" r="5" fill="#111827"/>
<text x="613.517" y="296.744" font-size="13" font-family="monospace" fill="#111827"> 1</text>
<circle cx="90.262" cy="250.233" r="5" fill="#111827"/>
<text x="90.262" y="250.233" font-size="13" font-family="monospace" fill="#111827"> 2</text>
<circle cx="90.262" cy="343.256" r="5" fill="#111827"/>
<text x="90.262" y="343.256" font-size="13" font-family="monospace" fill="#111827"> 3</text>
<circle cx="155.669" cy="436.279" r="5" fill="#111827"/>
<text x="155.669" y="436.279" font-size="13" font-family="monospace" fill="#111827"> 4</text>
<circle cx="613.517" cy="203.721" r="5" fill="#111827"/>
<text x="613.517" y="203.721" font-size="13" font-family="monospace" fill="#111827"> 5</text>
<circle cx="678.924" cy="482.791" r="5" fill="#111827"/>
<text x="678.924" y="482.791" font-size="13" font-family="monospace" fill="#111827"> 6</text>
<circle cx="678.924" cy="64.186" r="5" fill="#111827"/>
<text x="678.924" y="64.186" font-size="13" font-family="monospace" fill="#111827"> 7</text>
<circle cx="90.262" cy="575.814" r="5" fill="#111827"/>
<text x="90.262" y="575.814" font-size="13" font-family="monospace" fill="#111827"> 8</text>
<circle cx="221.076" cy="436.279" r="5" fill="#111827"/>
<text x="221.076" y="436.279" font-size="13" font-family="monospace" fill="#111827"> 9</text>
<circle cx="155.669" cy="575.814" r="5" fill="#111827"/>
<text x="155.669" y="575.814" font-size="13" font-family="monospace" fill="#111827"> 10</text>
<line x1="0" y1="79.07" x2="295.803" y2="640" stroke="#dc2626" stroke-width="2.0" stroke-dasharray="6 4"/>
</svg>
