<svg xmlns="http://www.w3.org/2000/svg" width="900" height="640" viewBox="0 0 900 640">
<title>Unit-square score=1.3636363636363638 tau=5 tau_lp=3.6666666666666665</title>
<rect width="100%" height="100%" fill="#ffffff"/>
<rect x="83.621" y="524.753" width="86.207" height="58.501" fill="#fbbf24" fill-opacity="0.32" stroke="#92400e" stroke-width="1.4"/>
<text x="83.621" y="524.753" font-size="13" font-family="monospace" fill="#111827">0</text>
<rect x="83.621" y="495.503" width="86.207" height="58.501" fill="#fbbf24" fill-opacity="0.32" stroke="#92400e" stroke-width="1.4"/>
<text x="83.621" y="495.503" font-size="13" font-family="monospace" fill="#111827">1</text>
<rect x="83.621" y="466.252" width="86.207" height="58.501" fill="#fbbf24" fill-opacity="0.32" stroke="#92400e" stroke-width="1.4"/>
<text x="83.621" y="466.252" font-size="13" font-family="monospace" fill="#111827">2</text>
<rect x="83.621" y="407.751" width="86.207" height="58.501" fill="#fbbf24" fill-opacity="0.32" stroke="#92400e" stroke-width="1.4"/>
<text x="83.621" y="407.751" font-size="13" font-family="monospace" fill="#111827">3</text>
<rect x="83.621" y="173.748" width="86.207" height="58.501" fill="#fbbf24" fill-opacity="0.32" stroke="#92400e" stroke-width="1.4"/>
<text x="83.621" y="173.748" font-size="13" font-family="monospace" fill="#111827">4</text>
<rect x="83.621" y="115.247" width="86.207" height="58.501" fill="#fbbf24" fill-opacity="0.32" stroke="#92400e" stroke-width="1.4"/>
<text x="83.621" y="115.247" font-size="13" font-family="monospace" fill="#111827">5</text>
<rect x="126.724" y="524.753" width="86.207" height="58.501" fill="#fbbf24" fill-opacity="0.32" stroke="#92400e" stroke-width="1.4"/>
<text x="126.724" y="524.753" font-size="13" font-family="monospace" fill="#111827">6</text>
<rect x="126.724" y="495.503" width="86.207" height="58.501" fill="#fbbf24" fill-opacity="0.32" stroke="#92400e" stroke-width="1.4"/>
<text x="126.724" y="495.503" font-size="13" font-family="monospace" fill="#111827">7</text>
<rect x="126.724" y="56.746" width="86.207" height="58.501" fill="#fbbf24" fill-opacity="0.32" stroke="#92400e" stroke-width="1.4"/>
<text x="126.724" y="56.746" font-size="13" font-family="monospace" fill="#111827">8</text>
<rect x="169.828" y="173.748" width="86.207" height="58.501" fill="#fbbf24" fill-opacity="0.32" stroke="#92400e" stroke-width="1.4"/>
<text x="169.828" y="173.748" font-size="13" font-family="monospace" fill="#111827">9</text>
<rect x="256.034" y="495.503" width="86.207" height="58.501" fill="#fbbf24" fill-opacity="0.32" stroke="#92400e" stroke-width="1.4"/>
<text x="256.034" y="495.503" font-size="13" font-family="monospace" fill="#111827">10</text>
<rect x="299.138" y="524.753" width="86.207" height="58.501" fill="#fbbf24" fill-opacity="0.32" stroke="#92400e" stroke-width="1.4"/>
<text x="299.138" y="524.753" font-size="13" font-family="monospace" fill="#111827">11</text>
<rect x="299.138" y="437.002" width="86.207" height="58.501" fill="#fbbf24" fill-opacity="0.32" stroke="#92400e" stroke-width="1.4"/>
<text x="299.138" y="437.002" font-size="13" font-family="monospace" fill="#111827">12</text>
<rect x="299.138" y="85.996" width="86.207" height="58.501" fill="#fbbf24" fill-opacity="0.32" stroke="#92400e" stroke-width="1.4"/>
<text x="299.138" y="85.996" font-size="13" font-family="monospace" fill="#111827">13</text>
<rect x="342.241" y="407.751" width="86.207" height="58.501" fill="#fbbf24" fill-opacity="0.32" stroke="#92400e" stroke-width="1.4"/>
<text x="342.241" y="407.751" font-size="13" font-family="monospace" fill="#111827">14</text>
<rect x="385.345" y="466.252" width="86.207" height="58.501" fill="#fbbf24" fill-opacity="0.32" stroke="#92400e" stroke-width="1.4"/>
<text x="385.345" y="466.252" font-size="13" font-family="monospace" fill="#111827">15</text>
<rect x="600.862" y="466.252" width="86.207" height="58.501" fill="#fbbf24" fill-opacity="0.32" stroke="#92400e" stroke-width="1.4"/>
<text x="600.862" y="466.252" font-size="13" font-family="monospace" fill="#111827">16</text>
<rect x="600.862" y="115.247" width="86.207" height="58.501" fill="#fbbf24" fill-opacity="0.32" stroke="#92400e" stroke-width="1.4"/>
<text x="600.862" y="115.247" font-size="13" font-family="monospace" fill="#111827">17</text>
<rect x="687.069" y="349.25" width="86.207" height="58.501" fill="#fbbf24" fill-opacity="0.32" stroke="#92400e" stroke-width="1.4"/>
<text x="687.069" y="349.25" font-size="13" font-family="monospace" fill="#111827">18</text>
<rect x="730.172" y="115.247" width="86.207" height="58.501" fill="#fbbf24" fill-opacity="0.32" stroke="#92400e" stroke-width="1.4"/>
<text x="730.172" y="115.247" font-size="13" font-family="monospace" fill="#111827">19</text>
<line x1="169.828" y1="640" x2="169.828" y2="0" stroke="#dc2626" stroke-width="2.4"/>
<line x1="342.241" y1="640" x2="342.241" y2="0" stroke="#dc2626" stroke-width="2.4"/>
<line x1="385.345" y1="640" x2="385.345" y2="0" stroke="#dc2626" stroke-width="2.4"/>
<line x1="687.069" y1="640" x2="687.069" y2="0" stroke="#dc2626" stroke-width="2.4"/>
<line x1="730.172" y1="640" x2="730.172" y2="0" stroke="#dc2626" stroke-width="2.4"/>
</svg>
