<svg xmlns="http://www.w3.org/2000/svg" width="900" height="640" viewBox="0 0 900 640">
<title>Guillotine score=0.18181818181818182 saved=9 n=11</title>
<rect width="100%" height="100%" fill="#ffffff"/>
<rect x="98.438" y="260.299" width="511.364" height="39.801" fill="#38bdf8" fill-opacity="0.34" stroke="#075985" stroke-width="1.4"/>
<text x="98.438" y="260.299" font-size="13" font-family="monospace" fill="#111827">0</text>
<rect x="162.358" y="379.701" width="191.761" height="79.602" fill="#38bdf8" fill-opacity="0.34" stroke="#075985" stroke-width="1.4"/>
<text x="162.358" y="379.701" font-size="13" font-family="monospace" fill="#111827">1</text>
<rect x="226.278" y="459.303" width="63.92" height="79.602" fill="#38bdf8" fill-opacity="0.34" stroke="#075985" stroke-width="1.4"/>
<text x="226.278" y="459.303" font-size="13" font-family="monospace" fill="#111827">2</text>
<rect x="226.278" y="61.294" width="127.841" height="159.204" fill="#38bdf8" fill-opacity="0.34" stroke="#075985" stroke-width="1.4"/>
<text x="226.278" y="61.294" font-size="13" font-family="monospace" fill="#111827">3</text>
<rect x="290.199" y="499.104" width="447.443" height="79.602" fill="#38bdf8" fill-opacity="0.34" stroke="#075985" stroke-width="1.4"/>
<text x="290.199" y="499.104" font-size="13" font-family="monospace" fill="#111827">4</text>
<rect x="354.119" y="61.294" width="127.841" height="199.005" fill="#38bdf8" fill-opacity="0.34" stroke="#075985" stroke-width="1.4"/>
<text x="354.119" y="61.294" font-size="13" font-family="monospace" fill="#111827">5</text>
<rect x="418.04" y="339.9" width="127.841" height="159.204" fill="#38bdf8" fill-opacity="0.34" stroke="#075985" stroke-width="1.4"/>
<text x="418.04" y="339.9" font-size="13" font-family="monospace" fill="#111827">6</text>
<rect x="481.96" y="61.294" width="319.602" height="39.801" fill="#38bdf8" fill-opacity="0.34" stroke="#075985" stroke-width="1.4"/>
<text x="481.96" y="61.294" font-size="13" font-family="monospace" fill="#111827">7</text>
<rect x="545.881" y="180.697" width="63.92" height="79.602" fill="#38bdf8" fill-opacity="0.34" stroke="#075985" stroke-width="1.4"/>
<text x="545.881" y="180.697" font-size="13" font-family="monospace" fill="#111827">8</text>
<rect x="545.881" y="140.896" width="127.841" height="39.801" fill="#38bdf8" fill-opacity="0.34" stroke="#075985" stroke-width="1.4"/>
<text x="545.881" y="140.896" font-size="13" font-family="monospace" fill="#111827">9</text>
<rect x="673.722" y="140.896" width="63.92" height="278.607" fill="#38bdf8" fill-opacity="0.34" stroke="#075985" stroke-width="1.4"/>
<text x="673.722" y="140.896" font-size="13" font-family="monospace" fill="#111827">10</text>
<line x1="130.398" y1="640" x2="130.398" y2="0" stroke="#7c3aed" stroke-width="1.5" stroke-dasharray="8 5"/>
<line x1="130.398" y1="459.303" x2="900" y2="459.303" stroke="#7c3aed" stroke-width="1.5" stroke-dasharray="8 5"/>
<line x1="290.199" y1="640" x2="290.199" y2="459.303" stroke="#7c3aed" stroke-width="1.5" stroke-dasharray="8 5"/>
<line x1="354.119" y1="459.303" x2="354.119" y2="0" stroke="#7c3aed" stroke-width="1.5" stroke-dasharray="8 5"/>
<line x1="130.398" y1="379.701" x2="354.119" y2="379.701" stroke="#7c3aed" stroke-width="1.5" stroke-dasharray="8 5"/>
<line x1="481.96" y1="459.303" x2="481.96" y2="0" stroke="#7c3aed" stroke-width="1.5" stroke-dasharray="8 5"/>
<line x1="481.96" y1="140.896" x2="900" y2="140.896" stroke="#7c3aed" stroke-width="1.5" stroke-dasharray="8 5"/>
<line x1="673.722" y1="459.303" x2="673.722" y2="140.896" stroke="#7c3aed" stroke-width="1.5" stroke-dasharray="8 5"/>
<line x1="481.96" y1="180.697" x2="673.722" y2="180.697" stroke="#7c3aed" stroke-width="1.5" stroke-dasharray="8 5"/>
</svg>
