<svg xmlns="http://www.w3.org/2000/svg" width="900" height="640" viewBox="0 0 900 640">
<title>Guillotine score=0.2 saved=8 n=10</title>
<rect width="100%" height="100%" fill="#ffffff"/>
<rect x="88.07" y="362.895" width="422.252" height="42.895" fill="#38bdf8" fill-opacity="0.34" stroke="#075985" stroke-width="1.4"/>
<text x="88.07" y="362.895" font-size="13" font-family="monospace" fill="#111827">0</text>
<rect x="148.391" y="405.791" width="241.287" height="42.895" fill="#38bdf8" fill-opacity="0.34" stroke="#075985" stroke-width="1.4"/>
<text x="148.391" y="405.791" font-size="13" font-family="monospace" fill="#111827">1</text>
<rect x="208.713" y="448.686" width="60.322" height="85.791" fill="#38bdf8" fill-opacity="0.34" stroke="#075985" stroke-width="1.4"/>
<text x="208.713" y="448.686" font-size="13" font-family="monospace" fill="#111827">2</text>
<rect x="208.713" y="191.314" width="120.643" height="128.686" fill="#38bdf8" fill-opacity="0.34" stroke="#075985" stroke-width="1.4"/>
<text x="208.713" y="191.314" font-size="13" font-family="monospace" fill="#111827">3</text>
<rect x="269.035" y="491.582" width="361.93" height="85.791" fill="#38bdf8" fill-opacity="0.34" stroke="#075985" stroke-width="1.4"/>
<text x="269.035" y="491.582" font-size="13" font-family="monospace" fill="#111827">4</text>
<rect x="389.678" y="405.791" width="120.643" height="85.791" fill="#38bdf8" fill-opacity="0.34" stroke="#075985" stroke-width="1.4"/>
<text x="389.678" y="405.791" font-size="13" font-family="monospace" fill="#111827">5</text>
<rect x="450" y="62.627" width="180.965" height="171.582" fill="#38bdf8" fill-opacity="0.34" stroke="#075985" stroke-width="1.4"/>
<text x="450" y="62.627" font-size="13" font-family="monospace" fill="#111827">6</text>
<rect x="570.643" y="448.686" width="180.965" height="42.895" fill="#38bdf8" fill-opacity="0.34" stroke="#075985" stroke-width="1.4"/>
<text x="570.643" y="448.686" font-size="13" font-family="monospace" fill="#111827">7</text>
<rect x="570.643" y="277.105" width="60.322" height="171.582" fill="#38bdf8" fill-opacity="0.34" stroke="#075985" stroke-width="1.4"/>
<text x="570.643" y="277.105" font-size="13" font-family="monospace" fill="#111827">8</text>
<rect x="691.287" y="105.523" width="120.643" height="42.895" fill="#38bdf8" fill-opacity="0.34" stroke="#075985" stroke-width="1.4"/>
<text x="691.287" y="105.523" font-size="13" font-family="monospace" fill="#111827">9</text>
<line x1="118.231" y1="640" x2="118.231" y2="0" stroke="#7c3aed" stroke-width="1.5" stroke-dasharray="8 5"/>
<line x1="389.678" y1="640" x2="389.678" y2="0" stroke="#7c3aed" stroke-width="1.5" stroke-dasharray="8 5"/>
<line x1="118.231" y1="448.686" x2="389.678" y2="448.686" stroke="#7c3aed" stroke-width="1.5" stroke-dasharray="8 5"/>
<line x1="118.231" y1="405.791" x2="389.678" y2="405.791" stroke="#7c3aed" stroke-width="1.5" stroke-dasharray="8 5"/>
<line x1="389.678" y1="277.105" x2="900" y2="277.105" stroke="#7c3aed" stroke-width="1.5" stroke-dasharray="8 5"/>
<line x1="510.322" y1="640" x2="510.322" y2="277.105" stroke="#7c3aed" stroke-width="1.5" stroke-dasharray="8 5"/>
<line x1="510.322" y1="448.686" x2="900" y2="448.686" stroke="#7c3aed" stroke-width="1.5" stroke-dasharray="8 5"/>
<line x1="630.965" y1="277.105" x2="630.965" y2="0" stroke="#7c3aed" stroke-width="1.5" stroke-dasharray="8 5"/>
</svg>
