<svg xmlns="http://www.w3.org/2000/svg" width="900" height="640" viewBox="0 0 900 640">
<title>Guillotine score=0.2608695652173913 saved=17 n=23</title>
<rect width="100%" height="100%" fill="#ffffff"/>
<rect x="78.906" y="447.745" width="39.062" height="127.745" fill="#38bdf8" fill-opacity="0.34" stroke="#075985" stroke-width="1.4"/>
<text x="78.906" y="447.745" font-size="13" font-family="monospace" fill="#111827">0</text>
<rect x="78.906" y="288.064" width="117.188" height="159.681" fill="#38bdf8" fill-opacity="0.34" stroke="#075985" stroke-width="1.4"/>
<text x="78.906" y="288.064" font-size="13" font-family="monospace" fill="#111827">1</text>
<rect x="78.906" y="256.128" width="117.188" height="31.936" fill="#38bdf8" fill-opacity="0.34" stroke="#075985" stroke-width="1.4"/>
<text x="78.906" y="256.128" font-size="13" font-family="monospace" fill="#111827">2</text>
<rect x="78.906" y="96.447" width="234.375" height="159.681" fill="#38bdf8" fill-opacity="0.34" stroke="#075985" stroke-width="1.4"/>
<text x="78.906" y="96.447" font-size="13" font-family="monospace" fill="#111827">3</text>
<rect x="117.969" y="511.617" width="429.688" height="31.936" fill="#38bdf8" fill-opacity="0.34" stroke="#075985" stroke-width="1.4"/>
<text x="117.969" y="511.617" font-size="13" font-family="monospace" fill="#111827">4</text>
<rect x="157.031" y="543.553" width="468.75" height="31.936" fill="#38bdf8" fill-opacity="0.34" stroke="#075985" stroke-width="1.4"/>
<text x="157.031" y="543.553" font-size="13" font-family="monospace" fill="#111827">5</text>
<rect x="196.094" y="479.681" width="195.312" height="31.936" fill="#38bdf8" fill-opacity="0.34" stroke="#075985" stroke-width="1.4"/>
<text x="196.094" y="479.681" font-size="13" font-family="monospace" fill="#111827">6</text>
<rect x="196.094" y="256.128" width="39.062" height="223.553" fill="#38bdf8" fill-opacity="0.34" stroke="#075985" stroke-width="1.4"/>
<text x="196.094" y="256.128" font-size="13" font-family="monospace" fill="#111827">7</text>
<rect x="235.156" y="256.128" width="39.062" height="223.553" fill="#38bdf8" fill-opacity="0.34" stroke="#075985" stroke-width="1.4"/>
<text x="235.156" y="256.128" font-size="13" font-family="monospace" fill="#111827">8</text>
<rect x="274.219" y="383.872" width="78.125" height="95.808" fill="#38bdf8" fill-opacity="0.34" stroke="#075985" stroke-width="1.4"/>
<text x="274.219" y="383.872" font-size="13" font-family="monospace" fill="#111827">9</text>
<rect x="274.219" y="351.936" width="195.312" height="31.936" fill="#38bdf8" fill-opacity="0.34" stroke="#075985" stroke-width="1.4"/>
<text x="274.219" y="351.936" font-size="13" font-family="monospace" fill="#111827">10</text>
<rect x="352.344" y="383.872" width="234.375" height="31.936" fill="#38bdf8" fill-opacity="0.34" stroke="#075985" stroke-width="1.4"/>
<text x="352.344" y="383.872" font-size="13" font-family="monospace" fill="#111827">11</text>
<rect x="352.344" y="64.511" width="78.125" height="255.489" fill="#38bdf8" fill-opacity="0.34" stroke="#075985" stroke-width="1.4"/>
<text x="352.344" y="64.511" font-size="13" font-family="monospace" fill="#111827">12</text>
<rect x="469.531" y="415.808" width="39.062" height="95.808" fill="#38bdf8" fill-opacity="0.34" stroke="#075985" stroke-width="1.4"/>
<text x="469.531" y="415.808" font-size="13" font-family="monospace" fill="#111827">13</text>
<rect x="508.594" y="192.255" width="78.125" height="191.617" fill="#38bdf8" fill-opacity="0.34" stroke="#075985" stroke-width="1.4"/>
<text x="508.594" y="192.255" font-size="13" font-family="monospace" fill="#111827">14</text>
<rect x="508.594" y="96.447" width="117.188" height="95.808" fill="#38bdf8" fill-opacity="0.34" stroke="#075985" stroke-width="1.4"/>
<text x="508.594" y="96.447" font-size="13" font-family="monospace" fill="#111827">15</text>
<rect x="547.656" y="415.808" width="78.125" height="127.745" fill="#38bdf8" fill-opacity="0.34" stroke="#075985" stroke-width="1.4"/>
<text x="547.656" y="415.808" font-size="13" font-family="monospace" fill="#111827">16</text>
<rect x="586.719" y="192.255" width="117.188" height="31.936" fill="#38bdf8" fill-opacity="0.34" stroke="#075985" stroke-width="1.4"/>
<text x="586.719" y="192.255" font-size="13" font-family="monospace" fill="#111827">17</text>
<rect x="586.719" y="64.511" width="78.125" height="31.936" fill="#38bdf8" fill-opacity="0.34" stroke="#075985" stroke-width="1.4"/>
<text x="586.719" y="64.511" font-size="13" font-family="monospace" fill="#111827">18</text>
<rect x="625.781" y="128.383" width="117.188" height="31.936" fill="#38bdf8" fill-opacity="0.34" stroke="#075985" stroke-width="1.4"/>
<text x="625.781" y="128.383" font-size="13" font-family="monospace" fill="#111827">19</text>
<rect x="664.844" y="224.192" width="117.188" height="351.297" fill="#38bdf8" fill-opacity="0.34" stroke="#075985" stroke-width="1.4"/>
<text x="664.844" y="224.192" font-size="13" font-family="monospace" fill="#111827">20</text>
<rect x="664.844" y="64.511" width="39.062" height="63.872" fill="#38bdf8" fill-opacity="0.34" stroke="#075985" stroke-width="1.4"/>
<text x="664.844" y="64.511" font-size="13" font-family="monospace" fill="#111827">21</text>
<rect x="782.031" y="160.319" width="39.062" height="63.872" fill="#38bdf8" fill-opacity="0.34" stroke="#075985" stroke-width="1.4"/>
<text x="782.031" y="160.319" font-size="13" font-family="monospace" fill="#111827">22</text>
<line x1="196.094" y1="640" x2="196.094" y2="0" stroke="#7c3aed" stroke-width="1.5" stroke-dasharray="8 5"/>
<line x1="0" y1="447.745" x2="196.094" y2="447.745" stroke="#7c3aed" stroke-width="1.5" stroke-dasharray="8 5"/>
<line x1="0" y1="288.064" x2="196.094" y2="288.064" stroke="#7c3aed" stroke-width="1.5" stroke-dasharray="8 5"/>
<line x1="235.156" y1="640" x2="235.156" y2="0" stroke="#7c3aed" stroke-width="1.5" stroke-dasharray="8 5"/>
<line x1="274.219" y1="640" x2="274.219" y2="0" stroke="#7c3aed" stroke-width="1.5" stroke-dasharray="8 5"/>
<line x1="586.719" y1="640" x2="586.719" y2="0" stroke="#7c3aed" stroke-width="1.5" stroke-dasharray="8 5"/>
<line x1="274.219" y1="383.872" x2="586.719" y2="383.872" stroke="#7c3aed" stroke-width="1.5" stroke-dasharray="8 5"/>
<line x1="352.344" y1="640" x2="352.344" y2="383.872" stroke="#7c3aed" stroke-width="1.5" stroke-dasharray="8 5"/>
<line x1="352.344" y1="415.808" x2="586.719" y2="415.808" stroke="#7c3aed" stroke-width="1.5" stroke-dasharray="8 5"/>
<line x1="469.531" y1="383.872" x2="469.531" y2="0" stroke="#7c3aed" stroke-width="1.5" stroke-dasharray="8 5"/>
<line x1="274.219" y1="351.936" x2="469.531" y2="351.936" stroke="#7c3aed" stroke-width="1.5" stroke-dasharray="8 5"/>
<line x1="782.031" y1="640" x2="782.031" y2="0" stroke="#7c3aed" stroke-width="1.5" stroke-dasharray="8 5"/>
<line x1="586.719" y1="224.192" x2="782.031" y2="224.192" stroke="#7c3aed" stroke-width="1.5" stroke-dasharray="8 5"/>
<line x1="586.719" y1="192.255" x2="782.031" y2="192.255" stroke="#7c3aed" stroke-width="1.5" stroke-dasharray="8 5"/>
<line x1="586.719" y1="128.383" x2="782.031" y2="128.383" stroke="#7c3aed" stroke-width="1.5" stroke-dasharray="8 5"/>
<line x1="664.844" y1="128.383" x2="664.844" y2="0" stroke="#7c3aed" stroke-width="1.5" stroke-dasharray="8 5"/>
</svg>
