<svg xmlns="http://www.w3.org/2000/svg" width="900" height="640" viewBox="0 0 900 640">
<title>Guillotine score=0.14285714285714285 saved=18 n=21</title>
<rect width="100%" height="100%" fill="#ffffff"/>
<rect x="76.084" y="462.857" width="32.514" height="81.633" fill="#38bdf8" fill-opacity="0.34" stroke="#075985" stroke-width="1.4"/>
<text x="76.084" y="462.857" font-size="13" font-family="monospace" fill="#111827">0</text>
<rect x="76.084" y="258.776" width="97.543" height="40.816" fill="#38bdf8" fill-opacity="0.34" stroke="#075985" stroke-width="1.4"/>
<text x="76.084" y="258.776" font-size="13" font-family="monospace" fill="#111827">1</text>
<rect x="108.598" y="503.673" width="32.514" height="40.816" fill="#38bdf8" fill-opacity="0.34" stroke="#075985" stroke-width="1.4"/>
<text x="108.598" y="503.673" font-size="13" font-family="monospace" fill="#111827">2</text>
<rect x="108.598" y="381.224" width="32.514" height="122.449" fill="#38bdf8" fill-opacity="0.34" stroke="#075985" stroke-width="1.4"/>
<text x="108.598" y="381.224" font-size="13" font-family="monospace" fill="#111827">3</text>
<rect x="141.113" y="503.673" width="65.029" height="40.816" fill="#38bdf8" fill-opacity="0.34" stroke="#075985" stroke-width="1.4"/>
<text x="141.113" y="503.673" font-size="13" font-family="monospace" fill="#111827">4</text>
<rect x="206.142" y="503.673" width="32.514" height="40.816" fill="#38bdf8" fill-opacity="0.34" stroke="#075985" stroke-width="1.4"/>
<text x="206.142" y="503.673" font-size="13" font-family="monospace" fill="#111827">5</text>
<rect x="238.656" y="503.673" width="32.514" height="40.816" fill="#38bdf8" fill-opacity="0.34" stroke="#075985" stroke-width="1.4"/>
<text x="238.656" y="503.673" font-size="13" font-family="monospace" fill="#111827">6</text>
<rect x="271.171" y="503.673" width="32.514" height="40.816" fill="#38bdf8" fill-opacity="0.34" stroke="#075985" stroke-width="1.4"/>
<text x="271.171" y="503.673" font-size="13" font-family="monospace" fill="#111827">7</text>
<rect x="336.199" y="381.224" width="32.514" height="163.265" fill="#38bdf8" fill-opacity="0.34" stroke="#075985" stroke-width="1.4"/>
<text x="336.199" y="381.224" font-size="13" font-family="monospace" fill="#111827">8</text>
<rect x="336.199" y="258.776" width="97.543" height="81.633" fill="#38bdf8" fill-opacity="0.34" stroke="#075985" stroke-width="1.4"/>
<text x="336.199" y="258.776" font-size="13" font-family="monospace" fill="#111827">9</text>
<rect x="401.228" y="95.51" width="97.543" height="40.816" fill="#38bdf8" fill-opacity="0.34" stroke="#075985" stroke-width="1.4"/>
<text x="401.228" y="95.51" font-size="13" font-family="monospace" fill="#111827">10</text>
<rect x="433.743" y="217.959" width="32.514" height="244.898" fill="#38bdf8" fill-opacity="0.34" stroke="#075985" stroke-width="1.4"/>
<text x="433.743" y="217.959" font-size="13" font-family="monospace" fill="#111827">11</text>
<rect x="466.257" y="299.592" width="97.543" height="81.633" fill="#38bdf8" fill-opacity="0.34" stroke="#075985" stroke-width="1.4"/>
<text x="466.257" y="299.592" font-size="13" font-family="monospace" fill="#111827">12</text>
<rect x="531.286" y="95.51" width="32.514" height="204.082" fill="#38bdf8" fill-opacity="0.34" stroke="#075985" stroke-width="1.4"/>
<text x="531.286" y="95.51" font-size="13" font-family="monospace" fill="#111827">13</text>
<rect x="596.315" y="422.041" width="65.029" height="81.633" fill="#38bdf8" fill-opacity="0.34" stroke="#075985" stroke-width="1.4"/>
<text x="596.315" y="422.041" font-size="13" font-family="monospace" fill="#111827">14</text>
<rect x="596.315" y="258.776" width="32.514" height="163.265" fill="#38bdf8" fill-opacity="0.34" stroke="#075985" stroke-width="1.4"/>
<text x="596.315" y="258.776" font-size="13" font-family="monospace" fill="#111827">15</text>
<rect x="628.829" y="258.776" width="162.572" height="81.633" fill="#38bdf8" fill-opacity="0.34" stroke="#075985" stroke-width="1.4"/>
<text x="628.829" y="258.776" font-size="13" font-family="monospace" fill="#111827">16</text>
<rect x="661.344" y="136.327" width="65.029" height="122.449" fill="#38bdf8" fill-opacity="0.34" stroke="#075985" stroke-width="1.4"/>
<text x="661.344" y="136.327" font-size="13" font-family="monospace" fill="#111827">17</text>
<rect x="693.858" y="340.408" width="65.029" height="163.265" fill="#38bdf8" fill-opacity="0.34" stroke="#075985" stroke-width="1.4"/>
<text x="693.858" y="340.408" font-size="13" font-family="monospace" fill="#111827">18</text>
<rect x="726.373" y="136.327" width="97.543" height="40.816" fill="#38bdf8" fill-opacity="0.34" stroke="#075985" stroke-width="1.4"/>
<text x="726.373" y="136.327" font-size="13" font-family="monospace" fill="#111827">19</text>
<rect x="791.402" y="217.959" width="32.514" height="163.265" fill="#38bdf8" fill-opacity="0.34" stroke="#075985" stroke-width="1.4"/>
<text x="791.402" y="217.959" font-size="13" font-family="monospace" fill="#111827">20</text>
<line x1="206.142" y1="640" x2="206.142" y2="0" stroke="#7c3aed" stroke-width="1.5" stroke-dasharray="8 5"/>
<line x1="0" y1="381.224" x2="206.142" y2="381.224" stroke="#7c3aed" stroke-width="1.5" stroke-dasharray="8 5"/>
<line x1="108.598" y1="640" x2="108.598" y2="381.224" stroke="#7c3aed" stroke-width="1.5" stroke-dasharray="8 5"/>
<line x1="141.113" y1="640" x2="141.113" y2="381.224" stroke="#7c3aed" stroke-width="1.5" stroke-dasharray="8 5"/>
<line x1="108.598" y1="503.673" x2="141.113" y2="503.673" stroke="#7c3aed" stroke-width="1.5" stroke-dasharray="8 5"/>
<line x1="238.656" y1="640" x2="238.656" y2="0" stroke="#7c3aed" stroke-width="1.5" stroke-dasharray="8 5"/>
<line x1="271.171" y1="640" x2="271.171" y2="0" stroke="#7c3aed" stroke-width="1.5" stroke-dasharray="8 5"/>
<line x1="303.685" y1="640" x2="303.685" y2="0" stroke="#7c3aed" stroke-width="1.5" stroke-dasharray="8 5"/>
<line x1="433.743" y1="640" x2="433.743" y2="0" stroke="#7c3aed" stroke-width="1.5" stroke-dasharray="8 5"/>
<line x1="303.685" y1="381.224" x2="433.743" y2="381.224" stroke="#7c3aed" stroke-width="1.5" stroke-dasharray="8 5"/>
<line x1="466.257" y1="640" x2="466.257" y2="0" stroke="#7c3aed" stroke-width="1.5" stroke-dasharray="8 5"/>
<line x1="563.801" y1="640" x2="563.801" y2="0" stroke="#7c3aed" stroke-width="1.5" stroke-dasharray="8 5"/>
<line x1="466.257" y1="299.592" x2="563.801" y2="299.592" stroke="#7c3aed" stroke-width="1.5" stroke-dasharray="8 5"/>
<line x1="628.829" y1="640" x2="628.829" y2="0" stroke="#7c3aed" stroke-width="1.5" stroke-dasharray="8 5"/>
<line x1="791.402" y1="640" x2="791.402" y2="0" stroke="#7c3aed" stroke-width="1.5" stroke-dasharray="8 5"/>
<line x1="628.829" y1="340.408" x2="791.402" y2="340.408" stroke="#7c3aed" stroke-width="1.5" stroke-dasharray="8 5"/>
<line x1="628.829" y1="258.776" x2="791.402" y2="258.776" stroke="#7c3aed" stroke-width="1.5" stroke-dasharray="8 5"/>
</svg>
