<svg xmlns="http://www.w3.org/2000/svg" width="900" height="640" viewBox="0 0 900 640">
<title>Guillotine score=0.125 saved=21 n=24</title>
<rect width="100%" height="100%" fill="#ffffff"/>
<rect x="77.366" y="515.599" width="35.489" height="39.12" fill="#38bdf8" fill-opacity="0.34" stroke="#075985" stroke-width="1.4"/>
<text x="77.366" y="515.599" font-size="13" font-family="monospace" fill="#111827">0</text>
<rect x="77.366" y="398.24" width="35.489" height="39.12" fill="#38bdf8" fill-opacity="0.34" stroke="#075985" stroke-width="1.4"/>
<text x="77.366" y="398.24" font-size="13" font-family="monospace" fill="#111827">1</text>
<rect x="77.366" y="359.12" width="106.467" height="39.12" fill="#38bdf8" fill-opacity="0.34" stroke="#075985" stroke-width="1.4"/>
<text x="77.366" y="359.12" font-size="13" font-family="monospace" fill="#111827">2</text>
<rect x="112.855" y="437.359" width="35.489" height="117.359" fill="#38bdf8" fill-opacity="0.34" stroke="#075985" stroke-width="1.4"/>
<text x="112.855" y="437.359" font-size="13" font-family="monospace" fill="#111827">3</text>
<rect x="148.344" y="515.599" width="141.956" height="39.12" fill="#38bdf8" fill-opacity="0.34" stroke="#075985" stroke-width="1.4"/>
<text x="148.344" y="515.599" font-size="13" font-family="monospace" fill="#111827">4</text>
<rect x="148.344" y="476.479" width="35.489" height="39.12" fill="#38bdf8" fill-opacity="0.34" stroke="#075985" stroke-width="1.4"/>
<text x="148.344" y="476.479" font-size="13" font-family="monospace" fill="#111827">5</text>
<rect x="148.344" y="398.24" width="35.489" height="78.24" fill="#38bdf8" fill-opacity="0.34" stroke="#075985" stroke-width="1.4"/>
<text x="148.344" y="398.24" font-size="13" font-family="monospace" fill="#111827">6</text>
<rect x="148.344" y="280.88" width="70.978" height="39.12" fill="#38bdf8" fill-opacity="0.34" stroke="#075985" stroke-width="1.4"/>
<text x="148.344" y="280.88" font-size="13" font-family="monospace" fill="#111827">7</text>
<rect x="148.344" y="202.641" width="35.489" height="39.12" fill="#38bdf8" fill-opacity="0.34" stroke="#075985" stroke-width="1.4"/>
<text x="148.344" y="202.641" font-size="13" font-family="monospace" fill="#111827">8</text>
<rect x="183.833" y="437.359" width="35.489" height="39.12" fill="#38bdf8" fill-opacity="0.34" stroke="#075985" stroke-width="1.4"/>
<text x="183.833" y="437.359" font-size="13" font-family="monospace" fill="#111827">9</text>
<rect x="219.322" y="476.479" width="35.489" height="39.12" fill="#38bdf8" fill-opacity="0.34" stroke="#075985" stroke-width="1.4"/>
<text x="219.322" y="476.479" font-size="13" font-family="monospace" fill="#111827">10</text>
<rect x="254.811" y="359.12" width="35.489" height="78.24" fill="#38bdf8" fill-opacity="0.34" stroke="#075985" stroke-width="1.4"/>
<text x="254.811" y="359.12" font-size="13" font-family="monospace" fill="#111827">11</text>
<rect x="290.3" y="515.599" width="35.489" height="39.12" fill="#38bdf8" fill-opacity="0.34" stroke="#075985" stroke-width="1.4"/>
<text x="290.3" y="515.599" font-size="13" font-family="monospace" fill="#111827">12</text>
<rect x="325.789" y="515.599" width="35.489" height="39.12" fill="#38bdf8" fill-opacity="0.34" stroke="#075985" stroke-width="1.4"/>
<text x="325.789" y="515.599" font-size="13" font-family="monospace" fill="#111827">13</text>
<rect x="361.278" y="515.599" width="35.489" height="39.12" fill="#38bdf8" fill-opacity="0.34" stroke="#075985" stroke-width="1.4"/>
<text x="361.278" y="515.599" font-size="13" font-family="monospace" fill="#111827">14</text>
<rect x="396.767" y="280.88" width="35.489" height="117.359" fill="#38bdf8" fill-opacity="0.34" stroke="#075985" stroke-width="1.4"/>
<text x="396.767" y="280.88" font-size="13" font-family="monospace" fill="#111827">15</text>
<rect x="396.767" y="202.641" width="141.956" height="39.12" fill="#38bdf8" fill-opacity="0.34" stroke="#075985" stroke-width="1.4"/>
<text x="396.767" y="202.641" font-size="13" font-family="monospace" fill="#111827">16</text>
<rect x="467.744" y="320" width="177.445" height="39.12" fill="#38bdf8" fill-opacity="0.34" stroke="#075985" stroke-width="1.4"/>
<text x="467.744" y="320" font-size="13" font-family="monospace" fill="#111827">17</text>
<rect x="503.233" y="359.12" width="70.978" height="117.359" fill="#38bdf8" fill-opacity="0.34" stroke="#075985" stroke-width="1.4"/>
<text x="503.233" y="359.12" font-size="13" font-family="monospace" fill="#111827">18</text>
<rect x="538.722" y="202.641" width="70.978" height="117.359" fill="#38bdf8" fill-opacity="0.34" stroke="#075985" stroke-width="1.4"/>
<text x="538.722" y="202.641" font-size="13" font-family="monospace" fill="#111827">19</text>
<rect x="609.7" y="437.359" width="70.978" height="39.12" fill="#38bdf8" fill-opacity="0.34" stroke="#075985" stroke-width="1.4"/>
<text x="609.7" y="437.359" font-size="13" font-family="monospace" fill="#111827">20</text>
<rect x="645.189" y="320" width="35.489" height="117.359" fill="#38bdf8" fill-opacity="0.34" stroke="#075985" stroke-width="1.4"/>
<text x="645.189" y="320" font-size="13" font-family="monospace" fill="#111827">21</text>
<rect x="716.167" y="163.521" width="35.489" height="39.12" fill="#38bdf8" fill-opacity="0.34" stroke="#075985" stroke-width="1.4"/>
<text x="716.167" y="163.521" font-size="13" font-family="monospace" fill="#111827">22</text>
<rect x="787.145" y="85.281" width="35.489" height="39.12" fill="#38bdf8" fill-opacity="0.34" stroke="#075985" stroke-width="1.4"/>
<text x="787.145" y="85.281" font-size="13" font-family="monospace" fill="#111827">23</text>
<line x1="112.855" y1="640" x2="112.855" y2="0" stroke="#7c3aed" stroke-width="1.5" stroke-dasharray="8 5"/>
<line x1="0" y1="515.599" x2="112.855" y2="515.599" stroke="#7c3aed" stroke-width="1.5" stroke-dasharray="8 5"/>
<line x1="148.344" y1="640" x2="148.344" y2="0" stroke="#7c3aed" stroke-width="1.5" stroke-dasharray="8 5"/>
<line x1="290.3" y1="640" x2="290.3" y2="0" stroke="#7c3aed" stroke-width="1.5" stroke-dasharray="8 5"/>
<line x1="148.344" y1="515.599" x2="290.3" y2="515.599" stroke="#7c3aed" stroke-width="1.5" stroke-dasharray="8 5"/>
<line x1="219.322" y1="515.599" x2="219.322" y2="0" stroke="#7c3aed" stroke-width="1.5" stroke-dasharray="8 5"/>
<line x1="148.344" y1="476.479" x2="219.322" y2="476.479" stroke="#7c3aed" stroke-width="1.5" stroke-dasharray="8 5"/>
<line x1="148.344" y1="398.24" x2="219.322" y2="398.24" stroke="#7c3aed" stroke-width="1.5" stroke-dasharray="8 5"/>
<line x1="183.833" y1="476.479" x2="183.833" y2="398.24" stroke="#7c3aed" stroke-width="1.5" stroke-dasharray="8 5"/>
<line x1="148.344" y1="280.88" x2="219.322" y2="280.88" stroke="#7c3aed" stroke-width="1.5" stroke-dasharray="8 5"/>
<line x1="254.811" y1="515.599" x2="254.811" y2="0" stroke="#7c3aed" stroke-width="1.5" stroke-dasharray="8 5"/>
<line x1="325.789" y1="640" x2="325.789" y2="0" stroke="#7c3aed" stroke-width="1.5" stroke-dasharray="8 5"/>
<line x1="361.278" y1="640" x2="361.278" y2="0" stroke="#7c3aed" stroke-width="1.5" stroke-dasharray="8 5"/>
<line x1="396.767" y1="640" x2="396.767" y2="0" stroke="#7c3aed" stroke-width="1.5" stroke-dasharray="8 5"/>
<line x1="432.256" y1="640" x2="432.256" y2="0" stroke="#7c3aed" stroke-width="1.5" stroke-dasharray="8 5"/>
<line x1="485.489" y1="640" x2="485.489" y2="0" stroke="#7c3aed" stroke-width="1.5" stroke-dasharray="8 5"/>
<line x1="609.7" y1="640" x2="609.7" y2="0" stroke="#7c3aed" stroke-width="1.5" stroke-dasharray="8 5"/>
<line x1="485.489" y1="359.12" x2="609.7" y2="359.12" stroke="#7c3aed" stroke-width="1.5" stroke-dasharray="8 5"/>
<line x1="680.678" y1="640" x2="680.678" y2="0" stroke="#7c3aed" stroke-width="1.5" stroke-dasharray="8 5"/>
<line x1="609.7" y1="437.359" x2="680.678" y2="437.359" stroke="#7c3aed" stroke-width="1.5" stroke-dasharray="8 5"/>
<line x1="751.656" y1="640" x2="751.656" y2="0" stroke="#7c3aed" stroke-width="1.5" stroke-dasharray="8 5"/>
</svg>
