<svg xmlns="http://www.w3.org/2000/svg" width="900" height="640" viewBox="0 0 900 640">
<title>Guillotine score=0.13043478260869565 saved=20 n=23</title>
<rect width="100%" height="100%" fill="#ffffff"/>
<rect x="75" y="480" width="30" height="71.111" fill="#38bdf8" fill-opacity="0.34" stroke="#075985" stroke-width="1.4"/>
<text x="75" y="480" font-size="13" font-family="monospace" fill="#111827">0</text>
<rect x="75" y="302.222" width="90" height="35.556" fill="#38bdf8" fill-opacity="0.34" stroke="#075985" stroke-width="1.4"/>
<text x="75" y="302.222" font-size="13" font-family="monospace" fill="#111827">1</text>
<rect x="105" y="515.556" width="30" height="35.556" fill="#38bdf8" fill-opacity="0.34" stroke="#075985" stroke-width="1.4"/>
<text x="105" y="515.556" font-size="13" font-family="monospace" fill="#111827">2</text>
<rect x="105" y="408.889" width="30" height="106.667" fill="#38bdf8" fill-opacity="0.34" stroke="#075985" stroke-width="1.4"/>
<text x="105" y="408.889" font-size="13" font-family="monospace" fill="#111827">3</text>
<rect x="135" y="515.556" width="90" height="35.556" fill="#38bdf8" fill-opacity="0.34" stroke="#075985" stroke-width="1.4"/>
<text x="135" y="515.556" font-size="13" font-family="monospace" fill="#111827">4</text>
<rect x="195" y="480" width="60" height="35.556" fill="#38bdf8" fill-opacity="0.34" stroke="#075985" stroke-width="1.4"/>
<text x="195" y="480" font-size="13" font-family="monospace" fill="#111827">5</text>
<rect x="225" y="515.556" width="30" height="35.556" fill="#38bdf8" fill-opacity="0.34" stroke="#075985" stroke-width="1.4"/>
<text x="225" y="515.556" font-size="13" font-family="monospace" fill="#111827">6</text>
<rect x="255" y="515.556" width="30" height="35.556" fill="#38bdf8" fill-opacity="0.34" stroke="#075985" stroke-width="1.4"/>
<text x="255" y="515.556" font-size="13" font-family="monospace" fill="#111827">7</text>
<rect x="285" y="515.556" width="30" height="35.556" fill="#38bdf8" fill-opacity="0.34" stroke="#075985" stroke-width="1.4"/>
<text x="285" y="515.556" font-size="13" font-family="monospace" fill="#111827">8</text>
<rect x="345" y="408.889" width="30" height="142.222" fill="#38bdf8" fill-opacity="0.34" stroke="#075985" stroke-width="1.4"/>
<text x="345" y="408.889" font-size="13" font-family="monospace" fill="#111827">9</text>
<rect x="345" y="302.222" width="90" height="71.111" fill="#38bdf8" fill-opacity="0.34" stroke="#075985" stroke-width="1.4"/>
<text x="345" y="302.222" font-size="13" font-family="monospace" fill="#111827">10</text>
<rect x="405" y="160" width="90" height="35.556" fill="#38bdf8" fill-opacity="0.34" stroke="#075985" stroke-width="1.4"/>
<text x="405" y="160" font-size="13" font-family="monospace" fill="#111827">11</text>
<rect x="405" y="88.889" width="420" height="35.556" fill="#38bdf8" fill-opacity="0.34" stroke="#075985" stroke-width="1.4"/>
<text x="405" y="88.889" font-size="13" font-family="monospace" fill="#111827">12</text>
<rect x="435" y="266.667" width="30" height="213.333" fill="#38bdf8" fill-opacity="0.34" stroke="#075985" stroke-width="1.4"/>
<text x="435" y="266.667" font-size="13" font-family="monospace" fill="#111827">13</text>
<rect x="465" y="337.778" width="90" height="71.111" fill="#38bdf8" fill-opacity="0.34" stroke="#075985" stroke-width="1.4"/>
<text x="465" y="337.778" font-size="13" font-family="monospace" fill="#111827">14</text>
<rect x="525" y="160" width="30" height="177.778" fill="#38bdf8" fill-opacity="0.34" stroke="#075985" stroke-width="1.4"/>
<text x="525" y="160" font-size="13" font-family="monospace" fill="#111827">15</text>
<rect x="585" y="444.444" width="60" height="71.111" fill="#38bdf8" fill-opacity="0.34" stroke="#075985" stroke-width="1.4"/>
<text x="585" y="444.444" font-size="13" font-family="monospace" fill="#111827">16</text>
<rect x="585" y="302.222" width="30" height="142.222" fill="#38bdf8" fill-opacity="0.34" stroke="#075985" stroke-width="1.4"/>
<text x="585" y="302.222" font-size="13" font-family="monospace" fill="#111827">17</text>
<rect x="615" y="302.222" width="150" height="71.111" fill="#38bdf8" fill-opacity="0.34" stroke="#075985" stroke-width="1.4"/>
<text x="615" y="302.222" font-size="13" font-family="monospace" fill="#111827">18</text>
<rect x="645" y="195.556" width="60" height="106.667" fill="#38bdf8" fill-opacity="0.34" stroke="#075985" stroke-width="1.4"/>
<text x="645" y="195.556" font-size="13" font-family="monospace" fill="#111827">19</text>
<rect x="675" y="373.333" width="60" height="142.222" fill="#38bdf8" fill-opacity="0.34" stroke="#075985" stroke-width="1.4"/>
<text x="675" y="373.333" font-size="13" font-family="monospace" fill="#111827">20</text>
<rect x="705" y="195.556" width="90" height="35.556" fill="#38bdf8" fill-opacity="0.34" stroke="#075985" stroke-width="1.4"/>
<text x="705" y="195.556" font-size="13" font-family="monospace" fill="#111827">21</text>
<rect x="765" y="266.667" width="30" height="142.222" fill="#38bdf8" fill-opacity="0.34" stroke="#075985" stroke-width="1.4"/>
<text x="765" y="266.667" font-size="13" font-family="monospace" fill="#111827">22</text>
<line x1="255" y1="640" x2="255" y2="0" stroke="#7c3aed" stroke-width="1.5" stroke-dasharray="8 5"/>
<line x1="0" y1="408.889" x2="255" y2="408.889" stroke="#7c3aed" stroke-width="1.5" stroke-dasharray="8 5"/>
<line x1="105" y1="640" x2="105" y2="408.889" stroke="#7c3aed" stroke-width="1.5" stroke-dasharray="8 5"/>
<line x1="135" y1="640" x2="135" y2="408.889" stroke="#7c3aed" stroke-width="1.5" stroke-dasharray="8 5"/>
<line x1="105" y1="515.556" x2="135" y2="515.556" stroke="#7c3aed" stroke-width="1.5" stroke-dasharray="8 5"/>
<line x1="135" y1="515.556" x2="255" y2="515.556" stroke="#7c3aed" stroke-width="1.5" stroke-dasharray="8 5"/>
<line x1="225" y1="640" x2="225" y2="515.556" stroke="#7c3aed" stroke-width="1.5" stroke-dasharray="8 5"/>
<line x1="285" y1="640" x2="285" y2="0" stroke="#7c3aed" stroke-width="1.5" stroke-dasharray="8 5"/>
<line x1="315" y1="640" x2="315" y2="0" stroke="#7c3aed" stroke-width="1.5" stroke-dasharray="8 5"/>
<line x1="315" y1="266.667" x2="900" y2="266.667" stroke="#7c3aed" stroke-width="1.5" stroke-dasharray="8 5"/>
<line x1="435" y1="640" x2="435" y2="266.667" stroke="#7c3aed" stroke-width="1.5" stroke-dasharray="8 5"/>
<line x1="315" y1="408.889" x2="435" y2="408.889" stroke="#7c3aed" stroke-width="1.5" stroke-dasharray="8 5"/>
<line x1="465" y1="640" x2="465" y2="266.667" stroke="#7c3aed" stroke-width="1.5" stroke-dasharray="8 5"/>
<line x1="555" y1="640" x2="555" y2="266.667" stroke="#7c3aed" stroke-width="1.5" stroke-dasharray="8 5"/>
<line x1="615" y1="640" x2="615" y2="266.667" stroke="#7c3aed" stroke-width="1.5" stroke-dasharray="8 5"/>
<line x1="765" y1="640" x2="765" y2="266.667" stroke="#7c3aed" stroke-width="1.5" stroke-dasharray="8 5"/>
<line x1="615" y1="373.333" x2="765" y2="373.333" stroke="#7c3aed" stroke-width="1.5" stroke-dasharray="8 5"/>
<line x1="315" y1="195.556" x2="900" y2="195.556" stroke="#7c3aed" stroke-width="1.5" stroke-dasharray="8 5"/>
<line x1="315" y1="160" x2="900" y2="160" stroke="#7c3aed" stroke-width="1.5" stroke-dasharray="8 5"/>
</svg>
