<svg xmlns="http://www.w3.org/2000/svg" width="900" height="640" viewBox="0 0 900 640">
<title>Guillotine score=0.25 saved=18 n=24</title>
<rect width="100%" height="100%" fill="#ffffff"/>
<rect x="76.084" y="556.76" width="260.116" height="24.922" fill="#38bdf8" fill-opacity="0.34" stroke="#075985" stroke-width="1.4"/>
<text x="76.084" y="556.76" font-size="13" font-family="monospace" fill="#111827">0</text>
<rect x="76.084" y="506.916" width="130.058" height="49.844" fill="#38bdf8" fill-opacity="0.34" stroke="#075985" stroke-width="1.4"/>
<text x="76.084" y="506.916" font-size="13" font-family="monospace" fill="#111827">1</text>
<rect x="76.084" y="108.162" width="32.514" height="373.832" fill="#38bdf8" fill-opacity="0.34" stroke="#075985" stroke-width="1.4"/>
<text x="76.084" y="108.162" font-size="13" font-family="monospace" fill="#111827">2</text>
<rect x="108.598" y="332.461" width="65.029" height="149.533" fill="#38bdf8" fill-opacity="0.34" stroke="#075985" stroke-width="1.4"/>
<text x="108.598" y="332.461" font-size="13" font-family="monospace" fill="#111827">3</text>
<rect x="108.598" y="232.773" width="227.601" height="24.922" fill="#38bdf8" fill-opacity="0.34" stroke="#075985" stroke-width="1.4"/>
<text x="108.598" y="232.773" font-size="13" font-family="monospace" fill="#111827">4</text>
<rect x="141.113" y="257.695" width="227.601" height="49.844" fill="#38bdf8" fill-opacity="0.34" stroke="#075985" stroke-width="1.4"/>
<text x="141.113" y="257.695" font-size="13" font-family="monospace" fill="#111827">5</text>
<rect x="206.142" y="457.072" width="130.058" height="99.688" fill="#38bdf8" fill-opacity="0.34" stroke="#075985" stroke-width="1.4"/>
<text x="206.142" y="457.072" font-size="13" font-family="monospace" fill="#111827">6</text>
<rect x="238.656" y="307.539" width="195.087" height="24.922" fill="#38bdf8" fill-opacity="0.34" stroke="#075985" stroke-width="1.4"/>
<text x="238.656" y="307.539" font-size="13" font-family="monospace" fill="#111827">7</text>
<rect x="271.171" y="357.383" width="32.514" height="74.766" fill="#38bdf8" fill-opacity="0.34" stroke="#075985" stroke-width="1.4"/>
<text x="271.171" y="357.383" font-size="13" font-family="monospace" fill="#111827">8</text>
<rect x="303.685" y="407.227" width="162.572" height="24.922" fill="#38bdf8" fill-opacity="0.34" stroke="#075985" stroke-width="1.4"/>
<text x="303.685" y="407.227" font-size="13" font-family="monospace" fill="#111827">9</text>
<rect x="303.685" y="182.928" width="292.63" height="24.922" fill="#38bdf8" fill-opacity="0.34" stroke="#075985" stroke-width="1.4"/>
<text x="303.685" y="182.928" font-size="13" font-family="monospace" fill="#111827">10</text>
<rect x="336.199" y="457.072" width="162.572" height="124.611" fill="#38bdf8" fill-opacity="0.34" stroke="#075985" stroke-width="1.4"/>
<text x="336.199" y="457.072" font-size="13" font-family="monospace" fill="#111827">11</text>
<rect x="368.714" y="207.85" width="32.514" height="99.688" fill="#38bdf8" fill-opacity="0.34" stroke="#075985" stroke-width="1.4"/>
<text x="368.714" y="207.85" font-size="13" font-family="monospace" fill="#111827">12</text>
<rect x="401.228" y="207.85" width="162.572" height="74.766" fill="#38bdf8" fill-opacity="0.34" stroke="#075985" stroke-width="1.4"/>
<text x="401.228" y="207.85" font-size="13" font-family="monospace" fill="#111827">13</text>
<rect x="433.743" y="282.617" width="32.514" height="99.688" fill="#38bdf8" fill-opacity="0.34" stroke="#075985" stroke-width="1.4"/>
<text x="433.743" y="282.617" font-size="13" font-family="monospace" fill="#111827">14</text>
<rect x="433.743" y="133.084" width="130.058" height="49.844" fill="#38bdf8" fill-opacity="0.34" stroke="#075985" stroke-width="1.4"/>
<text x="433.743" y="133.084" font-size="13" font-family="monospace" fill="#111827">15</text>
<rect x="498.772" y="282.617" width="32.514" height="199.377" fill="#38bdf8" fill-opacity="0.34" stroke="#075985" stroke-width="1.4"/>
<text x="498.772" y="282.617" font-size="13" font-family="monospace" fill="#111827">16</text>
<rect x="531.286" y="531.838" width="292.63" height="49.844" fill="#38bdf8" fill-opacity="0.34" stroke="#075985" stroke-width="1.4"/>
<text x="531.286" y="531.838" font-size="13" font-family="monospace" fill="#111827">17</text>
<rect x="531.286" y="282.617" width="130.058" height="249.221" fill="#38bdf8" fill-opacity="0.34" stroke="#075985" stroke-width="1.4"/>
<text x="531.286" y="282.617" font-size="13" font-family="monospace" fill="#111827">18</text>
<rect x="563.801" y="83.24" width="195.087" height="24.922" fill="#38bdf8" fill-opacity="0.34" stroke="#075985" stroke-width="1.4"/>
<text x="563.801" y="83.24" font-size="13" font-family="monospace" fill="#111827">19</text>
<rect x="628.829" y="158.006" width="65.029" height="99.688" fill="#38bdf8" fill-opacity="0.34" stroke="#075985" stroke-width="1.4"/>
<text x="628.829" y="158.006" font-size="13" font-family="monospace" fill="#111827">20</text>
<rect x="661.344" y="407.227" width="162.572" height="49.844" fill="#38bdf8" fill-opacity="0.34" stroke="#075985" stroke-width="1.4"/>
<text x="661.344" y="407.227" font-size="13" font-family="monospace" fill="#111827">21</text>
<rect x="693.858" y="182.928" width="32.514" height="224.299" fill="#38bdf8" fill-opacity="0.34" stroke="#075985" stroke-width="1.4"/>
<text x="693.858" y="182.928" font-size="13" font-family="monospace" fill="#111827">22</text>
<rect x="791.402" y="58.318" width="32.514" height="199.377" fill="#38bdf8" fill-opacity="0.34" stroke="#075985" stroke-width="1.4"/>
<text x="791.402" y="58.318" font-size="13" font-family="monospace" fill="#111827">23</text>
<line x1="108.598" y1="640" x2="108.598" y2="0" stroke="#7c3aed" stroke-width="1.5" stroke-dasharray="8 5"/>
<line x1="108.598" y1="332.461" x2="900" y2="332.461" stroke="#7c3aed" stroke-width="1.5" stroke-dasharray="8 5"/>
<line x1="173.627" y1="640" x2="173.627" y2="332.461" stroke="#7c3aed" stroke-width="1.5" stroke-dasharray="8 5"/>
<line x1="498.772" y1="640" x2="498.772" y2="332.461" stroke="#7c3aed" stroke-width="1.5" stroke-dasharray="8 5"/>
<line x1="173.627" y1="457.072" x2="498.772" y2="457.072" stroke="#7c3aed" stroke-width="1.5" stroke-dasharray="8 5"/>
<line x1="336.199" y1="640" x2="336.199" y2="457.072" stroke="#7c3aed" stroke-width="1.5" stroke-dasharray="8 5"/>
<line x1="303.685" y1="457.072" x2="303.685" y2="332.461" stroke="#7c3aed" stroke-width="1.5" stroke-dasharray="8 5"/>
<line x1="498.772" y1="531.838" x2="900" y2="531.838" stroke="#7c3aed" stroke-width="1.5" stroke-dasharray="8 5"/>
<line x1="758.887" y1="332.461" x2="758.887" y2="0" stroke="#7c3aed" stroke-width="1.5" stroke-dasharray="8 5"/>
<line x1="108.598" y1="307.539" x2="758.887" y2="307.539" stroke="#7c3aed" stroke-width="1.5" stroke-dasharray="8 5"/>
<line x1="108.598" y1="133.084" x2="758.887" y2="133.084" stroke="#7c3aed" stroke-width="1.5" stroke-dasharray="8 5"/>
<line x1="596.315" y1="307.539" x2="596.315" y2="133.084" stroke="#7c3aed" stroke-width="1.5" stroke-dasharray="8 5"/>
<line x1="108.598" y1="207.85" x2="596.315" y2="207.85" stroke="#7c3aed" stroke-width="1.5" stroke-dasharray="8 5"/>
<line x1="368.714" y1="307.539" x2="368.714" y2="207.85" stroke="#7c3aed" stroke-width="1.5" stroke-dasharray="8 5"/>
<line x1="108.598" y1="257.695" x2="368.714" y2="257.695" stroke="#7c3aed" stroke-width="1.5" stroke-dasharray="8 5"/>
<line x1="401.228" y1="307.539" x2="401.228" y2="207.85" stroke="#7c3aed" stroke-width="1.5" stroke-dasharray="8 5"/>
<line x1="108.598" y1="182.928" x2="596.315" y2="182.928" stroke="#7c3aed" stroke-width="1.5" stroke-dasharray="8 5"/>
</svg>
