<svg xmlns="http://www.w3.org/2000/svg" width="900" height="640" viewBox="0 0 900 640">
<title>Guillotine score=0.22727272727272727 saved=17 n=22</title>
<rect width="100%" height="100%" fill="#ffffff"/>
<rect x="82.457" y="484.313" width="95.881" height="61.617" fill="#38bdf8" fill-opacity="0.34" stroke="#075985" stroke-width="1.4"/>
<text x="82.457" y="484.313" font-size="13" font-family="monospace" fill="#111827">0</text>
<rect x="114.418" y="545.931" width="95.881" height="41.078" fill="#38bdf8" fill-opacity="0.34" stroke="#075985" stroke-width="1.4"/>
<text x="114.418" y="545.931" font-size="13" font-family="monospace" fill="#111827">1</text>
<rect x="114.418" y="73.53" width="31.96" height="410.783" fill="#38bdf8" fill-opacity="0.34" stroke="#075985" stroke-width="1.4"/>
<text x="114.418" y="73.53" font-size="13" font-family="monospace" fill="#111827">2</text>
<rect x="146.378" y="422.696" width="191.761" height="20.539" fill="#38bdf8" fill-opacity="0.34" stroke="#075985" stroke-width="1.4"/>
<text x="146.378" y="422.696" font-size="13" font-family="monospace" fill="#111827">3</text>
<rect x="146.378" y="73.53" width="319.602" height="164.313" fill="#38bdf8" fill-opacity="0.34" stroke="#075985" stroke-width="1.4"/>
<text x="146.378" y="73.53" font-size="13" font-family="monospace" fill="#111827">4</text>
<rect x="178.338" y="443.235" width="95.881" height="102.696" fill="#38bdf8" fill-opacity="0.34" stroke="#075985" stroke-width="1.4"/>
<text x="178.338" y="443.235" font-size="13" font-family="monospace" fill="#111827">5</text>
<rect x="242.259" y="402.157" width="127.841" height="20.539" fill="#38bdf8" fill-opacity="0.34" stroke="#075985" stroke-width="1.4"/>
<text x="242.259" y="402.157" font-size="13" font-family="monospace" fill="#111827">6</text>
<rect x="242.259" y="237.843" width="63.92" height="164.313" fill="#38bdf8" fill-opacity="0.34" stroke="#075985" stroke-width="1.4"/>
<text x="242.259" y="237.843" font-size="13" font-family="monospace" fill="#111827">7</text>
<rect x="274.219" y="463.774" width="127.841" height="102.696" fill="#38bdf8" fill-opacity="0.34" stroke="#075985" stroke-width="1.4"/>
<text x="274.219" y="463.774" font-size="13" font-family="monospace" fill="#111827">8</text>
<rect x="306.179" y="361.078" width="191.761" height="20.539" fill="#38bdf8" fill-opacity="0.34" stroke="#075985" stroke-width="1.4"/>
<text x="306.179" y="361.078" font-size="13" font-family="monospace" fill="#111827">9</text>
<rect x="338.139" y="258.383" width="351.562" height="20.539" fill="#38bdf8" fill-opacity="0.34" stroke="#075985" stroke-width="1.4"/>
<text x="338.139" y="258.383" font-size="13" font-family="monospace" fill="#111827">10</text>
<rect x="370.099" y="402.157" width="31.96" height="61.617" fill="#38bdf8" fill-opacity="0.34" stroke="#075985" stroke-width="1.4"/>
<text x="370.099" y="402.157" font-size="13" font-family="monospace" fill="#111827">11</text>
<rect x="434.02" y="525.392" width="255.682" height="61.617" fill="#38bdf8" fill-opacity="0.34" stroke="#075985" stroke-width="1.4"/>
<text x="434.02" y="525.392" font-size="13" font-family="monospace" fill="#111827">12</text>
<rect x="465.98" y="299.461" width="63.92" height="20.539" fill="#38bdf8" fill-opacity="0.34" stroke="#075985" stroke-width="1.4"/>
<text x="465.98" y="299.461" font-size="13" font-family="monospace" fill="#111827">13</text>
<rect x="497.94" y="340.539" width="63.92" height="123.235" fill="#38bdf8" fill-opacity="0.34" stroke="#075985" stroke-width="1.4"/>
<text x="497.94" y="340.539" font-size="13" font-family="monospace" fill="#111827">14</text>
<rect x="497.94" y="135.148" width="127.841" height="123.235" fill="#38bdf8" fill-opacity="0.34" stroke="#075985" stroke-width="1.4"/>
<text x="497.94" y="135.148" font-size="13" font-family="monospace" fill="#111827">15</text>
<rect x="593.821" y="278.922" width="127.841" height="225.931" fill="#38bdf8" fill-opacity="0.34" stroke="#075985" stroke-width="1.4"/>
<text x="593.821" y="278.922" font-size="13" font-family="monospace" fill="#111827">16</text>
<rect x="657.741" y="217.304" width="31.96" height="20.539" fill="#38bdf8" fill-opacity="0.34" stroke="#075985" stroke-width="1.4"/>
<text x="657.741" y="217.304" font-size="13" font-family="monospace" fill="#111827">17</text>
<rect x="657.741" y="176.226" width="159.801" height="20.539" fill="#38bdf8" fill-opacity="0.34" stroke="#075985" stroke-width="1.4"/>
<text x="657.741" y="176.226" font-size="13" font-family="monospace" fill="#111827">18</text>
<rect x="657.741" y="52.991" width="159.801" height="41.078" fill="#38bdf8" fill-opacity="0.34" stroke="#075985" stroke-width="1.4"/>
<text x="657.741" y="52.991" font-size="13" font-family="monospace" fill="#111827">19</text>
<rect x="753.622" y="217.304" width="63.92" height="328.626" fill="#38bdf8" fill-opacity="0.34" stroke="#075985" stroke-width="1.4"/>
<text x="753.622" y="217.304" font-size="13" font-family="monospace" fill="#111827">20</text>
<rect x="753.622" y="114.608" width="31.96" height="41.078" fill="#38bdf8" fill-opacity="0.34" stroke="#075985" stroke-width="1.4"/>
<text x="753.622" y="114.608" font-size="13" font-family="monospace" fill="#111827">21</text>
<line x1="98.438" y1="640" x2="98.438" y2="0" stroke="#7c3aed" stroke-width="1.5" stroke-dasharray="8 5"/>
<line x1="98.438" y1="545.931" x2="900" y2="545.931" stroke="#7c3aed" stroke-width="1.5" stroke-dasharray="8 5"/>
<line x1="146.378" y1="545.931" x2="146.378" y2="0" stroke="#7c3aed" stroke-width="1.5" stroke-dasharray="8 5"/>
<line x1="146.378" y1="278.922" x2="900" y2="278.922" stroke="#7c3aed" stroke-width="1.5" stroke-dasharray="8 5"/>
<line x1="561.861" y1="545.931" x2="561.861" y2="278.922" stroke="#7c3aed" stroke-width="1.5" stroke-dasharray="8 5"/>
<line x1="146.378" y1="340.539" x2="561.861" y2="340.539" stroke="#7c3aed" stroke-width="1.5" stroke-dasharray="8 5"/>
<line x1="497.94" y1="545.931" x2="497.94" y2="340.539" stroke="#7c3aed" stroke-width="1.5" stroke-dasharray="8 5"/>
<line x1="146.378" y1="402.157" x2="497.94" y2="402.157" stroke="#7c3aed" stroke-width="1.5" stroke-dasharray="8 5"/>
<line x1="370.099" y1="545.931" x2="370.099" y2="402.157" stroke="#7c3aed" stroke-width="1.5" stroke-dasharray="8 5"/>
<line x1="146.378" y1="443.235" x2="370.099" y2="443.235" stroke="#7c3aed" stroke-width="1.5" stroke-dasharray="8 5"/>
<line x1="146.378" y1="422.696" x2="370.099" y2="422.696" stroke="#7c3aed" stroke-width="1.5" stroke-dasharray="8 5"/>
<line x1="146.378" y1="258.383" x2="900" y2="258.383" stroke="#7c3aed" stroke-width="1.5" stroke-dasharray="8 5"/>
<line x1="465.98" y1="258.383" x2="465.98" y2="0" stroke="#7c3aed" stroke-width="1.5" stroke-dasharray="8 5"/>
<line x1="625.781" y1="258.383" x2="625.781" y2="0" stroke="#7c3aed" stroke-width="1.5" stroke-dasharray="8 5"/>
<line x1="625.781" y1="217.304" x2="900" y2="217.304" stroke="#7c3aed" stroke-width="1.5" stroke-dasharray="8 5"/>
<line x1="625.781" y1="176.226" x2="900" y2="176.226" stroke="#7c3aed" stroke-width="1.5" stroke-dasharray="8 5"/>
<line x1="625.781" y1="114.608" x2="900" y2="114.608" stroke="#7c3aed" stroke-width="1.5" stroke-dasharray="8 5"/>
</svg>
