<svg xmlns="http://www.w3.org/2000/svg" width="900" height="640" viewBox="0 0 900 640">
<title>Guillotine score=0.13636363636363635 saved=19 n=22</title>
<rect width="100%" height="100%" fill="#ffffff"/>
<rect x="74.072" y="560.109" width="27.847" height="21.828" fill="#38bdf8" fill-opacity="0.34" stroke="#075985" stroke-width="1.4"/>
<text x="74.072" y="560.109" font-size="13" font-family="monospace" fill="#111827">0</text>
<rect x="74.072" y="538.281" width="83.54" height="21.828" fill="#38bdf8" fill-opacity="0.34" stroke="#075985" stroke-width="1.4"/>
<text x="74.072" y="538.281" font-size="13" font-family="monospace" fill="#111827">1</text>
<rect x="74.072" y="494.625" width="55.693" height="43.656" fill="#38bdf8" fill-opacity="0.34" stroke="#075985" stroke-width="1.4"/>
<text x="74.072" y="494.625" font-size="13" font-family="monospace" fill="#111827">2</text>
<rect x="101.918" y="385.484" width="55.693" height="87.312" fill="#38bdf8" fill-opacity="0.34" stroke="#075985" stroke-width="1.4"/>
<text x="101.918" y="385.484" font-size="13" font-family="monospace" fill="#111827">3</text>
<rect x="129.765" y="516.453" width="55.693" height="21.828" fill="#38bdf8" fill-opacity="0.34" stroke="#075985" stroke-width="1.4"/>
<text x="129.765" y="516.453" font-size="13" font-family="monospace" fill="#111827">4</text>
<rect x="157.611" y="385.484" width="167.079" height="43.656" fill="#38bdf8" fill-opacity="0.34" stroke="#075985" stroke-width="1.4"/>
<text x="157.611" y="385.484" font-size="13" font-family="monospace" fill="#111827">5</text>
<rect x="185.458" y="450.969" width="55.693" height="87.312" fill="#38bdf8" fill-opacity="0.34" stroke="#075985" stroke-width="1.4"/>
<text x="185.458" y="450.969" font-size="13" font-family="monospace" fill="#111827">6</text>
<rect x="213.304" y="538.281" width="55.693" height="43.656" fill="#38bdf8" fill-opacity="0.34" stroke="#075985" stroke-width="1.4"/>
<text x="213.304" y="538.281" font-size="13" font-family="monospace" fill="#111827">7</text>
<rect x="213.304" y="254.516" width="139.233" height="87.312" fill="#38bdf8" fill-opacity="0.34" stroke="#075985" stroke-width="1.4"/>
<text x="213.304" y="254.516" font-size="13" font-family="monospace" fill="#111827">8</text>
<rect x="296.844" y="516.453" width="27.847" height="43.656" fill="#38bdf8" fill-opacity="0.34" stroke="#075985" stroke-width="1.4"/>
<text x="296.844" y="516.453" font-size="13" font-family="monospace" fill="#111827">9</text>
<rect x="296.844" y="363.656" width="111.386" height="21.828" fill="#38bdf8" fill-opacity="0.34" stroke="#075985" stroke-width="1.4"/>
<text x="296.844" y="363.656" font-size="13" font-family="monospace" fill="#111827">10</text>
<rect x="296.844" y="189.031" width="55.693" height="21.828" fill="#38bdf8" fill-opacity="0.34" stroke="#075985" stroke-width="1.4"/>
<text x="296.844" y="189.031" font-size="13" font-family="monospace" fill="#111827">11</text>
<rect x="352.537" y="254.516" width="194.926" height="21.828" fill="#38bdf8" fill-opacity="0.34" stroke="#075985" stroke-width="1.4"/>
<text x="352.537" y="254.516" font-size="13" font-family="monospace" fill="#111827">12</text>
<rect x="380.384" y="298.172" width="27.847" height="21.828" fill="#38bdf8" fill-opacity="0.34" stroke="#075985" stroke-width="1.4"/>
<text x="380.384" y="298.172" font-size="13" font-family="monospace" fill="#111827">13</text>
<rect x="436.077" y="298.172" width="27.847" height="109.141" fill="#38bdf8" fill-opacity="0.34" stroke="#075985" stroke-width="1.4"/>
<text x="436.077" y="298.172" font-size="13" font-family="monospace" fill="#111827">14</text>
<rect x="491.77" y="320" width="27.847" height="152.797" fill="#38bdf8" fill-opacity="0.34" stroke="#075985" stroke-width="1.4"/>
<text x="491.77" y="320" font-size="13" font-family="monospace" fill="#111827">15</text>
<rect x="519.616" y="516.453" width="83.54" height="21.828" fill="#38bdf8" fill-opacity="0.34" stroke="#075985" stroke-width="1.4"/>
<text x="519.616" y="516.453" font-size="13" font-family="monospace" fill="#111827">16</text>
<rect x="575.309" y="232.688" width="111.386" height="240.109" fill="#38bdf8" fill-opacity="0.34" stroke="#075985" stroke-width="1.4"/>
<text x="575.309" y="232.688" font-size="13" font-family="monospace" fill="#111827">17</text>
<rect x="631.002" y="123.547" width="27.847" height="87.312" fill="#38bdf8" fill-opacity="0.34" stroke="#075985" stroke-width="1.4"/>
<text x="631.002" y="123.547" font-size="13" font-family="monospace" fill="#111827">18</text>
<rect x="658.849" y="101.719" width="111.386" height="43.656" fill="#38bdf8" fill-opacity="0.34" stroke="#075985" stroke-width="1.4"/>
<text x="658.849" y="101.719" font-size="13" font-family="monospace" fill="#111827">19</text>
<rect x="714.542" y="167.203" width="27.847" height="305.593" fill="#38bdf8" fill-opacity="0.34" stroke="#075985" stroke-width="1.4"/>
<text x="714.542" y="167.203" font-size="13" font-family="monospace" fill="#111827">20</text>
<rect x="798.082" y="58.063" width="27.847" height="21.828" fill="#38bdf8" fill-opacity="0.34" stroke="#075985" stroke-width="1.4"/>
<text x="798.082" y="58.063" font-size="13" font-family="monospace" fill="#111827">21</text>
<line x1="157.611" y1="640" x2="157.611" y2="0" stroke="#7c3aed" stroke-width="1.5" stroke-dasharray="8 5"/>
<line x1="0" y1="560.109" x2="157.611" y2="560.109" stroke="#7c3aed" stroke-width="1.5" stroke-dasharray="8 5"/>
<line x1="0" y1="538.281" x2="157.611" y2="538.281" stroke="#7c3aed" stroke-width="1.5" stroke-dasharray="8 5"/>
<line x1="0" y1="494.625" x2="157.611" y2="494.625" stroke="#7c3aed" stroke-width="1.5" stroke-dasharray="8 5"/>
<line x1="352.537" y1="640" x2="352.537" y2="0" stroke="#7c3aed" stroke-width="1.5" stroke-dasharray="8 5"/>
<line x1="157.611" y1="450.969" x2="352.537" y2="450.969" stroke="#7c3aed" stroke-width="1.5" stroke-dasharray="8 5"/>
<line x1="268.998" y1="640" x2="268.998" y2="450.969" stroke="#7c3aed" stroke-width="1.5" stroke-dasharray="8 5"/>
<line x1="157.611" y1="538.281" x2="268.998" y2="538.281" stroke="#7c3aed" stroke-width="1.5" stroke-dasharray="8 5"/>
<line x1="157.611" y1="385.484" x2="352.537" y2="385.484" stroke="#7c3aed" stroke-width="1.5" stroke-dasharray="8 5"/>
<line x1="157.611" y1="254.516" x2="352.537" y2="254.516" stroke="#7c3aed" stroke-width="1.5" stroke-dasharray="8 5"/>
<line x1="603.156" y1="640" x2="603.156" y2="0" stroke="#7c3aed" stroke-width="1.5" stroke-dasharray="8 5"/>
<line x1="352.537" y1="516.453" x2="603.156" y2="516.453" stroke="#7c3aed" stroke-width="1.5" stroke-dasharray="8 5"/>
<line x1="352.537" y1="298.172" x2="603.156" y2="298.172" stroke="#7c3aed" stroke-width="1.5" stroke-dasharray="8 5"/>
<line x1="408.23" y1="516.453" x2="408.23" y2="298.172" stroke="#7c3aed" stroke-width="1.5" stroke-dasharray="8 5"/>
<line x1="463.923" y1="516.453" x2="463.923" y2="298.172" stroke="#7c3aed" stroke-width="1.5" stroke-dasharray="8 5"/>
<line x1="658.849" y1="640" x2="658.849" y2="0" stroke="#7c3aed" stroke-width="1.5" stroke-dasharray="8 5"/>
<line x1="770.235" y1="640" x2="770.235" y2="0" stroke="#7c3aed" stroke-width="1.5" stroke-dasharray="8 5"/>
<line x1="658.849" y1="167.203" x2="770.235" y2="167.203" stroke="#7c3aed" stroke-width="1.5" stroke-dasharray="8 5"/>
</svg>
