<svg xmlns="http://www.w3.org/2000/svg" width="900" height="720" viewBox="0 0 900 720">
<rect width="100%" height="100%" fill="white"/>
<style>text{font-family:Arial,Helvetica,sans-serif}.axis{stroke:#334155;stroke-width:1}.grid{stroke:#e2e8f0;stroke-width:1}.line{fill:none;stroke-width:2.5}</style>
<text x="450.0" y="30" text-anchor="middle" font-size="20" font-weight="700">Best certified score over PatternBoost generations</text>
<text x="60" y="50" font-size="15" font-weight="700">misr</text>
<line class="grid" x1="60" x2="840" y1="240.0" y2="240.0"/>
<text x="52" y="244.0" text-anchor="end" font-size="11">1.07</text>
<line class="grid" x1="60" x2="840" y1="195.0" y2="195.0"/>
<text x="52" y="199.0" text-anchor="end" font-size="11">1.2</text>
<line class="grid" x1="60" x2="840" y1="150.0" y2="150.0"/>
<text x="52" y="154.0" text-anchor="end" font-size="11">1.32</text>
<line class="grid" x1="60" x2="840" y1="105.0" y2="105.0"/>
<text x="52" y="109.0" text-anchor="end" font-size="11">1.44</text>
<line class="grid" x1="60" x2="840" y1="60.0" y2="60.0"/>
<text x="52" y="64.0" text-anchor="end" font-size="11">1.56</text>
<line class="axis" x1="60" x2="840" y1="240" y2="240"/><line class="axis" x1="60" x2="60" y1="60" y2="240"/>
<polyline class="line" stroke="#2563eb" points="60.0,221.6 60.3,175.5 60.6,144.9 64.4,129.5 79.3,129.5 94.1,129.5 108.9,129.5 123.8,129.5 138.6,129.5 153.4,129.5 168.3,129.5 183.1,129.5 197.9,129.5 212.7,129.5 227.6,129.5 242.4,129.5 257.2,129.5 272.1,129.5 274.4,83.5 289.3,83.5 304.1,83.5 318.9,83.5 333.7,83.5 348.6,83.5 363.4,83.5 378.2,83.5 393.1,83.5 407.9,83.5 422.7,83.5 437.5,83.5 452.4,83.5 467.2,83.5 482.0,83.5 496.9,83.5 511.7,83.5 526.5,83.5 541.3,83.5 556.2,83.5 571.0,83.5 586.1,83.5 601.0,83.5"/>
<line x1="630" x2="650" y1="48" y2="48" stroke="#2563eb" stroke-width="3"/><text x="654" y="52" font-size="11">main</text>
<polyline class="line" stroke="#64748b" points="60.0,221.6 61.8,144.9 76.6,144.9 91.4,144.9 106.3,144.9 121.1,144.9 135.9,144.9 150.8,144.9 165.6,144.9 180.4,144.9 195.2,144.9 210.1,144.9 224.9,144.9 239.7,144.9 254.6,144.9 269.4,144.9 284.2,144.9 299.0,144.9 313.9,144.9 328.7,144.9 343.5,144.9 358.4,144.9 373.2,144.9 388.0,144.9 402.8,144.9 417.7,144.9 432.5,144.9 447.3,144.9 462.2,144.9 477.0,144.9 491.8,144.9 506.6,144.9 521.5,144.9 536.3,144.9"/>
<line x1="706" x2="726" y1="48" y2="48" stroke="#64748b" stroke-width="3"/><text x="730" y="52" font-size="11">controls</text>
<polyline class="line" stroke="#dc2626" points="60.0,221.6 60.9,175.5 61.5,144.9 72.8,129.5 87.6,129.5 102.4,129.5 117.2,129.5 128.2,83.5 143.0,83.5 157.9,83.5 172.7,83.5 187.5,83.5 202.4,83.5 217.2,83.5 232.0,83.5 246.8,83.5 261.7,83.5 276.5,83.5 291.3,83.5 306.2,83.5 321.0,83.5 335.8,83.5 350.6,83.5 365.5,83.5 380.3,83.5 395.1,83.5 410.0,83.5 424.8,83.5 439.6,83.5 454.4,83.5 469.3,83.5 484.1,83.5 498.9,83.5 513.8,83.5 528.6,83.5 543.4,83.5 558.3,83.5 573.1,83.5 587.9,83.5 602.7,83.5 617.6,83.5 632.4,83.5 647.2,83.5 662.1,83.5 676.9,83.5 691.7,83.5 706.5,83.5 721.4,83.5 736.2,83.5 751.0,83.5 765.9,83.5 780.7,83.5 795.5,83.5 810.3,83.5 825.2,83.5 840.0,83.5"/>
<line x1="782" x2="802" y1="48" y2="48" stroke="#dc2626" stroke-width="3"/><text x="806" y="52" font-size="11">record</text>
<text x="450.0" y="268" text-anchor="middle" font-size="12">generation</text>
<text x="60" y="265" font-size="15" font-weight="700">unit_square</text>
<line class="grid" x1="60" x2="840" y1="455.0" y2="455.0"/>
<text x="52" y="459.0" text-anchor="end" font-size="11">0.95</text>
<line class="grid" x1="60" x2="840" y1="410.0" y2="410.0"/>
<text x="52" y="414.0" text-anchor="end" font-size="11">1.11</text>
<line class="grid" x1="60" x2="840" y1="365.0" y2="365.0"/>
<text x="52" y="369.0" text-anchor="end" font-size="11">1.27</text>
<line class="grid" x1="60" x2="840" y1="320.0" y2="320.0"/>
<text x="52" y="324.0" text-anchor="end" font-size="11">1.42</text>
<line class="grid" x1="60" x2="840" y1="275.0" y2="275.0"/>
<text x="52" y="279.0" text-anchor="end" font-size="11">1.58</text>
<line class="axis" x1="60" x2="840" y1="455" y2="455"/><line class="axis" x1="60" x2="60" y1="275" y2="455"/>
<polyline class="line" stroke="#2563eb" points="60.0,383.9 60.2,345.9 61.2,337.3 61.5,332.8 62.2,298.5 74.6,298.5 87.1,298.5 99.5,298.5 111.9,298.5 124.3,298.5 136.7,298.5 149.1,298.5 161.5,298.5 173.9,298.5 186.3,298.5 198.7,298.5 211.1,298.5 223.5,298.5 236.0,298.5 248.4,298.5 260.8,298.5 273.2,298.5 285.6,298.5 298.0,298.5 310.4,298.5 322.8,298.5 335.2,298.5 347.6,298.5 360.0,298.5 372.4,298.5 384.9,298.5 397.3,298.5 409.7,298.5 422.1,298.5 434.5,298.5 446.9,298.5"/>
<line x1="630" x2="650" y1="263" y2="263" stroke="#2563eb" stroke-width="3"/><text x="654" y="267" font-size="11">main</text>
<polyline class="line" stroke="#64748b" points="60.0,400.1 60.2,369.6 60.5,365.9 61.7,345.9 63.5,342.3 68.7,337.3 79.4,318.8 91.8,318.8 104.2,318.8 116.6,318.8 129.0,318.8 141.4,318.8 153.8,318.8 166.2,318.8 178.6,318.8 191.0,318.8 203.4,318.8 215.9,318.8 228.3,318.8 240.7,318.8 253.1,318.8 265.5,318.8 277.9,318.8 290.3,318.8 302.7,318.8 315.1,318.8 327.5,318.8 339.9,318.8 352.3,318.8 364.8,318.8 377.2,318.8 389.6,318.8 402.0,318.8 414.4,318.8 426.8,318.8 439.2,318.8 451.6,318.8 464.0,318.8 476.4,318.8 488.8,318.8 501.2,318.8"/>
<line x1="706" x2="726" y1="263" y2="263" stroke="#64748b" stroke-width="3"/><text x="730" y="267" font-size="11">controls</text>
<polyline class="line" stroke="#dc2626" points="60.0,440.8 60.2,397.0 60.5,369.6 61.2,345.9 67.4,323.6 74.4,318.8 83.1,298.5 95.5,298.5 107.9,298.5 120.3,298.5 132.7,298.5 145.1,298.5 157.5,298.5 169.9,298.5 182.3,298.5 194.8,298.5 207.2,298.5 219.6,298.5 232.0,298.5 244.4,298.5 256.8,298.5 269.2,298.5 281.6,298.5 294.0,298.5 306.4,298.5 318.8,298.5 331.3,298.5 343.7,298.5 356.1,298.5 368.5,298.5 380.9,298.5 393.3,298.5 405.7,298.5 418.1,298.5 430.5,298.5 442.9,298.5 455.3,298.5 467.7,298.5 480.2,298.5 492.6,298.5 505.0,298.5 517.4,298.5 529.8,298.5 542.2,298.5 554.6,298.5 567.0,298.5 579.4,298.5 591.8,298.5 604.2,298.5 616.6,298.5 629.1,298.5 641.5,298.5 653.9,298.5 666.3,298.5 678.7,298.5 691.1,298.5 703.5,298.5 715.9,298.5 728.3,298.5 740.7,298.5 753.1,298.5 765.5,298.5 778.0,298.5 790.4,298.5 802.8,298.5 815.2,298.5 827.6,298.5 840.0,298.5"/>
<line x1="782" x2="802" y1="263" y2="263" stroke="#dc2626" stroke-width="3"/><text x="806" y="267" font-size="11">record</text>
<text x="450.0" y="483" text-anchor="middle" font-size="12">generation</text>
<text x="60" y="480" font-size="15" font-weight="700">guillotine</text>
<line class="grid" x1="60" x2="840" y1="670.0" y2="670.0"/>
<text x="52" y="674.0" text-anchor="end" font-size="11">0</text>
<line class="grid" x1="60" x2="840" y1="625.0" y2="625.0"/>
<text x="52" y="629.0" text-anchor="end" font-size="11">0.0719</text>
<line class="grid" x1="60" x2="840" y1="580.0" y2="580.0"/>
<text x="52" y="584.0" text-anchor="end" font-size="11">0.144</text>
<line class="grid" x1="60" x2="840" y1="535.0" y2="535.0"/>
<text x="52" y="539.0" text-anchor="end" font-size="11">0.216</text>
<line class="grid" x1="60" x2="840" y1="490.0" y2="490.0"/>
<text x="52" y="494.0" text-anchor="end" font-size="11">0.287</text>
<line class="axis" x1="60" x2="840" y1="670" y2="670"/><line class="axis" x1="60" x2="60" y1="490" y2="670"/>
<polyline class="line" stroke="#2563eb" points="60.0,513.5 87.9,513.5 115.7,513.5 143.6,513.5 171.4,513.5 199.3,513.5 227.1,513.5 255.0,513.5 282.9,513.5 310.7,513.5 338.6,513.5 366.4,513.5 394.3,513.5 422.1,513.5 450.0,513.5 477.9,513.5 505.7,513.5 533.6,513.5 561.4,513.5 589.3,513.5 617.1,513.5 645.0,513.5 672.9,513.5 700.7,513.5 728.6,513.5 756.4,513.5 784.3,513.5 812.1,513.5"/>
<line x1="630" x2="650" y1="478" y2="478" stroke="#2563eb" stroke-width="3"/><text x="654" y="482" font-size="11">main</text>
<polyline class="line" stroke="#64748b" points="60.0,513.5 87.9,513.5 115.7,513.5"/>
<line x1="706" x2="726" y1="478" y2="478" stroke="#64748b" stroke-width="3"/><text x="730" y="482" font-size="11">controls</text>
<polyline class="line" stroke="#dc2626" points="60.0,513.5 87.9,513.5 115.7,513.5 143.6,513.5 171.4,513.5 199.3,513.5 227.1,513.5 255.0,513.5 282.9,513.5 310.7,513.5 338.6,513.5 366.4,513.5 394.3,513.5 422.1,513.5 450.0,513.5 477.9,513.5 505.7,513.5 533.6,513.5 561.4,513.5 589.3,513.5 617.1,513.5 645.0,513.5 672.9,513.5 700.7,513.5 728.6,513.5 756.4,513.5 784.3,513.5 812.1,513.5 840.0,513.5"/>
<line x1="782" x2="802" y1="478" y2="478" stroke="#dc2626" stroke-width="3"/><text x="806" y="482" font-size="11">record</text>
<text x="450.0" y="698" text-anchor="middle" font-size="12">generation</text>
</svg>
