<svg xmlns="http://www.w3.org/2000/svg" width="900" height="640" viewBox="0 0 900 640">
<title>Unit-square score=1.2765957446808507 tau=6 tau_lp=4.700000000000001</title>
<rect width="100%" height="100%" fill="#ffffff"/>
<rect x="80.792" y="520.772" width="86.873" height="61.776" fill="#fbbf24" fill-opacity="0.32" stroke="#92400e" stroke-width="1.4"/>
<text x="80.792" y="520.772" font-size="13" font-family="monospace" fill="#111827">0</text>
<rect x="80.792" y="489.884" width="86.873" height="61.776" fill="#fbbf24" fill-opacity="0.32" stroke="#92400e" stroke-width="1.4"/>
<text x="80.792" y="489.884" font-size="13" font-family="monospace" fill="#111827">1</text>
<rect x="80.792" y="458.996" width="86.873" height="61.776" fill="#fbbf24" fill-opacity="0.32" stroke="#92400e" stroke-width="1.4"/>
<text x="80.792" y="458.996" font-size="13" font-family="monospace" fill="#111827">2</text>
<rect x="80.792" y="428.108" width="86.873" height="61.776" fill="#fbbf24" fill-opacity="0.32" stroke="#92400e" stroke-width="1.4"/>
<text x="80.792" y="428.108" font-size="13" font-family="monospace" fill="#111827">3</text>
<rect x="124.228" y="520.772" width="86.873" height="61.776" fill="#fbbf24" fill-opacity="0.32" stroke="#92400e" stroke-width="1.4"/>
<text x="124.228" y="520.772" font-size="13" font-family="monospace" fill="#111827">4</text>
<rect x="167.664" y="489.884" width="86.873" height="61.776" fill="#fbbf24" fill-opacity="0.32" stroke="#92400e" stroke-width="1.4"/>
<text x="167.664" y="489.884" font-size="13" font-family="monospace" fill="#111827">5</text>
<rect x="167.664" y="428.108" width="86.873" height="61.776" fill="#fbbf24" fill-opacity="0.32" stroke="#92400e" stroke-width="1.4"/>
<text x="167.664" y="428.108" font-size="13" font-family="monospace" fill="#111827">6</text>
<rect x="211.1" y="273.668" width="86.873" height="61.776" fill="#fbbf24" fill-opacity="0.32" stroke="#92400e" stroke-width="1.4"/>
<text x="211.1" y="273.668" font-size="13" font-family="monospace" fill="#111827">7</text>
<rect x="254.537" y="520.772" width="86.873" height="61.776" fill="#fbbf24" fill-opacity="0.32" stroke="#92400e" stroke-width="1.4"/>
<text x="254.537" y="520.772" font-size="13" font-family="monospace" fill="#111827">8</text>
<rect x="254.537" y="88.34" width="86.873" height="61.776" fill="#fbbf24" fill-opacity="0.32" stroke="#92400e" stroke-width="1.4"/>
<text x="254.537" y="88.34" font-size="13" font-family="monospace" fill="#111827">9</text>
<rect x="297.973" y="397.22" width="86.873" height="61.776" fill="#fbbf24" fill-opacity="0.32" stroke="#92400e" stroke-width="1.4"/>
<text x="297.973" y="397.22" font-size="13" font-family="monospace" fill="#111827">10</text>
<rect x="341.409" y="458.996" width="86.873" height="61.776" fill="#fbbf24" fill-opacity="0.32" stroke="#92400e" stroke-width="1.4"/>
<text x="341.409" y="458.996" font-size="13" font-family="monospace" fill="#111827">11</text>
<rect x="341.409" y="211.892" width="86.873" height="61.776" fill="#fbbf24" fill-opacity="0.32" stroke="#92400e" stroke-width="1.4"/>
<text x="341.409" y="211.892" font-size="13" font-family="monospace" fill="#111827">12</text>
<rect x="384.846" y="335.444" width="86.873" height="61.776" fill="#fbbf24" fill-opacity="0.32" stroke="#92400e" stroke-width="1.4"/>
<text x="384.846" y="335.444" font-size="13" font-family="monospace" fill="#111827">13</text>
<rect x="471.718" y="520.772" width="86.873" height="61.776" fill="#fbbf24" fill-opacity="0.32" stroke="#92400e" stroke-width="1.4"/>
<text x="471.718" y="520.772" font-size="13" font-family="monospace" fill="#111827">14</text>
<rect x="471.718" y="242.78" width="86.873" height="61.776" fill="#fbbf24" fill-opacity="0.32" stroke="#92400e" stroke-width="1.4"/>
<text x="471.718" y="242.78" font-size="13" font-family="monospace" fill="#111827">15</text>
<rect x="602.027" y="489.884" width="86.873" height="61.776" fill="#fbbf24" fill-opacity="0.32" stroke="#92400e" stroke-width="1.4"/>
<text x="602.027" y="489.884" font-size="13" font-family="monospace" fill="#111827">16</text>
<rect x="645.463" y="150.116" width="86.873" height="61.776" fill="#fbbf24" fill-opacity="0.32" stroke="#92400e" stroke-width="1.4"/>
<text x="645.463" y="150.116" font-size="13" font-family="monospace" fill="#111827">17</text>
<rect x="645.463" y="57.452" width="86.873" height="61.776" fill="#fbbf24" fill-opacity="0.32" stroke="#92400e" stroke-width="1.4"/>
<text x="645.463" y="57.452" font-size="13" font-family="monospace" fill="#111827">18</text>
<rect x="732.336" y="119.228" width="86.873" height="61.776" fill="#fbbf24" fill-opacity="0.32" stroke="#92400e" stroke-width="1.4"/>
<text x="732.336" y="119.228" font-size="13" font-family="monospace" fill="#111827">19</text>
<line x1="80.792" y1="640" x2="80.792" y2="0" stroke="#dc2626" stroke-width="2.4"/>
<line x1="254.537" y1="640" x2="254.537" y2="0" stroke="#dc2626" stroke-width="2.4"/>
<line x1="384.846" y1="640" x2="384.846" y2="0" stroke="#dc2626" stroke-width="2.4"/>
<line x1="471.718" y1="640" x2="471.718" y2="0" stroke="#dc2626" stroke-width="2.4"/>
<line x1="732.336" y1="640" x2="732.336" y2="0" stroke="#dc2626" stroke-width="2.4"/>
<line x1="0" y1="520.772" x2="900" y2="520.772" stroke="#dc2626" stroke-width="2.4"/>
</svg>
