<svg xmlns="http://www.w3.org/2000/svg" width="900" height="640" viewBox="0 0 900 640">
<title>Guillotine score=0.18181818181818182 saved=18 n=22</title>
<rect width="100%" height="100%" fill="#ffffff"/>
<rect x="76.084" y="511.904" width="32.514" height="71.964" fill="#38bdf8" fill-opacity="0.34" stroke="#075985" stroke-width="1.4"/>
<text x="76.084" y="511.904" font-size="13" font-family="monospace" fill="#111827">0</text>
<rect x="76.084" y="487.916" width="97.543" height="23.988" fill="#38bdf8" fill-opacity="0.34" stroke="#075985" stroke-width="1.4"/>
<text x="76.084" y="487.916" font-size="13" font-family="monospace" fill="#111827">1</text>
<rect x="76.084" y="367.976" width="97.543" height="95.952" fill="#38bdf8" fill-opacity="0.34" stroke="#075985" stroke-width="1.4"/>
<text x="76.084" y="367.976" font-size="13" font-family="monospace" fill="#111827">2</text>
<rect x="76.084" y="56.132" width="65.029" height="239.88" fill="#38bdf8" fill-opacity="0.34" stroke="#075985" stroke-width="1.4"/>
<text x="76.084" y="56.132" font-size="13" font-family="monospace" fill="#111827">3</text>
<rect x="108.598" y="559.88" width="357.659" height="23.988" fill="#38bdf8" fill-opacity="0.34" stroke="#075985" stroke-width="1.4"/>
<text x="108.598" y="559.88" font-size="13" font-family="monospace" fill="#111827">4</text>
<rect x="108.598" y="535.892" width="260.116" height="23.988" fill="#38bdf8" fill-opacity="0.34" stroke="#075985" stroke-width="1.4"/>
<text x="108.598" y="535.892" font-size="13" font-family="monospace" fill="#111827">5</text>
<rect x="141.113" y="152.084" width="455.202" height="71.964" fill="#38bdf8" fill-opacity="0.34" stroke="#075985" stroke-width="1.4"/>
<text x="141.113" y="152.084" font-size="13" font-family="monospace" fill="#111827">6</text>
<rect x="173.627" y="224.048" width="32.514" height="311.844" fill="#38bdf8" fill-opacity="0.34" stroke="#075985" stroke-width="1.4"/>
<text x="173.627" y="224.048" font-size="13" font-family="monospace" fill="#111827">7</text>
<rect x="173.627" y="56.132" width="585.26" height="23.988" fill="#38bdf8" fill-opacity="0.34" stroke="#075985" stroke-width="1.4"/>
<text x="173.627" y="56.132" font-size="13" font-family="monospace" fill="#111827">8</text>
<rect x="238.656" y="248.036" width="32.514" height="263.868" fill="#38bdf8" fill-opacity="0.34" stroke="#075985" stroke-width="1.4"/>
<text x="238.656" y="248.036" font-size="13" font-family="monospace" fill="#111827">9</text>
<rect x="271.171" y="248.036" width="32.514" height="287.856" fill="#38bdf8" fill-opacity="0.34" stroke="#075985" stroke-width="1.4"/>
<text x="271.171" y="248.036" font-size="13" font-family="monospace" fill="#111827">10</text>
<rect x="336.199" y="343.988" width="130.058" height="23.988" fill="#38bdf8" fill-opacity="0.34" stroke="#075985" stroke-width="1.4"/>
<text x="336.199" y="343.988" font-size="13" font-family="monospace" fill="#111827">11</text>
<rect x="401.228" y="415.952" width="422.688" height="23.988" fill="#38bdf8" fill-opacity="0.34" stroke="#075985" stroke-width="1.4"/>
<text x="401.228" y="415.952" font-size="13" font-family="monospace" fill="#111827">12</text>
<rect x="401.228" y="248.036" width="65.029" height="71.964" fill="#38bdf8" fill-opacity="0.34" stroke="#075985" stroke-width="1.4"/>
<text x="401.228" y="248.036" font-size="13" font-family="monospace" fill="#111827">13</text>
<rect x="433.743" y="463.928" width="97.543" height="95.952" fill="#38bdf8" fill-opacity="0.34" stroke="#075985" stroke-width="1.4"/>
<text x="433.743" y="463.928" font-size="13" font-family="monospace" fill="#111827">14</text>
<rect x="498.772" y="272.024" width="325.145" height="119.94" fill="#38bdf8" fill-opacity="0.34" stroke="#075985" stroke-width="1.4"/>
<text x="498.772" y="272.024" font-size="13" font-family="monospace" fill="#111827">15</text>
<rect x="563.801" y="439.94" width="260.116" height="143.928" fill="#38bdf8" fill-opacity="0.34" stroke="#075985" stroke-width="1.4"/>
<text x="563.801" y="439.94" font-size="13" font-family="monospace" fill="#111827">16</text>
<rect x="596.315" y="200.06" width="97.543" height="71.964" fill="#38bdf8" fill-opacity="0.34" stroke="#075985" stroke-width="1.4"/>
<text x="596.315" y="200.06" font-size="13" font-family="monospace" fill="#111827">17</text>
<rect x="628.829" y="176.072" width="65.029" height="23.988" fill="#38bdf8" fill-opacity="0.34" stroke="#075985" stroke-width="1.4"/>
<text x="628.829" y="176.072" font-size="13" font-family="monospace" fill="#111827">18</text>
<rect x="661.344" y="104.108" width="32.514" height="71.964" fill="#38bdf8" fill-opacity="0.34" stroke="#075985" stroke-width="1.4"/>
<text x="661.344" y="104.108" font-size="13" font-family="monospace" fill="#111827">19</text>
<rect x="693.858" y="152.084" width="32.514" height="95.952" fill="#38bdf8" fill-opacity="0.34" stroke="#075985" stroke-width="1.4"/>
<text x="693.858" y="152.084" font-size="13" font-family="monospace" fill="#111827">20</text>
<rect x="791.402" y="56.132" width="32.514" height="71.964" fill="#38bdf8" fill-opacity="0.34" stroke="#075985" stroke-width="1.4"/>
<text x="791.402" y="56.132" font-size="13" font-family="monospace" fill="#111827">21</text>
<line x1="173.627" y1="640" x2="173.627" y2="0" stroke="#7c3aed" stroke-width="1.5" stroke-dasharray="8 5"/>
<line x1="0" y1="511.904" x2="173.627" y2="511.904" stroke="#7c3aed" stroke-width="1.5" stroke-dasharray="8 5"/>
<line x1="0" y1="487.916" x2="173.627" y2="487.916" stroke="#7c3aed" stroke-width="1.5" stroke-dasharray="8 5"/>
<line x1="0" y1="367.976" x2="173.627" y2="367.976" stroke="#7c3aed" stroke-width="1.5" stroke-dasharray="8 5"/>
<line x1="206.142" y1="640" x2="206.142" y2="0" stroke="#7c3aed" stroke-width="1.5" stroke-dasharray="8 5"/>
<line x1="271.171" y1="640" x2="271.171" y2="0" stroke="#7c3aed" stroke-width="1.5" stroke-dasharray="8 5"/>
<line x1="303.685" y1="640" x2="303.685" y2="0" stroke="#7c3aed" stroke-width="1.5" stroke-dasharray="8 5"/>
<line x1="303.685" y1="439.94" x2="900" y2="439.94" stroke="#7c3aed" stroke-width="1.5" stroke-dasharray="8 5"/>
<line x1="531.286" y1="640" x2="531.286" y2="439.94" stroke="#7c3aed" stroke-width="1.5" stroke-dasharray="8 5"/>
<line x1="303.685" y1="415.952" x2="900" y2="415.952" stroke="#7c3aed" stroke-width="1.5" stroke-dasharray="8 5"/>
<line x1="466.257" y1="415.952" x2="466.257" y2="0" stroke="#7c3aed" stroke-width="1.5" stroke-dasharray="8 5"/>
<line x1="303.685" y1="343.988" x2="466.257" y2="343.988" stroke="#7c3aed" stroke-width="1.5" stroke-dasharray="8 5"/>
<line x1="466.257" y1="272.024" x2="900" y2="272.024" stroke="#7c3aed" stroke-width="1.5" stroke-dasharray="8 5"/>
<line x1="693.858" y1="272.024" x2="693.858" y2="0" stroke="#7c3aed" stroke-width="1.5" stroke-dasharray="8 5"/>
<line x1="466.257" y1="200.06" x2="693.858" y2="200.06" stroke="#7c3aed" stroke-width="1.5" stroke-dasharray="8 5"/>
<line x1="466.257" y1="176.072" x2="693.858" y2="176.072" stroke="#7c3aed" stroke-width="1.5" stroke-dasharray="8 5"/>
<line x1="726.373" y1="272.024" x2="726.373" y2="0" stroke="#7c3aed" stroke-width="1.5" stroke-dasharray="8 5"/>
</svg>
