<svg xmlns="http://www.w3.org/2000/svg" width="900" height="640" viewBox="0 0 900 640">
<title>Guillotine score=0.20833333333333334 saved=19 n=24</title>
<rect width="100%" height="100%" fill="#ffffff"/>
<rect x="76.697" y="488.929" width="33.937" height="96.531" fill="#38bdf8" fill-opacity="0.34" stroke="#075985" stroke-width="1.4"/>
<text x="76.697" y="488.929" font-size="13" font-family="monospace" fill="#111827">0</text>
<rect x="76.697" y="464.796" width="101.81" height="24.133" fill="#38bdf8" fill-opacity="0.34" stroke="#075985" stroke-width="1.4"/>
<text x="76.697" y="464.796" font-size="13" font-family="monospace" fill="#111827">1</text>
<rect x="76.697" y="368.265" width="101.81" height="72.398" fill="#38bdf8" fill-opacity="0.34" stroke="#075985" stroke-width="1.4"/>
<text x="76.697" y="368.265" font-size="13" font-family="monospace" fill="#111827">2</text>
<rect x="76.697" y="54.54" width="67.873" height="241.327" fill="#38bdf8" fill-opacity="0.34" stroke="#075985" stroke-width="1.4"/>
<text x="76.697" y="54.54" font-size="13" font-family="monospace" fill="#111827">3</text>
<rect x="110.633" y="561.327" width="339.367" height="24.133" fill="#38bdf8" fill-opacity="0.34" stroke="#075985" stroke-width="1.4"/>
<text x="110.633" y="561.327" font-size="13" font-family="monospace" fill="#111827">4</text>
<rect x="110.633" y="513.062" width="271.493" height="24.133" fill="#38bdf8" fill-opacity="0.34" stroke="#075985" stroke-width="1.4"/>
<text x="110.633" y="513.062" font-size="13" font-family="monospace" fill="#111827">5</text>
<rect x="144.57" y="537.195" width="67.873" height="24.133" fill="#38bdf8" fill-opacity="0.34" stroke="#075985" stroke-width="1.4"/>
<text x="144.57" y="537.195" font-size="13" font-family="monospace" fill="#111827">6</text>
<rect x="144.57" y="151.071" width="441.176" height="72.398" fill="#38bdf8" fill-opacity="0.34" stroke="#075985" stroke-width="1.4"/>
<text x="144.57" y="151.071" font-size="13" font-family="monospace" fill="#111827">7</text>
<rect x="178.507" y="295.867" width="33.937" height="217.195" fill="#38bdf8" fill-opacity="0.34" stroke="#075985" stroke-width="1.4"/>
<text x="178.507" y="295.867" font-size="13" font-family="monospace" fill="#111827">8</text>
<rect x="178.507" y="54.54" width="576.923" height="24.133" fill="#38bdf8" fill-opacity="0.34" stroke="#075985" stroke-width="1.4"/>
<text x="178.507" y="54.54" font-size="13" font-family="monospace" fill="#111827">9</text>
<rect x="246.38" y="537.195" width="271.493" height="24.133" fill="#38bdf8" fill-opacity="0.34" stroke="#075985" stroke-width="1.4"/>
<text x="246.38" y="537.195" font-size="13" font-family="monospace" fill="#111827">10</text>
<rect x="246.38" y="247.602" width="33.937" height="241.327" fill="#38bdf8" fill-opacity="0.34" stroke="#075985" stroke-width="1.4"/>
<text x="246.38" y="247.602" font-size="13" font-family="monospace" fill="#111827">11</text>
<rect x="280.317" y="247.602" width="33.937" height="265.46" fill="#38bdf8" fill-opacity="0.34" stroke="#075985" stroke-width="1.4"/>
<text x="280.317" y="247.602" font-size="13" font-family="monospace" fill="#111827">12</text>
<rect x="348.19" y="344.133" width="135.747" height="24.133" fill="#38bdf8" fill-opacity="0.34" stroke="#075985" stroke-width="1.4"/>
<text x="348.19" y="344.133" font-size="13" font-family="monospace" fill="#111827">13</text>
<rect x="416.063" y="392.398" width="407.24" height="24.133" fill="#38bdf8" fill-opacity="0.34" stroke="#075985" stroke-width="1.4"/>
<text x="416.063" y="392.398" font-size="13" font-family="monospace" fill="#111827">14</text>
<rect x="416.063" y="223.469" width="67.873" height="96.531" fill="#38bdf8" fill-opacity="0.34" stroke="#075985" stroke-width="1.4"/>
<text x="416.063" y="223.469" font-size="13" font-family="monospace" fill="#111827">15</text>
<rect x="450" y="440.664" width="67.873" height="96.531" fill="#38bdf8" fill-opacity="0.34" stroke="#075985" stroke-width="1.4"/>
<text x="450" y="440.664" font-size="13" font-family="monospace" fill="#111827">16</text>
<rect x="483.937" y="271.735" width="339.367" height="120.664" fill="#38bdf8" fill-opacity="0.34" stroke="#075985" stroke-width="1.4"/>
<text x="483.937" y="271.735" font-size="13" font-family="monospace" fill="#111827">17</text>
<rect x="551.81" y="416.531" width="271.493" height="168.929" fill="#38bdf8" fill-opacity="0.34" stroke="#075985" stroke-width="1.4"/>
<text x="551.81" y="416.531" font-size="13" font-family="monospace" fill="#111827">18</text>
<rect x="585.747" y="199.336" width="101.81" height="72.398" fill="#38bdf8" fill-opacity="0.34" stroke="#075985" stroke-width="1.4"/>
<text x="585.747" y="199.336" font-size="13" font-family="monospace" fill="#111827">19</text>
<rect x="619.683" y="175.204" width="67.873" height="24.133" fill="#38bdf8" fill-opacity="0.34" stroke="#075985" stroke-width="1.4"/>
<text x="619.683" y="175.204" font-size="13" font-family="monospace" fill="#111827">20</text>
<rect x="653.62" y="102.805" width="33.937" height="72.398" fill="#38bdf8" fill-opacity="0.34" stroke="#075985" stroke-width="1.4"/>
<text x="653.62" y="102.805" font-size="13" font-family="monospace" fill="#111827">21</text>
<rect x="687.557" y="151.071" width="33.937" height="96.531" fill="#38bdf8" fill-opacity="0.34" stroke="#075985" stroke-width="1.4"/>
<text x="687.557" y="151.071" font-size="13" font-family="monospace" fill="#111827">22</text>
<rect x="789.367" y="54.54" width="33.937" height="72.398" fill="#38bdf8" fill-opacity="0.34" stroke="#075985" stroke-width="1.4"/>
<text x="789.367" y="54.54" font-size="13" font-family="monospace" fill="#111827">23</text>
<line x1="0" y1="561.327" x2="900" y2="561.327" stroke="#7c3aed" stroke-width="1.5" stroke-dasharray="8 5"/>
<line x1="212.443" y1="561.327" x2="212.443" y2="0" stroke="#7c3aed" stroke-width="1.5" stroke-dasharray="8 5"/>
<line x1="0" y1="537.195" x2="212.443" y2="537.195" stroke="#7c3aed" stroke-width="1.5" stroke-dasharray="8 5"/>
<line x1="178.507" y1="537.195" x2="178.507" y2="0" stroke="#7c3aed" stroke-width="1.5" stroke-dasharray="8 5"/>
<line x1="0" y1="464.796" x2="178.507" y2="464.796" stroke="#7c3aed" stroke-width="1.5" stroke-dasharray="8 5"/>
<line x1="0" y1="368.265" x2="178.507" y2="368.265" stroke="#7c3aed" stroke-width="1.5" stroke-dasharray="8 5"/>
<line x1="212.443" y1="537.195" x2="900" y2="537.195" stroke="#7c3aed" stroke-width="1.5" stroke-dasharray="8 5"/>
<line x1="280.317" y1="537.195" x2="280.317" y2="0" stroke="#7c3aed" stroke-width="1.5" stroke-dasharray="8 5"/>
<line x1="314.253" y1="537.195" x2="314.253" y2="0" stroke="#7c3aed" stroke-width="1.5" stroke-dasharray="8 5"/>
<line x1="314.253" y1="440.664" x2="900" y2="440.664" stroke="#7c3aed" stroke-width="1.5" stroke-dasharray="8 5"/>
<line x1="314.253" y1="392.398" x2="900" y2="392.398" stroke="#7c3aed" stroke-width="1.5" stroke-dasharray="8 5"/>
<line x1="483.937" y1="392.398" x2="483.937" y2="0" stroke="#7c3aed" stroke-width="1.5" stroke-dasharray="8 5"/>
<line x1="314.253" y1="344.133" x2="483.937" y2="344.133" stroke="#7c3aed" stroke-width="1.5" stroke-dasharray="8 5"/>
<line x1="483.937" y1="271.735" x2="900" y2="271.735" stroke="#7c3aed" stroke-width="1.5" stroke-dasharray="8 5"/>
<line x1="687.557" y1="271.735" x2="687.557" y2="0" stroke="#7c3aed" stroke-width="1.5" stroke-dasharray="8 5"/>
<line x1="483.937" y1="199.336" x2="687.557" y2="199.336" stroke="#7c3aed" stroke-width="1.5" stroke-dasharray="8 5"/>
<line x1="483.937" y1="175.204" x2="687.557" y2="175.204" stroke="#7c3aed" stroke-width="1.5" stroke-dasharray="8 5"/>
<line x1="721.493" y1="271.735" x2="721.493" y2="0" stroke="#7c3aed" stroke-width="1.5" stroke-dasharray="8 5"/>
</svg>
