<svg xmlns="http://www.w3.org/2000/svg" width="900" height="640" viewBox="0 0 900 640">
<title>Guillotine score=0.21739130434782608 saved=18 n=23</title>
<rect width="100%" height="100%" fill="#ffffff"/>
<rect x="76.697" y="483.009" width="33.937" height="100.313" fill="#38bdf8" fill-opacity="0.34" stroke="#075985" stroke-width="1.4"/>
<text x="76.697" y="483.009" font-size="13" font-family="monospace" fill="#111827">0</text>
<rect x="76.697" y="457.931" width="101.81" height="25.078" fill="#38bdf8" fill-opacity="0.34" stroke="#075985" stroke-width="1.4"/>
<text x="76.697" y="457.931" font-size="13" font-family="monospace" fill="#111827">1</text>
<rect x="76.697" y="282.382" width="101.81" height="175.549" fill="#38bdf8" fill-opacity="0.34" stroke="#075985" stroke-width="1.4"/>
<text x="76.697" y="282.382" font-size="13" font-family="monospace" fill="#111827">2</text>
<rect x="76.697" y="56.677" width="67.873" height="200.627" fill="#38bdf8" fill-opacity="0.34" stroke="#075985" stroke-width="1.4"/>
<text x="76.697" y="56.677" font-size="13" font-family="monospace" fill="#111827">3</text>
<rect x="110.633" y="508.088" width="271.493" height="25.078" fill="#38bdf8" fill-opacity="0.34" stroke="#075985" stroke-width="1.4"/>
<text x="110.633" y="508.088" font-size="13" font-family="monospace" fill="#111827">4</text>
<rect x="144.57" y="558.245" width="339.367" height="25.078" fill="#38bdf8" fill-opacity="0.34" stroke="#075985" stroke-width="1.4"/>
<text x="144.57" y="558.245" font-size="13" font-family="monospace" fill="#111827">5</text>
<rect x="144.57" y="131.912" width="509.05" height="75.235" fill="#38bdf8" fill-opacity="0.34" stroke="#075985" stroke-width="1.4"/>
<text x="144.57" y="131.912" font-size="13" font-family="monospace" fill="#111827">6</text>
<rect x="178.507" y="407.774" width="33.937" height="100.313" fill="#38bdf8" fill-opacity="0.34" stroke="#075985" stroke-width="1.4"/>
<text x="178.507" y="407.774" font-size="13" font-family="monospace" fill="#111827">7</text>
<rect x="212.443" y="457.931" width="33.937" height="50.157" fill="#38bdf8" fill-opacity="0.34" stroke="#075985" stroke-width="1.4"/>
<text x="212.443" y="457.931" font-size="13" font-family="monospace" fill="#111827">8</text>
<rect x="246.38" y="533.166" width="339.367" height="25.078" fill="#38bdf8" fill-opacity="0.34" stroke="#075985" stroke-width="1.4"/>
<text x="246.38" y="533.166" font-size="13" font-family="monospace" fill="#111827">9</text>
<rect x="280.317" y="232.226" width="33.937" height="275.862" fill="#38bdf8" fill-opacity="0.34" stroke="#075985" stroke-width="1.4"/>
<text x="280.317" y="232.226" font-size="13" font-family="monospace" fill="#111827">10</text>
<rect x="348.19" y="332.539" width="169.683" height="25.078" fill="#38bdf8" fill-opacity="0.34" stroke="#075985" stroke-width="1.4"/>
<text x="348.19" y="332.539" font-size="13" font-family="monospace" fill="#111827">11</text>
<rect x="348.19" y="56.677" width="339.367" height="50.157" fill="#38bdf8" fill-opacity="0.34" stroke="#075985" stroke-width="1.4"/>
<text x="348.19" y="56.677" font-size="13" font-family="monospace" fill="#111827">12</text>
<rect x="416.063" y="357.618" width="33.937" height="75.235" fill="#38bdf8" fill-opacity="0.34" stroke="#075985" stroke-width="1.4"/>
<text x="416.063" y="357.618" font-size="13" font-family="monospace" fill="#111827">13</text>
<rect x="450" y="382.696" width="339.367" height="25.078" fill="#38bdf8" fill-opacity="0.34" stroke="#075985" stroke-width="1.4"/>
<text x="450" y="382.696" font-size="13" font-family="monospace" fill="#111827">14</text>
<rect x="483.937" y="407.774" width="101.81" height="125.392" fill="#38bdf8" fill-opacity="0.34" stroke="#075985" stroke-width="1.4"/>
<text x="483.937" y="407.774" font-size="13" font-family="monospace" fill="#111827">15</text>
<rect x="483.937" y="232.226" width="67.873" height="75.235" fill="#38bdf8" fill-opacity="0.34" stroke="#075985" stroke-width="1.4"/>
<text x="483.937" y="232.226" font-size="13" font-family="monospace" fill="#111827">16</text>
<rect x="551.81" y="257.304" width="237.557" height="125.392" fill="#38bdf8" fill-opacity="0.34" stroke="#075985" stroke-width="1.4"/>
<text x="551.81" y="257.304" font-size="13" font-family="monospace" fill="#111827">17</text>
<rect x="619.683" y="407.774" width="169.683" height="175.549" fill="#38bdf8" fill-opacity="0.34" stroke="#075985" stroke-width="1.4"/>
<text x="619.683" y="407.774" font-size="13" font-family="monospace" fill="#111827">18</text>
<rect x="653.62" y="182.069" width="67.873" height="75.235" fill="#38bdf8" fill-opacity="0.34" stroke="#075985" stroke-width="1.4"/>
<text x="653.62" y="182.069" font-size="13" font-family="monospace" fill="#111827">19</text>
<rect x="687.557" y="131.912" width="33.937" height="25.078" fill="#38bdf8" fill-opacity="0.34" stroke="#075985" stroke-width="1.4"/>
<text x="687.557" y="131.912" font-size="13" font-family="monospace" fill="#111827">20</text>
<rect x="721.493" y="106.834" width="33.937" height="125.392" fill="#38bdf8" fill-opacity="0.34" stroke="#075985" stroke-width="1.4"/>
<text x="721.493" y="106.834" font-size="13" font-family="monospace" fill="#111827">21</text>
<rect x="755.43" y="81.755" width="67.873" height="25.078" fill="#38bdf8" fill-opacity="0.34" stroke="#075985" stroke-width="1.4"/>
<text x="755.43" y="81.755" font-size="13" font-family="monospace" fill="#111827">22</text>
<line x1="178.507" y1="640" x2="178.507" y2="0" stroke="#7c3aed" stroke-width="1.5" stroke-dasharray="8 5"/>
<line x1="0" y1="483.009" x2="178.507" y2="483.009" stroke="#7c3aed" stroke-width="1.5" stroke-dasharray="8 5"/>
<line x1="0" y1="457.931" x2="178.507" y2="457.931" stroke="#7c3aed" stroke-width="1.5" stroke-dasharray="8 5"/>
<line x1="0" y1="282.382" x2="178.507" y2="282.382" stroke="#7c3aed" stroke-width="1.5" stroke-dasharray="8 5"/>
<line x1="212.443" y1="640" x2="212.443" y2="0" stroke="#7c3aed" stroke-width="1.5" stroke-dasharray="8 5"/>
<line x1="246.38" y1="640" x2="246.38" y2="0" stroke="#7c3aed" stroke-width="1.5" stroke-dasharray="8 5"/>
<line x1="263.348" y1="640" x2="263.348" y2="0" stroke="#7c3aed" stroke-width="1.5" stroke-dasharray="8 5"/>
<line x1="314.253" y1="640" x2="314.253" y2="0" stroke="#7c3aed" stroke-width="1.5" stroke-dasharray="8 5"/>
<line x1="314.253" y1="407.774" x2="900" y2="407.774" stroke="#7c3aed" stroke-width="1.5" stroke-dasharray="8 5"/>
<line x1="585.747" y1="640" x2="585.747" y2="407.774" stroke="#7c3aed" stroke-width="1.5" stroke-dasharray="8 5"/>
<line x1="314.253" y1="382.696" x2="900" y2="382.696" stroke="#7c3aed" stroke-width="1.5" stroke-dasharray="8 5"/>
<line x1="314.253" y1="106.834" x2="900" y2="106.834" stroke="#7c3aed" stroke-width="1.5" stroke-dasharray="8 5"/>
<line x1="551.81" y1="382.696" x2="551.81" y2="106.834" stroke="#7c3aed" stroke-width="1.5" stroke-dasharray="8 5"/>
<line x1="314.253" y1="332.539" x2="551.81" y2="332.539" stroke="#7c3aed" stroke-width="1.5" stroke-dasharray="8 5"/>
<line x1="551.81" y1="257.304" x2="900" y2="257.304" stroke="#7c3aed" stroke-width="1.5" stroke-dasharray="8 5"/>
<line x1="721.493" y1="257.304" x2="721.493" y2="106.834" stroke="#7c3aed" stroke-width="1.5" stroke-dasharray="8 5"/>
<line x1="551.81" y1="182.069" x2="721.493" y2="182.069" stroke="#7c3aed" stroke-width="1.5" stroke-dasharray="8 5"/>
<line x1="687.557" y1="106.834" x2="687.557" y2="0" stroke="#7c3aed" stroke-width="1.5" stroke-dasharray="8 5"/>
</svg>
