<svg xmlns="http://www.w3.org/2000/svg" width="900" height="640" viewBox="0 0 900 640">
<title>MISR score=1.0 alpha_lp=2.0 alpha=2</title>
<rect width="100%" height="100%" fill="#ffffff"/>
<rect x="95.979" y="244.171" width="236.014" height="303.318" fill="#60a5fa" fill-opacity="0.24" stroke="#1d4ed8" stroke-width="1.4"/>
<text x="95.979" y="244.171" font-size="13" font-family="monospace" fill="#111827">0</text>
<rect x="95.979" y="320" width="472.028" height="227.488" fill="#22c55e" fill-opacity="0.36" stroke="#166534" stroke-width="2.0"/>
<text x="95.979" y="320" font-size="13" font-family="monospace" fill="#111827">1</text>
<rect x="174.65" y="92.512" width="472.028" height="303.318" fill="#60a5fa" fill-opacity="0.24" stroke="#1d4ed8" stroke-width="1.4"/>
<text x="174.65" y="92.512" font-size="13" font-family="monospace" fill="#111827">2</text>
<rect x="174.65" y="244.171" width="550.699" height="75.829" fill="#60a5fa" fill-opacity="0.24" stroke="#1d4ed8" stroke-width="1.4"/>
<text x="174.65" y="244.171" font-size="13" font-family="monospace" fill="#111827">3</text>
<rect x="410.664" y="168.341" width="314.685" height="379.147" fill="#60a5fa" fill-opacity="0.24" stroke="#1d4ed8" stroke-width="1.4"/>
<text x="410.664" y="168.341" font-size="13" font-family="monospace" fill="#111827">4</text>
<rect x="410.664" y="92.512" width="314.685" height="454.976" fill="#60a5fa" fill-opacity="0.24" stroke="#1d4ed8" stroke-width="1.4"/>
<text x="410.664" y="92.512" font-size="13" font-family="monospace" fill="#111827">5</text>
<rect x="489.336" y="320" width="157.343" height="75.829" fill="#60a5fa" fill-opacity="0.24" stroke="#1d4ed8" stroke-width="1.4"/>
<text x="489.336" y="320" font-size="13" font-family="monospace" fill="#111827">6</text>
<rect x="568.007" y="168.341" width="157.343" height="227.488" fill="#60a5fa" fill-opacity="0.24" stroke="#1d4ed8" stroke-width="1.4"/>
<text x="568.007" y="168.341" font-size="13" font-family="monospace" fill="#111827">7</text>
<rect x="568.007" y="320" width="236.014" height="151.659" fill="#60a5fa" fill-opacity="0.24" stroke="#1d4ed8" stroke-width="1.4"/>
<text x="568.007" y="320" font-size="13" font-family="monospace" fill="#111827">8</text>
<rect x="568.007" y="168.341" width="236.014" height="303.318" fill="#60a5fa" fill-opacity="0.24" stroke="#1d4ed8" stroke-width="1.4"/>
<text x="568.007" y="168.341" font-size="13" font-family="monospace" fill="#111827">9</text>
<rect x="568.007" y="320" width="236.014" height="75.829" fill="#60a5fa" fill-opacity="0.24" stroke="#1d4ed8" stroke-width="1.4"/>
<text x="568.007" y="320" font-size="13" font-family="monospace" fill="#111827">10</text>
<rect x="646.678" y="92.512" width="78.671" height="227.488" fill="#22c55e" fill-opacity="0.36" stroke="#166534" stroke-width="2.0"/>
<text x="646.678" y="92.512" font-size="13" font-family="monospace" fill="#111827">11</text>
</svg>
