<svg xmlns="http://www.w3.org/2000/svg" width="900" height="640" viewBox="0 0 900 640">
<title>Guillotine score=0.14285714285714285 saved=12 n=14</title>
<rect width="100%" height="100%" fill="#ffffff"/>
<rect x="86.194" y="419.502" width="55.97" height="159.204" fill="#38bdf8" fill-opacity="0.34" stroke="#075985" stroke-width="1.4"/>
<text x="86.194" y="419.502" font-size="13" font-family="monospace" fill="#111827">0</text>
<rect x="86.194" y="339.9" width="167.91" height="79.602" fill="#38bdf8" fill-opacity="0.34" stroke="#075985" stroke-width="1.4"/>
<text x="86.194" y="339.9" font-size="13" font-family="monospace" fill="#111827">1</text>
<rect x="86.194" y="180.697" width="391.791" height="119.403" fill="#38bdf8" fill-opacity="0.34" stroke="#075985" stroke-width="1.4"/>
<text x="86.194" y="180.697" font-size="13" font-family="monospace" fill="#111827">2</text>
<rect x="142.164" y="419.502" width="55.97" height="159.204" fill="#38bdf8" fill-opacity="0.34" stroke="#075985" stroke-width="1.4"/>
<text x="142.164" y="419.502" font-size="13" font-family="monospace" fill="#111827">3</text>
<rect x="198.134" y="538.905" width="55.97" height="39.801" fill="#38bdf8" fill-opacity="0.34" stroke="#075985" stroke-width="1.4"/>
<text x="198.134" y="538.905" font-size="13" font-family="monospace" fill="#111827">4</text>
<rect x="198.134" y="419.502" width="111.94" height="39.801" fill="#38bdf8" fill-opacity="0.34" stroke="#075985" stroke-width="1.4"/>
<text x="198.134" y="419.502" font-size="13" font-family="monospace" fill="#111827">5</text>
<rect x="254.104" y="459.303" width="111.94" height="119.403" fill="#38bdf8" fill-opacity="0.34" stroke="#075985" stroke-width="1.4"/>
<text x="254.104" y="459.303" font-size="13" font-family="monospace" fill="#111827">6</text>
<rect x="310.075" y="300.1" width="111.94" height="159.204" fill="#38bdf8" fill-opacity="0.34" stroke="#075985" stroke-width="1.4"/>
<text x="310.075" y="300.1" font-size="13" font-family="monospace" fill="#111827">7</text>
<rect x="366.045" y="499.104" width="391.791" height="79.602" fill="#38bdf8" fill-opacity="0.34" stroke="#075985" stroke-width="1.4"/>
<text x="366.045" y="499.104" font-size="13" font-family="monospace" fill="#111827">8</text>
<rect x="366.045" y="459.303" width="111.94" height="39.801" fill="#38bdf8" fill-opacity="0.34" stroke="#075985" stroke-width="1.4"/>
<text x="366.045" y="459.303" font-size="13" font-family="monospace" fill="#111827">9</text>
<rect x="422.015" y="379.701" width="111.94" height="79.602" fill="#38bdf8" fill-opacity="0.34" stroke="#075985" stroke-width="1.4"/>
<text x="422.015" y="379.701" font-size="13" font-family="monospace" fill="#111827">10</text>
<rect x="589.925" y="260.299" width="55.97" height="199.005" fill="#38bdf8" fill-opacity="0.34" stroke="#075985" stroke-width="1.4"/>
<text x="589.925" y="260.299" font-size="13" font-family="monospace" fill="#111827">11</text>
<rect x="589.925" y="61.294" width="111.94" height="39.801" fill="#38bdf8" fill-opacity="0.34" stroke="#075985" stroke-width="1.4"/>
<text x="589.925" y="61.294" font-size="13" font-family="monospace" fill="#111827">12</text>
<rect x="701.866" y="140.896" width="111.94" height="79.602" fill="#38bdf8" fill-opacity="0.34" stroke="#075985" stroke-width="1.4"/>
<text x="701.866" y="140.896" font-size="13" font-family="monospace" fill="#111827">13</text>
<line x1="142.164" y1="640" x2="142.164" y2="0" stroke="#7c3aed" stroke-width="1.5" stroke-dasharray="8 5"/>
<line x1="198.134" y1="640" x2="198.134" y2="0" stroke="#7c3aed" stroke-width="1.5" stroke-dasharray="8 5"/>
<line x1="198.134" y1="459.303" x2="900" y2="459.303" stroke="#7c3aed" stroke-width="1.5" stroke-dasharray="8 5"/>
<line x1="254.104" y1="640" x2="254.104" y2="459.303" stroke="#7c3aed" stroke-width="1.5" stroke-dasharray="8 5"/>
<line x1="366.045" y1="640" x2="366.045" y2="459.303" stroke="#7c3aed" stroke-width="1.5" stroke-dasharray="8 5"/>
<line x1="366.045" y1="499.104" x2="900" y2="499.104" stroke="#7c3aed" stroke-width="1.5" stroke-dasharray="8 5"/>
<line x1="310.075" y1="459.303" x2="310.075" y2="0" stroke="#7c3aed" stroke-width="1.5" stroke-dasharray="8 5"/>
<line x1="422.015" y1="459.303" x2="422.015" y2="0" stroke="#7c3aed" stroke-width="1.5" stroke-dasharray="8 5"/>
<line x1="533.955" y1="459.303" x2="533.955" y2="0" stroke="#7c3aed" stroke-width="1.5" stroke-dasharray="8 5"/>
<line x1="701.866" y1="459.303" x2="701.866" y2="0" stroke="#7c3aed" stroke-width="1.5" stroke-dasharray="8 5"/>
<line x1="533.955" y1="260.299" x2="701.866" y2="260.299" stroke="#7c3aed" stroke-width="1.5" stroke-dasharray="8 5"/>
</svg>
