<svg xmlns="http://www.w3.org/2000/svg" width="900" height="640" viewBox="0 0 900 640">
<title>Guillotine score=0.22727272727272727 saved=17 n=22</title>
<rect width="100%" height="100%" fill="#ffffff"/>
<rect x="78.233" y="519.723" width="32.328" height="44.383" fill="#38bdf8" fill-opacity="0.34" stroke="#075985" stroke-width="1.4"/>
<text x="78.233" y="519.723" font-size="13" font-family="monospace" fill="#111827">0</text>
<rect x="78.233" y="209.043" width="64.655" height="310.68" fill="#38bdf8" fill-opacity="0.34" stroke="#075985" stroke-width="1.4"/>
<text x="78.233" y="209.043" font-size="13" font-family="monospace" fill="#111827">1</text>
<rect x="78.233" y="164.66" width="387.931" height="22.191" fill="#38bdf8" fill-opacity="0.34" stroke="#075985" stroke-width="1.4"/>
<text x="78.233" y="164.66" font-size="13" font-family="monospace" fill="#111827">2</text>
<rect x="78.233" y="120.277" width="387.931" height="44.383" fill="#38bdf8" fill-opacity="0.34" stroke="#075985" stroke-width="1.4"/>
<text x="78.233" y="120.277" font-size="13" font-family="monospace" fill="#111827">3</text>
<rect x="110.56" y="541.914" width="581.897" height="44.383" fill="#38bdf8" fill-opacity="0.34" stroke="#075985" stroke-width="1.4"/>
<text x="110.56" y="541.914" font-size="13" font-family="monospace" fill="#111827">4</text>
<rect x="142.888" y="342.191" width="32.328" height="199.723" fill="#38bdf8" fill-opacity="0.34" stroke="#075985" stroke-width="1.4"/>
<text x="142.888" y="342.191" font-size="13" font-family="monospace" fill="#111827">5</text>
<rect x="207.543" y="209.043" width="64.655" height="332.871" fill="#38bdf8" fill-opacity="0.34" stroke="#075985" stroke-width="1.4"/>
<text x="207.543" y="209.043" font-size="13" font-family="monospace" fill="#111827">6</text>
<rect x="239.871" y="75.895" width="387.931" height="22.191" fill="#38bdf8" fill-opacity="0.34" stroke="#075985" stroke-width="1.4"/>
<text x="239.871" y="75.895" font-size="13" font-family="monospace" fill="#111827">7</text>
<rect x="304.526" y="209.043" width="32.328" height="266.297" fill="#38bdf8" fill-opacity="0.34" stroke="#075985" stroke-width="1.4"/>
<text x="304.526" y="209.043" font-size="13" font-family="monospace" fill="#111827">8</text>
<rect x="336.853" y="430.957" width="96.983" height="22.191" fill="#38bdf8" fill-opacity="0.34" stroke="#075985" stroke-width="1.4"/>
<text x="336.853" y="430.957" font-size="13" font-family="monospace" fill="#111827">9</text>
<rect x="336.853" y="231.234" width="32.328" height="199.723" fill="#38bdf8" fill-opacity="0.34" stroke="#075985" stroke-width="1.4"/>
<text x="336.853" y="231.234" font-size="13" font-family="monospace" fill="#111827">10</text>
<rect x="401.509" y="275.617" width="161.638" height="22.191" fill="#38bdf8" fill-opacity="0.34" stroke="#075985" stroke-width="1.4"/>
<text x="401.509" y="275.617" font-size="13" font-family="monospace" fill="#111827">11</text>
<rect x="401.509" y="209.043" width="129.31" height="44.383" fill="#38bdf8" fill-opacity="0.34" stroke="#075985" stroke-width="1.4"/>
<text x="401.509" y="209.043" font-size="13" font-family="monospace" fill="#111827">12</text>
<rect x="433.836" y="320" width="161.638" height="22.191" fill="#38bdf8" fill-opacity="0.34" stroke="#075985" stroke-width="1.4"/>
<text x="433.836" y="320" font-size="13" font-family="monospace" fill="#111827">13</text>
<rect x="466.164" y="386.574" width="32.328" height="110.957" fill="#38bdf8" fill-opacity="0.34" stroke="#075985" stroke-width="1.4"/>
<text x="466.164" y="386.574" font-size="13" font-family="monospace" fill="#111827">14</text>
<rect x="530.819" y="408.766" width="193.966" height="44.383" fill="#38bdf8" fill-opacity="0.34" stroke="#075985" stroke-width="1.4"/>
<text x="530.819" y="408.766" font-size="13" font-family="monospace" fill="#111827">15</text>
<rect x="530.819" y="142.469" width="32.328" height="88.766" fill="#38bdf8" fill-opacity="0.34" stroke="#075985" stroke-width="1.4"/>
<text x="530.819" y="142.469" font-size="13" font-family="monospace" fill="#111827">16</text>
<rect x="563.147" y="98.086" width="64.655" height="199.723" fill="#38bdf8" fill-opacity="0.34" stroke="#075985" stroke-width="1.4"/>
<text x="563.147" y="98.086" font-size="13" font-family="monospace" fill="#111827">17</text>
<rect x="595.474" y="342.191" width="129.31" height="22.191" fill="#38bdf8" fill-opacity="0.34" stroke="#075985" stroke-width="1.4"/>
<text x="595.474" y="342.191" font-size="13" font-family="monospace" fill="#111827">18</text>
<rect x="660.129" y="53.703" width="129.31" height="177.531" fill="#38bdf8" fill-opacity="0.34" stroke="#075985" stroke-width="1.4"/>
<text x="660.129" y="53.703" font-size="13" font-family="monospace" fill="#111827">19</text>
<rect x="692.457" y="519.723" width="32.328" height="44.383" fill="#38bdf8" fill-opacity="0.34" stroke="#075985" stroke-width="1.4"/>
<text x="692.457" y="519.723" font-size="13" font-family="monospace" fill="#111827">20</text>
<rect x="757.112" y="475.34" width="64.655" height="66.574" fill="#38bdf8" fill-opacity="0.34" stroke="#075985" stroke-width="1.4"/>
<text x="757.112" y="475.34" font-size="13" font-family="monospace" fill="#111827">21</text>
<line x1="142.888" y1="640" x2="142.888" y2="0" stroke="#7c3aed" stroke-width="1.5" stroke-dasharray="8 5"/>
<line x1="0" y1="519.723" x2="142.888" y2="519.723" stroke="#7c3aed" stroke-width="1.5" stroke-dasharray="8 5"/>
<line x1="175.216" y1="640" x2="175.216" y2="0" stroke="#7c3aed" stroke-width="1.5" stroke-dasharray="8 5"/>
<line x1="272.198" y1="640" x2="272.198" y2="0" stroke="#7c3aed" stroke-width="1.5" stroke-dasharray="8 5"/>
<line x1="336.853" y1="640" x2="336.853" y2="0" stroke="#7c3aed" stroke-width="1.5" stroke-dasharray="8 5"/>
<line x1="369.181" y1="640" x2="369.181" y2="0" stroke="#7c3aed" stroke-width="1.5" stroke-dasharray="8 5"/>
<line x1="369.181" y1="386.574" x2="900" y2="386.574" stroke="#7c3aed" stroke-width="1.5" stroke-dasharray="8 5"/>
<line x1="498.491" y1="640" x2="498.491" y2="386.574" stroke="#7c3aed" stroke-width="1.5" stroke-dasharray="8 5"/>
<line x1="724.784" y1="640" x2="724.784" y2="386.574" stroke="#7c3aed" stroke-width="1.5" stroke-dasharray="8 5"/>
<line x1="498.491" y1="519.723" x2="724.784" y2="519.723" stroke="#7c3aed" stroke-width="1.5" stroke-dasharray="8 5"/>
<line x1="369.181" y1="342.191" x2="900" y2="342.191" stroke="#7c3aed" stroke-width="1.5" stroke-dasharray="8 5"/>
<line x1="627.802" y1="342.191" x2="627.802" y2="0" stroke="#7c3aed" stroke-width="1.5" stroke-dasharray="8 5"/>
<line x1="369.181" y1="320" x2="627.802" y2="320" stroke="#7c3aed" stroke-width="1.5" stroke-dasharray="8 5"/>
<line x1="563.147" y1="320" x2="563.147" y2="0" stroke="#7c3aed" stroke-width="1.5" stroke-dasharray="8 5"/>
<line x1="369.181" y1="275.617" x2="563.147" y2="275.617" stroke="#7c3aed" stroke-width="1.5" stroke-dasharray="8 5"/>
<line x1="530.819" y1="275.617" x2="530.819" y2="0" stroke="#7c3aed" stroke-width="1.5" stroke-dasharray="8 5"/>
</svg>
