<svg xmlns="http://www.w3.org/2000/svg" width="900" height="640" viewBox="0 0 900 640">
<title>Guillotine score=0.16666666666666666 saved=10 n=12</title>
<rect width="100%" height="100%" fill="#ffffff"/>
<rect x="92.857" y="421.587" width="214.286" height="50.794" fill="#38bdf8" fill-opacity="0.34" stroke="#075985" stroke-width="1.4"/>
<text x="92.857" y="421.587" font-size="13" font-family="monospace" fill="#111827">0</text>
<rect x="92.857" y="66.032" width="71.429" height="304.762" fill="#38bdf8" fill-opacity="0.34" stroke="#075985" stroke-width="1.4"/>
<text x="92.857" y="66.032" font-size="13" font-family="monospace" fill="#111827">1</text>
<rect x="164.286" y="167.619" width="142.857" height="253.968" fill="#38bdf8" fill-opacity="0.34" stroke="#075985" stroke-width="1.4"/>
<text x="164.286" y="167.619" font-size="13" font-family="monospace" fill="#111827">2</text>
<rect x="235.714" y="66.032" width="571.429" height="50.794" fill="#38bdf8" fill-opacity="0.34" stroke="#075985" stroke-width="1.4"/>
<text x="235.714" y="66.032" font-size="13" font-family="monospace" fill="#111827">3</text>
<rect x="307.143" y="523.175" width="71.429" height="50.794" fill="#38bdf8" fill-opacity="0.34" stroke="#075985" stroke-width="1.4"/>
<text x="307.143" y="523.175" font-size="13" font-family="monospace" fill="#111827">4</text>
<rect x="307.143" y="320" width="71.429" height="101.587" fill="#38bdf8" fill-opacity="0.34" stroke="#075985" stroke-width="1.4"/>
<text x="307.143" y="320" font-size="13" font-family="monospace" fill="#111827">5</text>
<rect x="307.143" y="167.619" width="357.143" height="50.794" fill="#38bdf8" fill-opacity="0.34" stroke="#075985" stroke-width="1.4"/>
<text x="307.143" y="167.619" font-size="13" font-family="monospace" fill="#111827">6</text>
<rect x="378.571" y="218.413" width="71.429" height="355.556" fill="#38bdf8" fill-opacity="0.34" stroke="#075985" stroke-width="1.4"/>
<text x="378.571" y="218.413" font-size="13" font-family="monospace" fill="#111827">7</text>
<rect x="450" y="370.794" width="357.143" height="203.175" fill="#38bdf8" fill-opacity="0.34" stroke="#075985" stroke-width="1.4"/>
<text x="450" y="370.794" font-size="13" font-family="monospace" fill="#111827">8</text>
<rect x="450" y="269.206" width="71.429" height="101.587" fill="#38bdf8" fill-opacity="0.34" stroke="#075985" stroke-width="1.4"/>
<text x="450" y="269.206" font-size="13" font-family="monospace" fill="#111827">9</text>
<rect x="592.857" y="320" width="71.429" height="50.794" fill="#38bdf8" fill-opacity="0.34" stroke="#075985" stroke-width="1.4"/>
<text x="592.857" y="320" font-size="13" font-family="monospace" fill="#111827">10</text>
<rect x="735.714" y="167.619" width="71.429" height="101.587" fill="#38bdf8" fill-opacity="0.34" stroke="#075985" stroke-width="1.4"/>
<text x="735.714" y="167.619" font-size="13" font-family="monospace" fill="#111827">11</text>
<line x1="164.286" y1="640" x2="164.286" y2="0" stroke="#7c3aed" stroke-width="1.5" stroke-dasharray="8 5"/>
<line x1="164.286" y1="167.619" x2="900" y2="167.619" stroke="#7c3aed" stroke-width="1.5" stroke-dasharray="8 5"/>
<line x1="307.143" y1="640" x2="307.143" y2="167.619" stroke="#7c3aed" stroke-width="1.5" stroke-dasharray="8 5"/>
<line x1="378.571" y1="640" x2="378.571" y2="167.619" stroke="#7c3aed" stroke-width="1.5" stroke-dasharray="8 5"/>
<line x1="307.143" y1="523.175" x2="378.571" y2="523.175" stroke="#7c3aed" stroke-width="1.5" stroke-dasharray="8 5"/>
<line x1="450" y1="640" x2="450" y2="167.619" stroke="#7c3aed" stroke-width="1.5" stroke-dasharray="8 5"/>
<line x1="450" y1="370.794" x2="900" y2="370.794" stroke="#7c3aed" stroke-width="1.5" stroke-dasharray="8 5"/>
<line x1="521.429" y1="370.794" x2="521.429" y2="167.619" stroke="#7c3aed" stroke-width="1.5" stroke-dasharray="8 5"/>
<line x1="664.286" y1="370.794" x2="664.286" y2="167.619" stroke="#7c3aed" stroke-width="1.5" stroke-dasharray="8 5"/>
</svg>
