<svg xmlns="http://www.w3.org/2000/svg" width="900" height="640" viewBox="0 0 900 640">
<title>Guillotine score=0.125 saved=14 n=16</title>
<rect width="100%" height="100%" fill="#ffffff"/>
<rect x="81.902" y="416.618" width="46.012" height="154.589" fill="#38bdf8" fill-opacity="0.34" stroke="#075985" stroke-width="1.4"/>
<text x="81.902" y="416.618" font-size="13" font-family="monospace" fill="#111827">0</text>
<rect x="81.902" y="339.324" width="138.037" height="77.295" fill="#38bdf8" fill-opacity="0.34" stroke="#075985" stroke-width="1.4"/>
<text x="81.902" y="339.324" font-size="13" font-family="monospace" fill="#111827">1</text>
<rect x="81.902" y="68.792" width="322.086" height="231.884" fill="#38bdf8" fill-opacity="0.34" stroke="#075985" stroke-width="1.4"/>
<text x="81.902" y="68.792" font-size="13" font-family="monospace" fill="#111827">2</text>
<rect x="127.914" y="532.56" width="46.012" height="38.647" fill="#38bdf8" fill-opacity="0.34" stroke="#075985" stroke-width="1.4"/>
<text x="127.914" y="532.56" font-size="13" font-family="monospace" fill="#111827">3</text>
<rect x="173.926" y="532.56" width="46.012" height="38.647" fill="#38bdf8" fill-opacity="0.34" stroke="#075985" stroke-width="1.4"/>
<text x="173.926" y="532.56" font-size="13" font-family="monospace" fill="#111827">4</text>
<rect x="173.926" y="416.618" width="92.025" height="38.647" fill="#38bdf8" fill-opacity="0.34" stroke="#075985" stroke-width="1.4"/>
<text x="173.926" y="416.618" font-size="13" font-family="monospace" fill="#111827">5</text>
<rect x="219.939" y="455.266" width="92.025" height="115.942" fill="#38bdf8" fill-opacity="0.34" stroke="#075985" stroke-width="1.4"/>
<text x="219.939" y="455.266" font-size="13" font-family="monospace" fill="#111827">6</text>
<rect x="265.951" y="300.676" width="92.025" height="154.589" fill="#38bdf8" fill-opacity="0.34" stroke="#075985" stroke-width="1.4"/>
<text x="265.951" y="300.676" font-size="13" font-family="monospace" fill="#111827">7</text>
<rect x="311.963" y="493.913" width="368.098" height="77.295" fill="#38bdf8" fill-opacity="0.34" stroke="#075985" stroke-width="1.4"/>
<text x="311.963" y="493.913" font-size="13" font-family="monospace" fill="#111827">8</text>
<rect x="311.963" y="455.266" width="92.025" height="38.647" fill="#38bdf8" fill-opacity="0.34" stroke="#075985" stroke-width="1.4"/>
<text x="311.963" y="455.266" font-size="13" font-family="monospace" fill="#111827">9</text>
<rect x="357.975" y="377.971" width="92.025" height="77.295" fill="#38bdf8" fill-opacity="0.34" stroke="#075985" stroke-width="1.4"/>
<text x="357.975" y="377.971" font-size="13" font-family="monospace" fill="#111827">10</text>
<rect x="496.012" y="223.382" width="46.012" height="270.531" fill="#38bdf8" fill-opacity="0.34" stroke="#075985" stroke-width="1.4"/>
<text x="496.012" y="223.382" font-size="13" font-family="monospace" fill="#111827">11</text>
<rect x="542.025" y="377.971" width="46.012" height="77.295" fill="#38bdf8" fill-opacity="0.34" stroke="#075985" stroke-width="1.4"/>
<text x="542.025" y="377.971" font-size="13" font-family="monospace" fill="#111827">12</text>
<rect x="588.037" y="262.029" width="230.061" height="193.237" fill="#38bdf8" fill-opacity="0.34" stroke="#075985" stroke-width="1.4"/>
<text x="588.037" y="262.029" font-size="13" font-family="monospace" fill="#111827">13</text>
<rect x="634.049" y="146.087" width="92.025" height="38.647" fill="#38bdf8" fill-opacity="0.34" stroke="#075985" stroke-width="1.4"/>
<text x="634.049" y="146.087" font-size="13" font-family="monospace" fill="#111827">14</text>
<rect x="772.086" y="68.792" width="46.012" height="38.647" fill="#38bdf8" fill-opacity="0.34" stroke="#075985" stroke-width="1.4"/>
<text x="772.086" y="68.792" font-size="13" font-family="monospace" fill="#111827">15</text>
<line x1="265.951" y1="640" x2="265.951" y2="0" stroke="#7c3aed" stroke-width="1.5" stroke-dasharray="8 5"/>
<line x1="0" y1="416.618" x2="265.951" y2="416.618" stroke="#7c3aed" stroke-width="1.5" stroke-dasharray="8 5"/>
<line x1="127.914" y1="640" x2="127.914" y2="416.618" stroke="#7c3aed" stroke-width="1.5" stroke-dasharray="8 5"/>
<line x1="173.926" y1="640" x2="173.926" y2="416.618" stroke="#7c3aed" stroke-width="1.5" stroke-dasharray="8 5"/>
<line x1="173.926" y1="532.56" x2="265.951" y2="532.56" stroke="#7c3aed" stroke-width="1.5" stroke-dasharray="8 5"/>
<line x1="265.951" y1="493.913" x2="900" y2="493.913" stroke="#7c3aed" stroke-width="1.5" stroke-dasharray="8 5"/>
<line x1="450" y1="493.913" x2="450" y2="0" stroke="#7c3aed" stroke-width="1.5" stroke-dasharray="8 5"/>
<line x1="265.951" y1="455.266" x2="450" y2="455.266" stroke="#7c3aed" stroke-width="1.5" stroke-dasharray="8 5"/>
<line x1="357.975" y1="455.266" x2="357.975" y2="0" stroke="#7c3aed" stroke-width="1.5" stroke-dasharray="8 5"/>
<line x1="542.025" y1="493.913" x2="542.025" y2="0" stroke="#7c3aed" stroke-width="1.5" stroke-dasharray="8 5"/>
<line x1="588.037" y1="493.913" x2="588.037" y2="0" stroke="#7c3aed" stroke-width="1.5" stroke-dasharray="8 5"/>
<line x1="588.037" y1="262.029" x2="900" y2="262.029" stroke="#7c3aed" stroke-width="1.5" stroke-dasharray="8 5"/>
<line x1="726.074" y1="262.029" x2="726.074" y2="0" stroke="#7c3aed" stroke-width="1.5" stroke-dasharray="8 5"/>
</svg>
