<svg xmlns="http://www.w3.org/2000/svg" width="900" height="640" viewBox="0 0 900 640">
<title>Guillotine score=0.2727272727272727 saved=8 n=11</title>
<rect width="100%" height="100%" fill="#ffffff"/>
<rect x="92.857" y="126.897" width="71.429" height="441.379" fill="#38bdf8" fill-opacity="0.34" stroke="#075985" stroke-width="1.4"/>
<text x="92.857" y="126.897" font-size="13" font-family="monospace" fill="#111827">0</text>
<rect x="92.857" y="71.724" width="500" height="55.172" fill="#38bdf8" fill-opacity="0.34" stroke="#075985" stroke-width="1.4"/>
<text x="92.857" y="71.724" font-size="13" font-family="monospace" fill="#111827">1</text>
<rect x="164.286" y="237.241" width="71.429" height="110.345" fill="#38bdf8" fill-opacity="0.34" stroke="#075985" stroke-width="1.4"/>
<text x="164.286" y="237.241" font-size="13" font-family="monospace" fill="#111827">2</text>
<rect x="235.714" y="513.103" width="285.714" height="55.172" fill="#38bdf8" fill-opacity="0.34" stroke="#075985" stroke-width="1.4"/>
<text x="235.714" y="513.103" font-size="13" font-family="monospace" fill="#111827">3</text>
<rect x="235.714" y="126.897" width="71.429" height="331.034" fill="#38bdf8" fill-opacity="0.34" stroke="#075985" stroke-width="1.4"/>
<text x="235.714" y="126.897" font-size="13" font-family="monospace" fill="#111827">4</text>
<rect x="378.571" y="347.586" width="357.143" height="55.172" fill="#38bdf8" fill-opacity="0.34" stroke="#075985" stroke-width="1.4"/>
<text x="378.571" y="347.586" font-size="13" font-family="monospace" fill="#111827">5</text>
<rect x="450" y="237.241" width="214.286" height="110.345" fill="#38bdf8" fill-opacity="0.34" stroke="#075985" stroke-width="1.4"/>
<text x="450" y="237.241" font-size="13" font-family="monospace" fill="#111827">6</text>
<rect x="521.429" y="402.759" width="285.714" height="165.517" fill="#38bdf8" fill-opacity="0.34" stroke="#075985" stroke-width="1.4"/>
<text x="521.429" y="402.759" font-size="13" font-family="monospace" fill="#111827">7</text>
<rect x="592.857" y="71.724" width="142.857" height="110.345" fill="#38bdf8" fill-opacity="0.34" stroke="#075985" stroke-width="1.4"/>
<text x="592.857" y="71.724" font-size="13" font-family="monospace" fill="#111827">8</text>
<rect x="664.286" y="237.241" width="142.857" height="55.172" fill="#38bdf8" fill-opacity="0.34" stroke="#075985" stroke-width="1.4"/>
<text x="664.286" y="237.241" font-size="13" font-family="monospace" fill="#111827">9</text>
<rect x="735.714" y="292.414" width="71.429" height="110.345" fill="#38bdf8" fill-opacity="0.34" stroke="#075985" stroke-width="1.4"/>
<text x="735.714" y="292.414" font-size="13" font-family="monospace" fill="#111827">10</text>
<line x1="164.286" y1="640" x2="164.286" y2="0" stroke="#7c3aed" stroke-width="1.5" stroke-dasharray="8 5"/>
<line x1="235.714" y1="640" x2="235.714" y2="0" stroke="#7c3aed" stroke-width="1.5" stroke-dasharray="8 5"/>
<line x1="307.143" y1="640" x2="307.143" y2="0" stroke="#7c3aed" stroke-width="1.5" stroke-dasharray="8 5"/>
<line x1="414.286" y1="640" x2="414.286" y2="0" stroke="#7c3aed" stroke-width="1.5" stroke-dasharray="8 5"/>
<line x1="414.286" y1="402.759" x2="900" y2="402.759" stroke="#7c3aed" stroke-width="1.5" stroke-dasharray="8 5"/>
<line x1="414.286" y1="237.241" x2="900" y2="237.241" stroke="#7c3aed" stroke-width="1.5" stroke-dasharray="8 5"/>
<line x1="664.286" y1="402.759" x2="664.286" y2="237.241" stroke="#7c3aed" stroke-width="1.5" stroke-dasharray="8 5"/>
<line x1="664.286" y1="292.414" x2="900" y2="292.414" stroke="#7c3aed" stroke-width="1.5" stroke-dasharray="8 5"/>
</svg>
