<svg xmlns="http://www.w3.org/2000/svg" width="900" height="640" viewBox="0 0 900 640">
<title>MISR score=1.3 alpha_lp=6.5 alpha=5</title>
<rect width="100%" height="100%" fill="#ffffff"/>
<rect x="450" y="421.587" width="357.143" height="50.794" fill="#60a5fa" fill-opacity="0.24" stroke="#1d4ed8" stroke-width="1.4"/>
<text x="450" y="421.587" font-size="13" font-family="monospace" fill="#111827">0</text>
<rect x="592.857" y="66.032" width="71.429" height="253.968" fill="#60a5fa" fill-opacity="0.24" stroke="#1d4ed8" stroke-width="1.4"/>
<text x="592.857" y="66.032" font-size="13" font-family="monospace" fill="#111827">1</text>
<rect x="378.571" y="320" width="142.857" height="101.587" fill="#60a5fa" fill-opacity="0.24" stroke="#1d4ed8" stroke-width="1.4"/>
<text x="378.571" y="320" font-size="13" font-family="monospace" fill="#111827">2</text>
<rect x="164.286" y="66.032" width="71.429" height="152.381" fill="#22c55e" fill-opacity="0.36" stroke="#166534" stroke-width="2.0"/>
<text x="164.286" y="66.032" font-size="13" font-family="monospace" fill="#111827">3</text>
<rect x="450" y="66.032" width="357.143" height="101.587" fill="#60a5fa" fill-opacity="0.24" stroke="#1d4ed8" stroke-width="1.4"/>
<text x="450" y="66.032" font-size="13" font-family="monospace" fill="#111827">4</text>
<rect x="92.857" y="320" width="71.429" height="101.587" fill="#22c55e" fill-opacity="0.36" stroke="#166534" stroke-width="2.0"/>
<text x="92.857" y="320" font-size="13" font-family="monospace" fill="#111827">5</text>
<rect x="164.286" y="66.032" width="357.143" height="101.587" fill="#60a5fa" fill-opacity="0.24" stroke="#1d4ed8" stroke-width="1.4"/>
<text x="164.286" y="66.032" font-size="13" font-family="monospace" fill="#111827">6</text>
<rect x="592.857" y="320" width="71.429" height="203.175" fill="#22c55e" fill-opacity="0.36" stroke="#166534" stroke-width="2.0"/>
<text x="592.857" y="320" font-size="13" font-family="monospace" fill="#111827">7</text>
<rect x="735.714" y="66.032" width="71.429" height="507.937" fill="#22c55e" fill-opacity="0.36" stroke="#166534" stroke-width="2.0"/>
<text x="735.714" y="66.032" font-size="13" font-family="monospace" fill="#111827">8</text>
<rect x="92.857" y="218.413" width="714.286" height="50.794" fill="#60a5fa" fill-opacity="0.24" stroke="#1d4ed8" stroke-width="1.4"/>
<text x="92.857" y="218.413" font-size="13" font-family="monospace" fill="#111827">9</text>
<rect x="307.143" y="66.032" width="71.429" height="507.937" fill="#22c55e" fill-opacity="0.36" stroke="#166534" stroke-width="2.0"/>
<text x="307.143" y="66.032" font-size="13" font-family="monospace" fill="#111827">10</text>
<rect x="92.857" y="523.175" width="714.286" height="50.794" fill="#60a5fa" fill-opacity="0.24" stroke="#1d4ed8" stroke-width="1.4"/>
<text x="92.857" y="523.175" font-size="13" font-family="monospace" fill="#111827">11</text>
</svg>
