<svg xmlns="http://www.w3.org/2000/svg" width="900" height="640" viewBox="0 0 900 640">
<title>Unit-square score=1.1428571428571428 tau=4 tau_lp=3.5</title>
<rect width="100%" height="100%" fill="#ffffff"/>
<rect x="708.621" y="124.196" width="86.207" height="55.944" fill="#fbbf24" fill-opacity="0.32" stroke="#92400e" stroke-width="1.4"/>
<text x="708.621" y="124.196" font-size="13" font-family="monospace" fill="#111827">0</text>
<rect x="622.414" y="515.804" width="86.207" height="55.944" fill="#fbbf24" fill-opacity="0.32" stroke="#92400e" stroke-width="1.4"/>
<text x="622.414" y="515.804" font-size="13" font-family="monospace" fill="#111827">1</text>
<rect x="191.379" y="68.252" width="86.207" height="55.944" fill="#fbbf24" fill-opacity="0.32" stroke="#92400e" stroke-width="1.4"/>
<text x="191.379" y="68.252" font-size="13" font-family="monospace" fill="#111827">2</text>
<rect x="191.379" y="459.86" width="86.207" height="55.944" fill="#fbbf24" fill-opacity="0.32" stroke="#92400e" stroke-width="1.4"/>
<text x="191.379" y="459.86" font-size="13" font-family="monospace" fill="#111827">3</text>
<rect x="277.586" y="68.252" width="86.207" height="55.944" fill="#fbbf24" fill-opacity="0.32" stroke="#92400e" stroke-width="1.4"/>
<text x="277.586" y="68.252" font-size="13" font-family="monospace" fill="#111827">4</text>
<rect x="105.172" y="68.252" width="86.207" height="55.944" fill="#fbbf24" fill-opacity="0.32" stroke="#92400e" stroke-width="1.4"/>
<text x="105.172" y="68.252" font-size="13" font-family="monospace" fill="#111827">5</text>
<rect x="363.793" y="292.028" width="86.207" height="55.944" fill="#fbbf24" fill-opacity="0.32" stroke="#92400e" stroke-width="1.4"/>
<text x="363.793" y="292.028" font-size="13" font-family="monospace" fill="#111827">6</text>
<rect x="277.586" y="515.804" width="86.207" height="55.944" fill="#fbbf24" fill-opacity="0.32" stroke="#92400e" stroke-width="1.4"/>
<text x="277.586" y="515.804" font-size="13" font-family="monospace" fill="#111827">7</text>
<rect x="536.207" y="347.972" width="86.207" height="55.944" fill="#fbbf24" fill-opacity="0.32" stroke="#92400e" stroke-width="1.4"/>
<text x="536.207" y="347.972" font-size="13" font-family="monospace" fill="#111827">8</text>
<rect x="277.586" y="515.804" width="86.207" height="55.944" fill="#fbbf24" fill-opacity="0.32" stroke="#92400e" stroke-width="1.4"/>
<text x="277.586" y="515.804" font-size="13" font-family="monospace" fill="#111827">9</text>
<rect x="191.379" y="236.084" width="86.207" height="55.944" fill="#fbbf24" fill-opacity="0.32" stroke="#92400e" stroke-width="1.4"/>
<text x="191.379" y="236.084" font-size="13" font-family="monospace" fill="#111827">10</text>
<rect x="191.379" y="347.972" width="86.207" height="55.944" fill="#fbbf24" fill-opacity="0.32" stroke="#92400e" stroke-width="1.4"/>
<text x="191.379" y="347.972" font-size="13" font-family="monospace" fill="#111827">11</text>
<rect x="191.379" y="515.804" width="86.207" height="55.944" fill="#fbbf24" fill-opacity="0.32" stroke="#92400e" stroke-width="1.4"/>
<text x="191.379" y="515.804" font-size="13" font-family="monospace" fill="#111827">12</text>
<rect x="191.379" y="180.14" width="86.207" height="55.944" fill="#fbbf24" fill-opacity="0.32" stroke="#92400e" stroke-width="1.4"/>
<text x="191.379" y="180.14" font-size="13" font-family="monospace" fill="#111827">13</text>
<line x1="277.586" y1="640" x2="277.586" y2="0" stroke="#dc2626" stroke-width="2.4"/>
<line x1="363.793" y1="640" x2="363.793" y2="0" stroke="#dc2626" stroke-width="2.4"/>
<line x1="622.414" y1="640" x2="622.414" y2="0" stroke="#dc2626" stroke-width="2.4"/>
<line x1="0" y1="124.196" x2="900" y2="124.196" stroke="#dc2626" stroke-width="2.4"/>
</svg>
