<svg xmlns="http://www.w3.org/2000/svg" width="900" height="640" viewBox="0 0 900 640">
<title>Guillotine score=0.23529411764705882 saved=13 n=17</title>
<rect width="100%" height="100%" fill="#ffffff"/>
<rect x="78.099" y="460.659" width="37.19" height="105.495" fill="#38bdf8" fill-opacity="0.34" stroke="#075985" stroke-width="1.4"/>
<text x="78.099" y="460.659" font-size="13" font-family="monospace" fill="#111827">0</text>
<rect x="78.099" y="355.165" width="111.57" height="70.33" fill="#38bdf8" fill-opacity="0.34" stroke="#075985" stroke-width="1.4"/>
<text x="78.099" y="355.165" font-size="13" font-family="monospace" fill="#111827">1</text>
<rect x="78.099" y="109.011" width="74.38" height="246.154" fill="#38bdf8" fill-opacity="0.34" stroke="#075985" stroke-width="1.4"/>
<text x="78.099" y="109.011" font-size="13" font-family="monospace" fill="#111827">2</text>
<rect x="115.289" y="530.989" width="334.711" height="35.165" fill="#38bdf8" fill-opacity="0.34" stroke="#075985" stroke-width="1.4"/>
<text x="115.289" y="530.989" font-size="13" font-family="monospace" fill="#111827">3</text>
<rect x="115.289" y="495.824" width="297.521" height="35.165" fill="#38bdf8" fill-opacity="0.34" stroke="#075985" stroke-width="1.4"/>
<text x="115.289" y="495.824" font-size="13" font-family="monospace" fill="#111827">4</text>
<rect x="152.479" y="249.67" width="371.901" height="70.33" fill="#38bdf8" fill-opacity="0.34" stroke="#075985" stroke-width="1.4"/>
<text x="152.479" y="249.67" font-size="13" font-family="monospace" fill="#111827">5</text>
<rect x="152.479" y="214.505" width="520.661" height="35.165" fill="#38bdf8" fill-opacity="0.34" stroke="#075985" stroke-width="1.4"/>
<text x="152.479" y="214.505" font-size="13" font-family="monospace" fill="#111827">6</text>
<rect x="152.479" y="144.176" width="483.471" height="35.165" fill="#38bdf8" fill-opacity="0.34" stroke="#075985" stroke-width="1.4"/>
<text x="152.479" y="144.176" font-size="13" font-family="monospace" fill="#111827">7</text>
<rect x="189.669" y="320" width="37.19" height="175.824" fill="#38bdf8" fill-opacity="0.34" stroke="#075985" stroke-width="1.4"/>
<text x="189.669" y="320" font-size="13" font-family="monospace" fill="#111827">8</text>
<rect x="264.05" y="320" width="37.19" height="140.659" fill="#38bdf8" fill-opacity="0.34" stroke="#075985" stroke-width="1.4"/>
<text x="264.05" y="320" font-size="13" font-family="monospace" fill="#111827">9</text>
<rect x="301.24" y="320" width="37.19" height="175.824" fill="#38bdf8" fill-opacity="0.34" stroke="#075985" stroke-width="1.4"/>
<text x="301.24" y="320" font-size="13" font-family="monospace" fill="#111827">10</text>
<rect x="375.62" y="390.33" width="409.091" height="35.165" fill="#38bdf8" fill-opacity="0.34" stroke="#075985" stroke-width="1.4"/>
<text x="375.62" y="390.33" font-size="13" font-family="monospace" fill="#111827">11</text>
<rect x="375.62" y="355.165" width="148.76" height="35.165" fill="#38bdf8" fill-opacity="0.34" stroke="#075985" stroke-width="1.4"/>
<text x="375.62" y="355.165" font-size="13" font-family="monospace" fill="#111827">12</text>
<rect x="487.19" y="425.495" width="260.331" height="140.659" fill="#38bdf8" fill-opacity="0.34" stroke="#075985" stroke-width="1.4"/>
<text x="487.19" y="425.495" font-size="13" font-family="monospace" fill="#111827">13</text>
<rect x="561.57" y="284.835" width="37.19" height="35.165" fill="#38bdf8" fill-opacity="0.34" stroke="#075985" stroke-width="1.4"/>
<text x="561.57" y="284.835" font-size="13" font-family="monospace" fill="#111827">14</text>
<rect x="710.331" y="73.846" width="111.57" height="35.165" fill="#38bdf8" fill-opacity="0.34" stroke="#075985" stroke-width="1.4"/>
<text x="710.331" y="73.846" font-size="13" font-family="monospace" fill="#111827">15</text>
<rect x="747.521" y="214.505" width="74.38" height="175.824" fill="#38bdf8" fill-opacity="0.34" stroke="#075985" stroke-width="1.4"/>
<text x="747.521" y="214.505" font-size="13" font-family="monospace" fill="#111827">16</text>
<line x1="115.289" y1="640" x2="115.289" y2="0" stroke="#7c3aed" stroke-width="1.5" stroke-dasharray="8 5"/>
<line x1="673.14" y1="640" x2="673.14" y2="0" stroke="#7c3aed" stroke-width="1.5" stroke-dasharray="8 5"/>
<line x1="115.289" y1="530.989" x2="673.14" y2="530.989" stroke="#7c3aed" stroke-width="1.5" stroke-dasharray="8 5"/>
<line x1="115.289" y1="495.824" x2="673.14" y2="495.824" stroke="#7c3aed" stroke-width="1.5" stroke-dasharray="8 5"/>
<line x1="115.289" y1="320" x2="673.14" y2="320" stroke="#7c3aed" stroke-width="1.5" stroke-dasharray="8 5"/>
<line x1="226.86" y1="495.824" x2="226.86" y2="320" stroke="#7c3aed" stroke-width="1.5" stroke-dasharray="8 5"/>
<line x1="301.24" y1="495.824" x2="301.24" y2="320" stroke="#7c3aed" stroke-width="1.5" stroke-dasharray="8 5"/>
<line x1="338.43" y1="495.824" x2="338.43" y2="320" stroke="#7c3aed" stroke-width="1.5" stroke-dasharray="8 5"/>
<line x1="115.289" y1="249.67" x2="673.14" y2="249.67" stroke="#7c3aed" stroke-width="1.5" stroke-dasharray="8 5"/>
<line x1="524.38" y1="320" x2="524.38" y2="249.67" stroke="#7c3aed" stroke-width="1.5" stroke-dasharray="8 5"/>
<line x1="115.289" y1="214.505" x2="673.14" y2="214.505" stroke="#7c3aed" stroke-width="1.5" stroke-dasharray="8 5"/>
<line x1="673.14" y1="214.505" x2="900" y2="214.505" stroke="#7c3aed" stroke-width="1.5" stroke-dasharray="8 5"/>
</svg>
