<svg xmlns="http://www.w3.org/2000/svg" width="900" height="640" viewBox="0 0 900 640">
<title>MISR score=1.375 alpha_lp=5.5 alpha=4</title>
<rect width="100%" height="100%" fill="#ffffff"/>
<rect x="92.857" y="66.032" width="714.286" height="50.794" fill="#60a5fa" fill-opacity="0.24" stroke="#1d4ed8" stroke-width="1.4"/>
<text x="92.857" y="66.032" font-size="13" font-family="monospace" fill="#111827">0</text>
<rect x="735.714" y="269.206" width="71.429" height="253.968" fill="#60a5fa" fill-opacity="0.24" stroke="#1d4ed8" stroke-width="1.4"/>
<text x="735.714" y="269.206" font-size="13" font-family="monospace" fill="#111827">1</text>
<rect x="664.286" y="523.175" width="142.857" height="50.794" fill="#60a5fa" fill-opacity="0.24" stroke="#1d4ed8" stroke-width="1.4"/>
<text x="664.286" y="523.175" font-size="13" font-family="monospace" fill="#111827">2</text>
<rect x="307.143" y="218.413" width="500" height="50.794" fill="#60a5fa" fill-opacity="0.24" stroke="#1d4ed8" stroke-width="1.4"/>
<text x="307.143" y="218.413" font-size="13" font-family="monospace" fill="#111827">3</text>
<rect x="164.286" y="472.381" width="500" height="101.587" fill="#22c55e" fill-opacity="0.36" stroke="#166534" stroke-width="2.0"/>
<text x="164.286" y="472.381" font-size="13" font-family="monospace" fill="#111827">4</text>
<rect x="92.857" y="167.619" width="142.857" height="355.556" fill="#60a5fa" fill-opacity="0.24" stroke="#1d4ed8" stroke-width="1.4"/>
<text x="92.857" y="167.619" font-size="13" font-family="monospace" fill="#111827">5</text>
<rect x="735.714" y="66.032" width="71.429" height="101.587" fill="#60a5fa" fill-opacity="0.24" stroke="#1d4ed8" stroke-width="1.4"/>
<text x="735.714" y="66.032" font-size="13" font-family="monospace" fill="#111827">6</text>
<rect x="450" y="66.032" width="142.857" height="507.937" fill="#60a5fa" fill-opacity="0.24" stroke="#1d4ed8" stroke-width="1.4"/>
<text x="450" y="66.032" font-size="13" font-family="monospace" fill="#111827">7</text>
<rect x="92.857" y="320" width="642.857" height="50.794" fill="#22c55e" fill-opacity="0.36" stroke="#166534" stroke-width="2.0"/>
<text x="92.857" y="320" font-size="13" font-family="monospace" fill="#111827">8</text>
<rect x="735.714" y="167.619" width="71.429" height="50.794" fill="#22c55e" fill-opacity="0.36" stroke="#166534" stroke-width="2.0"/>
<text x="735.714" y="167.619" font-size="13" font-family="monospace" fill="#111827">9</text>
<rect x="92.857" y="116.825" width="285.714" height="101.587" fill="#22c55e" fill-opacity="0.36" stroke="#166534" stroke-width="2.0"/>
<text x="92.857" y="116.825" font-size="13" font-family="monospace" fill="#111827">10</text>
</svg>
