<svg xmlns="http://www.w3.org/2000/svg" width="900" height="640" viewBox="0 0 900 640">
<title>Guillotine score=0.25 saved=9 n=12</title>
<rect width="100%" height="100%" fill="#ffffff"/>
<rect x="89.778" y="282.877" width="55.419" height="296.984" fill="#38bdf8" fill-opacity="0.34" stroke="#075985" stroke-width="1.4"/>
<text x="89.778" y="282.877" font-size="13" font-family="monospace" fill="#111827">0</text>
<rect x="89.778" y="60.139" width="110.837" height="185.615" fill="#38bdf8" fill-opacity="0.34" stroke="#075985" stroke-width="1.4"/>
<text x="89.778" y="60.139" font-size="13" font-family="monospace" fill="#111827">1</text>
<rect x="145.197" y="468.492" width="277.094" height="111.369" fill="#38bdf8" fill-opacity="0.34" stroke="#075985" stroke-width="1.4"/>
<text x="145.197" y="468.492" font-size="13" font-family="monospace" fill="#111827">2</text>
<rect x="145.197" y="431.369" width="443.35" height="37.123" fill="#38bdf8" fill-opacity="0.34" stroke="#075985" stroke-width="1.4"/>
<text x="145.197" y="431.369" font-size="13" font-family="monospace" fill="#111827">3</text>
<rect x="256.034" y="134.385" width="55.419" height="296.984" fill="#38bdf8" fill-opacity="0.34" stroke="#075985" stroke-width="1.4"/>
<text x="256.034" y="134.385" font-size="13" font-family="monospace" fill="#111827">4</text>
<rect x="311.453" y="357.123" width="221.675" height="37.123" fill="#38bdf8" fill-opacity="0.34" stroke="#075985" stroke-width="1.4"/>
<text x="311.453" y="357.123" font-size="13" font-family="monospace" fill="#111827">5</text>
<rect x="366.872" y="97.262" width="55.419" height="222.738" fill="#38bdf8" fill-opacity="0.34" stroke="#075985" stroke-width="1.4"/>
<text x="366.872" y="97.262" font-size="13" font-family="monospace" fill="#111827">6</text>
<rect x="422.291" y="171.508" width="55.419" height="148.492" fill="#38bdf8" fill-opacity="0.34" stroke="#075985" stroke-width="1.4"/>
<text x="422.291" y="171.508" font-size="13" font-family="monospace" fill="#111827">7</text>
<rect x="422.291" y="60.139" width="387.931" height="74.246" fill="#38bdf8" fill-opacity="0.34" stroke="#075985" stroke-width="1.4"/>
<text x="422.291" y="60.139" font-size="13" font-family="monospace" fill="#111827">8</text>
<rect x="533.128" y="208.631" width="221.675" height="37.123" fill="#38bdf8" fill-opacity="0.34" stroke="#075985" stroke-width="1.4"/>
<text x="533.128" y="208.631" font-size="13" font-family="monospace" fill="#111827">9</text>
<rect x="588.547" y="282.877" width="55.419" height="222.738" fill="#38bdf8" fill-opacity="0.34" stroke="#075985" stroke-width="1.4"/>
<text x="588.547" y="282.877" font-size="13" font-family="monospace" fill="#111827">10</text>
<rect x="643.966" y="282.877" width="55.419" height="259.861" fill="#38bdf8" fill-opacity="0.34" stroke="#075985" stroke-width="1.4"/>
<text x="643.966" y="282.877" font-size="13" font-family="monospace" fill="#111827">11</text>
<line x1="145.197" y1="640" x2="145.197" y2="0" stroke="#7c3aed" stroke-width="1.5" stroke-dasharray="8 5"/>
<line x1="422.291" y1="640" x2="422.291" y2="0" stroke="#7c3aed" stroke-width="1.5" stroke-dasharray="8 5"/>
<line x1="145.197" y1="468.492" x2="422.291" y2="468.492" stroke="#7c3aed" stroke-width="1.5" stroke-dasharray="8 5"/>
<line x1="311.453" y1="468.492" x2="311.453" y2="0" stroke="#7c3aed" stroke-width="1.5" stroke-dasharray="8 5"/>
<line x1="422.291" y1="171.508" x2="900" y2="171.508" stroke="#7c3aed" stroke-width="1.5" stroke-dasharray="8 5"/>
<line x1="477.709" y1="640" x2="477.709" y2="171.508" stroke="#7c3aed" stroke-width="1.5" stroke-dasharray="8 5"/>
<line x1="477.709" y1="282.877" x2="900" y2="282.877" stroke="#7c3aed" stroke-width="1.5" stroke-dasharray="8 5"/>
<line x1="643.966" y1="640" x2="643.966" y2="282.877" stroke="#7c3aed" stroke-width="1.5" stroke-dasharray="8 5"/>
</svg>
