<svg xmlns="http://www.w3.org/2000/svg" width="900" height="640" viewBox="0 0 900 640">
<title>Guillotine score=0.2222222222222222 saved=7 n=9</title>
<rect width="100%" height="100%" fill="#ffffff"/>
<rect x="88.07" y="94.194" width="120.643" height="258.065" fill="#38bdf8" fill-opacity="0.34" stroke="#075985" stroke-width="1.4"/>
<text x="88.07" y="94.194" font-size="13" font-family="monospace" fill="#111827">0</text>
<rect x="148.391" y="416.774" width="301.609" height="64.516" fill="#38bdf8" fill-opacity="0.34" stroke="#075985" stroke-width="1.4"/>
<text x="148.391" y="416.774" font-size="13" font-family="monospace" fill="#111827">1</text>
<rect x="148.391" y="352.258" width="241.287" height="64.516" fill="#38bdf8" fill-opacity="0.34" stroke="#075985" stroke-width="1.4"/>
<text x="148.391" y="352.258" font-size="13" font-family="monospace" fill="#111827">2</text>
<rect x="208.713" y="94.194" width="60.322" height="258.065" fill="#38bdf8" fill-opacity="0.34" stroke="#075985" stroke-width="1.4"/>
<text x="208.713" y="94.194" font-size="13" font-family="monospace" fill="#111827">3</text>
<rect x="269.035" y="158.71" width="301.609" height="64.516" fill="#38bdf8" fill-opacity="0.34" stroke="#075985" stroke-width="1.4"/>
<text x="269.035" y="158.71" font-size="13" font-family="monospace" fill="#111827">4</text>
<rect x="329.357" y="223.226" width="301.609" height="64.516" fill="#38bdf8" fill-opacity="0.34" stroke="#075985" stroke-width="1.4"/>
<text x="329.357" y="223.226" font-size="13" font-family="monospace" fill="#111827">5</text>
<rect x="389.678" y="287.742" width="60.322" height="129.032" fill="#38bdf8" fill-opacity="0.34" stroke="#075985" stroke-width="1.4"/>
<text x="389.678" y="287.742" font-size="13" font-family="monospace" fill="#111827">6</text>
<rect x="510.322" y="287.742" width="241.287" height="258.065" fill="#38bdf8" fill-opacity="0.34" stroke="#075985" stroke-width="1.4"/>
<text x="510.322" y="287.742" font-size="13" font-family="monospace" fill="#111827">7</text>
<rect x="691.287" y="94.194" width="120.643" height="64.516" fill="#38bdf8" fill-opacity="0.34" stroke="#075985" stroke-width="1.4"/>
<text x="691.287" y="94.194" font-size="13" font-family="monospace" fill="#111827">8</text>
<line x1="118.231" y1="640" x2="118.231" y2="0" stroke="#7c3aed" stroke-width="1.5" stroke-dasharray="8 5"/>
<line x1="118.231" y1="287.742" x2="900" y2="287.742" stroke="#7c3aed" stroke-width="1.5" stroke-dasharray="8 5"/>
<line x1="450" y1="640" x2="450" y2="287.742" stroke="#7c3aed" stroke-width="1.5" stroke-dasharray="8 5"/>
<line x1="118.231" y1="416.774" x2="450" y2="416.774" stroke="#7c3aed" stroke-width="1.5" stroke-dasharray="8 5"/>
<line x1="389.678" y1="416.774" x2="389.678" y2="287.742" stroke="#7c3aed" stroke-width="1.5" stroke-dasharray="8 5"/>
<line x1="630.965" y1="287.742" x2="630.965" y2="0" stroke="#7c3aed" stroke-width="1.5" stroke-dasharray="8 5"/>
<line x1="118.231" y1="223.226" x2="630.965" y2="223.226" stroke="#7c3aed" stroke-width="1.5" stroke-dasharray="8 5"/>
</svg>
