<svg xmlns="http://www.w3.org/2000/svg" width="900" height="640" viewBox="0 0 900 640">
<title>Guillotine score=0.3 saved=7 n=10</title>
<rect width="100%" height="100%" fill="#ffffff"/>
<rect x="92.857" y="523.175" width="214.286" height="50.794" fill="#38bdf8" fill-opacity="0.34" stroke="#075985" stroke-width="1.4"/>
<text x="92.857" y="523.175" font-size="13" font-family="monospace" fill="#111827">0</text>
<rect x="92.857" y="116.825" width="71.429" height="406.349" fill="#38bdf8" fill-opacity="0.34" stroke="#075985" stroke-width="1.4"/>
<text x="92.857" y="116.825" font-size="13" font-family="monospace" fill="#111827">1</text>
<rect x="92.857" y="66.032" width="357.143" height="50.794" fill="#38bdf8" fill-opacity="0.34" stroke="#075985" stroke-width="1.4"/>
<text x="92.857" y="66.032" font-size="13" font-family="monospace" fill="#111827">2</text>
<rect x="164.286" y="370.794" width="71.429" height="152.381" fill="#38bdf8" fill-opacity="0.34" stroke="#075985" stroke-width="1.4"/>
<text x="164.286" y="370.794" font-size="13" font-family="monospace" fill="#111827">3</text>
<rect x="164.286" y="116.825" width="214.286" height="253.968" fill="#38bdf8" fill-opacity="0.34" stroke="#075985" stroke-width="1.4"/>
<text x="164.286" y="116.825" font-size="13" font-family="monospace" fill="#111827">4</text>
<rect x="235.714" y="421.587" width="285.714" height="50.794" fill="#38bdf8" fill-opacity="0.34" stroke="#075985" stroke-width="1.4"/>
<text x="235.714" y="421.587" font-size="13" font-family="monospace" fill="#111827">5</text>
<rect x="307.143" y="472.381" width="142.857" height="101.587" fill="#38bdf8" fill-opacity="0.34" stroke="#075985" stroke-width="1.4"/>
<text x="307.143" y="472.381" font-size="13" font-family="monospace" fill="#111827">6</text>
<rect x="378.571" y="320" width="285.714" height="101.587" fill="#38bdf8" fill-opacity="0.34" stroke="#075985" stroke-width="1.4"/>
<text x="378.571" y="320" font-size="13" font-family="monospace" fill="#111827">7</text>
<rect x="378.571" y="218.413" width="357.143" height="50.794" fill="#38bdf8" fill-opacity="0.34" stroke="#075985" stroke-width="1.4"/>
<text x="378.571" y="218.413" font-size="13" font-family="monospace" fill="#111827">8</text>
<rect x="592.857" y="66.032" width="214.286" height="101.587" fill="#38bdf8" fill-opacity="0.34" stroke="#075985" stroke-width="1.4"/>
<text x="592.857" y="66.032" font-size="13" font-family="monospace" fill="#111827">9</text>
<line x1="164.286" y1="640" x2="164.286" y2="0" stroke="#7c3aed" stroke-width="1.5" stroke-dasharray="8 5"/>
<line x1="235.714" y1="640" x2="235.714" y2="0" stroke="#7c3aed" stroke-width="1.5" stroke-dasharray="8 5"/>
<line x1="235.714" y1="472.381" x2="900" y2="472.381" stroke="#7c3aed" stroke-width="1.5" stroke-dasharray="8 5"/>
<line x1="235.714" y1="421.587" x2="900" y2="421.587" stroke="#7c3aed" stroke-width="1.5" stroke-dasharray="8 5"/>
<line x1="235.714" y1="320" x2="900" y2="320" stroke="#7c3aed" stroke-width="1.5" stroke-dasharray="8 5"/>
<line x1="235.714" y1="218.413" x2="900" y2="218.413" stroke="#7c3aed" stroke-width="1.5" stroke-dasharray="8 5"/>
</svg>
