<svg xmlns="http://www.w3.org/2000/svg" width="900" height="640" viewBox="0 0 900 640">
<title>Guillotine score=0.18181818181818182 saved=9 n=11</title>
<rect width="100%" height="100%" fill="#ffffff"/>
<rect x="105.172" y="459.86" width="86.207" height="111.888" fill="#38bdf8" fill-opacity="0.34" stroke="#075985" stroke-width="1.4"/>
<text x="105.172" y="459.86" font-size="13" font-family="monospace" fill="#111827">0</text>
<rect x="105.172" y="347.972" width="258.621" height="55.944" fill="#38bdf8" fill-opacity="0.34" stroke="#075985" stroke-width="1.4"/>
<text x="105.172" y="347.972" font-size="13" font-family="monospace" fill="#111827">1</text>
<rect x="105.172" y="236.084" width="258.621" height="55.944" fill="#38bdf8" fill-opacity="0.34" stroke="#075985" stroke-width="1.4"/>
<text x="105.172" y="236.084" font-size="13" font-family="monospace" fill="#111827">2</text>
<rect x="191.379" y="459.86" width="172.414" height="55.944" fill="#38bdf8" fill-opacity="0.34" stroke="#075985" stroke-width="1.4"/>
<text x="191.379" y="459.86" font-size="13" font-family="monospace" fill="#111827">3</text>
<rect x="191.379" y="68.252" width="603.448" height="55.944" fill="#38bdf8" fill-opacity="0.34" stroke="#075985" stroke-width="1.4"/>
<text x="191.379" y="68.252" font-size="13" font-family="monospace" fill="#111827">4</text>
<rect x="277.586" y="515.804" width="258.621" height="55.944" fill="#38bdf8" fill-opacity="0.34" stroke="#075985" stroke-width="1.4"/>
<text x="277.586" y="515.804" font-size="13" font-family="monospace" fill="#111827">5</text>
<rect x="363.793" y="236.084" width="86.207" height="223.776" fill="#38bdf8" fill-opacity="0.34" stroke="#075985" stroke-width="1.4"/>
<text x="363.793" y="236.084" font-size="13" font-family="monospace" fill="#111827">6</text>
<rect x="450" y="236.084" width="86.207" height="279.72" fill="#38bdf8" fill-opacity="0.34" stroke="#075985" stroke-width="1.4"/>
<text x="450" y="236.084" font-size="13" font-family="monospace" fill="#111827">7</text>
<rect x="450" y="180.14" width="172.414" height="55.944" fill="#38bdf8" fill-opacity="0.34" stroke="#075985" stroke-width="1.4"/>
<text x="450" y="180.14" font-size="13" font-family="monospace" fill="#111827">8</text>
<rect x="536.207" y="403.916" width="258.621" height="167.832" fill="#38bdf8" fill-opacity="0.34" stroke="#075985" stroke-width="1.4"/>
<text x="536.207" y="403.916" font-size="13" font-family="monospace" fill="#111827">9</text>
<rect x="708.621" y="180.14" width="86.207" height="111.888" fill="#38bdf8" fill-opacity="0.34" stroke="#075985" stroke-width="1.4"/>
<text x="708.621" y="180.14" font-size="13" font-family="monospace" fill="#111827">10</text>
<line x1="0" y1="515.804" x2="900" y2="515.804" stroke="#7c3aed" stroke-width="1.5" stroke-dasharray="8 5"/>
<line x1="0" y1="180.14" x2="900" y2="180.14" stroke="#7c3aed" stroke-width="1.5" stroke-dasharray="8 5"/>
<line x1="363.793" y1="515.804" x2="363.793" y2="180.14" stroke="#7c3aed" stroke-width="1.5" stroke-dasharray="8 5"/>
<line x1="0" y1="459.86" x2="363.793" y2="459.86" stroke="#7c3aed" stroke-width="1.5" stroke-dasharray="8 5"/>
<line x1="0" y1="347.972" x2="363.793" y2="347.972" stroke="#7c3aed" stroke-width="1.5" stroke-dasharray="8 5"/>
<line x1="450" y1="515.804" x2="450" y2="180.14" stroke="#7c3aed" stroke-width="1.5" stroke-dasharray="8 5"/>
<line x1="622.414" y1="515.804" x2="622.414" y2="180.14" stroke="#7c3aed" stroke-width="1.5" stroke-dasharray="8 5"/>
<line x1="450" y1="236.084" x2="622.414" y2="236.084" stroke="#7c3aed" stroke-width="1.5" stroke-dasharray="8 5"/>
</svg>
