<svg xmlns="http://www.w3.org/2000/svg" width="900" height="640" viewBox="0 0 900 640">
<title>Unit-square score=1.3333333333333333 tau=4 tau_lp=3.0</title>
<rect width="100%" height="100%" fill="#ffffff"/>
<rect x="79.799" y="519.234" width="82.267" height="61.303" fill="#fbbf24" fill-opacity="0.32" stroke="#92400e" stroke-width="1.4"/>
<text x="79.799" y="519.234" font-size="13" font-family="monospace" fill="#111827">0</text>
<rect x="79.799" y="488.582" width="82.267" height="61.303" fill="#fbbf24" fill-opacity="0.32" stroke="#92400e" stroke-width="1.4"/>
<text x="79.799" y="488.582" font-size="13" font-family="monospace" fill="#111827">1</text>
<rect x="79.799" y="457.931" width="82.267" height="61.303" fill="#fbbf24" fill-opacity="0.32" stroke="#92400e" stroke-width="1.4"/>
<text x="79.799" y="457.931" font-size="13" font-family="monospace" fill="#111827">2</text>
<rect x="79.799" y="427.28" width="82.267" height="61.303" fill="#fbbf24" fill-opacity="0.32" stroke="#92400e" stroke-width="1.4"/>
<text x="79.799" y="427.28" font-size="13" font-family="monospace" fill="#111827">3</text>
<rect x="120.932" y="519.234" width="82.267" height="61.303" fill="#fbbf24" fill-opacity="0.32" stroke="#92400e" stroke-width="1.4"/>
<text x="120.932" y="519.234" font-size="13" font-family="monospace" fill="#111827">4</text>
<rect x="120.932" y="488.582" width="82.267" height="61.303" fill="#fbbf24" fill-opacity="0.32" stroke="#92400e" stroke-width="1.4"/>
<text x="120.932" y="488.582" font-size="13" font-family="monospace" fill="#111827">5</text>
<rect x="120.932" y="457.931" width="82.267" height="61.303" fill="#fbbf24" fill-opacity="0.32" stroke="#92400e" stroke-width="1.4"/>
<text x="120.932" y="457.931" font-size="13" font-family="monospace" fill="#111827">6</text>
<rect x="162.066" y="519.234" width="82.267" height="61.303" fill="#fbbf24" fill-opacity="0.32" stroke="#92400e" stroke-width="1.4"/>
<text x="162.066" y="519.234" font-size="13" font-family="monospace" fill="#111827">7</text>
<rect x="162.066" y="335.326" width="82.267" height="61.303" fill="#fbbf24" fill-opacity="0.32" stroke="#92400e" stroke-width="1.4"/>
<text x="162.066" y="335.326" font-size="13" font-family="monospace" fill="#111827">8</text>
<rect x="203.199" y="488.582" width="82.267" height="61.303" fill="#fbbf24" fill-opacity="0.32" stroke="#92400e" stroke-width="1.4"/>
<text x="203.199" y="488.582" font-size="13" font-family="monospace" fill="#111827">9</text>
<rect x="244.333" y="519.234" width="82.267" height="61.303" fill="#fbbf24" fill-opacity="0.32" stroke="#92400e" stroke-width="1.4"/>
<text x="244.333" y="519.234" font-size="13" font-family="monospace" fill="#111827">10</text>
<rect x="244.333" y="488.582" width="82.267" height="61.303" fill="#fbbf24" fill-opacity="0.32" stroke="#92400e" stroke-width="1.4"/>
<text x="244.333" y="488.582" font-size="13" font-family="monospace" fill="#111827">11</text>
<rect x="244.333" y="457.931" width="82.267" height="61.303" fill="#fbbf24" fill-opacity="0.32" stroke="#92400e" stroke-width="1.4"/>
<text x="244.333" y="457.931" font-size="13" font-family="monospace" fill="#111827">12</text>
<rect x="244.333" y="427.28" width="82.267" height="61.303" fill="#fbbf24" fill-opacity="0.32" stroke="#92400e" stroke-width="1.4"/>
<text x="244.333" y="427.28" font-size="13" font-family="monospace" fill="#111827">13</text>
<rect x="285.466" y="488.582" width="82.267" height="61.303" fill="#fbbf24" fill-opacity="0.32" stroke="#92400e" stroke-width="1.4"/>
<text x="285.466" y="488.582" font-size="13" font-family="monospace" fill="#111827">14</text>
<rect x="532.267" y="488.582" width="82.267" height="61.303" fill="#fbbf24" fill-opacity="0.32" stroke="#92400e" stroke-width="1.4"/>
<text x="532.267" y="488.582" font-size="13" font-family="monospace" fill="#111827">15</text>
<rect x="614.534" y="365.977" width="82.267" height="61.303" fill="#fbbf24" fill-opacity="0.32" stroke="#92400e" stroke-width="1.4"/>
<text x="614.534" y="365.977" font-size="13" font-family="monospace" fill="#111827">16</text>
<rect x="614.534" y="59.464" width="82.267" height="61.303" fill="#fbbf24" fill-opacity="0.32" stroke="#92400e" stroke-width="1.4"/>
<text x="614.534" y="59.464" font-size="13" font-family="monospace" fill="#111827">17</text>
<rect x="696.801" y="365.977" width="82.267" height="61.303" fill="#fbbf24" fill-opacity="0.32" stroke="#92400e" stroke-width="1.4"/>
<text x="696.801" y="365.977" font-size="13" font-family="monospace" fill="#111827">18</text>
<rect x="737.934" y="457.931" width="82.267" height="61.303" fill="#fbbf24" fill-opacity="0.32" stroke="#92400e" stroke-width="1.4"/>
<text x="737.934" y="457.931" font-size="13" font-family="monospace" fill="#111827">19</text>
<line x1="162.066" y1="640" x2="162.066" y2="0" stroke="#dc2626" stroke-width="2.4"/>
<line x1="614.534" y1="640" x2="614.534" y2="0" stroke="#dc2626" stroke-width="2.4"/>
<line x1="0" y1="519.234" x2="900" y2="519.234" stroke="#dc2626" stroke-width="2.4"/>
<line x1="0" y1="427.28" x2="900" y2="427.28" stroke="#dc2626" stroke-width="2.4"/>
</svg>
