<svg xmlns="http://www.w3.org/2000/svg" width="900" height="640" viewBox="0 0 900 640">
<title>Unit-square score=1.2307692307692308 tau=4 tau_lp=3.25</title>
<rect width="100%" height="100%" fill="#ffffff"/>
<rect x="95.979" y="286.102" width="78.671" height="67.797" fill="#fbbf24" fill-opacity="0.32" stroke="#92400e" stroke-width="1.4"/>
<text x="95.979" y="286.102" font-size="13" font-family="monospace" fill="#111827">0</text>
<rect x="174.65" y="82.712" width="78.671" height="67.797" fill="#fbbf24" fill-opacity="0.32" stroke="#92400e" stroke-width="1.4"/>
<text x="174.65" y="82.712" font-size="13" font-family="monospace" fill="#111827">1</text>
<rect x="331.993" y="353.898" width="78.671" height="67.797" fill="#fbbf24" fill-opacity="0.32" stroke="#92400e" stroke-width="1.4"/>
<text x="331.993" y="353.898" font-size="13" font-family="monospace" fill="#111827">2</text>
<rect x="410.664" y="218.305" width="78.671" height="67.797" fill="#fbbf24" fill-opacity="0.32" stroke="#92400e" stroke-width="1.4"/>
<text x="410.664" y="218.305" font-size="13" font-family="monospace" fill="#111827">3</text>
<rect x="568.007" y="286.102" width="78.671" height="67.797" fill="#fbbf24" fill-opacity="0.32" stroke="#92400e" stroke-width="1.4"/>
<text x="568.007" y="286.102" font-size="13" font-family="monospace" fill="#111827">4</text>
<rect x="646.678" y="489.492" width="78.671" height="67.797" fill="#fbbf24" fill-opacity="0.32" stroke="#92400e" stroke-width="1.4"/>
<text x="646.678" y="489.492" font-size="13" font-family="monospace" fill="#111827">5</text>
<rect x="725.35" y="286.102" width="78.671" height="67.797" fill="#fbbf24" fill-opacity="0.32" stroke="#92400e" stroke-width="1.4"/>
<text x="725.35" y="286.102" font-size="13" font-family="monospace" fill="#111827">6</text>
<rect x="725.35" y="150.508" width="78.671" height="67.797" fill="#fbbf24" fill-opacity="0.32" stroke="#92400e" stroke-width="1.4"/>
<text x="725.35" y="150.508" font-size="13" font-family="monospace" fill="#111827">7</text>
<line x1="174.65" y1="640" x2="174.65" y2="0" stroke="#dc2626" stroke-width="2.4"/>
<line x1="410.664" y1="640" x2="410.664" y2="0" stroke="#dc2626" stroke-width="2.4"/>
<line x1="725.35" y1="640" x2="725.35" y2="0" stroke="#dc2626" stroke-width="2.4"/>
<line x1="0" y1="353.898" x2="900" y2="353.898" stroke="#dc2626" stroke-width="2.4"/>
</svg>
