<svg xmlns="http://www.w3.org/2000/svg" width="900" height="640" viewBox="0 0 900 640">
<title>Guillotine score=0.16666666666666666 saved=10 n=12</title>
<rect width="100%" height="100%" fill="#ffffff"/>
<rect x="86.194" y="493.285" width="55.97" height="57.762" fill="#38bdf8" fill-opacity="0.34" stroke="#075985" stroke-width="1.4"/>
<text x="86.194" y="493.285" font-size="13" font-family="monospace" fill="#111827">0</text>
<rect x="142.164" y="493.285" width="55.97" height="57.762" fill="#38bdf8" fill-opacity="0.34" stroke="#075985" stroke-width="1.4"/>
<text x="142.164" y="493.285" font-size="13" font-family="monospace" fill="#111827">1</text>
<rect x="198.134" y="493.285" width="55.97" height="57.762" fill="#38bdf8" fill-opacity="0.34" stroke="#075985" stroke-width="1.4"/>
<text x="198.134" y="493.285" font-size="13" font-family="monospace" fill="#111827">2</text>
<rect x="254.104" y="493.285" width="55.97" height="57.762" fill="#38bdf8" fill-opacity="0.34" stroke="#075985" stroke-width="1.4"/>
<text x="254.104" y="493.285" font-size="13" font-family="monospace" fill="#111827">3</text>
<rect x="310.075" y="493.285" width="55.97" height="57.762" fill="#38bdf8" fill-opacity="0.34" stroke="#075985" stroke-width="1.4"/>
<text x="310.075" y="493.285" font-size="13" font-family="monospace" fill="#111827">4</text>
<rect x="422.015" y="320" width="167.91" height="115.523" fill="#38bdf8" fill-opacity="0.34" stroke="#075985" stroke-width="1.4"/>
<text x="422.015" y="320" font-size="13" font-family="monospace" fill="#111827">5</text>
<rect x="422.015" y="88.953" width="55.97" height="231.047" fill="#38bdf8" fill-opacity="0.34" stroke="#075985" stroke-width="1.4"/>
<text x="422.015" y="88.953" font-size="13" font-family="monospace" fill="#111827">6</text>
<rect x="533.955" y="88.953" width="167.91" height="57.762" fill="#38bdf8" fill-opacity="0.34" stroke="#075985" stroke-width="1.4"/>
<text x="533.955" y="88.953" font-size="13" font-family="monospace" fill="#111827">7</text>
<rect x="589.925" y="493.285" width="167.91" height="57.762" fill="#38bdf8" fill-opacity="0.34" stroke="#075985" stroke-width="1.4"/>
<text x="589.925" y="493.285" font-size="13" font-family="monospace" fill="#111827">8</text>
<rect x="589.925" y="204.477" width="55.97" height="288.809" fill="#38bdf8" fill-opacity="0.34" stroke="#075985" stroke-width="1.4"/>
<text x="589.925" y="204.477" font-size="13" font-family="monospace" fill="#111827">9</text>
<rect x="645.896" y="262.238" width="167.91" height="115.523" fill="#38bdf8" fill-opacity="0.34" stroke="#075985" stroke-width="1.4"/>
<text x="645.896" y="262.238" font-size="13" font-family="monospace" fill="#111827">10</text>
<rect x="757.836" y="435.523" width="55.97" height="115.523" fill="#38bdf8" fill-opacity="0.34" stroke="#075985" stroke-width="1.4"/>
<text x="757.836" y="435.523" font-size="13" font-family="monospace" fill="#111827">11</text>
<line x1="142.164" y1="640" x2="142.164" y2="0" stroke="#7c3aed" stroke-width="1.5" stroke-dasharray="8 5"/>
<line x1="198.134" y1="640" x2="198.134" y2="0" stroke="#7c3aed" stroke-width="1.5" stroke-dasharray="8 5"/>
<line x1="254.104" y1="640" x2="254.104" y2="0" stroke="#7c3aed" stroke-width="1.5" stroke-dasharray="8 5"/>
<line x1="310.075" y1="640" x2="310.075" y2="0" stroke="#7c3aed" stroke-width="1.5" stroke-dasharray="8 5"/>
<line x1="366.045" y1="640" x2="366.045" y2="0" stroke="#7c3aed" stroke-width="1.5" stroke-dasharray="8 5"/>
<line x1="477.985" y1="640" x2="477.985" y2="0" stroke="#7c3aed" stroke-width="1.5" stroke-dasharray="8 5"/>
<line x1="757.836" y1="640" x2="757.836" y2="0" stroke="#7c3aed" stroke-width="1.5" stroke-dasharray="8 5"/>
<line x1="477.985" y1="493.285" x2="757.836" y2="493.285" stroke="#7c3aed" stroke-width="1.5" stroke-dasharray="8 5"/>
<line x1="477.985" y1="204.477" x2="757.836" y2="204.477" stroke="#7c3aed" stroke-width="1.5" stroke-dasharray="8 5"/>
</svg>
