<svg xmlns="http://www.w3.org/2000/svg" width="900" height="640" viewBox="0 0 900 640">
<title>MISR score=1.25 alpha_lp=5.0 alpha=4</title>
<rect width="100%" height="100%" fill="#ffffff"/>
<rect x="256.034" y="218.413" width="77.586" height="152.381" fill="#60a5fa" fill-opacity="0.24" stroke="#1d4ed8" stroke-width="1.4"/>
<text x="256.034" y="218.413" font-size="13" font-family="monospace" fill="#111827">0</text>
<rect x="488.793" y="421.587" width="310.345" height="152.381" fill="#60a5fa" fill-opacity="0.24" stroke="#1d4ed8" stroke-width="1.4"/>
<text x="488.793" y="421.587" font-size="13" font-family="monospace" fill="#111827">1</text>
<rect x="411.207" y="167.619" width="155.172" height="203.175" fill="#60a5fa" fill-opacity="0.24" stroke="#1d4ed8" stroke-width="1.4"/>
<text x="411.207" y="167.619" font-size="13" font-family="monospace" fill="#111827">2</text>
<rect x="100.862" y="472.381" width="232.759" height="50.794" fill="#60a5fa" fill-opacity="0.24" stroke="#1d4ed8" stroke-width="1.4"/>
<text x="100.862" y="472.381" font-size="13" font-family="monospace" fill="#111827">3</text>
<rect x="100.862" y="66.032" width="155.172" height="253.968" fill="#60a5fa" fill-opacity="0.24" stroke="#1d4ed8" stroke-width="1.4"/>
<text x="100.862" y="66.032" font-size="13" font-family="monospace" fill="#111827">4</text>
<rect x="100.862" y="421.587" width="620.69" height="50.794" fill="#22c55e" fill-opacity="0.36" stroke="#166534" stroke-width="2.0"/>
<text x="100.862" y="421.587" font-size="13" font-family="monospace" fill="#111827">5</text>
<rect x="333.621" y="218.413" width="465.517" height="101.587" fill="#22c55e" fill-opacity="0.36" stroke="#166534" stroke-width="2.0"/>
<text x="333.621" y="218.413" font-size="13" font-family="monospace" fill="#111827">6</text>
<rect x="100.862" y="66.032" width="465.517" height="101.587" fill="#22c55e" fill-opacity="0.36" stroke="#166534" stroke-width="2.0"/>
<text x="100.862" y="66.032" font-size="13" font-family="monospace" fill="#111827">7</text>
<rect x="333.621" y="523.175" width="77.586" height="50.794" fill="#60a5fa" fill-opacity="0.24" stroke="#1d4ed8" stroke-width="1.4"/>
<text x="333.621" y="523.175" font-size="13" font-family="monospace" fill="#111827">8</text>
<rect x="411.207" y="523.175" width="387.931" height="50.794" fill="#22c55e" fill-opacity="0.36" stroke="#166534" stroke-width="2.0"/>
<text x="411.207" y="523.175" font-size="13" font-family="monospace" fill="#111827">9</text>
</svg>
