<svg xmlns="http://www.w3.org/2000/svg" width="900" height="640" viewBox="0 0 900 640">
<title>Guillotine score=0.3333333333333333 saved=6 n=9</title>
<rect width="100%" height="100%" fill="#ffffff"/>
<rect x="99.805" y="492.414" width="262.646" height="68.966" fill="#38bdf8" fill-opacity="0.34" stroke="#075985" stroke-width="1.4"/>
<text x="99.805" y="492.414" font-size="13" font-family="monospace" fill="#111827">0</text>
<rect x="99.805" y="147.586" width="87.549" height="344.828" fill="#38bdf8" fill-opacity="0.34" stroke="#075985" stroke-width="1.4"/>
<text x="99.805" y="147.586" font-size="13" font-family="monospace" fill="#111827">1</text>
<rect x="99.805" y="78.621" width="437.743" height="68.966" fill="#38bdf8" fill-opacity="0.34" stroke="#075985" stroke-width="1.4"/>
<text x="99.805" y="78.621" font-size="13" font-family="monospace" fill="#111827">2</text>
<rect x="187.354" y="285.517" width="87.549" height="206.897" fill="#38bdf8" fill-opacity="0.34" stroke="#075985" stroke-width="1.4"/>
<text x="187.354" y="285.517" font-size="13" font-family="monospace" fill="#111827">3</text>
<rect x="187.354" y="147.586" width="262.646" height="137.931" fill="#38bdf8" fill-opacity="0.34" stroke="#075985" stroke-width="1.4"/>
<text x="187.354" y="147.586" font-size="13" font-family="monospace" fill="#111827">4</text>
<rect x="274.903" y="354.483" width="525.292" height="68.966" fill="#38bdf8" fill-opacity="0.34" stroke="#075985" stroke-width="1.4"/>
<text x="274.903" y="354.483" font-size="13" font-family="monospace" fill="#111827">5</text>
<rect x="362.451" y="423.448" width="175.097" height="137.931" fill="#38bdf8" fill-opacity="0.34" stroke="#075985" stroke-width="1.4"/>
<text x="362.451" y="423.448" font-size="13" font-family="monospace" fill="#111827">6</text>
<rect x="450" y="216.552" width="175.097" height="137.931" fill="#38bdf8" fill-opacity="0.34" stroke="#075985" stroke-width="1.4"/>
<text x="450" y="216.552" font-size="13" font-family="monospace" fill="#111827">7</text>
<rect x="537.549" y="78.621" width="175.097" height="137.931" fill="#38bdf8" fill-opacity="0.34" stroke="#075985" stroke-width="1.4"/>
<text x="537.549" y="78.621" font-size="13" font-family="monospace" fill="#111827">8</text>
<line x1="187.354" y1="640" x2="187.354" y2="0" stroke="#7c3aed" stroke-width="1.5" stroke-dasharray="8 5"/>
<line x1="274.903" y1="640" x2="274.903" y2="0" stroke="#7c3aed" stroke-width="1.5" stroke-dasharray="8 5"/>
<line x1="274.903" y1="423.448" x2="900" y2="423.448" stroke="#7c3aed" stroke-width="1.5" stroke-dasharray="8 5"/>
<line x1="274.903" y1="354.483" x2="900" y2="354.483" stroke="#7c3aed" stroke-width="1.5" stroke-dasharray="8 5"/>
<line x1="274.903" y1="216.552" x2="900" y2="216.552" stroke="#7c3aed" stroke-width="1.5" stroke-dasharray="8 5"/>
</svg>
