<svg xmlns="http://www.w3.org/2000/svg" width="900" height="640" viewBox="0 0 900 640">
<title>Guillotine score=0.09090909090909091 saved=20 n=22</title>
<rect width="100%" height="100%" fill="#ffffff"/>
<rect x="77.366" y="514.757" width="35.489" height="29.963" fill="#38bdf8" fill-opacity="0.34" stroke="#075985" stroke-width="1.4"/>
<text x="77.366" y="514.757" font-size="13" font-family="monospace" fill="#111827">0</text>
<rect x="77.366" y="454.831" width="35.489" height="59.925" fill="#38bdf8" fill-opacity="0.34" stroke="#075985" stroke-width="1.4"/>
<text x="77.366" y="454.831" font-size="13" font-family="monospace" fill="#111827">1</text>
<rect x="112.855" y="364.944" width="70.978" height="29.963" fill="#38bdf8" fill-opacity="0.34" stroke="#075985" stroke-width="1.4"/>
<text x="112.855" y="364.944" font-size="13" font-family="monospace" fill="#111827">2</text>
<rect x="112.855" y="185.169" width="177.445" height="29.963" fill="#38bdf8" fill-opacity="0.34" stroke="#075985" stroke-width="1.4"/>
<text x="112.855" y="185.169" font-size="13" font-family="monospace" fill="#111827">3</text>
<rect x="148.344" y="454.831" width="35.489" height="59.925" fill="#38bdf8" fill-opacity="0.34" stroke="#075985" stroke-width="1.4"/>
<text x="148.344" y="454.831" font-size="13" font-family="monospace" fill="#111827">4</text>
<rect x="219.322" y="544.719" width="35.489" height="29.963" fill="#38bdf8" fill-opacity="0.34" stroke="#075985" stroke-width="1.4"/>
<text x="219.322" y="544.719" font-size="13" font-family="monospace" fill="#111827">5</text>
<rect x="219.322" y="394.906" width="35.489" height="29.963" fill="#38bdf8" fill-opacity="0.34" stroke="#075985" stroke-width="1.4"/>
<text x="219.322" y="394.906" font-size="13" font-family="monospace" fill="#111827">6</text>
<rect x="254.811" y="484.794" width="35.489" height="59.925" fill="#38bdf8" fill-opacity="0.34" stroke="#075985" stroke-width="1.4"/>
<text x="254.811" y="484.794" font-size="13" font-family="monospace" fill="#111827">7</text>
<rect x="254.811" y="394.906" width="35.489" height="29.963" fill="#38bdf8" fill-opacity="0.34" stroke="#075985" stroke-width="1.4"/>
<text x="254.811" y="394.906" font-size="13" font-family="monospace" fill="#111827">8</text>
<rect x="325.789" y="544.719" width="35.489" height="29.963" fill="#38bdf8" fill-opacity="0.34" stroke="#075985" stroke-width="1.4"/>
<text x="325.789" y="544.719" font-size="13" font-family="monospace" fill="#111827">9</text>
<rect x="325.789" y="484.794" width="35.489" height="29.963" fill="#38bdf8" fill-opacity="0.34" stroke="#075985" stroke-width="1.4"/>
<text x="325.789" y="484.794" font-size="13" font-family="monospace" fill="#111827">10</text>
<rect x="361.278" y="544.719" width="35.489" height="29.963" fill="#38bdf8" fill-opacity="0.34" stroke="#075985" stroke-width="1.4"/>
<text x="361.278" y="544.719" font-size="13" font-family="monospace" fill="#111827">11</text>
<rect x="396.767" y="125.243" width="390.379" height="29.963" fill="#38bdf8" fill-opacity="0.34" stroke="#075985" stroke-width="1.4"/>
<text x="396.767" y="125.243" font-size="13" font-family="monospace" fill="#111827">12</text>
<rect x="432.256" y="424.869" width="35.489" height="119.85" fill="#38bdf8" fill-opacity="0.34" stroke="#075985" stroke-width="1.4"/>
<text x="432.256" y="424.869" font-size="13" font-family="monospace" fill="#111827">13</text>
<rect x="432.256" y="364.944" width="106.467" height="59.925" fill="#38bdf8" fill-opacity="0.34" stroke="#075985" stroke-width="1.4"/>
<text x="432.256" y="364.944" font-size="13" font-family="monospace" fill="#111827">14</text>
<rect x="503.233" y="514.757" width="106.467" height="29.963" fill="#38bdf8" fill-opacity="0.34" stroke="#075985" stroke-width="1.4"/>
<text x="503.233" y="514.757" font-size="13" font-family="monospace" fill="#111827">15</text>
<rect x="538.722" y="334.981" width="35.489" height="149.813" fill="#38bdf8" fill-opacity="0.34" stroke="#075985" stroke-width="1.4"/>
<text x="538.722" y="334.981" font-size="13" font-family="monospace" fill="#111827">16</text>
<rect x="538.722" y="305.019" width="106.467" height="29.963" fill="#38bdf8" fill-opacity="0.34" stroke="#075985" stroke-width="1.4"/>
<text x="538.722" y="305.019" font-size="13" font-family="monospace" fill="#111827">17</text>
<rect x="574.211" y="394.906" width="106.467" height="59.925" fill="#38bdf8" fill-opacity="0.34" stroke="#075985" stroke-width="1.4"/>
<text x="574.211" y="394.906" font-size="13" font-family="monospace" fill="#111827">18</text>
<rect x="645.189" y="305.019" width="35.489" height="59.925" fill="#38bdf8" fill-opacity="0.34" stroke="#075985" stroke-width="1.4"/>
<text x="645.189" y="305.019" font-size="13" font-family="monospace" fill="#111827">19</text>
<rect x="716.167" y="245.094" width="35.489" height="29.963" fill="#38bdf8" fill-opacity="0.34" stroke="#075985" stroke-width="1.4"/>
<text x="716.167" y="245.094" font-size="13" font-family="monospace" fill="#111827">20</text>
<rect x="787.145" y="65.318" width="35.489" height="29.963" fill="#38bdf8" fill-opacity="0.34" stroke="#075985" stroke-width="1.4"/>
<text x="787.145" y="65.318" font-size="13" font-family="monospace" fill="#111827">21</text>
<line x1="112.855" y1="640" x2="112.855" y2="0" stroke="#7c3aed" stroke-width="1.5" stroke-dasharray="8 5"/>
<line x1="0" y1="514.757" x2="112.855" y2="514.757" stroke="#7c3aed" stroke-width="1.5" stroke-dasharray="8 5"/>
<line x1="290.3" y1="640" x2="290.3" y2="0" stroke="#7c3aed" stroke-width="1.5" stroke-dasharray="8 5"/>
<line x1="112.855" y1="544.719" x2="290.3" y2="544.719" stroke="#7c3aed" stroke-width="1.5" stroke-dasharray="8 5"/>
<line x1="112.855" y1="454.831" x2="290.3" y2="454.831" stroke="#7c3aed" stroke-width="1.5" stroke-dasharray="8 5"/>
<line x1="183.833" y1="544.719" x2="183.833" y2="454.831" stroke="#7c3aed" stroke-width="1.5" stroke-dasharray="8 5"/>
<line x1="112.855" y1="394.906" x2="290.3" y2="394.906" stroke="#7c3aed" stroke-width="1.5" stroke-dasharray="8 5"/>
<line x1="254.811" y1="454.831" x2="254.811" y2="394.906" stroke="#7c3aed" stroke-width="1.5" stroke-dasharray="8 5"/>
<line x1="112.855" y1="364.944" x2="290.3" y2="364.944" stroke="#7c3aed" stroke-width="1.5" stroke-dasharray="8 5"/>
<line x1="361.278" y1="640" x2="361.278" y2="0" stroke="#7c3aed" stroke-width="1.5" stroke-dasharray="8 5"/>
<line x1="290.3" y1="544.719" x2="361.278" y2="544.719" stroke="#7c3aed" stroke-width="1.5" stroke-dasharray="8 5"/>
<line x1="396.767" y1="640" x2="396.767" y2="0" stroke="#7c3aed" stroke-width="1.5" stroke-dasharray="8 5"/>
<line x1="787.145" y1="640" x2="787.145" y2="0" stroke="#7c3aed" stroke-width="1.5" stroke-dasharray="8 5"/>
<line x1="396.767" y1="514.757" x2="787.145" y2="514.757" stroke="#7c3aed" stroke-width="1.5" stroke-dasharray="8 5"/>
<line x1="396.767" y1="469.813" x2="787.145" y2="469.813" stroke="#7c3aed" stroke-width="1.5" stroke-dasharray="8 5"/>
<line x1="396.767" y1="364.944" x2="787.145" y2="364.944" stroke="#7c3aed" stroke-width="1.5" stroke-dasharray="8 5"/>
<line x1="538.722" y1="469.813" x2="538.722" y2="364.944" stroke="#7c3aed" stroke-width="1.5" stroke-dasharray="8 5"/>
<line x1="396.767" y1="305.019" x2="787.145" y2="305.019" stroke="#7c3aed" stroke-width="1.5" stroke-dasharray="8 5"/>
<line x1="645.189" y1="364.944" x2="645.189" y2="305.019" stroke="#7c3aed" stroke-width="1.5" stroke-dasharray="8 5"/>
<line x1="396.767" y1="245.094" x2="787.145" y2="245.094" stroke="#7c3aed" stroke-width="1.5" stroke-dasharray="8 5"/>
</svg>
