<svg xmlns="http://www.w3.org/2000/svg" width="900" height="640" viewBox="0 0 900 640">
<title>Guillotine score=0.14285714285714285 saved=12 n=14</title>
<rect width="100%" height="100%" fill="#ffffff"/>
<rect x="79.799" y="176.823" width="82.267" height="71.588" fill="#38bdf8" fill-opacity="0.34" stroke="#075985" stroke-width="1.4"/>
<text x="79.799" y="176.823" font-size="13" font-family="monospace" fill="#111827">0</text>
<rect x="120.932" y="534.765" width="41.133" height="35.794" fill="#38bdf8" fill-opacity="0.34" stroke="#075985" stroke-width="1.4"/>
<text x="120.932" y="534.765" font-size="13" font-family="monospace" fill="#111827">1</text>
<rect x="203.199" y="69.441" width="41.133" height="286.353" fill="#38bdf8" fill-opacity="0.34" stroke="#075985" stroke-width="1.4"/>
<text x="203.199" y="69.441" font-size="13" font-family="monospace" fill="#111827">2</text>
<rect x="244.333" y="105.235" width="452.468" height="35.794" fill="#38bdf8" fill-opacity="0.34" stroke="#075985" stroke-width="1.4"/>
<text x="244.333" y="105.235" font-size="13" font-family="monospace" fill="#111827">3</text>
<rect x="285.466" y="391.588" width="41.133" height="143.177" fill="#38bdf8" fill-opacity="0.34" stroke="#075985" stroke-width="1.4"/>
<text x="285.466" y="391.588" font-size="13" font-family="monospace" fill="#111827">4</text>
<rect x="285.466" y="320" width="123.4" height="71.588" fill="#38bdf8" fill-opacity="0.34" stroke="#075985" stroke-width="1.4"/>
<text x="285.466" y="320" font-size="13" font-family="monospace" fill="#111827">5</text>
<rect x="367.733" y="498.971" width="123.4" height="35.794" fill="#38bdf8" fill-opacity="0.34" stroke="#075985" stroke-width="1.4"/>
<text x="367.733" y="498.971" font-size="13" font-family="monospace" fill="#111827">6</text>
<rect x="367.733" y="248.412" width="123.4" height="35.794" fill="#38bdf8" fill-opacity="0.34" stroke="#075985" stroke-width="1.4"/>
<text x="367.733" y="248.412" font-size="13" font-family="monospace" fill="#111827">7</text>
<rect x="408.867" y="284.206" width="41.133" height="178.971" fill="#38bdf8" fill-opacity="0.34" stroke="#075985" stroke-width="1.4"/>
<text x="408.867" y="284.206" font-size="13" font-family="monospace" fill="#111827">8</text>
<rect x="450" y="355.794" width="123.4" height="71.588" fill="#38bdf8" fill-opacity="0.34" stroke="#075985" stroke-width="1.4"/>
<text x="450" y="355.794" font-size="13" font-family="monospace" fill="#111827">9</text>
<rect x="491.133" y="248.412" width="41.133" height="71.588" fill="#38bdf8" fill-opacity="0.34" stroke="#075985" stroke-width="1.4"/>
<text x="491.133" y="248.412" font-size="13" font-family="monospace" fill="#111827">10</text>
<rect x="614.534" y="176.823" width="41.133" height="35.794" fill="#38bdf8" fill-opacity="0.34" stroke="#075985" stroke-width="1.4"/>
<text x="614.534" y="176.823" font-size="13" font-family="monospace" fill="#111827">11</text>
<rect x="614.534" y="69.441" width="123.4" height="35.794" fill="#38bdf8" fill-opacity="0.34" stroke="#075985" stroke-width="1.4"/>
<text x="614.534" y="69.441" font-size="13" font-family="monospace" fill="#111827">12</text>
<rect x="779.068" y="176.823" width="41.133" height="250.559" fill="#38bdf8" fill-opacity="0.34" stroke="#075985" stroke-width="1.4"/>
<text x="779.068" y="176.823" font-size="13" font-family="monospace" fill="#111827">13</text>
<line x1="162.066" y1="640" x2="162.066" y2="0" stroke="#7c3aed" stroke-width="1.5" stroke-dasharray="8 5"/>
<line x1="0" y1="534.765" x2="162.066" y2="534.765" stroke="#7c3aed" stroke-width="1.5" stroke-dasharray="8 5"/>
<line x1="244.333" y1="640" x2="244.333" y2="0" stroke="#7c3aed" stroke-width="1.5" stroke-dasharray="8 5"/>
<line x1="737.934" y1="640" x2="737.934" y2="0" stroke="#7c3aed" stroke-width="1.5" stroke-dasharray="8 5"/>
<line x1="244.333" y1="498.971" x2="737.934" y2="498.971" stroke="#7c3aed" stroke-width="1.5" stroke-dasharray="8 5"/>
<line x1="244.333" y1="445.28" x2="737.934" y2="445.28" stroke="#7c3aed" stroke-width="1.5" stroke-dasharray="8 5"/>
<line x1="244.333" y1="320" x2="737.934" y2="320" stroke="#7c3aed" stroke-width="1.5" stroke-dasharray="8 5"/>
<line x1="408.867" y1="445.28" x2="408.867" y2="320" stroke="#7c3aed" stroke-width="1.5" stroke-dasharray="8 5"/>
<line x1="244.333" y1="248.412" x2="737.934" y2="248.412" stroke="#7c3aed" stroke-width="1.5" stroke-dasharray="8 5"/>
<line x1="491.133" y1="320" x2="491.133" y2="248.412" stroke="#7c3aed" stroke-width="1.5" stroke-dasharray="8 5"/>
<line x1="244.333" y1="176.823" x2="737.934" y2="176.823" stroke="#7c3aed" stroke-width="1.5" stroke-dasharray="8 5"/>
<line x1="244.333" y1="105.235" x2="737.934" y2="105.235" stroke="#7c3aed" stroke-width="1.5" stroke-dasharray="8 5"/>
</svg>
