<svg xmlns="http://www.w3.org/2000/svg" width="900" height="640" viewBox="0 0 900 640">
<title>Guillotine score=0.15384615384615385 saved=11 n=13</title>
<rect width="100%" height="100%" fill="#ffffff"/>
<rect x="80.792" y="542.222" width="43.436" height="34.188" fill="#38bdf8" fill-opacity="0.34" stroke="#075985" stroke-width="1.4"/>
<text x="80.792" y="542.222" font-size="13" font-family="monospace" fill="#111827">0</text>
<rect x="167.664" y="131.966" width="477.799" height="34.188" fill="#38bdf8" fill-opacity="0.34" stroke="#075985" stroke-width="1.4"/>
<text x="167.664" y="131.966" font-size="13" font-family="monospace" fill="#111827">1</text>
<rect x="211.1" y="405.47" width="43.436" height="136.752" fill="#38bdf8" fill-opacity="0.34" stroke="#075985" stroke-width="1.4"/>
<text x="211.1" y="405.47" font-size="13" font-family="monospace" fill="#111827">2</text>
<rect x="211.1" y="337.094" width="130.309" height="68.376" fill="#38bdf8" fill-opacity="0.34" stroke="#075985" stroke-width="1.4"/>
<text x="211.1" y="337.094" font-size="13" font-family="monospace" fill="#111827">3</text>
<rect x="297.973" y="508.034" width="130.309" height="34.188" fill="#38bdf8" fill-opacity="0.34" stroke="#075985" stroke-width="1.4"/>
<text x="297.973" y="508.034" font-size="13" font-family="monospace" fill="#111827">4</text>
<rect x="297.973" y="268.718" width="130.309" height="34.188" fill="#38bdf8" fill-opacity="0.34" stroke="#075985" stroke-width="1.4"/>
<text x="297.973" y="268.718" font-size="13" font-family="monospace" fill="#111827">5</text>
<rect x="341.409" y="302.906" width="43.436" height="170.94" fill="#38bdf8" fill-opacity="0.34" stroke="#075985" stroke-width="1.4"/>
<text x="341.409" y="302.906" font-size="13" font-family="monospace" fill="#111827">6</text>
<rect x="384.846" y="371.282" width="130.309" height="68.376" fill="#38bdf8" fill-opacity="0.34" stroke="#075985" stroke-width="1.4"/>
<text x="384.846" y="371.282" font-size="13" font-family="monospace" fill="#111827">7</text>
<rect x="428.282" y="268.718" width="43.436" height="68.376" fill="#38bdf8" fill-opacity="0.34" stroke="#075985" stroke-width="1.4"/>
<text x="428.282" y="268.718" font-size="13" font-family="monospace" fill="#111827">8</text>
<rect x="515.154" y="63.59" width="173.745" height="34.188" fill="#38bdf8" fill-opacity="0.34" stroke="#075985" stroke-width="1.4"/>
<text x="515.154" y="63.59" font-size="13" font-family="monospace" fill="#111827">9</text>
<rect x="558.591" y="200.342" width="43.436" height="34.188" fill="#38bdf8" fill-opacity="0.34" stroke="#075985" stroke-width="1.4"/>
<text x="558.591" y="200.342" font-size="13" font-family="monospace" fill="#111827">10</text>
<rect x="688.9" y="302.906" width="43.436" height="136.752" fill="#38bdf8" fill-opacity="0.34" stroke="#075985" stroke-width="1.4"/>
<text x="688.9" y="302.906" font-size="13" font-family="monospace" fill="#111827">11</text>
<rect x="775.772" y="166.154" width="43.436" height="341.88" fill="#38bdf8" fill-opacity="0.34" stroke="#075985" stroke-width="1.4"/>
<text x="775.772" y="166.154" font-size="13" font-family="monospace" fill="#111827">12</text>
<line x1="124.228" y1="640" x2="124.228" y2="0" stroke="#7c3aed" stroke-width="1.5" stroke-dasharray="8 5"/>
<line x1="688.9" y1="640" x2="688.9" y2="0" stroke="#7c3aed" stroke-width="1.5" stroke-dasharray="8 5"/>
<line x1="124.228" y1="508.034" x2="688.9" y2="508.034" stroke="#7c3aed" stroke-width="1.5" stroke-dasharray="8 5"/>
<line x1="124.228" y1="456.752" x2="688.9" y2="456.752" stroke="#7c3aed" stroke-width="1.5" stroke-dasharray="8 5"/>
<line x1="124.228" y1="337.094" x2="688.9" y2="337.094" stroke="#7c3aed" stroke-width="1.5" stroke-dasharray="8 5"/>
<line x1="341.409" y1="456.752" x2="341.409" y2="337.094" stroke="#7c3aed" stroke-width="1.5" stroke-dasharray="8 5"/>
<line x1="124.228" y1="268.718" x2="688.9" y2="268.718" stroke="#7c3aed" stroke-width="1.5" stroke-dasharray="8 5"/>
<line x1="428.282" y1="337.094" x2="428.282" y2="268.718" stroke="#7c3aed" stroke-width="1.5" stroke-dasharray="8 5"/>
<line x1="124.228" y1="200.342" x2="688.9" y2="200.342" stroke="#7c3aed" stroke-width="1.5" stroke-dasharray="8 5"/>
<line x1="124.228" y1="131.966" x2="688.9" y2="131.966" stroke="#7c3aed" stroke-width="1.5" stroke-dasharray="8 5"/>
<line x1="732.336" y1="640" x2="732.336" y2="0" stroke="#7c3aed" stroke-width="1.5" stroke-dasharray="8 5"/>
</svg>
