<svg xmlns="http://www.w3.org/2000/svg" width="900" height="640" viewBox="0 0 900 640">
<title>Guillotine score=0.08695652173913043 saved=21 n=23</title>
<rect width="100%" height="100%" fill="#ffffff"/>
<rect x="78.906" y="497.384" width="39.062" height="35.477" fill="#38bdf8" fill-opacity="0.34" stroke="#075985" stroke-width="1.4"/>
<text x="78.906" y="497.384" font-size="13" font-family="monospace" fill="#111827">0</text>
<rect x="78.906" y="461.907" width="156.25" height="35.477" fill="#38bdf8" fill-opacity="0.34" stroke="#075985" stroke-width="1.4"/>
<text x="78.906" y="461.907" font-size="13" font-family="monospace" fill="#111827">1</text>
<rect x="117.969" y="532.86" width="78.125" height="35.477" fill="#38bdf8" fill-opacity="0.34" stroke="#075985" stroke-width="1.4"/>
<text x="117.969" y="532.86" font-size="13" font-family="monospace" fill="#111827">2</text>
<rect x="117.969" y="107.14" width="195.312" height="35.477" fill="#38bdf8" fill-opacity="0.34" stroke="#075985" stroke-width="1.4"/>
<text x="117.969" y="107.14" font-size="13" font-family="monospace" fill="#111827">3</text>
<rect x="157.031" y="426.43" width="39.062" height="35.477" fill="#38bdf8" fill-opacity="0.34" stroke="#075985" stroke-width="1.4"/>
<text x="157.031" y="426.43" font-size="13" font-family="monospace" fill="#111827">4</text>
<rect x="196.094" y="532.86" width="39.062" height="35.477" fill="#38bdf8" fill-opacity="0.34" stroke="#075985" stroke-width="1.4"/>
<text x="196.094" y="532.86" font-size="13" font-family="monospace" fill="#111827">5</text>
<rect x="196.094" y="355.477" width="78.125" height="35.477" fill="#38bdf8" fill-opacity="0.34" stroke="#075985" stroke-width="1.4"/>
<text x="196.094" y="355.477" font-size="13" font-family="monospace" fill="#111827">6</text>
<rect x="196.094" y="284.523" width="39.062" height="35.477" fill="#38bdf8" fill-opacity="0.34" stroke="#075985" stroke-width="1.4"/>
<text x="196.094" y="284.523" font-size="13" font-family="monospace" fill="#111827">7</text>
<rect x="235.156" y="532.86" width="39.062" height="35.477" fill="#38bdf8" fill-opacity="0.34" stroke="#075985" stroke-width="1.4"/>
<text x="235.156" y="532.86" font-size="13" font-family="monospace" fill="#111827">8</text>
<rect x="235.156" y="426.43" width="78.125" height="35.477" fill="#38bdf8" fill-opacity="0.34" stroke="#075985" stroke-width="1.4"/>
<text x="235.156" y="426.43" font-size="13" font-family="monospace" fill="#111827">9</text>
<rect x="313.281" y="532.86" width="39.062" height="35.477" fill="#38bdf8" fill-opacity="0.34" stroke="#075985" stroke-width="1.4"/>
<text x="313.281" y="532.86" font-size="13" font-family="monospace" fill="#111827">10</text>
<rect x="352.344" y="532.86" width="39.062" height="35.477" fill="#38bdf8" fill-opacity="0.34" stroke="#075985" stroke-width="1.4"/>
<text x="352.344" y="532.86" font-size="13" font-family="monospace" fill="#111827">11</text>
<rect x="352.344" y="461.907" width="39.062" height="35.477" fill="#38bdf8" fill-opacity="0.34" stroke="#075985" stroke-width="1.4"/>
<text x="352.344" y="461.907" font-size="13" font-family="monospace" fill="#111827">12</text>
<rect x="391.406" y="532.86" width="39.062" height="35.477" fill="#38bdf8" fill-opacity="0.34" stroke="#075985" stroke-width="1.4"/>
<text x="391.406" y="532.86" font-size="13" font-family="monospace" fill="#111827">13</text>
<rect x="469.531" y="390.953" width="39.062" height="141.907" fill="#38bdf8" fill-opacity="0.34" stroke="#075985" stroke-width="1.4"/>
<text x="469.531" y="390.953" font-size="13" font-family="monospace" fill="#111827">14</text>
<rect x="469.531" y="320" width="117.188" height="70.953" fill="#38bdf8" fill-opacity="0.34" stroke="#075985" stroke-width="1.4"/>
<text x="469.531" y="320" font-size="13" font-family="monospace" fill="#111827">15</text>
<rect x="547.656" y="497.384" width="117.188" height="35.477" fill="#38bdf8" fill-opacity="0.34" stroke="#075985" stroke-width="1.4"/>
<text x="547.656" y="497.384" font-size="13" font-family="monospace" fill="#111827">16</text>
<rect x="586.719" y="284.523" width="39.062" height="177.384" fill="#38bdf8" fill-opacity="0.34" stroke="#075985" stroke-width="1.4"/>
<text x="586.719" y="284.523" font-size="13" font-family="monospace" fill="#111827">17</text>
<rect x="586.719" y="249.047" width="117.188" height="35.477" fill="#38bdf8" fill-opacity="0.34" stroke="#075985" stroke-width="1.4"/>
<text x="586.719" y="249.047" font-size="13" font-family="monospace" fill="#111827">18</text>
<rect x="586.719" y="71.663" width="78.125" height="141.907" fill="#38bdf8" fill-opacity="0.34" stroke="#075985" stroke-width="1.4"/>
<text x="586.719" y="71.663" font-size="13" font-family="monospace" fill="#111827">19</text>
<rect x="625.781" y="355.477" width="117.188" height="70.953" fill="#38bdf8" fill-opacity="0.34" stroke="#075985" stroke-width="1.4"/>
<text x="625.781" y="355.477" font-size="13" font-family="monospace" fill="#111827">20</text>
<rect x="703.906" y="249.047" width="39.062" height="70.953" fill="#38bdf8" fill-opacity="0.34" stroke="#075985" stroke-width="1.4"/>
<text x="703.906" y="249.047" font-size="13" font-family="monospace" fill="#111827">21</text>
<rect x="782.031" y="178.093" width="39.062" height="35.477" fill="#38bdf8" fill-opacity="0.34" stroke="#075985" stroke-width="1.4"/>
<text x="782.031" y="178.093" font-size="13" font-family="monospace" fill="#111827">22</text>
<line x1="313.281" y1="640" x2="313.281" y2="0" stroke="#7c3aed" stroke-width="1.5" stroke-dasharray="8 5"/>
<line x1="0" y1="532.86" x2="313.281" y2="532.86" stroke="#7c3aed" stroke-width="1.5" stroke-dasharray="8 5"/>
<line x1="196.094" y1="640" x2="196.094" y2="532.86" stroke="#7c3aed" stroke-width="1.5" stroke-dasharray="8 5"/>
<line x1="235.156" y1="640" x2="235.156" y2="532.86" stroke="#7c3aed" stroke-width="1.5" stroke-dasharray="8 5"/>
<line x1="0" y1="497.384" x2="313.281" y2="497.384" stroke="#7c3aed" stroke-width="1.5" stroke-dasharray="8 5"/>
<line x1="0" y1="461.907" x2="313.281" y2="461.907" stroke="#7c3aed" stroke-width="1.5" stroke-dasharray="8 5"/>
<line x1="0" y1="426.43" x2="313.281" y2="426.43" stroke="#7c3aed" stroke-width="1.5" stroke-dasharray="8 5"/>
<line x1="196.094" y1="461.907" x2="196.094" y2="426.43" stroke="#7c3aed" stroke-width="1.5" stroke-dasharray="8 5"/>
<line x1="0" y1="355.477" x2="313.281" y2="355.477" stroke="#7c3aed" stroke-width="1.5" stroke-dasharray="8 5"/>
<line x1="0" y1="284.523" x2="313.281" y2="284.523" stroke="#7c3aed" stroke-width="1.5" stroke-dasharray="8 5"/>
<line x1="352.344" y1="640" x2="352.344" y2="0" stroke="#7c3aed" stroke-width="1.5" stroke-dasharray="8 5"/>
<line x1="391.406" y1="640" x2="391.406" y2="0" stroke="#7c3aed" stroke-width="1.5" stroke-dasharray="8 5"/>
<line x1="352.344" y1="532.86" x2="391.406" y2="532.86" stroke="#7c3aed" stroke-width="1.5" stroke-dasharray="8 5"/>
<line x1="430.469" y1="640" x2="430.469" y2="0" stroke="#7c3aed" stroke-width="1.5" stroke-dasharray="8 5"/>
<line x1="508.594" y1="640" x2="508.594" y2="0" stroke="#7c3aed" stroke-width="1.5" stroke-dasharray="8 5"/>
<line x1="703.906" y1="640" x2="703.906" y2="0" stroke="#7c3aed" stroke-width="1.5" stroke-dasharray="8 5"/>
<line x1="508.594" y1="497.384" x2="703.906" y2="497.384" stroke="#7c3aed" stroke-width="1.5" stroke-dasharray="8 5"/>
<line x1="508.594" y1="284.523" x2="703.906" y2="284.523" stroke="#7c3aed" stroke-width="1.5" stroke-dasharray="8 5"/>
<line x1="508.594" y1="249.047" x2="703.906" y2="249.047" stroke="#7c3aed" stroke-width="1.5" stroke-dasharray="8 5"/>
<line x1="742.969" y1="640" x2="742.969" y2="0" stroke="#7c3aed" stroke-width="1.5" stroke-dasharray="8 5"/>
</svg>
