<svg xmlns="http://www.w3.org/2000/svg" width="900" height="640" viewBox="0 0 900 640">
<title>Guillotine score=0.22727272727272727 saved=17 n=22</title>
<rect width="100%" height="100%" fill="#ffffff"/>
<rect x="80.542" y="433.565" width="36.946" height="151.42" fill="#38bdf8" fill-opacity="0.34" stroke="#075985" stroke-width="1.4"/>
<text x="80.542" y="433.565" font-size="13" font-family="monospace" fill="#111827">0</text>
<rect x="80.542" y="105.489" width="73.892" height="328.076" fill="#38bdf8" fill-opacity="0.34" stroke="#075985" stroke-width="1.4"/>
<text x="80.542" y="105.489" font-size="13" font-family="monospace" fill="#111827">1</text>
<rect x="117.488" y="559.748" width="147.783" height="25.237" fill="#38bdf8" fill-opacity="0.34" stroke="#075985" stroke-width="1.4"/>
<text x="117.488" y="559.748" font-size="13" font-family="monospace" fill="#111827">2</text>
<rect x="117.488" y="534.511" width="147.783" height="25.237" fill="#38bdf8" fill-opacity="0.34" stroke="#075985" stroke-width="1.4"/>
<text x="117.488" y="534.511" font-size="13" font-family="monospace" fill="#111827">3</text>
<rect x="117.488" y="433.565" width="36.946" height="100.946" fill="#38bdf8" fill-opacity="0.34" stroke="#075985" stroke-width="1.4"/>
<text x="117.488" y="433.565" font-size="13" font-family="monospace" fill="#111827">4</text>
<rect x="154.433" y="105.489" width="36.946" height="378.549" fill="#38bdf8" fill-opacity="0.34" stroke="#075985" stroke-width="1.4"/>
<text x="154.433" y="105.489" font-size="13" font-family="monospace" fill="#111827">5</text>
<rect x="191.379" y="458.801" width="369.458" height="50.473" fill="#38bdf8" fill-opacity="0.34" stroke="#075985" stroke-width="1.4"/>
<text x="191.379" y="458.801" font-size="13" font-family="monospace" fill="#111827">6</text>
<rect x="191.379" y="408.328" width="332.512" height="50.473" fill="#38bdf8" fill-opacity="0.34" stroke="#075985" stroke-width="1.4"/>
<text x="191.379" y="408.328" font-size="13" font-family="monospace" fill="#111827">7</text>
<rect x="228.325" y="105.489" width="258.621" height="100.946" fill="#38bdf8" fill-opacity="0.34" stroke="#075985" stroke-width="1.4"/>
<text x="228.325" y="105.489" font-size="13" font-family="monospace" fill="#111827">8</text>
<rect x="302.217" y="206.435" width="36.946" height="201.893" fill="#38bdf8" fill-opacity="0.34" stroke="#075985" stroke-width="1.4"/>
<text x="302.217" y="206.435" font-size="13" font-family="monospace" fill="#111827">9</text>
<rect x="339.163" y="509.274" width="221.675" height="75.71" fill="#38bdf8" fill-opacity="0.34" stroke="#075985" stroke-width="1.4"/>
<text x="339.163" y="509.274" font-size="13" font-family="monospace" fill="#111827">10</text>
<rect x="376.108" y="206.435" width="36.946" height="176.656" fill="#38bdf8" fill-opacity="0.34" stroke="#075985" stroke-width="1.4"/>
<text x="376.108" y="206.435" font-size="13" font-family="monospace" fill="#111827">11</text>
<rect x="450" y="307.382" width="221.675" height="25.237" fill="#38bdf8" fill-opacity="0.34" stroke="#075985" stroke-width="1.4"/>
<text x="450" y="307.382" font-size="13" font-family="monospace" fill="#111827">12</text>
<rect x="486.946" y="332.618" width="36.946" height="50.473" fill="#38bdf8" fill-opacity="0.34" stroke="#075985" stroke-width="1.4"/>
<text x="486.946" y="332.618" font-size="13" font-family="monospace" fill="#111827">13</text>
<rect x="486.946" y="181.199" width="147.783" height="100.946" fill="#38bdf8" fill-opacity="0.34" stroke="#075985" stroke-width="1.4"/>
<text x="486.946" y="181.199" font-size="13" font-family="monospace" fill="#111827">14</text>
<rect x="523.892" y="357.855" width="36.946" height="100.946" fill="#38bdf8" fill-opacity="0.34" stroke="#075985" stroke-width="1.4"/>
<text x="523.892" y="357.855" font-size="13" font-family="monospace" fill="#111827">15</text>
<rect x="523.892" y="332.618" width="221.675" height="25.237" fill="#38bdf8" fill-opacity="0.34" stroke="#075985" stroke-width="1.4"/>
<text x="523.892" y="332.618" font-size="13" font-family="monospace" fill="#111827">16</text>
<rect x="523.892" y="55.016" width="221.675" height="75.71" fill="#38bdf8" fill-opacity="0.34" stroke="#075985" stroke-width="1.4"/>
<text x="523.892" y="55.016" font-size="13" font-family="monospace" fill="#111827">17</text>
<rect x="560.837" y="357.855" width="73.892" height="227.129" fill="#38bdf8" fill-opacity="0.34" stroke="#075985" stroke-width="1.4"/>
<text x="560.837" y="357.855" font-size="13" font-family="monospace" fill="#111827">18</text>
<rect x="597.783" y="155.962" width="110.837" height="25.237" fill="#38bdf8" fill-opacity="0.34" stroke="#075985" stroke-width="1.4"/>
<text x="597.783" y="155.962" font-size="13" font-family="monospace" fill="#111827">19</text>
<rect x="671.675" y="231.672" width="147.783" height="25.237" fill="#38bdf8" fill-opacity="0.34" stroke="#075985" stroke-width="1.4"/>
<text x="671.675" y="231.672" font-size="13" font-family="monospace" fill="#111827">20</text>
<rect x="782.512" y="55.016" width="36.946" height="25.237" fill="#38bdf8" fill-opacity="0.34" stroke="#075985" stroke-width="1.4"/>
<text x="782.512" y="55.016" font-size="13" font-family="monospace" fill="#111827">21</text>
<line x1="117.488" y1="640" x2="117.488" y2="0" stroke="#7c3aed" stroke-width="1.5" stroke-dasharray="8 5"/>
<line x1="265.271" y1="640" x2="265.271" y2="0" stroke="#7c3aed" stroke-width="1.5" stroke-dasharray="8 5"/>
<line x1="117.488" y1="559.748" x2="265.271" y2="559.748" stroke="#7c3aed" stroke-width="1.5" stroke-dasharray="8 5"/>
<line x1="117.488" y1="534.511" x2="265.271" y2="534.511" stroke="#7c3aed" stroke-width="1.5" stroke-dasharray="8 5"/>
<line x1="154.433" y1="534.511" x2="154.433" y2="0" stroke="#7c3aed" stroke-width="1.5" stroke-dasharray="8 5"/>
<line x1="339.163" y1="640" x2="339.163" y2="0" stroke="#7c3aed" stroke-width="1.5" stroke-dasharray="8 5"/>
<line x1="357.635" y1="640" x2="357.635" y2="0" stroke="#7c3aed" stroke-width="1.5" stroke-dasharray="8 5"/>
<line x1="413.054" y1="640" x2="413.054" y2="0" stroke="#7c3aed" stroke-width="1.5" stroke-dasharray="8 5"/>
<line x1="413.054" y1="332.618" x2="900" y2="332.618" stroke="#7c3aed" stroke-width="1.5" stroke-dasharray="8 5"/>
<line x1="523.892" y1="640" x2="523.892" y2="332.618" stroke="#7c3aed" stroke-width="1.5" stroke-dasharray="8 5"/>
<line x1="523.892" y1="357.855" x2="900" y2="357.855" stroke="#7c3aed" stroke-width="1.5" stroke-dasharray="8 5"/>
<line x1="560.837" y1="640" x2="560.837" y2="357.855" stroke="#7c3aed" stroke-width="1.5" stroke-dasharray="8 5"/>
<line x1="413.054" y1="307.382" x2="900" y2="307.382" stroke="#7c3aed" stroke-width="1.5" stroke-dasharray="8 5"/>
<line x1="413.054" y1="181.199" x2="900" y2="181.199" stroke="#7c3aed" stroke-width="1.5" stroke-dasharray="8 5"/>
<line x1="634.729" y1="307.382" x2="634.729" y2="181.199" stroke="#7c3aed" stroke-width="1.5" stroke-dasharray="8 5"/>
<line x1="745.567" y1="181.199" x2="745.567" y2="0" stroke="#7c3aed" stroke-width="1.5" stroke-dasharray="8 5"/>
<line x1="413.054" y1="155.962" x2="745.567" y2="155.962" stroke="#7c3aed" stroke-width="1.5" stroke-dasharray="8 5"/>
</svg>
