<svg xmlns="http://www.w3.org/2000/svg" width="900" height="640" viewBox="0 0 900 640">
<title>Guillotine score=0.14285714285714285 saved=12 n=14</title>
<rect width="100%" height="100%" fill="#ffffff"/>
<rect x="106.25" y="233.043" width="62.5" height="347.826" fill="#38bdf8" fill-opacity="0.34" stroke="#075985" stroke-width="1.4"/>
<text x="106.25" y="233.043" font-size="13" font-family="monospace" fill="#111827">0</text>
<rect x="106.25" y="198.261" width="125" height="34.783" fill="#38bdf8" fill-opacity="0.34" stroke="#075985" stroke-width="1.4"/>
<text x="106.25" y="198.261" font-size="13" font-family="monospace" fill="#111827">1</text>
<rect x="168.75" y="406.957" width="250" height="34.783" fill="#38bdf8" fill-opacity="0.34" stroke="#075985" stroke-width="1.4"/>
<text x="168.75" y="406.957" font-size="13" font-family="monospace" fill="#111827">2</text>
<rect x="168.75" y="267.826" width="62.5" height="139.13" fill="#38bdf8" fill-opacity="0.34" stroke="#075985" stroke-width="1.4"/>
<text x="168.75" y="267.826" font-size="13" font-family="monospace" fill="#111827">3</text>
<rect x="231.25" y="476.522" width="250" height="34.783" fill="#38bdf8" fill-opacity="0.34" stroke="#075985" stroke-width="1.4"/>
<text x="231.25" y="476.522" font-size="13" font-family="monospace" fill="#111827">4</text>
<rect x="231.25" y="59.13" width="62.5" height="347.826" fill="#38bdf8" fill-opacity="0.34" stroke="#075985" stroke-width="1.4"/>
<text x="231.25" y="59.13" font-size="13" font-family="monospace" fill="#111827">5</text>
<rect x="293.75" y="233.043" width="250" height="34.783" fill="#38bdf8" fill-opacity="0.34" stroke="#075985" stroke-width="1.4"/>
<text x="293.75" y="233.043" font-size="13" font-family="monospace" fill="#111827">6</text>
<rect x="293.75" y="59.13" width="312.5" height="34.783" fill="#38bdf8" fill-opacity="0.34" stroke="#075985" stroke-width="1.4"/>
<text x="293.75" y="59.13" font-size="13" font-family="monospace" fill="#111827">7</text>
<rect x="356.25" y="511.304" width="125" height="34.783" fill="#38bdf8" fill-opacity="0.34" stroke="#075985" stroke-width="1.4"/>
<text x="356.25" y="511.304" font-size="13" font-family="monospace" fill="#111827">8</text>
<rect x="356.25" y="267.826" width="437.5" height="34.783" fill="#38bdf8" fill-opacity="0.34" stroke="#075985" stroke-width="1.4"/>
<text x="356.25" y="267.826" font-size="13" font-family="monospace" fill="#111827">9</text>
<rect x="418.75" y="337.391" width="250" height="34.783" fill="#38bdf8" fill-opacity="0.34" stroke="#075985" stroke-width="1.4"/>
<text x="418.75" y="337.391" font-size="13" font-family="monospace" fill="#111827">10</text>
<rect x="418.75" y="302.609" width="250" height="34.783" fill="#38bdf8" fill-opacity="0.34" stroke="#075985" stroke-width="1.4"/>
<text x="418.75" y="302.609" font-size="13" font-family="monospace" fill="#111827">11</text>
<rect x="543.75" y="372.174" width="62.5" height="208.696" fill="#38bdf8" fill-opacity="0.34" stroke="#075985" stroke-width="1.4"/>
<text x="543.75" y="372.174" font-size="13" font-family="monospace" fill="#111827">12</text>
<rect x="731.25" y="128.696" width="62.5" height="34.783" fill="#38bdf8" fill-opacity="0.34" stroke="#075985" stroke-width="1.4"/>
<text x="731.25" y="128.696" font-size="13" font-family="monospace" fill="#111827">13</text>
<line x1="168.75" y1="640" x2="168.75" y2="0" stroke="#7c3aed" stroke-width="1.5" stroke-dasharray="8 5"/>
<line x1="168.75" y1="563.478" x2="900" y2="563.478" stroke="#7c3aed" stroke-width="1.5" stroke-dasharray="8 5"/>
<line x1="168.75" y1="511.304" x2="900" y2="511.304" stroke="#7c3aed" stroke-width="1.5" stroke-dasharray="8 5"/>
<line x1="168.75" y1="476.522" x2="900" y2="476.522" stroke="#7c3aed" stroke-width="1.5" stroke-dasharray="8 5"/>
<line x1="168.75" y1="406.957" x2="900" y2="406.957" stroke="#7c3aed" stroke-width="1.5" stroke-dasharray="8 5"/>
<line x1="231.25" y1="406.957" x2="231.25" y2="0" stroke="#7c3aed" stroke-width="1.5" stroke-dasharray="8 5"/>
<line x1="293.75" y1="406.957" x2="293.75" y2="0" stroke="#7c3aed" stroke-width="1.5" stroke-dasharray="8 5"/>
<line x1="293.75" y1="337.391" x2="900" y2="337.391" stroke="#7c3aed" stroke-width="1.5" stroke-dasharray="8 5"/>
<line x1="293.75" y1="302.609" x2="900" y2="302.609" stroke="#7c3aed" stroke-width="1.5" stroke-dasharray="8 5"/>
<line x1="293.75" y1="267.826" x2="900" y2="267.826" stroke="#7c3aed" stroke-width="1.5" stroke-dasharray="8 5"/>
<line x1="606.25" y1="267.826" x2="606.25" y2="0" stroke="#7c3aed" stroke-width="1.5" stroke-dasharray="8 5"/>
<line x1="293.75" y1="233.043" x2="606.25" y2="233.043" stroke="#7c3aed" stroke-width="1.5" stroke-dasharray="8 5"/>
</svg>
