<svg xmlns="http://www.w3.org/2000/svg" width="900" height="640" viewBox="0 0 900 640">
<title>MISR score=1.25 alpha_lp=5.0 alpha=4</title>
<rect width="100%" height="100%" fill="#ffffff"/>
<rect x="307.143" y="126.897" width="214.286" height="165.517" fill="#60a5fa" fill-opacity="0.24" stroke="#1d4ed8" stroke-width="1.4"/>
<text x="307.143" y="126.897" font-size="13" font-family="monospace" fill="#111827">0</text>
<rect x="378.571" y="71.724" width="285.714" height="55.172" fill="#60a5fa" fill-opacity="0.24" stroke="#1d4ed8" stroke-width="1.4"/>
<text x="378.571" y="71.724" font-size="13" font-family="monospace" fill="#111827">1</text>
<rect x="92.857" y="237.241" width="357.143" height="165.517" fill="#60a5fa" fill-opacity="0.24" stroke="#1d4ed8" stroke-width="1.4"/>
<text x="92.857" y="237.241" font-size="13" font-family="monospace" fill="#111827">2</text>
<rect x="92.857" y="513.103" width="714.286" height="55.172" fill="#60a5fa" fill-opacity="0.24" stroke="#1d4ed8" stroke-width="1.4"/>
<text x="92.857" y="513.103" font-size="13" font-family="monospace" fill="#111827">3</text>
<rect x="235.714" y="347.586" width="71.429" height="165.517" fill="#22c55e" fill-opacity="0.36" stroke="#166534" stroke-width="2.0"/>
<text x="235.714" y="347.586" font-size="13" font-family="monospace" fill="#111827">4</text>
<rect x="521.429" y="292.414" width="71.429" height="220.69" fill="#22c55e" fill-opacity="0.36" stroke="#166534" stroke-width="2.0"/>
<text x="521.429" y="292.414" font-size="13" font-family="monospace" fill="#111827">5</text>
<rect x="92.857" y="126.897" width="142.857" height="110.345" fill="#60a5fa" fill-opacity="0.24" stroke="#1d4ed8" stroke-width="1.4"/>
<text x="92.857" y="126.897" font-size="13" font-family="monospace" fill="#111827">6</text>
<rect x="450" y="347.586" width="285.714" height="55.172" fill="#60a5fa" fill-opacity="0.24" stroke="#1d4ed8" stroke-width="1.4"/>
<text x="450" y="347.586" font-size="13" font-family="monospace" fill="#111827">7</text>
<rect x="92.857" y="71.724" width="214.286" height="55.172" fill="#22c55e" fill-opacity="0.36" stroke="#166534" stroke-width="2.0"/>
<text x="92.857" y="71.724" font-size="13" font-family="monospace" fill="#111827">8</text>
<rect x="664.286" y="71.724" width="71.429" height="441.379" fill="#22c55e" fill-opacity="0.36" stroke="#166534" stroke-width="2.0"/>
<text x="664.286" y="71.724" font-size="13" font-family="monospace" fill="#111827">9</text>
</svg>
